# Branch
v 230.641 -25.7209 -48.5932
v 230.634 -25.7227 -48.547
v 230.619 -25.7245 -48.5028
v 230.596 -25.7261 -48.4624
v 230.565 -25.7275 -48.4273
v 230.528 -25.7286 -48.3989
v 230.486 -25.7294 -48.3783
v 230.441 -25.7299 -48.3663
v 230.394 -25.73 -48.3633
v 230.348 -25.7298 -48.3695
v 230.304 -25.7292 -48.3846
v 230.263 -25.7283 -48.408
v 230.228 -25.7271 -48.4389
v 230.2 -25.7257 -48.4759
v 230.179 -25.724 -48.5179
v 230.167 -25.7223 -48.563
v 230.164 -25.7204 -48.6096
v 230.17 -25.7186 -48.6559
v 230.185 -25.7169 -48.7001
v 230.209 -25.7153 -48.7405
v 230.24 -25.7139 -48.7755
v 230.277 -25.7127 -48.8039
v 230.319 -25.7119 -48.8245
v 230.364 -25.7114 -48.8365
v 230.411 -25.7113 -48.8395
v 230.457 -25.7115 -48.8333
v 230.501 -25.7121 -48.8182
v 230.542 -25.713 -48.7948
v 230.577 -25.7142 -48.764
v 230.605 -25.7156 -48.7269
v 230.626 -25.7173 -48.685
v 230.638 -25.719 -48.6398
v 230.604 -24.1629 -48.533
v 230.597 -24.165 -48.4868
v 230.582 -24.1674 -48.4427
v 230.559 -24.17 -48.4025
v 230.528 -24.1727 -48.3675
v 230.491 -24.1755 -48.3393
v 230.449 -24.1781 -48.3188
v 230.404 -24.1807 -48.3069
v 230.358 -24.1829 -48.304
v 230.312 -24.1848 -48.3103
v 230.268 -24.1862 -48.3254
v 230.227 -24.1872 -48.3488
v 230.192 -24.1876 -48.3797
v 230.164 -24.1875 -48.4167
v 230.144 -24.1868 -48.4586
v 230.132 -24.1857 -48.5036
v 230.129 -24.184 -48.5501
v 230.135 -24.182 -48.5963
v 230.15 -24.1796 -48.6404
v 230.173 -24.177 -48.6806
v 230.204 -24.1743 -48.7156
v 230.241 -24.1715 -48.7438
v 230.283 -24.1688 -48.7643
v 230.328 -24.1663 -48.7762
v 230.374 -24.1641 -48.7791
v 230.42 -24.1622 -48.7728
v 230.465 -24.1608 -48.7577
v 230.505 -24.1598 -48.7343
v 230.54 -24.1594 -48.7035
v 230.568 -24.1595 -48.6664
v 230.589 -24.1601 -48.6245
v 230.601 -24.1613 -48.5795
v 230.5 -22.617 -48.4749
v 230.494 -22.6192 -48.4288
v 230.479 -22.6222 -48.3849
v 230.456 -22.6257 -48.3447
v 230.425 -22.6296 -48.3099
v 230.388 -22.6339 -48.2818
v 230.347 -22.6382 -48.2615
v 230.302 -22.6425 -48.2496
v 230.256 -22.6467 -48.2468
v 230.21 -22.6504 -48.2531
v 230.166 -22.6536 -48.2683
v 230.126 -22.6562 -48.2917
v 230.091 -22.6581 -48.3225
v 230.063 -22.6592 -48.3596
v 230.043 -22.6594 -48.4013
v 230.031 -22.6587 -48.4463
v 230.028 -22.6573 -48.4927
v 230.034 -22.655 -48.5388
v 230.049 -22.6521 -48.5827
v 230.072 -22.6486 -48.6229
v 230.103 -22.6446 -48.6577
v 230.139 -22.6404 -48.6858
v 230.181 -22.636 -48.7062
v 230.226 -22.6317 -48.718
v 230.272 -22.6276 -48.7208
v 230.318 -22.6239 -48.7145
v 230.362 -22.6206 -48.6993
v 230.402 -22.618 -48.6759
v 230.437 -22.6162 -48.6451
v 230.465 -22.6151 -48.6081
v 230.485 -22.6149 -48.5663
v 230.497 -22.6155 -48.5213
v 230.338 -21.0819 -48.418
v 230.332 -21.0843 -48.3721
v 230.317 -21.0878 -48.3283
v 230.294 -21.0921 -48.2882
v 230.264 -21.0971 -48.2536
v 230.227 -21.1026 -48.2255
v 230.186 -21.1085 -48.2053
v 230.141 -21.1144 -48.1936
v 230.095 -21.1201 -48.1908
v 230.05 -21.1255 -48.1972
v 230.006 -21.1303 -48.2123
v 229.966 -21.1343 -48.2358
v 229.932 -21.1374 -48.2666
v 229.904 -21.1395 -48.3035
v 229.883 -21.1405 -48.3453
v 229.872 -21.1403 -48.3901
v 229.869 -21.1389 -48.4364
v 229.875 -21.1365 -48.4824
v 229.89 -21.133 -48.5262
v 229.913 -21.1287 -48.5662
v 229.943 -21.1237 -48.6009
v 229.98 -21.1181 -48.6289
v 230.021 -21.1123 -48.6492
v 230.066 -21.1064 -48.6609
v 230.112 -21.1007 -48.6637
v 230.157 -21.0953 -48.6573
v 230.201 -21.0905 -48.6421
v 230.241 -21.0864 -48.6187
v 230.275 -21.0833 -48.5879
v 230.303 -21.0813 -48.5509
v 230.324 -21.0803 -48.5092
v 230.335 -21.0805 -48.4643
v 230.126 -19.5564 -48.3615
v 230.12 -19.559 -48.3157
v 230.105 -19.5629 -48.272
v 230.082 -19.568 -48.2321
v 230.052 -19.5739 -48.1975
v 230.015 -19.5806 -48.1696
v 229.974 -19.5877 -48.1494
v 229.93 -19.5949 -48.1378
v 229.884 -19.6021 -48.1351
v 229.839 -19.6088 -48.1415
v 229.796 -19.615 -48.1567
v 229.756 -19.6202 -48.1801
v 229.722 -19.6244 -48.2109
v 229.694 -19.6273 -48.2478
v 229.674 -19.6288 -48.2894
v 229.662 -19.629 -48.3342
v 229.659 -19.6277 -48.3804
v 229.665 -19.6251 -48.4262
v 229.68 -19.6212 -48.47
v 229.703 -19.6161 -48.5099
v 229.733 -19.6102 -48.5444
v 229.769 -19.6035 -48.5723
v 229.811 -19.5964 -48.5925
v 229.855 -19.5892 -48.6042
v 229.9 -19.582 -48.6068
v 229.946 -19.5753 -48.6005
v 229.989 -19.5691 -48.5853
v 230.029 -19.5639 -48.5618
v 230.063 -19.5597 -48.5311
v 230.091 -19.5568 -48.4942
v 230.111 -19.5553 -48.4525
v 230.123 -19.5551 -48.4077
v 229.87 -18.0394 -48.3044
v 229.864 -18.0422 -48.2587
v 229.85 -18.0465 -48.2151
v 229.827 -18.0522 -48.1753
v 229.797 -18.0589 -48.1408
v 229.761 -18.0665 -48.113
v 229.72 -18.0747 -48.093
v 229.676 -18.083 -48.0814
v 229.631 -18.0913 -48.0788
v 229.586 -18.0993 -48.0852
v 229.542 -18.1065 -48.1004
v 229.503 -18.1127 -48.1238
v 229.469 -18.1177 -48.1545
v 229.441 -18.1213 -48.1914
v 229.421 -18.1233 -48.2329
v 229.41 -18.1237 -48.2776
v 229.407 -18.1225 -48.3237
v 229.413 -18.1197 -48.3694
v 229.427 -18.1153 -48.413
v 229.45 -18.1097 -48.4528
v 229.48 -18.103 -48.4873
v 229.516 -18.0954 -48.5151
v 229.557 -18.0872 -48.5352
v 229.601 -18.0788 -48.5468
v 229.646 -18.0705 -48.5494
v 229.692 -18.0626 -48.543
v 229.735 -18.0554 -48.5278
v 229.774 -18.0492 -48.5044
v 229.808 -18.0442 -48.4736
v 229.836 -18.0406 -48.4368
v 229.856 -18.0386 -48.3952
v 229.867 -18.0382 -48.3505
v 229.58 -16.5296 -48.2458
v 229.574 -16.5326 -48.2002
v 229.559 -16.5373 -48.1567
v 229.537 -16.5435 -48.1171
v 229.507 -16.5508 -48.0827
v 229.471 -16.5592 -48.055
v 229.43 -16.5682 -48.035
v 229.387 -16.5775 -48.0235
v 229.342 -16.5867 -48.0209
v 229.297 -16.5955 -48.0273
v 229.254 -16.6036 -48.0425
v 229.215 -16.6106 -48.0659
v 229.181 -16.6162 -48.0966
v 229.154 -16.6203 -48.1334
v 229.134 -16.6227 -48.1749
v 229.122 -16.6233 -48.2195
v 229.119 -16.6221 -48.2655
v 229.125 -16.619 -48.3111
v 229.14 -16.6144 -48.3546
v 229.162 -16.6082 -48.3942
v 229.192 -16.6008 -48.4286
v 229.228 -16.5925 -48.4563
v 229.269 -16.5835 -48.4763
v 229.312 -16.5742 -48.4878
v 229.357 -16.565 -48.4904
v 229.402 -16.5562 -48.484
v 229.445 -16.5481 -48.4688
v 229.484 -16.5411 -48.4454
v 229.518 -16.5355 -48.4147
v 229.545 -16.5314 -48.3779
v 229.565 -16.529 -48.3364
v 229.577 -16.5284 -48.2918
v 229.262 -15.0259 -48.1849
v 229.256 -15.0291 -48.1394
v 229.242 -15.034 -48.096
v 229.219 -15.0406 -48.0564
v 229.19 -15.0485 -48.0222
v 229.154 -15.0575 -47.9946
v 229.114 -15.0671 -47.9746
v 229.07 -15.0771 -47.9632
v 229.025 -15.087 -47.9606
v 228.981 -15.0964 -47.967
v 228.938 -15.1051 -47.9822
v 228.899 -15.1126 -48.0056
v 228.866 -15.1187 -48.0362
v 228.838 -15.1232 -48.073
v 228.819 -15.1258 -48.1144
v 228.807 -15.1265 -48.1589
v 228.804 -15.1252 -48.2047
v 228.81 -15.122 -48.2502
v 228.824 -15.1171 -48.2936
v 228.847 -15.1105 -48.3332
v 228.877 -15.1026 -48.3674
v 228.912 -15.0936 -48.3951
v 228.953 -15.084 -48.415
v 228.996 -15.074 -48.4264
v 229.041 -15.0641 -48.429
v 229.085 -15.0546 -48.4226
v 229.128 -15.046 -48.4074
v 229.167 -15.0385 -48.384
v 229.201 -15.0323 -48.3534
v 229.228 -15.0279 -48.3167
v 229.248 -15.0253 -48.2753
v 229.259 -15.0246 -48.2308
v 228.925 -13.527 -48.1206
v 228.919 -13.5303 -48.0752
v 228.905 -13.5355 -48.032
v 228.882 -13.5424 -47.9925
v 228.853 -13.5507 -47.9583
v 228.817 -13.5601 -47.9308
v 228.777 -13.5701 -47.9109
v 228.734 -13.5806 -47.8995
v 228.69 -13.5909 -47.897
v 228.645 -13.6008 -47.9034
v 228.603 -13.6099 -47.9186
v 228.564 -13.6177 -47.9419
v 228.531 -13.6241 -47.9725
v 228.503 -13.6287 -48.0092
v 228.484 -13.6314 -48.0505
v 228.472 -13.6321 -48.0949
v 228.469 -13.6308 -48.1406
v 228.475 -13.6274 -48.186
v 228.489 -13.6222 -48.2293
v 228.512 -13.6153 -48.2688
v 228.541 -13.607 -48.3029
v 228.577 -13.5977 -48.3304
v 228.617 -13.5876 -48.3503
v 228.66 -13.5772 -48.3617
v 228.705 -13.5668 -48.3643
v 228.749 -13.5569 -48.3578
v 228.791 -13.5479 -48.3426
v 228.83 -13.54 -48.3193
v 228.864 -13.5336 -48.2887
v 228.891 -13.529 -48.2521
v 228.911 -13.5263 -48.2108
v 228.922 -13.5256 -48.1664
v 228.576 -12.0316 -48.0522
v 228.57 -12.0351 -48.0069
v 228.556 -12.0405 -47.9637
v 228.534 -12.0476 -47.9244
v 228.504 -12.0562 -47.8903
v 228.469 -12.0658 -47.8628
v 228.429 -12.0761 -47.843
v 228.386 -12.0868 -47.8317
v 228.342 -12.0974 -47.8291
v 228.297 -12.1075 -47.8356
v 228.255 -12.1167 -47.8507
v 228.217 -12.1247 -47.874
v 228.183 -12.1311 -47.9045
v 228.156 -12.1358 -47.9411
v 228.136 -12.1384 -47.9823
v 228.125 -12.1391 -48.0266
v 228.122 -12.1376 -48.0723
v 228.128 -12.1341 -48.1175
v 228.142 -12.1287 -48.1607
v 228.164 -12.1216 -48.2
v 228.194 -12.113 -48.2341
v 228.229 -12.1034 -48.2616
v 228.269 -12.0931 -48.2814
v 228.312 -12.0824 -48.2927
v 228.356 -12.0718 -48.2953
v 228.401 -12.0617 -48.2888
v 228.443 -12.0525 -48.2737
v 228.481 -12.0445 -48.2504
v 228.515 -12.0381 -48.2199
v 228.542 -12.0334 -48.1833
v 228.562 -12.0307 -48.1421
v 228.573 -12.0301 -48.0978
v 228.223 -10.5386 -47.9786
v 228.218 -10.5423 -47.9334
v 228.203 -10.5478 -47.8904
v 228.181 -10.5551 -47.8511
v 228.152 -10.5637 -47.8172
v 228.117 -10.5734 -47.7898
v 228.077 -10.5838 -47.77
v 228.034 -10.5945 -47.7587
v 227.99 -10.6051 -47.7562
v 227.946 -10.6152 -47.7626
v 227.903 -10.6243 -47.7777
v 227.865 -10.6322 -47.8009
v 227.831 -10.6386 -47.8313
v 227.804 -10.6431 -47.8678
v 227.785 -10.6456 -47.9089
v 227.773 -10.6461 -47.9531
v 227.77 -10.6444 -47.9987
v 227.776 -10.6408 -48.0438
v 227.79 -10.6352 -48.0869
v 227.812 -10.628 -48.1261
v 227.841 -10.6193 -48.1601
v 227.877 -10.6096 -48.1875
v 227.917 -10.5992 -48.2073
v 227.959 -10.5885 -48.2186
v 228.004 -10.578 -48.2211
v 228.048 -10.5679 -48.2147
v 228.09 -10.5587 -48.1996
v 228.129 -10.5508 -48.1764
v 228.162 -10.5445 -48.1459
v 228.189 -10.54 -48.1095
v 228.209 -10.5375 -48.0683
v 228.22 -10.537 -48.0242
v 227.874 -9.04681 -47.8991
v 227.869 -9.05062 -47.854
v 227.854 -9.05628 -47.8111
v 227.832 -9.06355 -47.7719
v 227.803 -9.07217 -47.738
v 227.768 -9.0818 -47.7107
v 227.728 -9.09207 -47.691
v 227.685 -9.10259 -47.6796
v 227.641 -9.11295 -47.6771
v 227.597 -9.12276 -47.6835
v 227.555 -9.13163 -47.6986
v 227.516 -9.13923 -47.7217
v 227.483 -9.14526 -47.7521
v 227.456 -9.14949 -47.7884
v 227.436 -9.15177 -47.8295
v 227.424 -9.15199 -47.8735
v 227.421 -9.15016 -47.919
v 227.427 -9.14635 -47.964
v 227.441 -9.14069 -48.0069
v 227.463 -9.13342 -48.0461
v 227.493 -9.1248 -48.08
v 227.528 -9.11517 -48.1074
v 227.568 -9.1049 -48.1271
v 227.61 -9.09438 -48.1384
v 227.655 -9.08402 -48.1409
v 227.699 -9.07421 -48.1345
v 227.741 -9.06534 -48.1195
v 227.779 -9.05775 -48.0963
v 227.813 -9.05171 -48.066
v 227.84 -9.04748 -48.0296
v 227.86 -9.0452 -47.9886
v 227.871 -9.04498 -47.9445
v 227.537 -7.55488 -47.8127
v 227.531 -7.55884 -47.7677
v 227.517 -7.56454 -47.7249
v 227.495 -7.57177 -47.6858
v 227.466 -7.58025 -47.652
v 227.43 -7.58965 -47.6247
v 227.391 -7.59961 -47.605
v 227.348 -7.60975 -47.5937
v 227.304 -7.61967 -47.5912
v 227.259 -7.62901 -47.5975
v 227.217 -7.63739 -47.6125
v 227.179 -7.6445 -47.6356
v 227.145 -7.65006 -47.6658
v 227.118 -7.65386 -47.7021
v 227.098 -7.65576 -47.743
v 227.087 -7.65568 -47.7869
v 227.084 -7.65361 -47.8322
v 227.089 -7.64966 -47.8772
v 227.104 -7.64395 -47.92
v 227.126 -7.63673 -47.9591
v 227.155 -7.62825 -47.9929
v 227.19 -7.61885 -48.0202
v 227.23 -7.60889 -48.0399
v 227.273 -7.59875 -48.0512
v 227.317 -7.58882 -48.0538
v 227.361 -7.57949 -48.0474
v 227.403 -7.57111 -48.0324
v 227.441 -7.564 -48.0093
v 227.475 -7.55843 -47.9791
v 227.502 -7.55463 -47.9428
v 227.522 -7.55274 -47.9019
v 227.534 -7.55282 -47.858
v 227.215 -6.06117 -47.7192
v 227.209 -6.06525 -47.6744
v 227.195 -6.07096 -47.6317
v 227.173 -6.07811 -47.5927
v 227.144 -6.0864 -47.5589
v 227.109 -6.09552 -47.5317
v 227.069 -6.10513 -47.512
v 227.026 -6.11485 -47.5007
v 226.982 -6.12431 -47.4982
v 226.938 -6.13314 -47.5045
v 226.896 -6.14101 -47.5194
v 226.857 -6.14761 -47.5424
v 226.824 -6.15269 -47.5725
v 226.796 -6.15606 -47.6087
v 226.777 -6.15758 -47.6495
v 226.765 -6.1572 -47.6933
v 226.762 -6.15493 -47.7385
v 226.767 -6.15086 -47.7833
v 226.782 -6.14514 -47.826
v 226.804 -6.138 -47.865
v 226.833 -6.1297 -47.8988
v 226.868 -6.12058 -47.926
v 226.907 -6.11097 -47.9457
v 226.95 -6.10125 -47.957
v 226.995 -6.09179 -47.9596
v 227.039 -6.08296 -47.9533
v 227.081 -6.07509 -47.9383
v 227.119 -6.06849 -47.9153
v 227.153 -6.06341 -47.8852
v 227.18 -6.06004 -47.849
v 227.2 -6.05852 -47.8083
v 227.211 -6.0589 -47.7644
v 226.908 -4.56527 -47.62
v 226.902 -4.56942 -47.5753
v 226.888 -4.57512 -47.5326
v 226.866 -4.58216 -47.4937
v 226.837 -4.59025 -47.46
v 226.802 -4.5991 -47.4328
v 226.762 -4.60835 -47.4132
v 226.72 -4.61766 -47.4019
v 226.675 -4.62666 -47.3993
v 226.631 -4.63502 -47.4055
v 226.589 -4.6424 -47.4204
v 226.551 -4.64853 -47.4433
v 226.517 -4.65317 -47.4734
v 226.49 -4.65614 -47.5094
v 226.47 -4.65733 -47.5501
v 226.458 -4.6567 -47.5938
v 226.455 -4.65425 -47.6389
v 226.461 -4.6501 -47.6836
v 226.475 -4.6444 -47.7262
v 226.497 -4.63737 -47.7651
v 226.526 -4.62927 -47.7988
v 226.561 -4.62043 -47.826
v 226.601 -4.61117 -47.8456
v 226.644 -4.60187 -47.857
v 226.688 -4.59286 -47.8596
v 226.732 -4.58451 -47.8533
v 226.774 -4.57712 -47.8384
v 226.813 -4.57099 -47.8155
v 226.846 -4.56635 -47.7855
v 226.873 -4.56338 -47.7494
v 226.893 -4.56219 -47.7088
v 226.905 -4.56283 -47.665
v 226.616 -3.0671 -47.5161
v 226.611 -3.07129 -47.4715
v 226.597 -3.07695 -47.429
v 226.575 -3.08385 -47.3901
v 226.546 -3.09173 -47.3565
v 226.51 -3.10029 -47.3294
v 226.471 -3.10919 -47.3098
v 226.428 -3.1181 -47.2984
v 226.384 -3.12667 -47.2958
v 226.34 -3.13457 -47.3021
v 226.298 -3.1415 -47.3169
v 226.259 -3.14719 -47.3397
v 226.226 -3.15143 -47.3696
v 226.198 -3.15405 -47.4056
v 226.179 -3.15495 -47.4461
v 226.167 -3.15409 -47.4897
v 226.164 -3.15152 -47.5347
v 226.169 -3.14732 -47.5793
v 226.183 -3.14166 -47.6218
v 226.205 -3.13476 -47.6606
v 226.234 -3.12688 -47.6943
v 226.269 -3.11833 -47.7214
v 226.309 -3.10943 -47.741
v 226.352 -3.10052 -47.7524
v 226.396 -3.09195 -47.755
v 226.44 -3.08405 -47.7487
v 226.482 -3.07712 -47.7339
v 226.521 -3.07142 -47.7111
v 226.554 -3.06719 -47.6812
v 226.581 -3.06457 -47.6452
v 226.601 -3.06367 -47.6047
v 226.613 -3.06452 -47.5611
v 226.338 -1.56658 -47.409
v 226.333 -1.57079 -47.3645
v 226.319 -1.57637 -47.322
v 226.297 -1.58312 -47.2833
v 226.268 -1.59077 -47.2497
v 226.233 -1.59903 -47.2226
v 226.193 -1.60758 -47.203
v 226.15 -1.6161 -47.1917
v 226.106 -1.62424 -47.1891
v 226.062 -1.63172 -47.1952
v 226.02 -1.63822 -47.21
v 225.982 -1.64352 -47.2327
v 225.948 -1.64739 -47.2626
v 225.921 -1.6497 -47.2984
v 225.901 -1.65035 -47.3389
v 225.889 -1.64932 -47.3823
v 225.886 -1.64665 -47.4272
v 225.892 -1.64244 -47.4717
v 225.906 -1.63686 -47.5141
v 225.928 -1.63011 -47.5529
v 225.957 -1.62246 -47.5864
v 225.992 -1.6142 -47.6135
v 226.031 -1.60565 -47.6331
v 226.074 -1.59714 -47.6445
v 226.118 -1.58899 -47.6471
v 226.162 -1.58152 -47.6409
v 226.205 -1.57501 -47.6262
v 226.243 -1.56972 -47.6034
v 226.277 -1.56584 -47.5736
v 226.304 -1.56354 -47.5377
v 226.324 -1.56288 -47.4973
v 226.335 -1.56391 -47.4538
v 226.074 -0.0636491 -47.2998
v 226.069 -0.0678337 -47.2554
v 226.055 -0.0733164 -47.2131
v 226.033 -0.0798868 -47.1744
v 226.004 -0.0872921 -47.1409
v 225.969 -0.0952478 -47.1138
v 225.929 -0.103448 -47.0942
v 225.886 -0.111578 -47.0829
v 225.842 -0.119326 -47.0803
v 225.798 -0.126392 -47.0864
v 225.756 -0.132507 -47.1011
v 225.718 -0.137434 -47.1237
v 225.684 -0.140985 -47.1535
v 225.657 -0.143023 -47.1892
v 225.637 -0.143469 -47.2296
v 225.626 -0.142307 -47.2729
v 225.622 -0.139582 -47.3177
v 225.628 -0.135397 -47.3621
v 225.642 -0.129914 -47.4044
v 225.664 -0.123344 -47.4431
v 225.693 -0.115939 -47.4766
v 225.728 -0.107983 -47.5037
v 225.767 -0.0997826 -47.5232
v 225.81 -0.0916526 -47.5346
v 225.854 -0.0839054 -47.5372
v 225.898 -0.0768388 -47.5311
v 225.94 -0.0707244 -47.5164
v 225.979 -0.0657971 -47.4937
v 226.012 -0.0622463 -47.464
v 226.04 -0.0602084 -47.4282
v 226.059 -0.0597618 -47.3879
v 226.071 -0.0609235 -47.3445
v 225.823 1.44177 -47.1899
v 225.817 1.43765 -47.1456
v 225.803 1.4323 -47.1033
v 225.781 1.42592 -47.0647
v 225.752 1.41878 -47.0313
v 225.717 1.41113 -47.0043
v 225.678 1.40328 -46.9847
v 225.635 1.39553 -46.9734
v 225.591 1.38816 -46.9707
v 225.547 1.38148 -46.9768
v 225.505 1.37573 -46.9914
v 225.467 1.37113 -47.014
v 225.433 1.36786 -47.0437
v 225.406 1.36605 -47.0793
v 225.386 1.36577 -47.1196
v 225.375 1.36702 -47.1628
v 225.371 1.36977 -47.2074
v 225.377 1.37389 -47.2517
v 225.391 1.37925 -47.294
v 225.413 1.38562 -47.3326
v 225.442 1.39276 -47.3661
v 225.477 1.40041 -47.3931
v 225.516 1.40826 -47.4126
v 225.559 1.41602 -47.4239
v 225.603 1.42338 -47.4266
v 225.647 1.43006 -47.4205
v 225.689 1.43582 -47.4059
v 225.728 1.44041 -47.3833
v 225.761 1.44368 -47.3536
v 225.788 1.44549 -47.318
v 225.808 1.44577 -47.2778
v 225.82 1.44452 -47.2345
v 225.584 2.94976 -47.0805
v 225.578 2.94573 -47.0363
v 225.564 2.94054 -46.9941
v 225.542 2.93439 -46.9556
v 225.513 2.92751 -46.9222
v 225.478 2.92019 -46.8952
v 225.439 2.91268 -46.8757
v 225.396 2.90529 -46.8644
v 225.352 2.8983 -46.8617
v 225.308 2.89197 -46.8678
v 225.266 2.88655 -46.8823
v 225.228 2.88224 -46.9048
v 225.194 2.87922 -46.9344
v 225.167 2.8776 -46.97
v 225.148 2.87744 -47.0101
v 225.136 2.87874 -47.0532
v 225.133 2.88147 -47.0978
v 225.138 2.8855 -47.142
v 225.152 2.89069 -47.1841
v 225.174 2.89684 -47.2227
v 225.203 2.90371 -47.256
v 225.238 2.91104 -47.283
v 225.278 2.91855 -47.3025
v 225.32 2.92594 -47.3139
v 225.364 2.93293 -47.3166
v 225.408 2.93926 -47.3105
v 225.45 2.94468 -47.2959
v 225.488 2.94899 -47.2734
v 225.522 2.95201 -47.2438
v 225.549 2.95363 -47.2083
v 225.569 2.95379 -47.1682
v 225.58 2.95249 -47.125
v 225.356 4.46039 -46.9729
v 225.35 4.45648 -46.9288
v 225.336 4.45148 -46.8867
v 225.315 4.44557 -46.8483
v 225.286 4.43899 -46.815
v 225.251 4.43198 -46.788
v 225.211 4.42482 -46.7685
v 225.169 4.41779 -46.7572
v 225.125 4.41114 -46.7545
v 225.081 4.40515 -46.7605
v 225.039 4.40003 -46.775
v 225.001 4.39598 -46.7975
v 224.967 4.39317 -46.827
v 224.94 4.39169 -46.8624
v 224.92 4.39161 -46.9024
v 224.909 4.39293 -46.9455
v 224.906 4.39559 -46.9899
v 224.911 4.3995 -47.034
v 224.925 4.4045 -47.0761
v 224.947 4.41041 -47.1145
v 224.976 4.41699 -47.1479
v 225.011 4.424 -47.1748
v 225.05 4.43116 -47.1943
v 225.093 4.43819 -47.2056
v 225.137 4.44484 -47.2083
v 225.181 4.45083 -47.2023
v 225.223 4.45595 -47.1878
v 225.261 4.46 -47.1654
v 225.294 4.46281 -47.1359
v 225.321 4.46429 -47.1004
v 225.341 4.46437 -47.0604
v 225.353 4.46305 -47.0174
v 225.139 5.97373 -46.8684
v 225.134 5.96998 -46.8244
v 225.12 5.96519 -46.7824
v 225.098 5.95955 -46.744
v 225.069 5.95327 -46.7108
v 225.034 5.94659 -46.6839
v 224.995 5.93978 -46.6644
v 224.952 5.93309 -46.6531
v 224.908 5.92678 -46.6504
v 224.864 5.92109 -46.6563
v 224.823 5.91624 -46.6708
v 224.784 5.91242 -46.6932
v 224.751 5.90977 -46.7226
v 224.724 5.9084 -46.758
v 224.704 5.90836 -46.7979
v 224.693 5.90964 -46.8408
v 224.689 5.91221 -46.8852
v 224.695 5.91596 -46.9292
v 224.709 5.92075 -46.9712
v 224.731 5.92639 -47.0096
v 224.76 5.93267 -47.0428
v 224.795 5.93934 -47.0697
v 224.834 5.94616 -47.0892
v 224.877 5.95285 -47.1005
v 224.921 5.95916 -47.1032
v 224.964 5.96485 -47.0973
v 225.006 5.9697 -47.0828
v 225.044 5.97352 -47.0604
v 225.078 5.97617 -47.031
v 225.105 5.97754 -46.9956
v 225.124 5.97758 -46.9557
v 225.136 5.97629 -46.9128
v 224.933 7.48985 -46.7683
v 224.927 7.48629 -46.7244
v 224.913 7.48175 -46.6825
v 224.891 7.47639 -46.6442
v 224.862 7.47043 -46.611
v 224.828 7.46409 -46.5841
v 224.788 7.45762 -46.5647
v 224.746 7.45127 -46.5533
v 224.702 7.44527 -46.5506
v 224.658 7.43986 -46.5566
v 224.616 7.43526 -46.571
v 224.578 7.43162 -46.5933
v 224.545 7.4291 -46.6226
v 224.518 7.4278 -46.6579
v 224.498 7.42775 -46.6977
v 224.487 7.42897 -46.7406
v 224.484 7.4314 -46.7848
v 224.489 7.43496 -46.8287
v 224.503 7.43951 -46.8707
v 224.525 7.44486 -46.909
v 224.554 7.45082 -46.9422
v 224.589 7.45716 -46.969
v 224.628 7.46363 -46.9885
v 224.67 7.46999 -46.9998
v 224.714 7.47598 -47.0025
v 224.758 7.48139 -46.9966
v 224.8 7.486 -46.9822
v 224.838 7.48963 -46.9599
v 224.871 7.49215 -46.9305
v 224.898 7.49346 -46.8952
v 224.918 7.4935 -46.8554
v 224.93 7.49228 -46.8126
v 224.736 9.00883 -46.6738
v 224.73 9.0055 -46.63
v 224.716 9.00122 -46.5882
v 224.694 8.99618 -46.5499
v 224.665 8.99055 -46.5168
v 224.631 8.98455 -46.49
v 224.591 8.97842 -46.4705
v 224.549 8.97239 -46.4592
v 224.505 8.96669 -46.4565
v 224.461 8.96155 -46.4624
v 224.42 8.95715 -46.4768
v 224.382 8.95367 -46.499
v 224.348 8.95124 -46.5283
v 224.322 8.94996 -46.5635
v 224.302 8.94987 -46.6032
v 224.29 8.95098 -46.646
v 224.287 8.95324 -46.6901
v 224.293 8.95657 -46.734
v 224.307 8.96084 -46.7758
v 224.329 8.96589 -46.814
v 224.358 8.97152 -46.8472
v 224.392 8.97752 -46.874
v 224.432 8.98365 -46.8934
v 224.474 8.98968 -46.9047
v 224.518 8.99538 -46.9075
v 224.562 9.00052 -46.9015
v 224.603 9.00492 -46.8872
v 224.641 9.0084 -46.8649
v 224.675 9.01083 -46.8357
v 224.701 9.01211 -46.8005
v 224.721 9.0122 -46.7607
v 224.733 9.01109 -46.718
v 224.547 10.5309 -46.5859
v 224.542 10.5278 -46.5422
v 224.528 10.5237 -46.5004
v 224.506 10.5189 -46.4623
v 224.477 10.5136 -46.4292
v 224.442 10.5079 -46.4024
v 224.403 10.502 -46.383
v 224.361 10.4962 -46.3717
v 224.317 10.4907 -46.369
v 224.273 10.4858 -46.3749
v 224.232 10.4815 -46.3892
v 224.194 10.4781 -46.4114
v 224.161 10.4757 -46.4406
v 224.134 10.4744 -46.4757
v 224.114 10.4743 -46.5154
v 224.103 10.4753 -46.558
v 224.1 10.4774 -46.6021
v 224.105 10.4805 -46.6458
v 224.119 10.4845 -46.6876
v 224.141 10.4893 -46.7257
v 224.17 10.4947 -46.7588
v 224.205 10.5004 -46.7856
v 224.244 10.5062 -46.805
v 224.286 10.512 -46.8163
v 224.33 10.5175 -46.819
v 224.373 10.5225 -46.8131
v 224.415 10.5267 -46.7988
v 224.453 10.5301 -46.7766
v 224.486 10.5325 -46.7474
v 224.513 10.5338 -46.7123
v 224.533 10.534 -46.6727
v 224.544 10.533 -46.63
v 224.361 12.0552 -46.5016
v 224.355 12.0521 -46.4579
v 224.341 12.048 -46.4163
v 224.32 12.0432 -46.3782
v 224.291 12.0379 -46.3452
v 224.256 12.0321 -46.3185
v 224.217 12.0262 -46.2992
v 224.175 12.0204 -46.2879
v 224.131 12.0149 -46.2852
v 224.088 12.0098 -46.291
v 224.046 12.0055 -46.3053
v 224.008 12.0021 -46.3275
v 223.975 11.9996 -46.3566
v 223.949 11.9983 -46.3916
v 223.929 11.998 -46.4312
v 223.918 11.999 -46.4738
v 223.915 12.001 -46.5177
v 223.92 12.0042 -46.5614
v 223.934 12.0082 -46.603
v 223.956 12.013 -46.6411
v 223.985 12.0183 -46.6741
v 224.019 12.0241 -46.7008
v 224.058 12.03 -46.7201
v 224.101 12.0358 -46.7314
v 224.144 12.0413 -46.7341
v 224.188 12.0464 -46.7282
v 224.229 12.0507 -46.714
v 224.267 12.0541 -46.6918
v 224.3 12.0566 -46.6627
v 224.327 12.0579 -46.6277
v 224.346 12.0582 -46.5881
v 224.358 12.0572 -46.5455
v 224.167 13.5788 -46.4153
v 224.162 13.5756 -46.3717
v 224.148 13.5713 -46.3302
v 224.126 13.5662 -46.2922
v 224.098 13.5605 -46.2593
v 224.063 13.5545 -46.2327
v 224.024 13.5482 -46.2134
v 223.982 13.542 -46.2022
v 223.938 13.5361 -46.1995
v 223.895 13.5308 -46.2054
v 223.854 13.5262 -46.2197
v 223.816 13.5225 -46.2418
v 223.783 13.5199 -46.2708
v 223.756 13.5184 -46.3058
v 223.737 13.5182 -46.3452
v 223.725 13.5192 -46.3877
v 223.722 13.5214 -46.4316
v 223.728 13.5246 -46.4751
v 223.742 13.5289 -46.5166
v 223.763 13.534 -46.5546
v 223.792 13.5396 -46.5875
v 223.827 13.5457 -46.6141
v 223.866 13.552 -46.6334
v 223.908 13.5582 -46.6446
v 223.951 13.564 -46.6473
v 223.995 13.5694 -46.6414
v 224.036 13.574 -46.6272
v 224.074 13.5777 -46.6051
v 224.107 13.5803 -46.576
v 224.133 13.5817 -46.541
v 224.153 13.582 -46.5016
v 224.164 13.581 -46.4591
v 223.957 15.099 -46.3214
v 223.951 15.0953 -46.278
v 223.938 15.0906 -46.2366
v 223.916 15.085 -46.1988
v 223.888 15.0787 -46.166
v 223.853 15.0719 -46.1395
v 223.814 15.065 -46.1203
v 223.772 15.0582 -46.1091
v 223.729 15.0516 -46.1065
v 223.686 15.0457 -46.1124
v 223.645 15.0407 -46.1266
v 223.607 15.0366 -46.1487
v 223.574 15.0337 -46.1777
v 223.548 15.0321 -46.2126
v 223.528 15.0319 -46.252
v 223.517 15.033 -46.2943
v 223.514 15.0354 -46.3381
v 223.519 15.039 -46.3815
v 223.533 15.0437 -46.4229
v 223.555 15.0494 -46.4607
v 223.583 15.0557 -46.4935
v 223.617 15.0624 -46.52
v 223.656 15.0694 -46.5392
v 223.698 15.0762 -46.5504
v 223.741 15.0827 -46.553
v 223.785 15.0886 -46.5471
v 223.826 15.0937 -46.5328
v 223.863 15.0978 -46.5108
v 223.896 15.1007 -46.4817
v 223.923 15.1023 -46.4469
v 223.942 15.1025 -46.4075
v 223.954 15.1014 -46.3651
v 223.72 16.6127 -46.2145
v 223.714 16.6085 -46.1712
v 223.701 16.6031 -46.1299
v 223.679 16.5966 -46.0923
v 223.651 16.5894 -46.0596
v 223.617 16.5817 -46.0332
v 223.578 16.5737 -46.0141
v 223.537 16.5659 -46.0031
v 223.494 16.5585 -46.0005
v 223.451 16.5518 -46.0065
v 223.41 16.546 -46.0207
v 223.372 16.5414 -46.0428
v 223.34 16.5381 -46.0718
v 223.313 16.5364 -46.1066
v 223.294 16.5361 -46.1459
v 223.282 16.5374 -46.1881
v 223.279 16.5402 -46.2317
v 223.285 16.5444 -46.275
v 223.298 16.5499 -46.3162
v 223.32 16.5563 -46.3539
v 223.348 16.5636 -46.3866
v 223.382 16.5713 -46.4129
v 223.421 16.5792 -46.432
v 223.462 16.587 -46.4431
v 223.505 16.5945 -46.4457
v 223.548 16.6012 -46.4397
v 223.589 16.607 -46.4254
v 223.627 16.6116 -46.4034
v 223.659 16.6148 -46.3744
v 223.686 16.6166 -46.3396
v 223.705 16.6168 -46.3003
v 223.717 16.6155 -46.258
v 223.447 18.1171 -46.0888
v 223.441 18.1122 -46.0457
v 223.428 18.1058 -46.0046
v 223.407 18.0982 -45.9671
v 223.379 18.0898 -45.9347
v 223.345 18.0808 -45.9085
v 223.307 18.0715 -45.8895
v 223.266 18.0624 -45.8786
v 223.223 18.0538 -45.8761
v 223.18 18.046 -45.8822
v 223.139 18.0393 -45.8965
v 223.102 18.034 -45.9186
v 223.07 18.0303 -45.9475
v 223.043 18.0283 -45.9823
v 223.024 18.0281 -46.0214
v 223.012 18.0297 -46.0636
v 223.009 18.033 -46.107
v 223.014 18.038 -46.1501
v 223.028 18.0444 -46.1912
v 223.049 18.0519 -46.2287
v 223.077 18.0604 -46.2612
v 223.111 18.0694 -46.2874
v 223.149 18.0786 -46.3063
v 223.19 18.0877 -46.3172
v 223.233 18.0963 -46.3197
v 223.276 18.1041 -46.3136
v 223.316 18.1108 -46.2993
v 223.354 18.1161 -46.2773
v 223.386 18.1198 -46.2483
v 223.413 18.1218 -46.2136
v 223.432 18.1221 -46.1744
v 223.443 18.1205 -46.1323
v 223.128 19.6092 -45.9389
v 223.123 19.6033 -45.896
v 223.109 19.5958 -45.8551
v 223.089 19.5868 -45.8178
v 223.061 19.5769 -45.7856
v 223.028 19.5663 -45.7596
v 222.99 19.5554 -45.7409
v 222.949 19.5448 -45.7302
v 222.907 19.5347 -45.7278
v 222.865 19.5256 -45.734
v 222.824 19.5178 -45.7484
v 222.787 19.5116 -45.7705
v 222.755 19.5073 -45.7994
v 222.729 19.5051 -45.8341
v 222.709 19.5049 -45.8732
v 222.698 19.5069 -45.9152
v 222.694 19.5109 -45.9585
v 222.699 19.5168 -46.0014
v 222.713 19.5243 -46.0422
v 222.733 19.5333 -46.0795
v 222.761 19.5432 -46.1117
v 222.794 19.5538 -46.1377
v 222.832 19.5647 -46.1564
v 222.873 19.5753 -46.1672
v 222.915 19.5854 -46.1695
v 222.957 19.5945 -46.1633
v 222.998 19.6023 -46.1489
v 223.035 19.6085 -46.1268
v 223.067 19.6128 -46.0979
v 223.093 19.615 -46.0632
v 223.113 19.6152 -46.0241
v 223.124 19.6132 -45.9821
v 222.753 21.0861 -45.759
v 222.748 21.0791 -45.7163
v 222.736 21.0701 -45.6757
v 222.715 21.0596 -45.6387
v 222.688 21.0478 -45.6068
v 222.656 21.0353 -45.5811
v 222.618 21.0226 -45.5627
v 222.578 21.0101 -45.5522
v 222.536 20.9983 -45.5501
v 222.495 20.9876 -45.5564
v 222.455 20.9785 -45.571
v 222.418 20.9714 -45.5931
v 222.386 20.9664 -45.6221
v 222.36 20.9639 -45.6567
v 222.34 20.9638 -45.6957
v 222.329 20.9662 -45.7375
v 222.325 20.971 -45.7806
v 222.33 20.978 -45.8233
v 222.343 20.9869 -45.8639
v 222.363 20.9975 -45.9008
v 222.39 21.0092 -45.9328
v 222.423 21.0217 -45.9585
v 222.46 21.0345 -45.9769
v 222.5 21.047 -45.9874
v 222.542 21.0588 -45.9895
v 222.584 21.0694 -45.9832
v 222.624 21.0785 -45.9686
v 222.661 21.0856 -45.9465
v 222.693 21.0906 -45.9175
v 222.719 21.0932 -45.8829
v 222.738 21.0933 -45.8439
v 222.75 21.0909 -45.802
v 222.314 22.5446 -45.5435
v 222.309 22.5363 -45.5012
v 222.297 22.5258 -45.4609
v 222.277 22.5134 -45.4243
v 222.251 22.4996 -45.3927
v 222.219 22.485 -45.3674
v 222.183 22.4701 -45.3494
v 222.143 22.4555 -45.3392
v 222.102 22.4417 -45.3374
v 222.061 22.4293 -45.344
v 222.021 22.4188 -45.3587
v 221.985 22.4105 -45.381
v 221.953 22.4048 -45.41
v 221.927 22.4019 -45.4446
v 221.908 22.4019 -45.4835
v 221.896 22.4048 -45.5251
v 221.893 22.4105 -45.568
v 221.897 22.4188 -45.6103
v 221.909 22.4294 -45.6506
v 221.929 22.4418 -45.6872
v 221.955 22.4555 -45.7188
v 221.987 22.4701 -45.7441
v 222.024 22.485 -45.7621
v 222.063 22.4997 -45.7723
v 222.104 22.5134 -45.7741
v 222.145 22.5258 -45.7675
v 222.185 22.5363 -45.7528
v 222.221 22.5446 -45.7305
v 222.253 22.5503 -45.7015
v 222.279 22.5532 -45.6669
v 222.298 22.5532 -45.628
v 222.31 22.5503 -45.5864
v 221.799 23.9818 -45.2869
v 221.795 23.9721 -45.2449
v 221.784 23.9598 -45.2051
v 221.765 23.9454 -45.1689
v 221.74 23.9294 -45.1378
v 221.708 23.9124 -45.113
v 221.673 23.8951 -45.0954
v 221.634 23.8782 -45.0857
v 221.594 23.8623 -45.0843
v 221.554 23.848 -45.0912
v 221.515 23.8358 -45.1062
v 221.479 23.8263 -45.1286
v 221.448 23.8198 -45.1577
v 221.422 23.8165 -45.1923
v 221.403 23.8167 -45.2311
v 221.391 23.8201 -45.2725
v 221.387 23.8268 -45.3151
v 221.391 23.8365 -45.3571
v 221.402 23.8488 -45.3969
v 221.421 23.8633 -45.4331
v 221.446 23.8793 -45.4642
v 221.478 23.8962 -45.489
v 221.513 23.9135 -45.5066
v 221.552 23.9304 -45.5163
v 221.592 23.9463 -45.5177
v 221.632 23.9607 -45.5108
v 221.671 23.9728 -45.4958
v 221.707 23.9823 -45.4733
v 221.738 23.9888 -45.4443
v 221.764 23.9921 -45.4097
v 221.783 23.992 -45.3709
v 221.795 23.9885 -45.3295
v 221.2 25.3944 -44.9835
v 221.197 25.3832 -44.9419
v 221.187 25.369 -44.9026
v 221.169 25.3524 -44.867
v 221.144 25.334 -44.8365
v 221.114 25.3146 -44.8123
v 221.08 25.2947 -44.7953
v 221.042 25.2754 -44.7862
v 221.003 25.2571 -44.7852
v 220.964 25.2408 -44.7926
v 220.926 25.227 -44.8079
v 220.891 25.2161 -44.8306
v 220.86 25.2088 -44.8598
v 220.834 25.2051 -44.8944
v 220.815 25.2054 -44.933
v 220.803 25.2095 -44.9742
v 220.798 25.2172 -45.0165
v 220.802 25.2284 -45.058
v 220.812 25.2426 -45.0974
v 220.83 25.2592 -45.133
v 220.855 25.2776 -45.1635
v 220.885 25.2971 -45.1877
v 220.919 25.3169 -45.2047
v 220.956 25.3363 -45.2138
v 220.996 25.3545 -45.2147
v 221.035 25.3708 -45.2074
v 221.073 25.3847 -45.1921
v 221.108 25.3955 -45.1694
v 221.139 25.4029 -45.1402
v 221.164 25.4065 -45.1056
v 221.184 25.4063 -45.0669
v 221.196 25.4022 -45.0257
v 220.507 26.7792 -44.6277
v 220.505 26.7665 -44.5866
v 220.495 26.7504 -44.5479
v 220.479 26.7315 -44.513
v 220.456 26.7107 -44.4832
v 220.427 26.6886 -44.4597
v 220.394 26.6662 -44.4434
v 220.358 26.6442 -44.435
v 220.32 26.6236 -44.4347
v 220.282 26.6052 -44.4426
v 220.245 26.5896 -44.4583
v 220.211 26.5774 -44.4813
v 220.18 26.5692 -44.5107
v 220.155 26.5651 -44.5453
v 220.136 26.5655 -44.5838
v 220.123 26.5702 -44.6248
v 220.118 26.5791 -44.6666
v 220.121 26.5919 -44.7077
v 220.13 26.608 -44.7464
v 220.147 26.6269 -44.7813
v 220.17 26.6477 -44.8111
v 220.199 26.6698 -44.8346
v 220.232 26.6922 -44.8508
v 220.268 26.7141 -44.8593
v 220.306 26.7347 -44.8596
v 220.344 26.7532 -44.8517
v 220.381 26.7688 -44.836
v 220.415 26.781 -44.813
v 220.445 26.7892 -44.7836
v 220.471 26.7932 -44.749
v 220.49 26.7929 -44.7105
v 220.502 26.7881 -44.6695
f 1 34 2 
f 1 33 34 
f 2 35 3 
f 2 34 35 
f 3 36 4 
f 3 35 36 
f 4 37 5 
f 4 36 37 
f 5 38 6 
f 5 37 38 
f 6 39 7 
f 6 38 39 
f 7 40 8 
f 7 39 40 
f 8 41 9 
f 8 40 41 
f 9 42 10 
f 9 41 42 
f 10 43 11 
f 10 42 43 
f 11 44 12 
f 11 43 44 
f 12 45 13 
f 12 44 45 
f 13 46 14 
f 13 45 46 
f 14 47 15 
f 14 46 47 
f 15 48 16 
f 15 47 48 
f 16 49 17 
f 16 48 49 
f 17 50 18 
f 17 49 50 
f 18 51 19 
f 18 50 51 
f 19 52 20 
f 19 51 52 
f 20 53 21 
f 20 52 53 
f 21 54 22 
f 21 53 54 
f 22 55 23 
f 22 54 55 
f 23 56 24 
f 23 55 56 
f 24 57 25 
f 24 56 57 
f 25 58 26 
f 25 57 58 
f 26 59 27 
f 26 58 59 
f 27 60 28 
f 27 59 60 
f 28 61 29 
f 28 60 61 
f 29 62 30 
f 29 61 62 
f 30 63 31 
f 30 62 63 
f 31 64 32 
f 31 63 64 
f 32 33 1 
f 32 64 33 
f 33 66 34 
f 33 65 66 
f 34 67 35 
f 34 66 67 
f 35 68 36 
f 35 67 68 
f 36 69 37 
f 36 68 69 
f 37 70 38 
f 37 69 70 
f 38 71 39 
f 38 70 71 
f 39 72 40 
f 39 71 72 
f 40 73 41 
f 40 72 73 
f 41 74 42 
f 41 73 74 
f 42 75 43 
f 42 74 75 
f 43 76 44 
f 43 75 76 
f 44 77 45 
f 44 76 77 
f 45 78 46 
f 45 77 78 
f 46 79 47 
f 46 78 79 
f 47 80 48 
f 47 79 80 
f 48 81 49 
f 48 80 81 
f 49 82 50 
f 49 81 82 
f 50 83 51 
f 50 82 83 
f 51 84 52 
f 51 83 84 
f 52 85 53 
f 52 84 85 
f 53 86 54 
f 53 85 86 
f 54 87 55 
f 54 86 87 
f 55 88 56 
f 55 87 88 
f 56 89 57 
f 56 88 89 
f 57 90 58 
f 57 89 90 
f 58 91 59 
f 58 90 91 
f 59 92 60 
f 59 91 92 
f 60 93 61 
f 60 92 93 
f 61 94 62 
f 61 93 94 
f 62 95 63 
f 62 94 95 
f 63 96 64 
f 63 95 96 
f 64 65 33 
f 64 96 65 
f 65 98 66 
f 65 97 98 
f 66 99 67 
f 66 98 99 
f 67 100 68 
f 67 99 100 
f 68 101 69 
f 68 100 101 
f 69 102 70 
f 69 101 102 
f 70 103 71 
f 70 102 103 
f 71 104 72 
f 71 103 104 
f 72 105 73 
f 72 104 105 
f 73 106 74 
f 73 105 106 
f 74 107 75 
f 74 106 107 
f 75 108 76 
f 75 107 108 
f 76 109 77 
f 76 108 109 
f 77 110 78 
f 77 109 110 
f 78 111 79 
f 78 110 111 
f 79 112 80 
f 79 111 112 
f 80 113 81 
f 80 112 113 
f 81 114 82 
f 81 113 114 
f 82 115 83 
f 82 114 115 
f 83 116 84 
f 83 115 116 
f 84 117 85 
f 84 116 117 
f 85 118 86 
f 85 117 118 
f 86 119 87 
f 86 118 119 
f 87 120 88 
f 87 119 120 
f 88 121 89 
f 88 120 121 
f 89 122 90 
f 89 121 122 
f 90 123 91 
f 90 122 123 
f 91 124 92 
f 91 123 124 
f 92 125 93 
f 92 124 125 
f 93 126 94 
f 93 125 126 
f 94 127 95 
f 94 126 127 
f 95 128 96 
f 95 127 128 
f 96 97 65 
f 96 128 97 
f 97 130 98 
f 97 129 130 
f 98 131 99 
f 98 130 131 
f 99 132 100 
f 99 131 132 
f 100 133 101 
f 100 132 133 
f 101 134 102 
f 101 133 134 
f 102 135 103 
f 102 134 135 
f 103 136 104 
f 103 135 136 
f 104 137 105 
f 104 136 137 
f 105 138 106 
f 105 137 138 
f 106 139 107 
f 106 138 139 
f 107 140 108 
f 107 139 140 
f 108 141 109 
f 108 140 141 
f 109 142 110 
f 109 141 142 
f 110 143 111 
f 110 142 143 
f 111 144 112 
f 111 143 144 
f 112 145 113 
f 112 144 145 
f 113 146 114 
f 113 145 146 
f 114 147 115 
f 114 146 147 
f 115 148 116 
f 115 147 148 
f 116 149 117 
f 116 148 149 
f 117 150 118 
f 117 149 150 
f 118 151 119 
f 118 150 151 
f 119 152 120 
f 119 151 152 
f 120 153 121 
f 120 152 153 
f 121 154 122 
f 121 153 154 
f 122 155 123 
f 122 154 155 
f 123 156 124 
f 123 155 156 
f 124 157 125 
f 124 156 157 
f 125 158 126 
f 125 157 158 
f 126 159 127 
f 126 158 159 
f 127 160 128 
f 127 159 160 
f 128 129 97 
f 128 160 129 
f 129 162 130 
f 129 161 162 
f 130 163 131 
f 130 162 163 
f 131 164 132 
f 131 163 164 
f 132 165 133 
f 132 164 165 
f 133 166 134 
f 133 165 166 
f 134 167 135 
f 134 166 167 
f 135 168 136 
f 135 167 168 
f 136 169 137 
f 136 168 169 
f 137 170 138 
f 137 169 170 
f 138 171 139 
f 138 170 171 
f 139 172 140 
f 139 171 172 
f 140 173 141 
f 140 172 173 
f 141 174 142 
f 141 173 174 
f 142 175 143 
f 142 174 175 
f 143 176 144 
f 143 175 176 
f 144 177 145 
f 144 176 177 
f 145 178 146 
f 145 177 178 
f 146 179 147 
f 146 178 179 
f 147 180 148 
f 147 179 180 
f 148 181 149 
f 148 180 181 
f 149 182 150 
f 149 181 182 
f 150 183 151 
f 150 182 183 
f 151 184 152 
f 151 183 184 
f 152 185 153 
f 152 184 185 
f 153 186 154 
f 153 185 186 
f 154 187 155 
f 154 186 187 
f 155 188 156 
f 155 187 188 
f 156 189 157 
f 156 188 189 
f 157 190 158 
f 157 189 190 
f 158 191 159 
f 158 190 191 
f 159 192 160 
f 159 191 192 
f 160 161 129 
f 160 192 161 
f 161 194 162 
f 161 193 194 
f 162 195 163 
f 162 194 195 
f 163 196 164 
f 163 195 196 
f 164 197 165 
f 164 196 197 
f 165 198 166 
f 165 197 198 
f 166 199 167 
f 166 198 199 
f 167 200 168 
f 167 199 200 
f 168 201 169 
f 168 200 201 
f 169 202 170 
f 169 201 202 
f 170 203 171 
f 170 202 203 
f 171 204 172 
f 171 203 204 
f 172 205 173 
f 172 204 205 
f 173 206 174 
f 173 205 206 
f 174 207 175 
f 174 206 207 
f 175 208 176 
f 175 207 208 
f 176 209 177 
f 176 208 209 
f 177 210 178 
f 177 209 210 
f 178 211 179 
f 178 210 211 
f 179 212 180 
f 179 211 212 
f 180 213 181 
f 180 212 213 
f 181 214 182 
f 181 213 214 
f 182 215 183 
f 182 214 215 
f 183 216 184 
f 183 215 216 
f 184 217 185 
f 184 216 217 
f 185 218 186 
f 185 217 218 
f 186 219 187 
f 186 218 219 
f 187 220 188 
f 187 219 220 
f 188 221 189 
f 188 220 221 
f 189 222 190 
f 189 221 222 
f 190 223 191 
f 190 222 223 
f 191 224 192 
f 191 223 224 
f 192 193 161 
f 192 224 193 
f 193 226 194 
f 193 225 226 
f 194 227 195 
f 194 226 227 
f 195 228 196 
f 195 227 228 
f 196 229 197 
f 196 228 229 
f 197 230 198 
f 197 229 230 
f 198 231 199 
f 198 230 231 
f 199 232 200 
f 199 231 232 
f 200 233 201 
f 200 232 233 
f 201 234 202 
f 201 233 234 
f 202 235 203 
f 202 234 235 
f 203 236 204 
f 203 235 236 
f 204 237 205 
f 204 236 237 
f 205 238 206 
f 205 237 238 
f 206 239 207 
f 206 238 239 
f 207 240 208 
f 207 239 240 
f 208 241 209 
f 208 240 241 
f 209 242 210 
f 209 241 242 
f 210 243 211 
f 210 242 243 
f 211 244 212 
f 211 243 244 
f 212 245 213 
f 212 244 245 
f 213 246 214 
f 213 245 246 
f 214 247 215 
f 214 246 247 
f 215 248 216 
f 215 247 248 
f 216 249 217 
f 216 248 249 
f 217 250 218 
f 217 249 250 
f 218 251 219 
f 218 250 251 
f 219 252 220 
f 219 251 252 
f 220 253 221 
f 220 252 253 
f 221 254 222 
f 221 253 254 
f 222 255 223 
f 222 254 255 
f 223 256 224 
f 223 255 256 
f 224 225 193 
f 224 256 225 
f 225 258 226 
f 225 257 258 
f 226 259 227 
f 226 258 259 
f 227 260 228 
f 227 259 260 
f 228 261 229 
f 228 260 261 
f 229 262 230 
f 229 261 262 
f 230 263 231 
f 230 262 263 
f 231 264 232 
f 231 263 264 
f 232 265 233 
f 232 264 265 
f 233 266 234 
f 233 265 266 
f 234 267 235 
f 234 266 267 
f 235 268 236 
f 235 267 268 
f 236 269 237 
f 236 268 269 
f 237 270 238 
f 237 269 270 
f 238 271 239 
f 238 270 271 
f 239 272 240 
f 239 271 272 
f 240 273 241 
f 240 272 273 
f 241 274 242 
f 241 273 274 
f 242 275 243 
f 242 274 275 
f 243 276 244 
f 243 275 276 
f 244 277 245 
f 244 276 277 
f 245 278 246 
f 245 277 278 
f 246 279 247 
f 246 278 279 
f 247 280 248 
f 247 279 280 
f 248 281 249 
f 248 280 281 
f 249 282 250 
f 249 281 282 
f 250 283 251 
f 250 282 283 
f 251 284 252 
f 251 283 284 
f 252 285 253 
f 252 284 285 
f 253 286 254 
f 253 285 286 
f 254 287 255 
f 254 286 287 
f 255 288 256 
f 255 287 288 
f 256 257 225 
f 256 288 257 
f 257 290 258 
f 257 289 290 
f 258 291 259 
f 258 290 291 
f 259 292 260 
f 259 291 292 
f 260 293 261 
f 260 292 293 
f 261 294 262 
f 261 293 294 
f 262 295 263 
f 262 294 295 
f 263 296 264 
f 263 295 296 
f 264 297 265 
f 264 296 297 
f 265 298 266 
f 265 297 298 
f 266 299 267 
f 266 298 299 
f 267 300 268 
f 267 299 300 
f 268 301 269 
f 268 300 301 
f 269 302 270 
f 269 301 302 
f 270 303 271 
f 270 302 303 
f 271 304 272 
f 271 303 304 
f 272 305 273 
f 272 304 305 
f 273 306 274 
f 273 305 306 
f 274 307 275 
f 274 306 307 
f 275 308 276 
f 275 307 308 
f 276 309 277 
f 276 308 309 
f 277 310 278 
f 277 309 310 
f 278 311 279 
f 278 310 311 
f 279 312 280 
f 279 311 312 
f 280 313 281 
f 280 312 313 
f 281 314 282 
f 281 313 314 
f 282 315 283 
f 282 314 315 
f 283 316 284 
f 283 315 316 
f 284 317 285 
f 284 316 317 
f 285 318 286 
f 285 317 318 
f 286 319 287 
f 286 318 319 
f 287 320 288 
f 287 319 320 
f 288 289 257 
f 288 320 289 
f 289 322 290 
f 289 321 322 
f 290 323 291 
f 290 322 323 
f 291 324 292 
f 291 323 324 
f 292 325 293 
f 292 324 325 
f 293 326 294 
f 293 325 326 
f 294 327 295 
f 294 326 327 
f 295 328 296 
f 295 327 328 
f 296 329 297 
f 296 328 329 
f 297 330 298 
f 297 329 330 
f 298 331 299 
f 298 330 331 
f 299 332 300 
f 299 331 332 
f 300 333 301 
f 300 332 333 
f 301 334 302 
f 301 333 334 
f 302 335 303 
f 302 334 335 
f 303 336 304 
f 303 335 336 
f 304 337 305 
f 304 336 337 
f 305 338 306 
f 305 337 338 
f 306 339 307 
f 306 338 339 
f 307 340 308 
f 307 339 340 
f 308 341 309 
f 308 340 341 
f 309 342 310 
f 309 341 342 
f 310 343 311 
f 310 342 343 
f 311 344 312 
f 311 343 344 
f 312 345 313 
f 312 344 345 
f 313 346 314 
f 313 345 346 
f 314 347 315 
f 314 346 347 
f 315 348 316 
f 315 347 348 
f 316 349 317 
f 316 348 349 
f 317 350 318 
f 317 349 350 
f 318 351 319 
f 318 350 351 
f 319 352 320 
f 319 351 352 
f 320 321 289 
f 320 352 321 
f 321 354 322 
f 321 353 354 
f 322 355 323 
f 322 354 355 
f 323 356 324 
f 323 355 356 
f 324 357 325 
f 324 356 357 
f 325 358 326 
f 325 357 358 
f 326 359 327 
f 326 358 359 
f 327 360 328 
f 327 359 360 
f 328 361 329 
f 328 360 361 
f 329 362 330 
f 329 361 362 
f 330 363 331 
f 330 362 363 
f 331 364 332 
f 331 363 364 
f 332 365 333 
f 332 364 365 
f 333 366 334 
f 333 365 366 
f 334 367 335 
f 334 366 367 
f 335 368 336 
f 335 367 368 
f 336 369 337 
f 336 368 369 
f 337 370 338 
f 337 369 370 
f 338 371 339 
f 338 370 371 
f 339 372 340 
f 339 371 372 
f 340 373 341 
f 340 372 373 
f 341 374 342 
f 341 373 374 
f 342 375 343 
f 342 374 375 
f 343 376 344 
f 343 375 376 
f 344 377 345 
f 344 376 377 
f 345 378 346 
f 345 377 378 
f 346 379 347 
f 346 378 379 
f 347 380 348 
f 347 379 380 
f 348 381 349 
f 348 380 381 
f 349 382 350 
f 349 381 382 
f 350 383 351 
f 350 382 383 
f 351 384 352 
f 351 383 384 
f 352 353 321 
f 352 384 353 
f 353 386 354 
f 353 385 386 
f 354 387 355 
f 354 386 387 
f 355 388 356 
f 355 387 388 
f 356 389 357 
f 356 388 389 
f 357 390 358 
f 357 389 390 
f 358 391 359 
f 358 390 391 
f 359 392 360 
f 359 391 392 
f 360 393 361 
f 360 392 393 
f 361 394 362 
f 361 393 394 
f 362 395 363 
f 362 394 395 
f 363 396 364 
f 363 395 396 
f 364 397 365 
f 364 396 397 
f 365 398 366 
f 365 397 398 
f 366 399 367 
f 366 398 399 
f 367 400 368 
f 367 399 400 
f 368 401 369 
f 368 400 401 
f 369 402 370 
f 369 401 402 
f 370 403 371 
f 370 402 403 
f 371 404 372 
f 371 403 404 
f 372 405 373 
f 372 404 405 
f 373 406 374 
f 373 405 406 
f 374 407 375 
f 374 406 407 
f 375 408 376 
f 375 407 408 
f 376 409 377 
f 376 408 409 
f 377 410 378 
f 377 409 410 
f 378 411 379 
f 378 410 411 
f 379 412 380 
f 379 411 412 
f 380 413 381 
f 380 412 413 
f 381 414 382 
f 381 413 414 
f 382 415 383 
f 382 414 415 
f 383 416 384 
f 383 415 416 
f 384 385 353 
f 384 416 385 
f 385 418 386 
f 385 417 418 
f 386 419 387 
f 386 418 419 
f 387 420 388 
f 387 419 420 
f 388 421 389 
f 388 420 421 
f 389 422 390 
f 389 421 422 
f 390 423 391 
f 390 422 423 
f 391 424 392 
f 391 423 424 
f 392 425 393 
f 392 424 425 
f 393 426 394 
f 393 425 426 
f 394 427 395 
f 394 426 427 
f 395 428 396 
f 395 427 428 
f 396 429 397 
f 396 428 429 
f 397 430 398 
f 397 429 430 
f 398 431 399 
f 398 430 431 
f 399 432 400 
f 399 431 432 
f 400 433 401 
f 400 432 433 
f 401 434 402 
f 401 433 434 
f 402 435 403 
f 402 434 435 
f 403 436 404 
f 403 435 436 
f 404 437 405 
f 404 436 437 
f 405 438 406 
f 405 437 438 
f 406 439 407 
f 406 438 439 
f 407 440 408 
f 407 439 440 
f 408 441 409 
f 408 440 441 
f 409 442 410 
f 409 441 442 
f 410 443 411 
f 410 442 443 
f 411 444 412 
f 411 443 444 
f 412 445 413 
f 412 444 445 
f 413 446 414 
f 413 445 446 
f 414 447 415 
f 414 446 447 
f 415 448 416 
f 415 447 448 
f 416 417 385 
f 416 448 417 
f 417 450 418 
f 417 449 450 
f 418 451 419 
f 418 450 451 
f 419 452 420 
f 419 451 452 
f 420 453 421 
f 420 452 453 
f 421 454 422 
f 421 453 454 
f 422 455 423 
f 422 454 455 
f 423 456 424 
f 423 455 456 
f 424 457 425 
f 424 456 457 
f 425 458 426 
f 425 457 458 
f 426 459 427 
f 426 458 459 
f 427 460 428 
f 427 459 460 
f 428 461 429 
f 428 460 461 
f 429 462 430 
f 429 461 462 
f 430 463 431 
f 430 462 463 
f 431 464 432 
f 431 463 464 
f 432 465 433 
f 432 464 465 
f 433 466 434 
f 433 465 466 
f 434 467 435 
f 434 466 467 
f 435 468 436 
f 435 467 468 
f 436 469 437 
f 436 468 469 
f 437 470 438 
f 437 469 470 
f 438 471 439 
f 438 470 471 
f 439 472 440 
f 439 471 472 
f 440 473 441 
f 440 472 473 
f 441 474 442 
f 441 473 474 
f 442 475 443 
f 442 474 475 
f 443 476 444 
f 443 475 476 
f 444 477 445 
f 444 476 477 
f 445 478 446 
f 445 477 478 
f 446 479 447 
f 446 478 479 
f 447 480 448 
f 447 479 480 
f 448 449 417 
f 448 480 449 
f 449 482 450 
f 449 481 482 
f 450 483 451 
f 450 482 483 
f 451 484 452 
f 451 483 484 
f 452 485 453 
f 452 484 485 
f 453 486 454 
f 453 485 486 
f 454 487 455 
f 454 486 487 
f 455 488 456 
f 455 487 488 
f 456 489 457 
f 456 488 489 
f 457 490 458 
f 457 489 490 
f 458 491 459 
f 458 490 491 
f 459 492 460 
f 459 491 492 
f 460 493 461 
f 460 492 493 
f 461 494 462 
f 461 493 494 
f 462 495 463 
f 462 494 495 
f 463 496 464 
f 463 495 496 
f 464 497 465 
f 464 496 497 
f 465 498 466 
f 465 497 498 
f 466 499 467 
f 466 498 499 
f 467 500 468 
f 467 499 500 
f 468 501 469 
f 468 500 501 
f 469 502 470 
f 469 501 502 
f 470 503 471 
f 470 502 503 
f 471 504 472 
f 471 503 504 
f 472 505 473 
f 472 504 505 
f 473 506 474 
f 473 505 506 
f 474 507 475 
f 474 506 507 
f 475 508 476 
f 475 507 508 
f 476 509 477 
f 476 508 509 
f 477 510 478 
f 477 509 510 
f 478 511 479 
f 478 510 511 
f 479 512 480 
f 479 511 512 
f 480 481 449 
f 480 512 481 
f 481 514 482 
f 481 513 514 
f 482 515 483 
f 482 514 515 
f 483 516 484 
f 483 515 516 
f 484 517 485 
f 484 516 517 
f 485 518 486 
f 485 517 518 
f 486 519 487 
f 486 518 519 
f 487 520 488 
f 487 519 520 
f 488 521 489 
f 488 520 521 
f 489 522 490 
f 489 521 522 
f 490 523 491 
f 490 522 523 
f 491 524 492 
f 491 523 524 
f 492 525 493 
f 492 524 525 
f 493 526 494 
f 493 525 526 
f 494 527 495 
f 494 526 527 
f 495 528 496 
f 495 527 528 
f 496 529 497 
f 496 528 529 
f 497 530 498 
f 497 529 530 
f 498 531 499 
f 498 530 531 
f 499 532 500 
f 499 531 532 
f 500 533 501 
f 500 532 533 
f 501 534 502 
f 501 533 534 
f 502 535 503 
f 502 534 535 
f 503 536 504 
f 503 535 536 
f 504 537 505 
f 504 536 537 
f 505 538 506 
f 505 537 538 
f 506 539 507 
f 506 538 539 
f 507 540 508 
f 507 539 540 
f 508 541 509 
f 508 540 541 
f 509 542 510 
f 509 541 542 
f 510 543 511 
f 510 542 543 
f 511 544 512 
f 511 543 544 
f 512 513 481 
f 512 544 513 
f 513 546 514 
f 513 545 546 
f 514 547 515 
f 514 546 547 
f 515 548 516 
f 515 547 548 
f 516 549 517 
f 516 548 549 
f 517 550 518 
f 517 549 550 
f 518 551 519 
f 518 550 551 
f 519 552 520 
f 519 551 552 
f 520 553 521 
f 520 552 553 
f 521 554 522 
f 521 553 554 
f 522 555 523 
f 522 554 555 
f 523 556 524 
f 523 555 556 
f 524 557 525 
f 524 556 557 
f 525 558 526 
f 525 557 558 
f 526 559 527 
f 526 558 559 
f 527 560 528 
f 527 559 560 
f 528 561 529 
f 528 560 561 
f 529 562 530 
f 529 561 562 
f 530 563 531 
f 530 562 563 
f 531 564 532 
f 531 563 564 
f 532 565 533 
f 532 564 565 
f 533 566 534 
f 533 565 566 
f 534 567 535 
f 534 566 567 
f 535 568 536 
f 535 567 568 
f 536 569 537 
f 536 568 569 
f 537 570 538 
f 537 569 570 
f 538 571 539 
f 538 570 571 
f 539 572 540 
f 539 571 572 
f 540 573 541 
f 540 572 573 
f 541 574 542 
f 541 573 574 
f 542 575 543 
f 542 574 575 
f 543 576 544 
f 543 575 576 
f 544 545 513 
f 544 576 545 
f 545 578 546 
f 545 577 578 
f 546 579 547 
f 546 578 579 
f 547 580 548 
f 547 579 580 
f 548 581 549 
f 548 580 581 
f 549 582 550 
f 549 581 582 
f 550 583 551 
f 550 582 583 
f 551 584 552 
f 551 583 584 
f 552 585 553 
f 552 584 585 
f 553 586 554 
f 553 585 586 
f 554 587 555 
f 554 586 587 
f 555 588 556 
f 555 587 588 
f 556 589 557 
f 556 588 589 
f 557 590 558 
f 557 589 590 
f 558 591 559 
f 558 590 591 
f 559 592 560 
f 559 591 592 
f 560 593 561 
f 560 592 593 
f 561 594 562 
f 561 593 594 
f 562 595 563 
f 562 594 595 
f 563 596 564 
f 563 595 596 
f 564 597 565 
f 564 596 597 
f 565 598 566 
f 565 597 598 
f 566 599 567 
f 566 598 599 
f 567 600 568 
f 567 599 600 
f 568 601 569 
f 568 600 601 
f 569 602 570 
f 569 601 602 
f 570 603 571 
f 570 602 603 
f 571 604 572 
f 571 603 604 
f 572 605 573 
f 572 604 605 
f 573 606 574 
f 573 605 606 
f 574 607 575 
f 574 606 607 
f 575 608 576 
f 575 607 608 
f 576 577 545 
f 576 608 577 
f 577 610 578 
f 577 609 610 
f 578 611 579 
f 578 610 611 
f 579 612 580 
f 579 611 612 
f 580 613 581 
f 580 612 613 
f 581 614 582 
f 581 613 614 
f 582 615 583 
f 582 614 615 
f 583 616 584 
f 583 615 616 
f 584 617 585 
f 584 616 617 
f 585 618 586 
f 585 617 618 
f 586 619 587 
f 586 618 619 
f 587 620 588 
f 587 619 620 
f 588 621 589 
f 588 620 621 
f 589 622 590 
f 589 621 622 
f 590 623 591 
f 590 622 623 
f 591 624 592 
f 591 623 624 
f 592 625 593 
f 592 624 625 
f 593 626 594 
f 593 625 626 
f 594 627 595 
f 594 626 627 
f 595 628 596 
f 595 627 628 
f 596 629 597 
f 596 628 629 
f 597 630 598 
f 597 629 630 
f 598 631 599 
f 598 630 631 
f 599 632 600 
f 599 631 632 
f 600 633 601 
f 600 632 633 
f 601 634 602 
f 601 633 634 
f 602 635 603 
f 602 634 635 
f 603 636 604 
f 603 635 636 
f 604 637 605 
f 604 636 637 
f 605 638 606 
f 605 637 638 
f 606 639 607 
f 606 638 639 
f 607 640 608 
f 607 639 640 
f 608 609 577 
f 608 640 609 
f 609 642 610 
f 609 641 642 
f 610 643 611 
f 610 642 643 
f 611 644 612 
f 611 643 644 
f 612 645 613 
f 612 644 645 
f 613 646 614 
f 613 645 646 
f 614 647 615 
f 614 646 647 
f 615 648 616 
f 615 647 648 
f 616 649 617 
f 616 648 649 
f 617 650 618 
f 617 649 650 
f 618 651 619 
f 618 650 651 
f 619 652 620 
f 619 651 652 
f 620 653 621 
f 620 652 653 
f 621 654 622 
f 621 653 654 
f 622 655 623 
f 622 654 655 
f 623 656 624 
f 623 655 656 
f 624 657 625 
f 624 656 657 
f 625 658 626 
f 625 657 658 
f 626 659 627 
f 626 658 659 
f 627 660 628 
f 627 659 660 
f 628 661 629 
f 628 660 661 
f 629 662 630 
f 629 661 662 
f 630 663 631 
f 630 662 663 
f 631 664 632 
f 631 663 664 
f 632 665 633 
f 632 664 665 
f 633 666 634 
f 633 665 666 
f 634 667 635 
f 634 666 667 
f 635 668 636 
f 635 667 668 
f 636 669 637 
f 636 668 669 
f 637 670 638 
f 637 669 670 
f 638 671 639 
f 638 670 671 
f 639 672 640 
f 639 671 672 
f 640 641 609 
f 640 672 641 
f 641 674 642 
f 641 673 674 
f 642 675 643 
f 642 674 675 
f 643 676 644 
f 643 675 676 
f 644 677 645 
f 644 676 677 
f 645 678 646 
f 645 677 678 
f 646 679 647 
f 646 678 679 
f 647 680 648 
f 647 679 680 
f 648 681 649 
f 648 680 681 
f 649 682 650 
f 649 681 682 
f 650 683 651 
f 650 682 683 
f 651 684 652 
f 651 683 684 
f 652 685 653 
f 652 684 685 
f 653 686 654 
f 653 685 686 
f 654 687 655 
f 654 686 687 
f 655 688 656 
f 655 687 688 
f 656 689 657 
f 656 688 689 
f 657 690 658 
f 657 689 690 
f 658 691 659 
f 658 690 691 
f 659 692 660 
f 659 691 692 
f 660 693 661 
f 660 692 693 
f 661 694 662 
f 661 693 694 
f 662 695 663 
f 662 694 695 
f 663 696 664 
f 663 695 696 
f 664 697 665 
f 664 696 697 
f 665 698 666 
f 665 697 698 
f 666 699 667 
f 666 698 699 
f 667 700 668 
f 667 699 700 
f 668 701 669 
f 668 700 701 
f 669 702 670 
f 669 701 702 
f 670 703 671 
f 670 702 703 
f 671 704 672 
f 671 703 704 
f 672 673 641 
f 672 704 673 
f 673 706 674 
f 673 705 706 
f 674 707 675 
f 674 706 707 
f 675 708 676 
f 675 707 708 
f 676 709 677 
f 676 708 709 
f 677 710 678 
f 677 709 710 
f 678 711 679 
f 678 710 711 
f 679 712 680 
f 679 711 712 
f 680 713 681 
f 680 712 713 
f 681 714 682 
f 681 713 714 
f 682 715 683 
f 682 714 715 
f 683 716 684 
f 683 715 716 
f 684 717 685 
f 684 716 717 
f 685 718 686 
f 685 717 718 
f 686 719 687 
f 686 718 719 
f 687 720 688 
f 687 719 720 
f 688 721 689 
f 688 720 721 
f 689 722 690 
f 689 721 722 
f 690 723 691 
f 690 722 723 
f 691 724 692 
f 691 723 724 
f 692 725 693 
f 692 724 725 
f 693 726 694 
f 693 725 726 
f 694 727 695 
f 694 726 727 
f 695 728 696 
f 695 727 728 
f 696 729 697 
f 696 728 729 
f 697 730 698 
f 697 729 730 
f 698 731 699 
f 698 730 731 
f 699 732 700 
f 699 731 732 
f 700 733 701 
f 700 732 733 
f 701 734 702 
f 701 733 734 
f 702 735 703 
f 702 734 735 
f 703 736 704 
f 703 735 736 
f 704 705 673 
f 704 736 705 
f 705 738 706 
f 705 737 738 
f 706 739 707 
f 706 738 739 
f 707 740 708 
f 707 739 740 
f 708 741 709 
f 708 740 741 
f 709 742 710 
f 709 741 742 
f 710 743 711 
f 710 742 743 
f 711 744 712 
f 711 743 744 
f 712 745 713 
f 712 744 745 
f 713 746 714 
f 713 745 746 
f 714 747 715 
f 714 746 747 
f 715 748 716 
f 715 747 748 
f 716 749 717 
f 716 748 749 
f 717 750 718 
f 717 749 750 
f 718 751 719 
f 718 750 751 
f 719 752 720 
f 719 751 752 
f 720 753 721 
f 720 752 753 
f 721 754 722 
f 721 753 754 
f 722 755 723 
f 722 754 755 
f 723 756 724 
f 723 755 756 
f 724 757 725 
f 724 756 757 
f 725 758 726 
f 725 757 758 
f 726 759 727 
f 726 758 759 
f 727 760 728 
f 727 759 760 
f 728 761 729 
f 728 760 761 
f 729 762 730 
f 729 761 762 
f 730 763 731 
f 730 762 763 
f 731 764 732 
f 731 763 764 
f 732 765 733 
f 732 764 765 
f 733 766 734 
f 733 765 766 
f 734 767 735 
f 734 766 767 
f 735 768 736 
f 735 767 768 
f 736 737 705 
f 736 768 737 
f 737 770 738 
f 737 769 770 
f 738 771 739 
f 738 770 771 
f 739 772 740 
f 739 771 772 
f 740 773 741 
f 740 772 773 
f 741 774 742 
f 741 773 774 
f 742 775 743 
f 742 774 775 
f 743 776 744 
f 743 775 776 
f 744 777 745 
f 744 776 777 
f 745 778 746 
f 745 777 778 
f 746 779 747 
f 746 778 779 
f 747 780 748 
f 747 779 780 
f 748 781 749 
f 748 780 781 
f 749 782 750 
f 749 781 782 
f 750 783 751 
f 750 782 783 
f 751 784 752 
f 751 783 784 
f 752 785 753 
f 752 784 785 
f 753 786 754 
f 753 785 786 
f 754 787 755 
f 754 786 787 
f 755 788 756 
f 755 787 788 
f 756 789 757 
f 756 788 789 
f 757 790 758 
f 757 789 790 
f 758 791 759 
f 758 790 791 
f 759 792 760 
f 759 791 792 
f 760 793 761 
f 760 792 793 
f 761 794 762 
f 761 793 794 
f 762 795 763 
f 762 794 795 
f 763 796 764 
f 763 795 796 
f 764 797 765 
f 764 796 797 
f 765 798 766 
f 765 797 798 
f 766 799 767 
f 766 798 799 
f 767 800 768 
f 767 799 800 
f 768 769 737 
f 768 800 769 
f 769 802 770 
f 769 801 802 
f 770 803 771 
f 770 802 803 
f 771 804 772 
f 771 803 804 
f 772 805 773 
f 772 804 805 
f 773 806 774 
f 773 805 806 
f 774 807 775 
f 774 806 807 
f 775 808 776 
f 775 807 808 
f 776 809 777 
f 776 808 809 
f 777 810 778 
f 777 809 810 
f 778 811 779 
f 778 810 811 
f 779 812 780 
f 779 811 812 
f 780 813 781 
f 780 812 813 
f 781 814 782 
f 781 813 814 
f 782 815 783 
f 782 814 815 
f 783 816 784 
f 783 815 816 
f 784 817 785 
f 784 816 817 
f 785 818 786 
f 785 817 818 
f 786 819 787 
f 786 818 819 
f 787 820 788 
f 787 819 820 
f 788 821 789 
f 788 820 821 
f 789 822 790 
f 789 821 822 
f 790 823 791 
f 790 822 823 
f 791 824 792 
f 791 823 824 
f 792 825 793 
f 792 824 825 
f 793 826 794 
f 793 825 826 
f 794 827 795 
f 794 826 827 
f 795 828 796 
f 795 827 828 
f 796 829 797 
f 796 828 829 
f 797 830 798 
f 797 829 830 
f 798 831 799 
f 798 830 831 
f 799 832 800 
f 799 831 832 
f 800 801 769 
f 800 832 801 
f 801 834 802 
f 801 833 834 
f 802 835 803 
f 802 834 835 
f 803 836 804 
f 803 835 836 
f 804 837 805 
f 804 836 837 
f 805 838 806 
f 805 837 838 
f 806 839 807 
f 806 838 839 
f 807 840 808 
f 807 839 840 
f 808 841 809 
f 808 840 841 
f 809 842 810 
f 809 841 842 
f 810 843 811 
f 810 842 843 
f 811 844 812 
f 811 843 844 
f 812 845 813 
f 812 844 845 
f 813 846 814 
f 813 845 846 
f 814 847 815 
f 814 846 847 
f 815 848 816 
f 815 847 848 
f 816 849 817 
f 816 848 849 
f 817 850 818 
f 817 849 850 
f 818 851 819 
f 818 850 851 
f 819 852 820 
f 819 851 852 
f 820 853 821 
f 820 852 853 
f 821 854 822 
f 821 853 854 
f 822 855 823 
f 822 854 855 
f 823 856 824 
f 823 855 856 
f 824 857 825 
f 824 856 857 
f 825 858 826 
f 825 857 858 
f 826 859 827 
f 826 858 859 
f 827 860 828 
f 827 859 860 
f 828 861 829 
f 828 860 861 
f 829 862 830 
f 829 861 862 
f 830 863 831 
f 830 862 863 
f 831 864 832 
f 831 863 864 
f 832 833 801 
f 832 864 833 
f 833 866 834 
f 833 865 866 
f 834 867 835 
f 834 866 867 
f 835 868 836 
f 835 867 868 
f 836 869 837 
f 836 868 869 
f 837 870 838 
f 837 869 870 
f 838 871 839 
f 838 870 871 
f 839 872 840 
f 839 871 872 
f 840 873 841 
f 840 872 873 
f 841 874 842 
f 841 873 874 
f 842 875 843 
f 842 874 875 
f 843 876 844 
f 843 875 876 
f 844 877 845 
f 844 876 877 
f 845 878 846 
f 845 877 878 
f 846 879 847 
f 846 878 879 
f 847 880 848 
f 847 879 880 
f 848 881 849 
f 848 880 881 
f 849 882 850 
f 849 881 882 
f 850 883 851 
f 850 882 883 
f 851 884 852 
f 851 883 884 
f 852 885 853 
f 852 884 885 
f 853 886 854 
f 853 885 886 
f 854 887 855 
f 854 886 887 
f 855 888 856 
f 855 887 888 
f 856 889 857 
f 856 888 889 
f 857 890 858 
f 857 889 890 
f 858 891 859 
f 858 890 891 
f 859 892 860 
f 859 891 892 
f 860 893 861 
f 860 892 893 
f 861 894 862 
f 861 893 894 
f 862 895 863 
f 862 894 895 
f 863 896 864 
f 863 895 896 
f 864 865 833 
f 864 896 865 
f 865 898 866 
f 865 897 898 
f 866 899 867 
f 866 898 899 
f 867 900 868 
f 867 899 900 
f 868 901 869 
f 868 900 901 
f 869 902 870 
f 869 901 902 
f 870 903 871 
f 870 902 903 
f 871 904 872 
f 871 903 904 
f 872 905 873 
f 872 904 905 
f 873 906 874 
f 873 905 906 
f 874 907 875 
f 874 906 907 
f 875 908 876 
f 875 907 908 
f 876 909 877 
f 876 908 909 
f 877 910 878 
f 877 909 910 
f 878 911 879 
f 878 910 911 
f 879 912 880 
f 879 911 912 
f 880 913 881 
f 880 912 913 
f 881 914 882 
f 881 913 914 
f 882 915 883 
f 882 914 915 
f 883 916 884 
f 883 915 916 
f 884 917 885 
f 884 916 917 
f 885 918 886 
f 885 917 918 
f 886 919 887 
f 886 918 919 
f 887 920 888 
f 887 919 920 
f 888 921 889 
f 888 920 921 
f 889 922 890 
f 889 921 922 
f 890 923 891 
f 890 922 923 
f 891 924 892 
f 891 923 924 
f 892 925 893 
f 892 924 925 
f 893 926 894 
f 893 925 926 
f 894 927 895 
f 894 926 927 
f 895 928 896 
f 895 927 928 
f 896 897 865 
f 896 928 897 
f 897 930 898 
f 897 929 930 
f 898 931 899 
f 898 930 931 
f 899 932 900 
f 899 931 932 
f 900 933 901 
f 900 932 933 
f 901 934 902 
f 901 933 934 
f 902 935 903 
f 902 934 935 
f 903 936 904 
f 903 935 936 
f 904 937 905 
f 904 936 937 
f 905 938 906 
f 905 937 938 
f 906 939 907 
f 906 938 939 
f 907 940 908 
f 907 939 940 
f 908 941 909 
f 908 940 941 
f 909 942 910 
f 909 941 942 
f 910 943 911 
f 910 942 943 
f 911 944 912 
f 911 943 944 
f 912 945 913 
f 912 944 945 
f 913 946 914 
f 913 945 946 
f 914 947 915 
f 914 946 947 
f 915 948 916 
f 915 947 948 
f 916 949 917 
f 916 948 949 
f 917 950 918 
f 917 949 950 
f 918 951 919 
f 918 950 951 
f 919 952 920 
f 919 951 952 
f 920 953 921 
f 920 952 953 
f 921 954 922 
f 921 953 954 
f 922 955 923 
f 922 954 955 
f 923 956 924 
f 923 955 956 
f 924 957 925 
f 924 956 957 
f 925 958 926 
f 925 957 958 
f 926 959 927 
f 926 958 959 
f 927 960 928 
f 927 959 960 
f 928 929 897 
f 928 960 929 
f 929 962 930 
f 929 961 962 
f 930 963 931 
f 930 962 963 
f 931 964 932 
f 931 963 964 
f 932 965 933 
f 932 964 965 
f 933 966 934 
f 933 965 966 
f 934 967 935 
f 934 966 967 
f 935 968 936 
f 935 967 968 
f 936 969 937 
f 936 968 969 
f 937 970 938 
f 937 969 970 
f 938 971 939 
f 938 970 971 
f 939 972 940 
f 939 971 972 
f 940 973 941 
f 940 972 973 
f 941 974 942 
f 941 973 974 
f 942 975 943 
f 942 974 975 
f 943 976 944 
f 943 975 976 
f 944 977 945 
f 944 976 977 
f 945 978 946 
f 945 977 978 
f 946 979 947 
f 946 978 979 
f 947 980 948 
f 947 979 980 
f 948 981 949 
f 948 980 981 
f 949 982 950 
f 949 981 982 
f 950 983 951 
f 950 982 983 
f 951 984 952 
f 951 983 984 
f 952 985 953 
f 952 984 985 
f 953 986 954 
f 953 985 986 
f 954 987 955 
f 954 986 987 
f 955 988 956 
f 955 987 988 
f 956 989 957 
f 956 988 989 
f 957 990 958 
f 957 989 990 
f 958 991 959 
f 958 990 991 
f 959 992 960 
f 959 991 992 
f 960 961 929 
f 960 992 961 
f 961 994 962 
f 961 993 994 
f 962 995 963 
f 962 994 995 
f 963 996 964 
f 963 995 996 
f 964 997 965 
f 964 996 997 
f 965 998 966 
f 965 997 998 
f 966 999 967 
f 966 998 999 
f 967 1000 968 
f 967 999 1000 
f 968 1001 969 
f 968 1000 1001 
f 969 1002 970 
f 969 1001 1002 
f 970 1003 971 
f 970 1002 1003 
f 971 1004 972 
f 971 1003 1004 
f 972 1005 973 
f 972 1004 1005 
f 973 1006 974 
f 973 1005 1006 
f 974 1007 975 
f 974 1006 1007 
f 975 1008 976 
f 975 1007 1008 
f 976 1009 977 
f 976 1008 1009 
f 977 1010 978 
f 977 1009 1010 
f 978 1011 979 
f 978 1010 1011 
f 979 1012 980 
f 979 1011 1012 
f 980 1013 981 
f 980 1012 1013 
f 981 1014 982 
f 981 1013 1014 
f 982 1015 983 
f 982 1014 1015 
f 983 1016 984 
f 983 1015 1016 
f 984 1017 985 
f 984 1016 1017 
f 985 1018 986 
f 985 1017 1018 
f 986 1019 987 
f 986 1018 1019 
f 987 1020 988 
f 987 1019 1020 
f 988 1021 989 
f 988 1020 1021 
f 989 1022 990 
f 989 1021 1022 
f 990 1023 991 
f 990 1022 1023 
f 991 1024 992 
f 991 1023 1024 
f 992 993 961 
f 992 1024 993 
f 993 1026 994 
f 993 1025 1026 
f 994 1027 995 
f 994 1026 1027 
f 995 1028 996 
f 995 1027 1028 
f 996 1029 997 
f 996 1028 1029 
f 997 1030 998 
f 997 1029 1030 
f 998 1031 999 
f 998 1030 1031 
f 999 1032 1000 
f 999 1031 1032 
f 1000 1033 1001 
f 1000 1032 1033 
f 1001 1034 1002 
f 1001 1033 1034 
f 1002 1035 1003 
f 1002 1034 1035 
f 1003 1036 1004 
f 1003 1035 1036 
f 1004 1037 1005 
f 1004 1036 1037 
f 1005 1038 1006 
f 1005 1037 1038 
f 1006 1039 1007 
f 1006 1038 1039 
f 1007 1040 1008 
f 1007 1039 1040 
f 1008 1041 1009 
f 1008 1040 1041 
f 1009 1042 1010 
f 1009 1041 1042 
f 1010 1043 1011 
f 1010 1042 1043 
f 1011 1044 1012 
f 1011 1043 1044 
f 1012 1045 1013 
f 1012 1044 1045 
f 1013 1046 1014 
f 1013 1045 1046 
f 1014 1047 1015 
f 1014 1046 1047 
f 1015 1048 1016 
f 1015 1047 1048 
f 1016 1049 1017 
f 1016 1048 1049 
f 1017 1050 1018 
f 1017 1049 1050 
f 1018 1051 1019 
f 1018 1050 1051 
f 1019 1052 1020 
f 1019 1051 1052 
f 1020 1053 1021 
f 1020 1052 1053 
f 1021 1054 1022 
f 1021 1053 1054 
f 1022 1055 1023 
f 1022 1054 1055 
f 1023 1056 1024 
f 1023 1055 1056 
f 1024 1025 993 
f 1024 1056 1025 
f 1025 1058 1026 
f 1025 1057 1058 
f 1026 1059 1027 
f 1026 1058 1059 
f 1027 1060 1028 
f 1027 1059 1060 
f 1028 1061 1029 
f 1028 1060 1061 
f 1029 1062 1030 
f 1029 1061 1062 
f 1030 1063 1031 
f 1030 1062 1063 
f 1031 1064 1032 
f 1031 1063 1064 
f 1032 1065 1033 
f 1032 1064 1065 
f 1033 1066 1034 
f 1033 1065 1066 
f 1034 1067 1035 
f 1034 1066 1067 
f 1035 1068 1036 
f 1035 1067 1068 
f 1036 1069 1037 
f 1036 1068 1069 
f 1037 1070 1038 
f 1037 1069 1070 
f 1038 1071 1039 
f 1038 1070 1071 
f 1039 1072 1040 
f 1039 1071 1072 
f 1040 1073 1041 
f 1040 1072 1073 
f 1041 1074 1042 
f 1041 1073 1074 
f 1042 1075 1043 
f 1042 1074 1075 
f 1043 1076 1044 
f 1043 1075 1076 
f 1044 1077 1045 
f 1044 1076 1077 
f 1045 1078 1046 
f 1045 1077 1078 
f 1046 1079 1047 
f 1046 1078 1079 
f 1047 1080 1048 
f 1047 1079 1080 
f 1048 1081 1049 
f 1048 1080 1081 
f 1049 1082 1050 
f 1049 1081 1082 
f 1050 1083 1051 
f 1050 1082 1083 
f 1051 1084 1052 
f 1051 1083 1084 
f 1052 1085 1053 
f 1052 1084 1085 
f 1053 1086 1054 
f 1053 1085 1086 
f 1054 1087 1055 
f 1054 1086 1087 
f 1055 1088 1056 
f 1055 1087 1088 
f 1056 1057 1025 
f 1056 1088 1057 
f 1057 1090 1058 
f 1057 1089 1090 
f 1058 1091 1059 
f 1058 1090 1091 
f 1059 1092 1060 
f 1059 1091 1092 
f 1060 1093 1061 
f 1060 1092 1093 
f 1061 1094 1062 
f 1061 1093 1094 
f 1062 1095 1063 
f 1062 1094 1095 
f 1063 1096 1064 
f 1063 1095 1096 
f 1064 1097 1065 
f 1064 1096 1097 
f 1065 1098 1066 
f 1065 1097 1098 
f 1066 1099 1067 
f 1066 1098 1099 
f 1067 1100 1068 
f 1067 1099 1100 
f 1068 1101 1069 
f 1068 1100 1101 
f 1069 1102 1070 
f 1069 1101 1102 
f 1070 1103 1071 
f 1070 1102 1103 
f 1071 1104 1072 
f 1071 1103 1104 
f 1072 1105 1073 
f 1072 1104 1105 
f 1073 1106 1074 
f 1073 1105 1106 
f 1074 1107 1075 
f 1074 1106 1107 
f 1075 1108 1076 
f 1075 1107 1108 
f 1076 1109 1077 
f 1076 1108 1109 
f 1077 1110 1078 
f 1077 1109 1110 
f 1078 1111 1079 
f 1078 1110 1111 
f 1079 1112 1080 
f 1079 1111 1112 
f 1080 1113 1081 
f 1080 1112 1113 
f 1081 1114 1082 
f 1081 1113 1114 
f 1082 1115 1083 
f 1082 1114 1115 
f 1083 1116 1084 
f 1083 1115 1116 
f 1084 1117 1085 
f 1084 1116 1117 
f 1085 1118 1086 
f 1085 1117 1118 
f 1086 1119 1087 
f 1086 1118 1119 
f 1087 1120 1088 
f 1087 1119 1120 
f 1088 1089 1057 
f 1088 1120 1089 
f 1089 1122 1090 
f 1089 1121 1122 
f 1090 1123 1091 
f 1090 1122 1123 
f 1091 1124 1092 
f 1091 1123 1124 
f 1092 1125 1093 
f 1092 1124 1125 
f 1093 1126 1094 
f 1093 1125 1126 
f 1094 1127 1095 
f 1094 1126 1127 
f 1095 1128 1096 
f 1095 1127 1128 
f 1096 1129 1097 
f 1096 1128 1129 
f 1097 1130 1098 
f 1097 1129 1130 
f 1098 1131 1099 
f 1098 1130 1131 
f 1099 1132 1100 
f 1099 1131 1132 
f 1100 1133 1101 
f 1100 1132 1133 
f 1101 1134 1102 
f 1101 1133 1134 
f 1102 1135 1103 
f 1102 1134 1135 
f 1103 1136 1104 
f 1103 1135 1136 
f 1104 1137 1105 
f 1104 1136 1137 
f 1105 1138 1106 
f 1105 1137 1138 
f 1106 1139 1107 
f 1106 1138 1139 
f 1107 1140 1108 
f 1107 1139 1140 
f 1108 1141 1109 
f 1108 1140 1141 
f 1109 1142 1110 
f 1109 1141 1142 
f 1110 1143 1111 
f 1110 1142 1143 
f 1111 1144 1112 
f 1111 1143 1144 
f 1112 1145 1113 
f 1112 1144 1145 
f 1113 1146 1114 
f 1113 1145 1146 
f 1114 1147 1115 
f 1114 1146 1147 
f 1115 1148 1116 
f 1115 1147 1148 
f 1116 1149 1117 
f 1116 1148 1149 
f 1117 1150 1118 
f 1117 1149 1150 
f 1118 1151 1119 
f 1118 1150 1151 
f 1119 1152 1120 
f 1119 1151 1152 
f 1120 1121 1089 
f 1120 1152 1121 
