# Branch
v 216.715 -26.3684 -53.1471
v 216.72 -26.3688 -53.1895
v 216.733 -26.3667 -53.2302
v 216.753 -26.3622 -53.2676
v 216.779 -26.3556 -53.3003
v 216.811 -26.347 -53.3271
v 216.848 -26.3369 -53.3469
v 216.887 -26.3255 -53.3589
v 216.928 -26.3134 -53.3627
v 216.968 -26.3009 -53.3582
v 217.007 -26.2887 -53.3455
v 217.043 -26.2771 -53.3251
v 217.074 -26.2666 -53.2978
v 217.099 -26.2576 -53.2646
v 217.118 -26.2504 -53.2269
v 217.129 -26.2453 -53.186
v 217.132 -26.2426 -53.1436
v 217.127 -26.2423 -53.1012
v 217.114 -26.2444 -53.0605
v 217.094 -26.2488 -53.0231
v 217.068 -26.2555 -52.9904
v 217.036 -26.264 -52.9636
v 216.999 -26.2742 -52.9438
v 216.96 -26.2855 -52.9318
v 216.919 -26.2976 -52.9279
v 216.879 -26.3101 -52.9325
v 216.84 -26.3223 -52.9452
v 216.804 -26.3339 -52.9656
v 216.773 -26.3444 -52.9929
v 216.748 -26.3535 -53.026
v 216.729 -26.3606 -53.0638
v 216.718 -26.3657 -53.1047
v 216.315 -24.8009 -53.2107
v 216.32 -24.8015 -53.2528
v 216.333 -24.8003 -53.2933
v 216.353 -24.7975 -53.3304
v 216.38 -24.7931 -53.3628
v 216.412 -24.7873 -53.3893
v 216.449 -24.7803 -53.4089
v 216.489 -24.7724 -53.4207
v 216.531 -24.7638 -53.4244
v 216.572 -24.755 -53.4197
v 216.611 -24.7462 -53.407
v 216.648 -24.7379 -53.3866
v 216.679 -24.7302 -53.3593
v 216.705 -24.7235 -53.3262
v 216.724 -24.7181 -53.2886
v 216.735 -24.7142 -53.2479
v 216.738 -24.7119 -53.2057
v 216.733 -24.7113 -53.1636
v 216.721 -24.7124 -53.1232
v 216.7 -24.7153 -53.0861
v 216.673 -24.7197 -53.0536
v 216.641 -24.7255 -53.0271
v 216.604 -24.7325 -53.0076
v 216.564 -24.7404 -52.9957
v 216.522 -24.7489 -52.9921
v 216.481 -24.7578 -52.9967
v 216.442 -24.7665 -53.0095
v 216.406 -24.7749 -53.0299
v 216.374 -24.7826 -53.0572
v 216.348 -24.7892 -53.0902
v 216.329 -24.7946 -53.1278
v 216.318 -24.7986 -53.1685
v 216.073 -23.3209 -53.2626
v 216.078 -23.3217 -53.3045
v 216.091 -23.3214 -53.3446
v 216.111 -23.3201 -53.3815
v 216.139 -23.3179 -53.4137
v 216.171 -23.3148 -53.4399
v 216.209 -23.311 -53.4592
v 216.249 -23.3066 -53.4709
v 216.291 -23.3018 -53.4744
v 216.332 -23.2968 -53.4697
v 216.372 -23.2917 -53.4568
v 216.409 -23.2867 -53.4364
v 216.441 -23.2821 -53.4092
v 216.466 -23.278 -53.3763
v 216.486 -23.2746 -53.3388
v 216.497 -23.272 -53.2983
v 216.5 -23.2703 -53.2563
v 216.495 -23.2696 -53.2144
v 216.483 -23.2699 -53.1743
v 216.462 -23.2712 -53.1374
v 216.435 -23.2734 -53.1052
v 216.402 -23.2764 -53.079
v 216.365 -23.2802 -53.0597
v 216.325 -23.2846 -53.048
v 216.283 -23.2895 -53.0445
v 216.241 -23.2945 -53.0493
v 216.201 -23.2996 -53.0621
v 216.165 -23.3046 -53.0825
v 216.133 -23.3092 -53.1097
v 216.107 -23.3132 -53.1427
v 216.088 -23.3167 -53.1801
v 216.077 -23.3193 -53.2206
v 215.972 -21.9205 -53.2979
v 215.976 -21.9211 -53.3396
v 215.989 -21.9215 -53.3795
v 216.01 -21.9216 -53.4161
v 216.037 -21.9214 -53.448
v 216.07 -21.921 -53.4741
v 216.107 -21.9203 -53.4932
v 216.147 -21.9193 -53.5047
v 216.189 -21.9182 -53.5081
v 216.231 -21.9169 -53.5033
v 216.27 -21.9155 -53.4904
v 216.307 -21.9141 -53.4701
v 216.339 -21.9127 -53.4429
v 216.365 -21.9113 -53.4101
v 216.384 -21.9101 -53.3728
v 216.396 -21.909 -53.3325
v 216.399 -21.9081 -53.2907
v 216.394 -21.9075 -53.2491
v 216.381 -21.9071 -53.2092
v 216.361 -21.907 -53.1726
v 216.334 -21.9072 -53.1406
v 216.301 -21.9076 -53.1146
v 216.264 -21.9083 -53.0955
v 216.223 -21.9093 -53.084
v 216.182 -21.9104 -53.0806
v 216.14 -21.9117 -53.0854
v 216.1 -21.9131 -53.0982
v 216.063 -21.9145 -53.1186
v 216.031 -21.9159 -53.1457
v 216.005 -21.9173 -53.1786
v 215.986 -21.9185 -53.2159
v 215.975 -21.9196 -53.2562
v 215.991 -20.5915 -53.3119
v 215.996 -20.5918 -53.3533
v 216.009 -20.5926 -53.393
v 216.029 -20.5938 -53.4294
v 216.056 -20.5953 -53.4611
v 216.088 -20.5972 -53.487
v 216.126 -20.5993 -53.506
v 216.166 -20.6016 -53.5174
v 216.207 -20.6039 -53.5207
v 216.248 -20.6062 -53.5159
v 216.288 -20.6084 -53.5031
v 216.324 -20.6104 -53.4828
v 216.356 -20.6121 -53.4558
v 216.382 -20.6135 -53.4231
v 216.401 -20.6145 -53.386
v 216.412 -20.6151 -53.3459
v 216.415 -20.6153 -53.3044
v 216.411 -20.6149 -53.263
v 216.398 -20.6142 -53.2233
v 216.378 -20.613 -53.1869
v 216.351 -20.6114 -53.1552
v 216.318 -20.6096 -53.1293
v 216.281 -20.6075 -53.1103
v 216.241 -20.6052 -53.099
v 216.2 -20.6029 -53.0956
v 216.158 -20.6006 -53.1004
v 216.119 -20.5984 -53.1132
v 216.082 -20.5964 -53.1335
v 216.051 -20.5946 -53.1605
v 216.025 -20.5932 -53.1932
v 216.006 -20.5922 -53.2303
v 215.994 -20.5916 -53.2704
v 216.113 -19.3259 -53.2998
v 216.117 -19.3257 -53.341
v 216.13 -19.3265 -53.3804
v 216.15 -19.3284 -53.4166
v 216.177 -19.3313 -53.4482
v 216.209 -19.335 -53.4739
v 216.246 -19.3395 -53.4928
v 216.285 -19.3445 -53.5042
v 216.326 -19.3499 -53.5075
v 216.367 -19.3555 -53.5028
v 216.406 -19.361 -53.4901
v 216.442 -19.3662 -53.4699
v 216.473 -19.3709 -53.4431
v 216.499 -19.375 -53.4106
v 216.517 -19.3783 -53.3738
v 216.528 -19.3806 -53.3339
v 216.532 -19.382 -53.2926
v 216.527 -19.3822 -53.2515
v 216.514 -19.3814 -53.212
v 216.494 -19.3795 -53.1759
v 216.467 -19.3766 -53.1443
v 216.435 -19.3728 -53.1185
v 216.398 -19.3684 -53.0996
v 216.359 -19.3633 -53.0883
v 216.318 -19.3579 -53.0849
v 216.277 -19.3524 -53.0897
v 216.238 -19.3469 -53.1024
v 216.202 -19.3417 -53.1226
v 216.171 -19.3369 -53.1494
v 216.146 -19.3328 -53.1818
v 216.127 -19.3296 -53.2187
v 216.116 -19.3272 -53.2585
v 216.317 -18.1154 -53.257
v 216.322 -18.1144 -53.2978
v 216.335 -18.1149 -53.337
v 216.355 -18.1171 -53.373
v 216.381 -18.1208 -53.4044
v 216.413 -18.1259 -53.4301
v 216.449 -18.1322 -53.4489
v 216.488 -18.1395 -53.4603
v 216.528 -18.1474 -53.4637
v 216.568 -18.1557 -53.4591
v 216.607 -18.164 -53.4466
v 216.642 -18.1721 -53.4266
v 216.672 -18.1795 -53.4001
v 216.697 -18.1862 -53.3679
v 216.715 -18.1916 -53.3313
v 216.726 -18.1958 -53.2917
v 216.729 -18.1985 -53.2507
v 216.724 -18.1995 -53.2099
v 216.711 -18.199 -53.1707
v 216.691 -18.1968 -53.1347
v 216.665 -18.1931 -53.1032
v 216.633 -18.188 -53.0776
v 216.597 -18.1817 -53.0588
v 216.558 -18.1744 -53.0474
v 216.518 -18.1665 -53.044
v 216.478 -18.1582 -53.0486
v 216.44 -18.1499 -53.0611
v 216.404 -18.1418 -53.0811
v 216.374 -18.1343 -53.1076
v 216.349 -18.1277 -53.1398
v 216.331 -18.1222 -53.1764
v 216.32 -18.1181 -53.2159
v 216.585 -16.9516 -53.1787
v 216.59 -16.9495 -53.2193
v 216.603 -16.9494 -53.2582
v 216.623 -16.9514 -53.294
v 216.649 -16.9554 -53.3252
v 216.68 -16.9613 -53.3508
v 216.716 -16.9688 -53.3696
v 216.754 -16.9776 -53.381
v 216.794 -16.9874 -53.3845
v 216.833 -16.9978 -53.3801
v 216.871 -17.0085 -53.3678
v 216.905 -17.0189 -53.3481
v 216.935 -17.0288 -53.3219
v 216.959 -17.0377 -53.29
v 216.977 -17.0452 -53.2538
v 216.987 -17.0512 -53.2146
v 216.99 -17.0553 -53.1739
v 216.985 -17.0575 -53.1333
v 216.972 -17.0575 -53.0944
v 216.952 -17.0555 -53.0586
v 216.926 -17.0515 -53.0274
v 216.894 -17.0456 -53.0018
v 216.859 -17.0382 -52.983
v 216.82 -17.0293 -52.9716
v 216.781 -17.0195 -52.9681
v 216.741 -17.0091 -52.9725
v 216.704 -16.9985 -52.9848
v 216.669 -16.988 -53.0045
v 216.64 -16.9781 -53.0307
v 216.615 -16.9693 -53.0626
v 216.598 -16.9617 -53.0988
v 216.588 -16.9557 -53.138
v 216.897 -15.8257 -53.0605
v 216.902 -15.8223 -53.1007
v 216.915 -15.8212 -53.1393
v 216.935 -15.8226 -53.1748
v 216.961 -15.8264 -53.2059
v 216.993 -15.8324 -53.2313
v 217.028 -15.8404 -53.2501
v 217.066 -15.8501 -53.2615
v 217.105 -15.8611 -53.2651
v 217.143 -15.873 -53.2609
v 217.18 -15.8854 -53.2488
v 217.214 -15.8977 -53.2295
v 217.243 -15.9095 -53.2036
v 217.267 -15.9204 -53.1721
v 217.283 -15.9299 -53.1363
v 217.293 -15.9376 -53.0975
v 217.295 -15.9433 -53.0573
v 217.29 -15.9468 -53.0171
v 217.277 -15.9478 -52.9785
v 217.257 -15.9464 -52.9429
v 217.231 -15.9426 -52.9119
v 217.2 -15.9366 -52.8865
v 217.164 -15.9286 -52.8677
v 217.127 -15.9189 -52.8563
v 217.088 -15.9079 -52.8526
v 217.049 -15.896 -52.8569
v 217.012 -15.8836 -52.8689
v 216.978 -15.8713 -52.8883
v 216.949 -15.8595 -52.9142
v 216.926 -15.8486 -52.9456
v 216.909 -15.8391 -52.9815
v 216.899 -15.8314 -53.0202
v 217.234 -14.7289 -52.898
v 217.24 -14.7239 -52.9377
v 217.253 -14.7216 -52.9759
v 217.273 -14.7219 -53.011
v 217.299 -14.7249 -53.0418
v 217.331 -14.7304 -53.067
v 217.366 -14.7382 -53.0857
v 217.403 -14.7481 -53.0971
v 217.442 -14.7596 -53.1008
v 217.48 -14.7724 -53.0966
v 217.516 -14.7858 -53.0848
v 217.549 -14.7995 -53.0658
v 217.578 -14.8129 -53.0403
v 217.601 -14.8254 -53.0093
v 217.617 -14.8366 -52.9739
v 217.626 -14.846 -52.9356
v 217.628 -14.8533 -52.8958
v 217.622 -14.8583 -52.8561
v 217.609 -14.8607 -52.8179
v 217.588 -14.8603 -52.7828
v 217.562 -14.8574 -52.752
v 217.531 -14.8519 -52.7268
v 217.496 -14.844 -52.7081
v 217.458 -14.8341 -52.6967
v 217.42 -14.8226 -52.693
v 217.381 -14.8099 -52.6972
v 217.345 -14.7964 -52.709
v 217.312 -14.7827 -52.728
v 217.284 -14.7694 -52.7535
v 217.261 -14.7569 -52.7845
v 217.245 -14.7457 -52.8199
v 217.235 -14.7362 -52.8582
v 217.577 -13.6521 -52.6867
v 217.583 -13.6455 -52.7259
v 217.597 -13.6415 -52.7635
v 217.617 -13.6403 -52.7981
v 217.644 -13.6419 -52.8285
v 217.675 -13.6464 -52.8533
v 217.71 -13.6534 -52.8717
v 217.748 -13.6628 -52.8829
v 217.786 -13.6741 -52.8866
v 217.824 -13.687 -52.8825
v 217.86 -13.701 -52.8709
v 217.893 -13.7154 -52.8522
v 217.921 -13.7298 -52.827
v 217.943 -13.7437 -52.7964
v 217.959 -13.7564 -52.7616
v 217.967 -13.7674 -52.7239
v 217.968 -13.7765 -52.6846
v 217.962 -13.7831 -52.6454
v 217.948 -13.7871 -52.6078
v 217.928 -13.7883 -52.5732
v 217.901 -13.7866 -52.5428
v 217.87 -13.7822 -52.518
v 217.835 -13.7752 -52.4996
v 217.797 -13.7658 -52.4884
v 217.759 -13.7545 -52.4847
v 217.721 -13.7416 -52.4888
v 217.685 -13.7276 -52.5004
v 217.652 -13.7132 -52.5191
v 217.624 -13.6987 -52.5443
v 217.602 -13.6849 -52.5749
v 217.586 -13.6722 -52.6097
v 217.578 -13.6612 -52.6474
v 217.907 -12.5864 -52.4222
v 217.914 -12.5779 -52.4607
v 217.928 -12.572 -52.4977
v 217.949 -12.5688 -52.5316
v 217.976 -12.5687 -52.5613
v 218.008 -12.5714 -52.5856
v 218.043 -12.577 -52.6036
v 218.081 -12.5852 -52.6145
v 218.119 -12.5957 -52.6179
v 218.157 -12.6081 -52.6138
v 218.193 -12.6219 -52.6022
v 218.225 -12.6367 -52.5836
v 218.253 -12.6517 -52.5588
v 218.274 -12.6665 -52.5286
v 218.29 -12.6804 -52.4943
v 218.298 -12.693 -52.4572
v 218.298 -12.7038 -52.4186
v 218.291 -12.7123 -52.3801
v 218.277 -12.7182 -52.3432
v 218.256 -12.7213 -52.3092
v 218.229 -12.7215 -52.2795
v 218.197 -12.7187 -52.2552
v 218.162 -12.7131 -52.2373
v 218.124 -12.7049 -52.2264
v 218.086 -12.6944 -52.2229
v 218.048 -12.682 -52.2271
v 218.012 -12.6682 -52.2387
v 217.98 -12.6535 -52.2572
v 217.952 -12.6385 -52.2821
v 217.931 -12.6237 -52.3122
v 217.915 -12.6097 -52.3465
v 217.907 -12.5971 -52.3837
v 218.206 -11.5223 -52.1002
v 218.214 -11.5119 -52.1379
v 218.228 -11.5038 -52.174
v 218.25 -11.4984 -52.2071
v 218.277 -11.496 -52.2359
v 218.309 -11.4966 -52.2594
v 218.345 -11.5002 -52.2767
v 218.383 -11.5066 -52.287
v 218.421 -11.5157 -52.29
v 218.459 -11.527 -52.2855
v 218.495 -11.5401 -52.2738
v 218.527 -11.5546 -52.2553
v 218.555 -11.5698 -52.2307
v 218.576 -11.5852 -52.201
v 218.591 -11.6002 -52.1672
v 218.598 -11.6142 -52.1307
v 218.598 -11.6267 -52.0929
v 218.591 -11.6372 -52.0552
v 218.576 -11.6452 -52.0192
v 218.555 -11.6506 -51.9861
v 218.527 -11.653 -51.9572
v 218.495 -11.6524 -51.9337
v 218.46 -11.6488 -51.9165
v 218.422 -11.6424 -51.9061
v 218.383 -11.6333 -51.9031
v 218.345 -11.622 -51.9076
v 218.309 -11.6089 -51.9193
v 218.277 -11.5944 -51.9378
v 218.25 -11.5792 -51.9624
v 218.228 -11.5638 -51.9922
v 218.214 -11.5488 -52.0259
v 218.206 -11.5348 -52.0624
v 218.464 -10.4509 -51.7193
v 218.472 -10.4387 -51.7561
v 218.488 -10.4287 -51.7913
v 218.509 -10.4214 -51.8235
v 218.537 -10.4169 -51.8514
v 218.569 -10.4155 -51.8741
v 218.605 -10.4172 -51.8906
v 218.644 -10.422 -51.9003
v 218.682 -10.4296 -51.9028
v 218.72 -10.4398 -51.898
v 218.756 -10.4523 -51.8861
v 218.788 -10.4664 -51.8676
v 218.815 -10.4817 -51.8432
v 218.836 -10.4975 -51.8138
v 218.851 -10.5134 -51.7806
v 218.858 -10.5285 -51.7447
v 218.858 -10.5425 -51.7077
v 218.85 -10.5547 -51.6709
v 218.835 -10.5647 -51.6357
v 218.813 -10.5721 -51.6035
v 218.785 -10.5765 -51.5756
v 218.753 -10.578 -51.5529
v 218.717 -10.5762 -51.5364
v 218.679 -10.5715 -51.5267
v 218.64 -10.5638 -51.5242
v 218.602 -10.5536 -51.529
v 218.566 -10.5412 -51.5409
v 218.534 -10.5271 -51.5594
v 218.507 -10.5118 -51.5838
v 218.486 -10.4959 -51.6132
v 218.471 -10.4801 -51.6464
v 218.464 -10.4649 -51.6823
v 218.688 -9.37108 -51.2864
v 218.696 -9.35749 -51.3224
v 218.711 -9.34598 -51.3568
v 218.733 -9.337 -51.3881
v 218.761 -9.3309 -51.4153
v 218.794 -9.32791 -51.4371
v 218.83 -9.32814 -51.4529
v 218.868 -9.33159 -51.4621
v 218.907 -9.33812 -51.4641
v 218.945 -9.34749 -51.459
v 218.98 -9.35933 -51.4471
v 219.012 -9.37318 -51.4286
v 219.039 -9.38852 -51.4044
v 219.06 -9.40476 -51.3753
v 219.074 -9.42126 -51.3426
v 219.081 -9.43741 -51.3073
v 219.081 -9.45257 -51.271
v 219.073 -9.46617 -51.235
v 219.057 -9.47768 -51.2007
v 219.035 -9.48665 -51.1693
v 219.007 -9.49276 -51.1422
v 218.975 -9.49575 -51.1203
v 218.939 -9.49551 -51.1045
v 218.9 -9.49207 -51.0954
v 218.862 -9.48553 -51.0933
v 218.824 -9.47617 -51.0984
v 218.788 -9.46433 -51.1104
v 218.756 -9.45048 -51.1288
v 218.729 -9.43513 -51.1531
v 218.708 -9.4189 -51.1821
v 218.694 -9.40239 -51.2149
v 218.687 -9.38625 -51.2501
v 218.883 -8.28369 -50.8098
v 218.891 -8.26904 -50.8451
v 218.907 -8.25637 -50.8787
v 218.929 -8.24616 -50.9093
v 218.957 -8.23882 -50.9357
v 218.989 -8.23462 -50.957
v 219.026 -8.23373 -50.9722
v 219.064 -8.23618 -50.9808
v 219.102 -8.24187 -50.9825
v 219.14 -8.25059 -50.9772
v 219.176 -8.26199 -50.9651
v 219.207 -8.27566 -50.9467
v 219.234 -8.29105 -50.9227
v 219.255 -8.30758 -50.894
v 219.269 -8.32461 -50.8617
v 219.276 -8.34148 -50.827
v 219.275 -8.35756 -50.7913
v 219.267 -8.37221 -50.756
v 219.251 -8.38488 -50.7224
v 219.229 -8.39509 -50.6918
v 219.201 -8.40243 -50.6654
v 219.168 -8.40663 -50.6441
v 219.132 -8.40752 -50.6289
v 219.094 -8.40507 -50.6203
v 219.055 -8.39938 -50.6186
v 219.018 -8.39066 -50.6239
v 218.982 -8.37925 -50.636
v 218.951 -8.36559 -50.6544
v 218.924 -8.3502 -50.6784
v 218.903 -8.33367 -50.7071
v 218.889 -8.31664 -50.7394
v 218.882 -8.29977 -50.7741
v 219.057 -7.18965 -50.2977
v 219.065 -7.17424 -50.3325
v 219.081 -7.16073 -50.3655
v 219.103 -7.14965 -50.3955
v 219.131 -7.14143 -50.4213
v 219.164 -7.13637 -50.442
v 219.2 -7.13468 -50.4568
v 219.238 -7.13642 -50.465
v 219.276 -7.14152 -50.4664
v 219.314 -7.14979 -50.461
v 219.349 -7.1609 -50.4489
v 219.381 -7.17444 -50.4305
v 219.407 -7.18987 -50.4067
v 219.428 -7.20662 -50.3783
v 219.442 -7.22403 -50.3464
v 219.448 -7.24143 -50.3122
v 219.447 -7.25816 -50.2771
v 219.439 -7.27358 -50.2424
v 219.423 -7.28708 -50.2094
v 219.401 -7.29816 -50.1794
v 219.373 -7.30639 -50.1535
v 219.341 -7.31144 -50.1328
v 219.305 -7.31314 -50.118
v 219.267 -7.3114 -50.1098
v 219.228 -7.3063 -50.1084
v 219.191 -7.29803 -50.1138
v 219.155 -7.28692 -50.1259
v 219.124 -7.27338 -50.1443
v 219.097 -7.25795 -50.1681
v 219.076 -7.2412 -50.1965
v 219.063 -7.22379 -50.2284
v 219.056 -7.20639 -50.2626
v 219.217 -6.08986 -49.7586
v 219.225 -6.07395 -49.7929
v 219.241 -6.05992 -49.8254
v 219.263 -6.04829 -49.8549
v 219.291 -6.0395 -49.8803
v 219.323 -6.03391 -49.9006
v 219.359 -6.03172 -49.9151
v 219.397 -6.03302 -49.9231
v 219.435 -6.03776 -49.9243
v 219.473 -6.04575 -49.9188
v 219.508 -6.05669 -49.9067
v 219.539 -6.07016 -49.8884
v 219.566 -6.08564 -49.8648
v 219.586 -6.10253 -49.8367
v 219.6 -6.1202 -49.8051
v 219.606 -6.13795 -49.7714
v 219.605 -6.1551 -49.7367
v 219.597 -6.171 -49.7024
v 219.581 -6.18504 -49.6699
v 219.559 -6.19667 -49.6404
v 219.531 -6.20545 -49.615
v 219.499 -6.21105 -49.5947
v 219.463 -6.21323 -49.5802
v 219.425 -6.21194 -49.5722
v 219.387 -6.2072 -49.571
v 219.349 -6.19921 -49.5765
v 219.314 -6.18827 -49.5886
v 219.283 -6.1748 -49.6068
v 219.257 -6.15932 -49.6305
v 219.236 -6.14242 -49.6586
v 219.222 -6.12476 -49.6902
v 219.216 -6.10701 -49.7239
v 219.369 -4.98517 -49.2008
v 219.378 -4.96903 -49.2347
v 219.393 -4.95475 -49.2669
v 219.415 -4.94286 -49.2961
v 219.443 -4.93382 -49.3212
v 219.476 -4.92799 -49.3412
v 219.511 -4.92558 -49.3555
v 219.549 -4.9267 -49.3633
v 219.587 -4.93128 -49.3645
v 219.624 -4.93917 -49.359
v 219.659 -4.95005 -49.3469
v 219.69 -4.96351 -49.3288
v 219.717 -4.97903 -49.3054
v 219.737 -4.99601 -49.2775
v 219.751 -5.01381 -49.2463
v 219.757 -5.03173 -49.2128
v 219.756 -5.0491 -49.1785
v 219.748 -5.06523 -49.1446
v 219.732 -5.07952 -49.1124
v 219.71 -5.0914 -49.0832
v 219.682 -5.10044 -49.0581
v 219.65 -5.10627 -49.038
v 219.614 -5.10868 -49.0238
v 219.577 -5.10757 -49.0159
v 219.539 -5.10298 -49.0148
v 219.501 -5.0951 -49.0203
v 219.466 -5.08421 -49.0323
v 219.435 -5.07075 -49.0504
v 219.409 -5.05523 -49.0739
v 219.389 -5.03825 -49.1017
v 219.375 -5.02045 -49.133
v 219.368 -5.00253 -49.1665
v 219.522 -3.87643 -48.6326
v 219.531 -3.8603 -48.6663
v 219.546 -3.84603 -48.6982
v 219.568 -3.83417 -48.7273
v 219.596 -3.82517 -48.7522
v 219.628 -3.81938 -48.7722
v 219.663 -3.81702 -48.7864
v 219.701 -3.81818 -48.7942
v 219.739 -3.82282 -48.7954
v 219.776 -3.83076 -48.79
v 219.81 -3.84169 -48.778
v 219.841 -3.85519 -48.7601
v 219.867 -3.87075 -48.7369
v 219.888 -3.88777 -48.7092
v 219.901 -3.90559 -48.6782
v 219.908 -3.92353 -48.645
v 219.907 -3.9409 -48.6109
v 219.898 -3.95703 -48.5772
v 219.883 -3.97129 -48.5453
v 219.861 -3.98316 -48.5162
v 219.833 -3.99216 -48.4913
v 219.801 -3.99795 -48.4713
v 219.766 -4.00031 -48.4572
v 219.728 -3.99915 -48.4493
v 219.69 -3.99451 -48.4481
v 219.653 -3.98657 -48.4535
v 219.618 -3.97564 -48.4655
v 219.587 -3.96214 -48.4834
v 219.561 -3.94658 -48.5066
v 219.541 -3.92956 -48.5343
v 219.527 -3.91174 -48.5653
v 219.521 -3.8938 -48.5985
v 219.682 -2.76448 -48.0625
v 219.69 -2.74858 -48.096
v 219.706 -2.73459 -48.1279
v 219.727 -2.72302 -48.1569
v 219.755 -2.71433 -48.1819
v 219.787 -2.70885 -48.2018
v 219.822 -2.70679 -48.2161
v 219.859 -2.70824 -48.224
v 219.897 -2.71312 -48.2254
v 219.934 -2.72127 -48.2201
v 219.968 -2.73236 -48.2084
v 219.999 -2.74596 -48.1906
v 220.025 -2.76156 -48.1676
v 220.045 -2.77856 -48.1401
v 220.059 -2.7963 -48.1093
v 220.065 -2.8141 -48.0762
v 220.064 -2.83128 -48.0423
v 220.056 -2.84717 -48.0087
v 220.04 -2.86117 -47.9768
v 220.018 -2.87273 -47.9479
v 219.991 -2.88142 -47.9229
v 219.959 -2.8869 -47.9029
v 219.924 -2.88896 -47.8887
v 219.887 -2.88751 -47.8807
v 219.849 -2.88263 -47.8794
v 219.812 -2.87448 -47.8847
v 219.778 -2.86339 -47.8964
v 219.747 -2.84979 -47.9141
v 219.721 -2.83419 -47.9372
v 219.701 -2.81719 -47.9647
v 219.687 -2.79945 -47.9955
v 219.681 -2.78165 -48.0285
v 219.856 -1.6501 -47.4988
v 219.864 -1.63467 -47.5323
v 219.879 -1.6212 -47.5643
v 219.901 -1.6102 -47.5933
v 219.928 -1.60209 -47.6184
v 219.96 -1.5972 -47.6386
v 219.995 -1.5957 -47.653
v 220.032 -1.59765 -47.6612
v 220.069 -1.60298 -47.6628
v 220.106 -1.61149 -47.6577
v 220.14 -1.62284 -47.6462
v 220.17 -1.6366 -47.6287
v 220.196 -1.65224 -47.6058
v 220.216 -1.66917 -47.5785
v 220.23 -1.68672 -47.5478
v 220.236 -1.70423 -47.5149
v 220.235 -1.72103 -47.481
v 220.227 -1.73646 -47.4474
v 220.212 -1.74993 -47.4155
v 220.19 -1.76093 -47.3864
v 220.163 -1.76903 -47.3613
v 220.131 -1.77393 -47.3411
v 220.096 -1.77543 -47.3267
v 220.059 -1.77348 -47.3185
v 220.022 -1.76815 -47.317
v 219.985 -1.75964 -47.322
v 219.951 -1.74829 -47.3335
v 219.921 -1.73453 -47.351
v 219.895 -1.71888 -47.3739
v 219.875 -1.70196 -47.4012
v 219.861 -1.6844 -47.4319
v 219.855 -1.66689 -47.4649
v 220.051 -0.53409 -46.9499
v 220.059 -0.519352 -46.9836
v 220.074 -0.506657 -47.0157
v 220.096 -0.496493 -47.045
v 220.123 -0.489251 -47.0703
v 220.154 -0.485209 -47.0908
v 220.189 -0.484522 -47.1056
v 220.225 -0.487218 -47.114
v 220.262 -0.493191 -47.1159
v 220.298 -0.502214 -47.1112
v 220.332 -0.513938 -47.1
v 220.363 -0.527914 -47.0827
v 220.388 -0.543604 -47.06
v 220.408 -0.560406 -47.0328
v 220.422 -0.577673 -47.0022
v 220.428 -0.594742 -46.9693
v 220.427 -0.610958 -46.9353
v 220.419 -0.625697 -46.9016
v 220.404 -0.638392 -46.8695
v 220.383 -0.648556 -46.8402
v 220.356 -0.655798 -46.8149
v 220.325 -0.65984 -46.7944
v 220.29 -0.660526 -46.7797
v 220.253 -0.657831 -46.7712
v 220.216 -0.651857 -46.7693
v 220.18 -0.642835 -46.774
v 220.146 -0.63111 -46.7853
v 220.116 -0.617134 -46.8025
v 220.09 -0.601444 -46.8252
v 220.07 -0.584643 -46.8524
v 220.057 -0.567375 -46.883
v 220.05 -0.550306 -46.916
v 220.275 0.582783 -46.4243
v 220.283 0.596597 -46.4582
v 220.298 0.608254 -46.4906
v 220.319 0.617304 -46.5202
v 220.345 0.623401 -46.5459
v 220.376 0.626309 -46.5668
v 220.41 0.625918 -46.582
v 220.447 0.622243 -46.5909
v 220.483 0.615423 -46.5932
v 220.519 0.605723 -46.5888
v 220.553 0.593513 -46.5779
v 220.583 0.579265 -46.5609
v 220.609 0.563524 -46.5384
v 220.628 0.546896 -46.5113
v 220.642 0.530021 -46.4807
v 220.648 0.513546 -46.4477
v 220.647 0.498104 -46.4136
v 220.64 0.48429 -46.3798
v 220.625 0.472634 -46.3474
v 220.604 0.463584 -46.3177
v 220.577 0.457487 -46.292
v 220.546 0.454578 -46.2711
v 220.512 0.454969 -46.256
v 220.476 0.458645 -46.2471
v 220.439 0.465464 -46.2447
v 220.403 0.475165 -46.2491
v 220.37 0.487374 -46.2601
v 220.34 0.501623 -46.2771
v 220.314 0.517364 -46.2996
v 220.294 0.533991 -46.3266
v 220.281 0.550867 -46.3572
v 220.274 0.567342 -46.3902
v 220.534 1.69957 -45.9302
v 220.542 1.71227 -45.9644
v 220.556 1.72267 -45.9971
v 220.577 1.73038 -46.0271
v 220.603 1.7351 -46.0533
v 220.634 1.73665 -46.0747
v 220.667 1.73496 -46.0903
v 220.703 1.73011 -46.0997
v 220.739 1.72228 -46.1025
v 220.775 1.71177 -46.0985
v 220.808 1.69898 -46.0879
v 220.838 1.68441 -46.0712
v 220.863 1.66862 -46.0489
v 220.883 1.65221 -46.0219
v 220.896 1.63581 -45.9913
v 220.903 1.62005 -45.9582
v 220.902 1.60555 -45.9239
v 220.895 1.59285 -45.8898
v 220.88 1.58245 -45.857
v 220.86 1.57474 -45.827
v 220.834 1.57002 -45.8008
v 220.803 1.56848 -45.7795
v 220.77 1.57016 -45.7638
v 220.734 1.57501 -45.7544
v 220.698 1.58284 -45.7516
v 220.662 1.59336 -45.7556
v 220.629 1.60614 -45.7662
v 220.599 1.62071 -45.7829
v 220.574 1.63651 -45.8052
v 220.554 1.65292 -45.8322
v 220.541 1.66932 -45.8628
v 220.534 1.68507 -45.8959
v 220.83 2.81475 -45.47
v 220.837 2.82642 -45.5043
v 220.851 2.83567 -45.5373
v 220.872 2.84215 -45.5677
v 220.897 2.84561 -45.5943
v 220.927 2.84591 -45.616
v 220.96 2.84304 -45.6321
v 220.996 2.83711 -45.6419
v 221.031 2.82836 -45.645
v 221.067 2.81711 -45.6414
v 221.1 2.8038 -45.6311
v 221.129 2.78894 -45.6146
v 221.154 2.7731 -45.5925
v 221.174 2.75689 -45.5656
v 221.187 2.74093 -45.535
v 221.194 2.72584 -45.5019
v 221.194 2.7122 -45.4675
v 221.186 2.70053 -45.4331
v 221.172 2.69127 -45.4001
v 221.152 2.68479 -45.3697
v 221.127 2.68134 -45.3432
v 221.097 2.68104 -45.3214
v 221.063 2.68391 -45.3054
v 221.028 2.68983 -45.2956
v 220.992 2.69859 -45.2924
v 220.957 2.70984 -45.296
v 220.924 2.72315 -45.3063
v 220.895 2.73801 -45.3228
v 220.87 2.75385 -45.3449
v 220.85 2.77006 -45.3718
v 220.837 2.78601 -45.4024
v 220.83 2.8011 -45.4355
v 221.158 3.92815 -45.0393
v 221.165 3.93895 -45.0738
v 221.178 3.94721 -45.107
v 221.198 3.95264 -45.1375
v 221.223 3.95502 -45.1644
v 221.253 3.95425 -45.1864
v 221.285 3.95037 -45.2028
v 221.32 3.94352 -45.2129
v 221.355 3.93398 -45.2163
v 221.39 3.9221 -45.213
v 221.423 3.90835 -45.203
v 221.452 3.89324 -45.1867
v 221.477 3.87737 -45.1647
v 221.497 3.86134 -45.138
v 221.51 3.84577 -45.1074
v 221.517 3.83125 -45.0743
v 221.517 3.81835 -45.0398
v 221.51 3.80755 -45.0053
v 221.496 3.79929 -44.9721
v 221.476 3.79386 -44.9415
v 221.451 3.79149 -44.9147
v 221.422 3.79225 -44.8927
v 221.389 3.79613 -44.8763
v 221.354 3.80298 -44.8662
v 221.319 3.81252 -44.8627
v 221.284 3.8244 -44.8661
v 221.252 3.83815 -44.8761
v 221.222 3.85326 -44.8924
v 221.197 3.86913 -44.9143
v 221.178 3.88516 -44.9411
v 221.164 3.90073 -44.9716
v 221.157 3.91525 -45.0048
v 221.512 5.03987 -44.6334
v 221.519 5.04993 -44.668
v 221.532 5.05737 -44.7012
v 221.551 5.06193 -44.732
v 221.576 5.0634 -44.759
v 221.605 5.06175 -44.7812
v 221.638 5.05704 -44.7978
v 221.672 5.04944 -44.8082
v 221.707 5.03924 -44.8119
v 221.741 5.02685 -44.8087
v 221.773 5.01273 -44.7989
v 221.803 4.99743 -44.7828
v 221.827 4.98154 -44.7611
v 221.847 4.96566 -44.7344
v 221.86 4.95041 -44.7039
v 221.867 4.93637 -44.6708
v 221.867 4.92409 -44.6363
v 221.86 4.91403 -44.6018
v 221.847 4.90658 -44.5685
v 221.828 4.90203 -44.5377
v 221.803 4.90055 -44.5107
v 221.774 4.9022 -44.4885
v 221.742 4.90692 -44.4719
v 221.707 4.91452 -44.4616
v 221.672 4.92471 -44.4579
v 221.638 4.93711 -44.461
v 221.606 4.95123 -44.4708
v 221.577 4.96653 -44.4869
v 221.552 4.98242 -44.5087
v 221.532 4.9983 -44.5353
v 221.519 5.01355 -44.5658
v 221.512 5.02758 -44.5989
v 221.889 6.14997 -44.2476
v 221.895 6.15945 -44.2822
v 221.908 6.16624 -44.3155
v 221.927 6.1701 -44.3463
v 221.952 6.17086 -44.3734
v 221.98 6.16852 -44.3958
v 222.012 6.16314 -44.4125
v 222.046 6.15494 -44.423
v 222.081 6.14424 -44.4269
v 222.115 6.13144 -44.424
v 222.147 6.11704 -44.4144
v 222.176 6.1016 -44.3984
v 222.2 6.08569 -44.3768
v 222.22 6.06995 -44.3503
v 222.233 6.05496 -44.3199
v 222.24 6.04131 -44.2869
v 222.24 6.02952 -44.2524
v 222.234 6.02005 -44.2178
v 222.221 6.01325 -44.1845
v 222.202 6.0094 -44.1537
v 222.177 6.00863 -44.1266
v 222.149 6.01098 -44.1043
v 222.117 6.01636 -44.0875
v 222.083 6.02455 -44.077
v 222.048 6.03525 -44.0731
v 222.014 6.04805 -44.0761
v 221.982 6.06245 -44.0857
v 221.953 6.0779 -44.1016
v 221.929 6.0938 -44.1232
v 221.909 6.10955 -44.1498
v 221.896 6.12453 -44.1801
v 221.889 6.13818 -44.2132
v 222.283 7.25856 -43.8773
v 222.289 7.2676 -43.9118
v 222.302 7.27391 -43.9451
v 222.321 7.27724 -43.9759
v 222.345 7.27748 -44.003
v 222.373 7.27462 -44.0254
v 222.405 7.26875 -44.0423
v 222.438 7.26012 -44.0529
v 222.473 7.24905 -44.0569
v 222.506 7.23596 -44.0541
v 222.538 7.22136 -44.0446
v 222.567 7.20581 -44.0288
v 222.591 7.18991 -44.0073
v 222.61 7.17427 -43.9809
v 222.624 7.15949 -43.9507
v 222.631 7.14613 -43.9177
v 222.631 7.13472 -43.8834
v 222.625 7.12569 -43.8489
v 222.612 7.11938 -43.8156
v 222.593 7.11604 -43.7848
v 222.569 7.1158 -43.7576
v 222.541 7.11867 -43.7352
v 222.509 7.12453 -43.7184
v 222.476 7.13317 -43.7078
v 222.442 7.14424 -43.7038
v 222.408 7.15733 -43.7066
v 222.376 7.17192 -43.7161
v 222.347 7.18747 -43.7318
v 222.323 7.20337 -43.7533
v 222.304 7.21902 -43.7797
v 222.29 7.2338 -43.81
v 222.283 7.24715 -43.8429
v 222.69 8.36574 -43.5176
v 222.696 8.37448 -43.552
v 222.709 8.38046 -43.5852
v 222.727 8.38345 -43.616
v 222.751 8.38335 -43.6431
v 222.779 8.38014 -43.6655
v 222.811 8.37397 -43.6824
v 222.844 8.36505 -43.693
v 222.878 8.35374 -43.6971
v 222.911 8.34047 -43.6944
v 222.943 8.32576 -43.685
v 222.971 8.31015 -43.6694
v 222.995 8.29427 -43.648
v 223.015 8.27871 -43.6218
v 223.028 8.26407 -43.5917
v 223.035 8.25092 -43.5589
v 223.035 8.23977 -43.5246
v 223.029 8.23103 -43.4902
v 223.016 8.22505 -43.457
v 222.998 8.22205 -43.4262
v 222.974 8.22216 -43.3991
v 222.946 8.22536 -43.3767
v 222.915 8.23154 -43.3599
v 222.882 8.24046 -43.3492
v 222.848 8.25177 -43.3451
v 222.814 8.26503 -43.3478
v 222.783 8.27975 -43.3572
v 222.754 8.29535 -43.3729
v 222.73 8.31124 -43.3942
v 222.711 8.3268 -43.4205
v 222.697 8.34144 -43.4506
v 222.69 8.35459 -43.4834
v 223.105 9.47161 -43.164
v 223.111 9.48019 -43.1983
v 223.124 9.486 -43.2313
v 223.142 9.48882 -43.262
v 223.166 9.48854 -43.289
v 223.194 9.48518 -43.3113
v 223.225 9.47885 -43.3281
v 223.258 9.46981 -43.3388
v 223.291 9.4584 -43.3429
v 223.325 9.44506 -43.3403
v 223.356 9.4303 -43.331
v 223.384 9.41469 -43.3154
v 223.408 9.39883 -43.2942
v 223.427 9.38333 -43.2681
v 223.441 9.36878 -43.2382
v 223.448 9.35575 -43.2055
v 223.448 9.34473 -43.1714
v 223.442 9.33615 -43.1372
v 223.429 9.33034 -43.1041
v 223.411 9.32752 -43.0735
v 223.387 9.32779 -43.0465
v 223.36 9.33116 -43.0241
v 223.329 9.33748 -43.0073
v 223.296 9.34653 -42.9966
v 223.262 9.35794 -42.9925
v 223.229 9.37128 -42.9952
v 223.197 9.38604 -43.0044
v 223.169 9.40165 -43.02
v 223.145 9.41751 -43.0412
v 223.126 9.43301 -43.0673
v 223.113 9.44755 -43.0972
v 223.106 9.46059 -43.1299
v 223.524 10.5763 -42.8117
v 223.53 10.5848 -42.8458
v 223.542 10.5906 -42.8787
v 223.561 10.5934 -42.9091
v 223.584 10.5932 -42.936
v 223.612 10.5898 -42.9582
v 223.643 10.5835 -42.975
v 223.675 10.5745 -42.9856
v 223.709 10.5631 -42.9897
v 223.742 10.5498 -42.987
v 223.773 10.5351 -42.9778
v 223.801 10.5195 -42.9624
v 223.825 10.5037 -42.9413
v 223.844 10.4882 -42.9154
v 223.857 10.4737 -42.8856
v 223.864 10.4607 -42.8531
v 223.865 10.4497 -42.8192
v 223.858 10.4411 -42.7851
v 223.846 10.4353 -42.7523
v 223.828 10.4325 -42.7218
v 223.804 10.4328 -42.6949
v 223.777 10.4361 -42.6727
v 223.746 10.4425 -42.6559
v 223.713 10.4515 -42.6453
v 223.679 10.4629 -42.6413
v 223.646 10.4762 -42.6439
v 223.615 10.4909 -42.6531
v 223.587 10.5065 -42.6685
v 223.563 10.5223 -42.6896
v 223.544 10.5377 -42.7156
v 223.531 10.5523 -42.7453
v 223.524 10.5653 -42.7778
v 223.941 11.6798 -42.4561
v 223.947 11.6885 -42.4899
v 223.96 11.6944 -42.5226
v 223.978 11.6974 -42.5528
v 224.001 11.6973 -42.5795
v 224.029 11.6941 -42.6015
v 224.06 11.688 -42.6181
v 224.092 11.6791 -42.6287
v 224.126 11.6679 -42.6327
v 224.158 11.6547 -42.6301
v 224.189 11.6401 -42.6209
v 224.217 11.6246 -42.6055
v 224.241 11.6089 -42.5846
v 224.26 11.5934 -42.5588
v 224.273 11.5789 -42.5292
v 224.28 11.5658 -42.4969
v 224.28 11.5547 -42.4633
v 224.274 11.5461 -42.4294
v 224.262 11.5401 -42.3968
v 224.243 11.5371 -42.3665
v 224.22 11.5372 -42.3399
v 224.192 11.5404 -42.3178
v 224.162 11.5465 -42.3012
v 224.129 11.5554 -42.2907
v 224.096 11.5666 -42.2866
v 224.063 11.5798 -42.2893
v 224.032 11.5944 -42.2984
v 224.004 11.6099 -42.3138
v 223.98 11.6257 -42.3348
v 223.961 11.6411 -42.3605
v 223.948 11.6556 -42.3901
v 223.941 11.6687 -42.4224
v 224.352 12.7823 -42.0924
v 224.358 12.7912 -42.126
v 224.371 12.7975 -42.1584
v 224.389 12.8008 -42.1883
v 224.413 12.801 -42.2147
v 224.44 12.7982 -42.2366
v 224.471 12.7924 -42.253
v 224.503 12.7839 -42.2634
v 224.537 12.7729 -42.2673
v 224.569 12.76 -42.2646
v 224.6 12.7456 -42.2555
v 224.628 12.7302 -42.2402
v 224.652 12.7145 -42.2193
v 224.671 12.699 -42.1937
v 224.683 12.6844 -42.1643
v 224.69 12.6712 -42.1323
v 224.69 12.6599 -42.0989
v 224.684 12.651 -42.0654
v 224.672 12.6448 -42.033
v 224.653 12.6415 -42.003
v 224.63 12.6412 -41.9766
v 224.602 12.644 -41.9548
v 224.572 12.6498 -41.9383
v 224.539 12.6584 -41.928
v 224.506 12.6693 -41.924
v 224.473 12.6822 -41.9267
v 224.442 12.6967 -41.9358
v 224.414 12.712 -41.9512
v 224.391 12.7277 -41.972
v 224.372 12.7432 -41.9976
v 224.359 12.7578 -42.027
v 224.352 12.771 -42.059
v 224.753 13.8839 -41.7161
v 224.759 13.8932 -41.7493
v 224.772 13.8999 -41.7814
v 224.79 13.9037 -41.811
v 224.813 13.9044 -41.8371
v 224.841 13.9021 -41.8587
v 224.872 13.8968 -41.8749
v 224.904 13.8887 -41.8851
v 224.937 13.8782 -41.8888
v 224.97 13.8656 -41.8861
v 225.001 13.8514 -41.8769
v 225.029 13.8362 -41.8617
v 225.052 13.8206 -41.8409
v 225.071 13.8051 -41.8155
v 225.084 13.7904 -41.7863
v 225.09 13.7769 -41.7546
v 225.09 13.7653 -41.7215
v 225.084 13.756 -41.6882
v 225.071 13.7494 -41.6562
v 225.053 13.7456 -41.6265
v 225.029 13.7448 -41.6004
v 225.002 13.7471 -41.5789
v 224.971 13.7524 -41.5627
v 224.939 13.7605 -41.5525
v 224.905 13.771 -41.5487
v 224.873 13.7836 -41.5515
v 224.842 13.7978 -41.5607
v 224.814 13.813 -41.5759
v 224.791 13.8286 -41.5967
v 224.772 13.8441 -41.6221
v 224.759 13.8589 -41.6512
v 224.753 13.8723 -41.683
v 225.138 14.985 -41.323
v 225.145 14.9947 -41.3559
v 225.158 15.0019 -41.3876
v 225.176 15.0062 -41.4168
v 225.2 15.0075 -41.4426
v 225.227 15.0058 -41.4638
v 225.258 15.0011 -41.4798
v 225.291 14.9935 -41.4897
v 225.324 14.9834 -41.4933
v 225.356 14.9712 -41.4905
v 225.387 14.9573 -41.4813
v 225.415 14.9423 -41.4661
v 225.438 14.9267 -41.4455
v 225.457 14.9112 -41.4202
v 225.469 14.8963 -41.3913
v 225.476 14.8826 -41.3598
v 225.476 14.8706 -41.327
v 225.469 14.8609 -41.2942
v 225.456 14.8537 -41.2625
v 225.438 14.8494 -41.2332
v 225.414 14.8481 -41.2074
v 225.387 14.8498 -41.1862
v 225.356 14.8545 -41.1703
v 225.323 14.8621 -41.1603
v 225.29 14.8722 -41.1567
v 225.258 14.8844 -41.1595
v 225.227 14.8983 -41.1687
v 225.199 14.9133 -41.1839
v 225.176 14.9289 -41.2045
v 225.158 14.9444 -41.2298
v 225.145 14.9593 -41.2587
v 225.138 14.973 -41.2902
v 225.513 16.0859 -40.9142
v 225.519 16.096 -40.9468
v 225.532 16.1035 -40.9782
v 225.551 16.1083 -41.0072
v 225.574 16.11 -41.0326
v 225.602 16.1086 -41.0536
v 225.632 16.1042 -41.0693
v 225.665 16.097 -41.0791
v 225.698 16.0872 -41.0826
v 225.731 16.0752 -41.0798
v 225.761 16.0615 -41.0706
v 225.789 16.0466 -41.0554
v 225.812 16.031 -41.0349
v 225.83 16.0155 -41.0099
v 225.843 16.0004 -40.9812
v 225.849 15.9865 -40.95
v 225.849 15.9743 -40.9175
v 225.842 15.9643 -40.8849
v 225.829 15.9567 -40.8535
v 225.811 15.952 -40.8245
v 225.787 15.9503 -40.799
v 225.76 15.9517 -40.778
v 225.729 15.9561 -40.7624
v 225.697 15.9633 -40.7526
v 225.663 15.9731 -40.749
v 225.631 15.985 -40.7519
v 225.6 15.9988 -40.7611
v 225.573 16.0137 -40.7762
v 225.55 16.0292 -40.7967
v 225.531 16.0448 -40.8218
v 225.519 16.0599 -40.8505
v 225.513 16.0737 -40.8817
v 225.881 17.186 -40.4942
v 225.888 17.1963 -40.5265
v 225.9 17.204 -40.5576
v 225.919 17.2089 -40.5864
v 225.942 17.2108 -40.6116
v 225.97 17.2097 -40.6324
v 226.001 17.2055 -40.648
v 226.033 17.1984 -40.6577
v 226.066 17.1888 -40.6612
v 226.098 17.1769 -40.6583
v 226.129 17.1633 -40.6491
v 226.156 17.1484 -40.6341
v 226.179 17.1328 -40.6137
v 226.197 17.1171 -40.5889
v 226.21 17.102 -40.5604
v 226.216 17.088 -40.5294
v 226.216 17.0756 -40.4972
v 226.209 17.0654 -40.4648
v 226.196 17.0576 -40.4337
v 226.178 17.0527 -40.405
v 226.154 17.0508 -40.3797
v 226.127 17.052 -40.3589
v 226.096 17.0561 -40.3433
v 226.064 17.0632 -40.3336
v 226.031 17.0729 -40.3302
v 225.998 17.0847 -40.3331
v 225.968 17.0984 -40.3422
v 225.941 17.1133 -40.3572
v 225.918 17.1289 -40.3776
v 225.899 17.1445 -40.4025
v 225.887 17.1596 -40.431
v 225.881 17.1737 -40.4619
v 226.249 18.2844 -40.0672
v 226.256 18.2947 -40.0993
v 226.269 18.3025 -40.1303
v 226.287 18.3074 -40.1589
v 226.311 18.3094 -40.184
v 226.338 18.3083 -40.2047
v 226.368 18.3041 -40.2202
v 226.401 18.297 -40.2298
v 226.433 18.2873 -40.2333
v 226.466 18.2754 -40.2305
v 226.496 18.2617 -40.2214
v 226.523 18.2468 -40.2065
v 226.546 18.2311 -40.1863
v 226.564 18.2154 -40.1616
v 226.576 18.2002 -40.1333
v 226.582 18.1861 -40.1026
v 226.582 18.1737 -40.0705
v 226.575 18.1634 -40.0384
v 226.563 18.1556 -40.0075
v 226.544 18.1507 -39.9789
v 226.521 18.1487 -39.9538
v 226.493 18.1498 -39.9331
v 226.463 18.154 -39.9176
v 226.431 18.1611 -39.908
v 226.398 18.1708 -39.9045
v 226.366 18.1827 -39.9073
v 226.336 18.1964 -39.9164
v 226.309 18.2113 -39.9313
v 226.286 18.227 -39.9515
v 226.268 18.2427 -39.9762
v 226.255 18.2579 -40.0045
v 226.249 18.272 -40.0352
v 226.624 19.3802 -39.6378
v 226.63 19.3905 -39.6698
v 226.643 19.3981 -39.7006
v 226.661 19.403 -39.7291
v 226.684 19.4048 -39.7541
v 226.712 19.4035 -39.7748
v 226.742 19.3991 -39.7902
v 226.774 19.3919 -39.7999
v 226.806 19.382 -39.8035
v 226.838 19.3699 -39.8007
v 226.868 19.3561 -39.7918
v 226.895 19.341 -39.7771
v 226.918 19.3253 -39.7571
v 226.936 19.3095 -39.7325
v 226.948 19.2942 -39.7045
v 226.954 19.2802 -39.6739
v 226.954 19.2678 -39.642
v 226.947 19.2575 -39.6101
v 226.934 19.2498 -39.5793
v 226.916 19.245 -39.5508
v 226.893 19.2432 -39.5258
v 226.866 19.2445 -39.5051
v 226.835 19.2489 -39.4896
v 226.803 19.2561 -39.4799
v 226.771 19.266 -39.4764
v 226.739 19.2781 -39.4791
v 226.709 19.2919 -39.488
v 226.682 19.307 -39.5028
v 226.659 19.3227 -39.5228
v 226.642 19.3385 -39.5473
v 226.629 19.3537 -39.5754
v 226.623 19.3678 -39.606
v 227.009 20.4727 -39.2104
v 227.016 20.4827 -39.2422
v 227.029 20.4902 -39.2729
v 227.047 20.4947 -39.3014
v 227.07 20.4962 -39.3264
v 227.097 20.4946 -39.3471
v 227.126 20.4898 -39.3626
v 227.158 20.4822 -39.3724
v 227.19 20.4721 -39.3761
v 227.222 20.4597 -39.3735
v 227.252 20.4456 -39.3648
v 227.278 20.4303 -39.3502
v 227.301 20.4144 -39.3304
v 227.319 20.3986 -39.3061
v 227.331 20.3833 -39.2781
v 227.337 20.3693 -39.2477
v 227.337 20.357 -39.216
v 227.33 20.347 -39.1842
v 227.318 20.3395 -39.1535
v 227.299 20.335 -39.125
v 227.276 20.3335 -39.1
v 227.249 20.3352 -39.0793
v 227.22 20.3399 -39.0638
v 227.188 20.3475 -39.054
v 227.156 20.3576 -39.0503
v 227.124 20.37 -39.0529
v 227.094 20.3841 -39.0616
v 227.068 20.3994 -39.0762
v 227.045 20.4153 -39.096
v 227.027 20.4312 -39.1203
v 227.015 20.4464 -39.1482
v 227.009 20.4604 -39.1786
v 227.413 21.561 -38.7893
v 227.419 21.5707 -38.821
v 227.432 21.5778 -38.8517
v 227.45 21.5819 -38.8802
v 227.472 21.5828 -38.9053
v 227.499 21.5807 -38.9261
v 227.528 21.5754 -38.9417
v 227.56 21.5673 -38.9517
v 227.592 21.5567 -38.9556
v 227.623 21.5439 -38.9532
v 227.652 21.5294 -38.9447
v 227.679 21.5139 -38.9303
v 227.701 21.4978 -38.9107
v 227.719 21.4819 -38.8865
v 227.731 21.4666 -38.8588
v 227.737 21.4527 -38.8285
v 227.737 21.4407 -38.7969
v 227.73 21.4309 -38.7651
v 227.718 21.4239 -38.7344
v 227.7 21.4198 -38.706
v 227.677 21.4188 -38.6809
v 227.651 21.421 -38.6601
v 227.621 21.4262 -38.6444
v 227.59 21.4343 -38.6344
v 227.558 21.445 -38.6306
v 227.527 21.4578 -38.633
v 227.497 21.4722 -38.6415
v 227.471 21.4878 -38.6558
v 227.448 21.5038 -38.6755
v 227.431 21.5198 -38.6996
v 227.419 21.535 -38.7274
v 227.413 21.5489 -38.7576
v 227.84 22.6442 -38.3789
v 227.846 22.6535 -38.4107
v 227.858 22.6601 -38.4414
v 227.876 22.6636 -38.47
v 227.898 22.6639 -38.4952
v 227.924 22.661 -38.5161
v 227.954 22.6551 -38.532
v 227.984 22.6463 -38.5422
v 228.016 22.6351 -38.5463
v 228.047 22.6217 -38.5441
v 228.076 22.6068 -38.5359
v 228.102 22.5909 -38.5217
v 228.124 22.5746 -38.5023
v 228.141 22.5586 -38.4783
v 228.153 22.5434 -38.4508
v 228.159 22.5297 -38.4206
v 228.159 22.5179 -38.389
v 228.153 22.5086 -38.3573
v 228.141 22.5021 -38.3265
v 228.123 22.4986 -38.298
v 228.101 22.4983 -38.2728
v 228.075 22.5011 -38.2519
v 228.046 22.507 -38.236
v 228.015 22.5158 -38.2258
v 227.983 22.5271 -38.2217
v 227.953 22.5404 -38.2238
v 227.924 22.5554 -38.2321
v 227.897 22.5713 -38.2462
v 227.875 22.5875 -38.2657
v 227.858 22.6036 -38.2896
v 227.846 22.6187 -38.3172
v 227.84 22.6325 -38.3474
v 228.296 23.7216 -37.9839
v 228.302 23.7304 -38.0156
v 228.314 23.7363 -38.0465
v 228.331 23.739 -38.0751
v 228.353 23.7385 -38.1005
v 228.379 23.7348 -38.1217
v 228.408 23.728 -38.1378
v 228.438 23.7184 -38.1482
v 228.469 23.7064 -38.1526
v 228.499 23.6924 -38.1507
v 228.528 23.6769 -38.1427
v 228.554 23.6606 -38.1289
v 228.576 23.6441 -38.1097
v 228.593 23.6279 -38.0859
v 228.605 23.6129 -38.0584
v 228.611 23.5994 -38.0284
v 228.611 23.588 -37.9968
v 228.605 23.5792 -37.965
v 228.593 23.5734 -37.9342
v 228.576 23.5706 -37.9056
v 228.554 23.5711 -37.8802
v 228.528 23.5748 -37.859
v 228.5 23.5816 -37.8429
v 228.469 23.5912 -37.8325
v 228.438 23.6032 -37.8281
v 228.408 23.6172 -37.8299
v 228.379 23.6327 -37.838
v 228.354 23.649 -37.8518
v 228.332 23.6656 -37.871
v 228.314 23.6817 -37.8948
v 228.303 23.6968 -37.9223
v 228.297 23.7103 -37.9523
v 228.788 24.7923 -37.6085
v 228.794 24.8004 -37.6403
v 228.805 24.8055 -37.6712
v 228.822 24.8074 -37.7
v 228.843 24.8059 -37.7257
v 228.868 24.8012 -37.7471
v 228.896 24.7934 -37.7635
v 228.926 24.7829 -37.7742
v 228.957 24.7699 -37.7789
v 228.986 24.7551 -37.7774
v 229.015 24.739 -37.7696
v 229.04 24.7222 -37.756
v 229.062 24.7054 -37.7371
v 229.079 24.6892 -37.7135
v 229.091 24.6742 -37.6861
v 229.097 24.661 -37.6561
v 229.097 24.6501 -37.6246
v 229.091 24.642 -37.5928
v 229.08 24.6369 -37.5619
v 229.063 24.6351 -37.533
v 229.042 24.6365 -37.5074
v 229.017 24.6412 -37.486
v 228.989 24.649 -37.4696
v 228.959 24.6596 -37.4589
v 228.929 24.6725 -37.4542
v 228.899 24.6873 -37.4557
v 228.871 24.7034 -37.4635
v 228.845 24.7202 -37.4771
v 228.824 24.737 -37.496
v 228.807 24.7533 -37.5196
v 228.795 24.7683 -37.547
v 228.789 24.7814 -37.577
v 229.321 25.8555 -37.2573
v 229.327 25.8628 -37.2892
v 229.338 25.867 -37.3202
v 229.354 25.8679 -37.3492
v 229.374 25.8653 -37.3751
v 229.399 25.8594 -37.3968
v 229.426 25.8505 -37.4135
v 229.455 25.8388 -37.4246
v 229.485 25.8249 -37.4296
v 229.514 25.8092 -37.4284
v 229.541 25.7923 -37.4209
v 229.566 25.775 -37.4076
v 229.588 25.7579 -37.3889
v 229.605 25.7416 -37.3654
v 229.616 25.7267 -37.3382
v 229.623 25.7139 -37.3083
v 229.623 25.7035 -37.2768
v 229.618 25.6962 -37.2448
v 229.607 25.692 -37.2138
v 229.591 25.6911 -37.1848
v 229.57 25.6937 -37.1589
v 229.546 25.6996 -37.1372
v 229.519 25.7085 -37.1205
v 229.49 25.7202 -37.1094
v 229.46 25.7341 -37.1044
v 229.431 25.7498 -37.1056
v 229.403 25.7667 -37.1131
v 229.378 25.784 -37.1264
v 229.357 25.8011 -37.1451
v 229.34 25.8174 -37.1686
v 229.328 25.8323 -37.1958
v 229.322 25.8451 -37.2257
v 229.902 26.9102 -36.9347
v 229.906 26.9167 -36.9667
v 229.917 26.9199 -36.9979
v 229.932 26.9196 -37.0271
v 229.952 26.9158 -37.0532
v 229.976 26.9086 -37.0752
v 230.002 26.8984 -37.0922
v 230.03 26.8855 -37.1036
v 230.059 26.8704 -37.109
v 230.087 26.8538 -37.1081
v 230.114 26.8361 -37.101
v 230.139 26.8182 -37.0879
v 230.16 26.8007 -37.0694
v 230.177 26.7843 -37.0461
v 230.188 26.7696 -37.019
v 230.195 26.7572 -36.9891
v 230.196 26.7475 -36.9576
v 230.191 26.7409 -36.9256
v 230.181 26.7378 -36.8944
v 230.165 26.7381 -36.8652
v 230.145 26.7419 -36.8391
v 230.122 26.749 -36.8171
v 230.095 26.7593 -36.8
v 230.067 26.7721 -36.7886
v 230.038 26.7872 -36.7833
v 230.01 26.8039 -36.7842
v 229.983 26.8215 -36.7913
v 229.958 26.8394 -36.8043
v 229.937 26.8569 -36.8229
v 229.921 26.8733 -36.8461
v 229.909 26.888 -36.8732
v 229.902 26.9005 -36.9031
f 1 34 2 
f 1 33 34 
f 2 35 3 
f 2 34 35 
f 3 36 4 
f 3 35 36 
f 4 37 5 
f 4 36 37 
f 5 38 6 
f 5 37 38 
f 6 39 7 
f 6 38 39 
f 7 40 8 
f 7 39 40 
f 8 41 9 
f 8 40 41 
f 9 42 10 
f 9 41 42 
f 10 43 11 
f 10 42 43 
f 11 44 12 
f 11 43 44 
f 12 45 13 
f 12 44 45 
f 13 46 14 
f 13 45 46 
f 14 47 15 
f 14 46 47 
f 15 48 16 
f 15 47 48 
f 16 49 17 
f 16 48 49 
f 17 50 18 
f 17 49 50 
f 18 51 19 
f 18 50 51 
f 19 52 20 
f 19 51 52 
f 20 53 21 
f 20 52 53 
f 21 54 22 
f 21 53 54 
f 22 55 23 
f 22 54 55 
f 23 56 24 
f 23 55 56 
f 24 57 25 
f 24 56 57 
f 25 58 26 
f 25 57 58 
f 26 59 27 
f 26 58 59 
f 27 60 28 
f 27 59 60 
f 28 61 29 
f 28 60 61 
f 29 62 30 
f 29 61 62 
f 30 63 31 
f 30 62 63 
f 31 64 32 
f 31 63 64 
f 32 33 1 
f 32 64 33 
f 33 66 34 
f 33 65 66 
f 34 67 35 
f 34 66 67 
f 35 68 36 
f 35 67 68 
f 36 69 37 
f 36 68 69 
f 37 70 38 
f 37 69 70 
f 38 71 39 
f 38 70 71 
f 39 72 40 
f 39 71 72 
f 40 73 41 
f 40 72 73 
f 41 74 42 
f 41 73 74 
f 42 75 43 
f 42 74 75 
f 43 76 44 
f 43 75 76 
f 44 77 45 
f 44 76 77 
f 45 78 46 
f 45 77 78 
f 46 79 47 
f 46 78 79 
f 47 80 48 
f 47 79 80 
f 48 81 49 
f 48 80 81 
f 49 82 50 
f 49 81 82 
f 50 83 51 
f 50 82 83 
f 51 84 52 
f 51 83 84 
f 52 85 53 
f 52 84 85 
f 53 86 54 
f 53 85 86 
f 54 87 55 
f 54 86 87 
f 55 88 56 
f 55 87 88 
f 56 89 57 
f 56 88 89 
f 57 90 58 
f 57 89 90 
f 58 91 59 
f 58 90 91 
f 59 92 60 
f 59 91 92 
f 60 93 61 
f 60 92 93 
f 61 94 62 
f 61 93 94 
f 62 95 63 
f 62 94 95 
f 63 96 64 
f 63 95 96 
f 64 65 33 
f 64 96 65 
f 65 98 66 
f 65 97 98 
f 66 99 67 
f 66 98 99 
f 67 100 68 
f 67 99 100 
f 68 101 69 
f 68 100 101 
f 69 102 70 
f 69 101 102 
f 70 103 71 
f 70 102 103 
f 71 104 72 
f 71 103 104 
f 72 105 73 
f 72 104 105 
f 73 106 74 
f 73 105 106 
f 74 107 75 
f 74 106 107 
f 75 108 76 
f 75 107 108 
f 76 109 77 
f 76 108 109 
f 77 110 78 
f 77 109 110 
f 78 111 79 
f 78 110 111 
f 79 112 80 
f 79 111 112 
f 80 113 81 
f 80 112 113 
f 81 114 82 
f 81 113 114 
f 82 115 83 
f 82 114 115 
f 83 116 84 
f 83 115 116 
f 84 117 85 
f 84 116 117 
f 85 118 86 
f 85 117 118 
f 86 119 87 
f 86 118 119 
f 87 120 88 
f 87 119 120 
f 88 121 89 
f 88 120 121 
f 89 122 90 
f 89 121 122 
f 90 123 91 
f 90 122 123 
f 91 124 92 
f 91 123 124 
f 92 125 93 
f 92 124 125 
f 93 126 94 
f 93 125 126 
f 94 127 95 
f 94 126 127 
f 95 128 96 
f 95 127 128 
f 96 97 65 
f 96 128 97 
f 97 130 98 
f 97 129 130 
f 98 131 99 
f 98 130 131 
f 99 132 100 
f 99 131 132 
f 100 133 101 
f 100 132 133 
f 101 134 102 
f 101 133 134 
f 102 135 103 
f 102 134 135 
f 103 136 104 
f 103 135 136 
f 104 137 105 
f 104 136 137 
f 105 138 106 
f 105 137 138 
f 106 139 107 
f 106 138 139 
f 107 140 108 
f 107 139 140 
f 108 141 109 
f 108 140 141 
f 109 142 110 
f 109 141 142 
f 110 143 111 
f 110 142 143 
f 111 144 112 
f 111 143 144 
f 112 145 113 
f 112 144 145 
f 113 146 114 
f 113 145 146 
f 114 147 115 
f 114 146 147 
f 115 148 116 
f 115 147 148 
f 116 149 117 
f 116 148 149 
f 117 150 118 
f 117 149 150 
f 118 151 119 
f 118 150 151 
f 119 152 120 
f 119 151 152 
f 120 153 121 
f 120 152 153 
f 121 154 122 
f 121 153 154 
f 122 155 123 
f 122 154 155 
f 123 156 124 
f 123 155 156 
f 124 157 125 
f 124 156 157 
f 125 158 126 
f 125 157 158 
f 126 159 127 
f 126 158 159 
f 127 160 128 
f 127 159 160 
f 128 129 97 
f 128 160 129 
f 129 162 130 
f 129 161 162 
f 130 163 131 
f 130 162 163 
f 131 164 132 
f 131 163 164 
f 132 165 133 
f 132 164 165 
f 133 166 134 
f 133 165 166 
f 134 167 135 
f 134 166 167 
f 135 168 136 
f 135 167 168 
f 136 169 137 
f 136 168 169 
f 137 170 138 
f 137 169 170 
f 138 171 139 
f 138 170 171 
f 139 172 140 
f 139 171 172 
f 140 173 141 
f 140 172 173 
f 141 174 142 
f 141 173 174 
f 142 175 143 
f 142 174 175 
f 143 176 144 
f 143 175 176 
f 144 177 145 
f 144 176 177 
f 145 178 146 
f 145 177 178 
f 146 179 147 
f 146 178 179 
f 147 180 148 
f 147 179 180 
f 148 181 149 
f 148 180 181 
f 149 182 150 
f 149 181 182 
f 150 183 151 
f 150 182 183 
f 151 184 152 
f 151 183 184 
f 152 185 153 
f 152 184 185 
f 153 186 154 
f 153 185 186 
f 154 187 155 
f 154 186 187 
f 155 188 156 
f 155 187 188 
f 156 189 157 
f 156 188 189 
f 157 190 158 
f 157 189 190 
f 158 191 159 
f 158 190 191 
f 159 192 160 
f 159 191 192 
f 160 161 129 
f 160 192 161 
f 161 194 162 
f 161 193 194 
f 162 195 163 
f 162 194 195 
f 163 196 164 
f 163 195 196 
f 164 197 165 
f 164 196 197 
f 165 198 166 
f 165 197 198 
f 166 199 167 
f 166 198 199 
f 167 200 168 
f 167 199 200 
f 168 201 169 
f 168 200 201 
f 169 202 170 
f 169 201 202 
f 170 203 171 
f 170 202 203 
f 171 204 172 
f 171 203 204 
f 172 205 173 
f 172 204 205 
f 173 206 174 
f 173 205 206 
f 174 207 175 
f 174 206 207 
f 175 208 176 
f 175 207 208 
f 176 209 177 
f 176 208 209 
f 177 210 178 
f 177 209 210 
f 178 211 179 
f 178 210 211 
f 179 212 180 
f 179 211 212 
f 180 213 181 
f 180 212 213 
f 181 214 182 
f 181 213 214 
f 182 215 183 
f 182 214 215 
f 183 216 184 
f 183 215 216 
f 184 217 185 
f 184 216 217 
f 185 218 186 
f 185 217 218 
f 186 219 187 
f 186 218 219 
f 187 220 188 
f 187 219 220 
f 188 221 189 
f 188 220 221 
f 189 222 190 
f 189 221 222 
f 190 223 191 
f 190 222 223 
f 191 224 192 
f 191 223 224 
f 192 193 161 
f 192 224 193 
f 193 226 194 
f 193 225 226 
f 194 227 195 
f 194 226 227 
f 195 228 196 
f 195 227 228 
f 196 229 197 
f 196 228 229 
f 197 230 198 
f 197 229 230 
f 198 231 199 
f 198 230 231 
f 199 232 200 
f 199 231 232 
f 200 233 201 
f 200 232 233 
f 201 234 202 
f 201 233 234 
f 202 235 203 
f 202 234 235 
f 203 236 204 
f 203 235 236 
f 204 237 205 
f 204 236 237 
f 205 238 206 
f 205 237 238 
f 206 239 207 
f 206 238 239 
f 207 240 208 
f 207 239 240 
f 208 241 209 
f 208 240 241 
f 209 242 210 
f 209 241 242 
f 210 243 211 
f 210 242 243 
f 211 244 212 
f 211 243 244 
f 212 245 213 
f 212 244 245 
f 213 246 214 
f 213 245 246 
f 214 247 215 
f 214 246 247 
f 215 248 216 
f 215 247 248 
f 216 249 217 
f 216 248 249 
f 217 250 218 
f 217 249 250 
f 218 251 219 
f 218 250 251 
f 219 252 220 
f 219 251 252 
f 220 253 221 
f 220 252 253 
f 221 254 222 
f 221 253 254 
f 222 255 223 
f 222 254 255 
f 223 256 224 
f 223 255 256 
f 224 225 193 
f 224 256 225 
f 225 258 226 
f 225 257 258 
f 226 259 227 
f 226 258 259 
f 227 260 228 
f 227 259 260 
f 228 261 229 
f 228 260 261 
f 229 262 230 
f 229 261 262 
f 230 263 231 
f 230 262 263 
f 231 264 232 
f 231 263 264 
f 232 265 233 
f 232 264 265 
f 233 266 234 
f 233 265 266 
f 234 267 235 
f 234 266 267 
f 235 268 236 
f 235 267 268 
f 236 269 237 
f 236 268 269 
f 237 270 238 
f 237 269 270 
f 238 271 239 
f 238 270 271 
f 239 272 240 
f 239 271 272 
f 240 273 241 
f 240 272 273 
f 241 274 242 
f 241 273 274 
f 242 275 243 
f 242 274 275 
f 243 276 244 
f 243 275 276 
f 244 277 245 
f 244 276 277 
f 245 278 246 
f 245 277 278 
f 246 279 247 
f 246 278 279 
f 247 280 248 
f 247 279 280 
f 248 281 249 
f 248 280 281 
f 249 282 250 
f 249 281 282 
f 250 283 251 
f 250 282 283 
f 251 284 252 
f 251 283 284 
f 252 285 253 
f 252 284 285 
f 253 286 254 
f 253 285 286 
f 254 287 255 
f 254 286 287 
f 255 288 256 
f 255 287 288 
f 256 257 225 
f 256 288 257 
f 257 290 258 
f 257 289 290 
f 258 291 259 
f 258 290 291 
f 259 292 260 
f 259 291 292 
f 260 293 261 
f 260 292 293 
f 261 294 262 
f 261 293 294 
f 262 295 263 
f 262 294 295 
f 263 296 264 
f 263 295 296 
f 264 297 265 
f 264 296 297 
f 265 298 266 
f 265 297 298 
f 266 299 267 
f 266 298 299 
f 267 300 268 
f 267 299 300 
f 268 301 269 
f 268 300 301 
f 269 302 270 
f 269 301 302 
f 270 303 271 
f 270 302 303 
f 271 304 272 
f 271 303 304 
f 272 305 273 
f 272 304 305 
f 273 306 274 
f 273 305 306 
f 274 307 275 
f 274 306 307 
f 275 308 276 
f 275 307 308 
f 276 309 277 
f 276 308 309 
f 277 310 278 
f 277 309 310 
f 278 311 279 
f 278 310 311 
f 279 312 280 
f 279 311 312 
f 280 313 281 
f 280 312 313 
f 281 314 282 
f 281 313 314 
f 282 315 283 
f 282 314 315 
f 283 316 284 
f 283 315 316 
f 284 317 285 
f 284 316 317 
f 285 318 286 
f 285 317 318 
f 286 319 287 
f 286 318 319 
f 287 320 288 
f 287 319 320 
f 288 289 257 
f 288 320 289 
f 289 322 290 
f 289 321 322 
f 290 323 291 
f 290 322 323 
f 291 324 292 
f 291 323 324 
f 292 325 293 
f 292 324 325 
f 293 326 294 
f 293 325 326 
f 294 327 295 
f 294 326 327 
f 295 328 296 
f 295 327 328 
f 296 329 297 
f 296 328 329 
f 297 330 298 
f 297 329 330 
f 298 331 299 
f 298 330 331 
f 299 332 300 
f 299 331 332 
f 300 333 301 
f 300 332 333 
f 301 334 302 
f 301 333 334 
f 302 335 303 
f 302 334 335 
f 303 336 304 
f 303 335 336 
f 304 337 305 
f 304 336 337 
f 305 338 306 
f 305 337 338 
f 306 339 307 
f 306 338 339 
f 307 340 308 
f 307 339 340 
f 308 341 309 
f 308 340 341 
f 309 342 310 
f 309 341 342 
f 310 343 311 
f 310 342 343 
f 311 344 312 
f 311 343 344 
f 312 345 313 
f 312 344 345 
f 313 346 314 
f 313 345 346 
f 314 347 315 
f 314 346 347 
f 315 348 316 
f 315 347 348 
f 316 349 317 
f 316 348 349 
f 317 350 318 
f 317 349 350 
f 318 351 319 
f 318 350 351 
f 319 352 320 
f 319 351 352 
f 320 321 289 
f 320 352 321 
f 321 354 322 
f 321 353 354 
f 322 355 323 
f 322 354 355 
f 323 356 324 
f 323 355 356 
f 324 357 325 
f 324 356 357 
f 325 358 326 
f 325 357 358 
f 326 359 327 
f 326 358 359 
f 327 360 328 
f 327 359 360 
f 328 361 329 
f 328 360 361 
f 329 362 330 
f 329 361 362 
f 330 363 331 
f 330 362 363 
f 331 364 332 
f 331 363 364 
f 332 365 333 
f 332 364 365 
f 333 366 334 
f 333 365 366 
f 334 367 335 
f 334 366 367 
f 335 368 336 
f 335 367 368 
f 336 369 337 
f 336 368 369 
f 337 370 338 
f 337 369 370 
f 338 371 339 
f 338 370 371 
f 339 372 340 
f 339 371 372 
f 340 373 341 
f 340 372 373 
f 341 374 342 
f 341 373 374 
f 342 375 343 
f 342 374 375 
f 343 376 344 
f 343 375 376 
f 344 377 345 
f 344 376 377 
f 345 378 346 
f 345 377 378 
f 346 379 347 
f 346 378 379 
f 347 380 348 
f 347 379 380 
f 348 381 349 
f 348 380 381 
f 349 382 350 
f 349 381 382 
f 350 383 351 
f 350 382 383 
f 351 384 352 
f 351 383 384 
f 352 353 321 
f 352 384 353 
f 353 386 354 
f 353 385 386 
f 354 387 355 
f 354 386 387 
f 355 388 356 
f 355 387 388 
f 356 389 357 
f 356 388 389 
f 357 390 358 
f 357 389 390 
f 358 391 359 
f 358 390 391 
f 359 392 360 
f 359 391 392 
f 360 393 361 
f 360 392 393 
f 361 394 362 
f 361 393 394 
f 362 395 363 
f 362 394 395 
f 363 396 364 
f 363 395 396 
f 364 397 365 
f 364 396 397 
f 365 398 366 
f 365 397 398 
f 366 399 367 
f 366 398 399 
f 367 400 368 
f 367 399 400 
f 368 401 369 
f 368 400 401 
f 369 402 370 
f 369 401 402 
f 370 403 371 
f 370 402 403 
f 371 404 372 
f 371 403 404 
f 372 405 373 
f 372 404 405 
f 373 406 374 
f 373 405 406 
f 374 407 375 
f 374 406 407 
f 375 408 376 
f 375 407 408 
f 376 409 377 
f 376 408 409 
f 377 410 378 
f 377 409 410 
f 378 411 379 
f 378 410 411 
f 379 412 380 
f 379 411 412 
f 380 413 381 
f 380 412 413 
f 381 414 382 
f 381 413 414 
f 382 415 383 
f 382 414 415 
f 383 416 384 
f 383 415 416 
f 384 385 353 
f 384 416 385 
f 385 418 386 
f 385 417 418 
f 386 419 387 
f 386 418 419 
f 387 420 388 
f 387 419 420 
f 388 421 389 
f 388 420 421 
f 389 422 390 
f 389 421 422 
f 390 423 391 
f 390 422 423 
f 391 424 392 
f 391 423 424 
f 392 425 393 
f 392 424 425 
f 393 426 394 
f 393 425 426 
f 394 427 395 
f 394 426 427 
f 395 428 396 
f 395 427 428 
f 396 429 397 
f 396 428 429 
f 397 430 398 
f 397 429 430 
f 398 431 399 
f 398 430 431 
f 399 432 400 
f 399 431 432 
f 400 433 401 
f 400 432 433 
f 401 434 402 
f 401 433 434 
f 402 435 403 
f 402 434 435 
f 403 436 404 
f 403 435 436 
f 404 437 405 
f 404 436 437 
f 405 438 406 
f 405 437 438 
f 406 439 407 
f 406 438 439 
f 407 440 408 
f 407 439 440 
f 408 441 409 
f 408 440 441 
f 409 442 410 
f 409 441 442 
f 410 443 411 
f 410 442 443 
f 411 444 412 
f 411 443 444 
f 412 445 413 
f 412 444 445 
f 413 446 414 
f 413 445 446 
f 414 447 415 
f 414 446 447 
f 415 448 416 
f 415 447 448 
f 416 417 385 
f 416 448 417 
f 417 450 418 
f 417 449 450 
f 418 451 419 
f 418 450 451 
f 419 452 420 
f 419 451 452 
f 420 453 421 
f 420 452 453 
f 421 454 422 
f 421 453 454 
f 422 455 423 
f 422 454 455 
f 423 456 424 
f 423 455 456 
f 424 457 425 
f 424 456 457 
f 425 458 426 
f 425 457 458 
f 426 459 427 
f 426 458 459 
f 427 460 428 
f 427 459 460 
f 428 461 429 
f 428 460 461 
f 429 462 430 
f 429 461 462 
f 430 463 431 
f 430 462 463 
f 431 464 432 
f 431 463 464 
f 432 465 433 
f 432 464 465 
f 433 466 434 
f 433 465 466 
f 434 467 435 
f 434 466 467 
f 435 468 436 
f 435 467 468 
f 436 469 437 
f 436 468 469 
f 437 470 438 
f 437 469 470 
f 438 471 439 
f 438 470 471 
f 439 472 440 
f 439 471 472 
f 440 473 441 
f 440 472 473 
f 441 474 442 
f 441 473 474 
f 442 475 443 
f 442 474 475 
f 443 476 444 
f 443 475 476 
f 444 477 445 
f 444 476 477 
f 445 478 446 
f 445 477 478 
f 446 479 447 
f 446 478 479 
f 447 480 448 
f 447 479 480 
f 448 449 417 
f 448 480 449 
f 449 482 450 
f 449 481 482 
f 450 483 451 
f 450 482 483 
f 451 484 452 
f 451 483 484 
f 452 485 453 
f 452 484 485 
f 453 486 454 
f 453 485 486 
f 454 487 455 
f 454 486 487 
f 455 488 456 
f 455 487 488 
f 456 489 457 
f 456 488 489 
f 457 490 458 
f 457 489 490 
f 458 491 459 
f 458 490 491 
f 459 492 460 
f 459 491 492 
f 460 493 461 
f 460 492 493 
f 461 494 462 
f 461 493 494 
f 462 495 463 
f 462 494 495 
f 463 496 464 
f 463 495 496 
f 464 497 465 
f 464 496 497 
f 465 498 466 
f 465 497 498 
f 466 499 467 
f 466 498 499 
f 467 500 468 
f 467 499 500 
f 468 501 469 
f 468 500 501 
f 469 502 470 
f 469 501 502 
f 470 503 471 
f 470 502 503 
f 471 504 472 
f 471 503 504 
f 472 505 473 
f 472 504 505 
f 473 506 474 
f 473 505 506 
f 474 507 475 
f 474 506 507 
f 475 508 476 
f 475 507 508 
f 476 509 477 
f 476 508 509 
f 477 510 478 
f 477 509 510 
f 478 511 479 
f 478 510 511 
f 479 512 480 
f 479 511 512 
f 480 481 449 
f 480 512 481 
f 481 514 482 
f 481 513 514 
f 482 515 483 
f 482 514 515 
f 483 516 484 
f 483 515 516 
f 484 517 485 
f 484 516 517 
f 485 518 486 
f 485 517 518 
f 486 519 487 
f 486 518 519 
f 487 520 488 
f 487 519 520 
f 488 521 489 
f 488 520 521 
f 489 522 490 
f 489 521 522 
f 490 523 491 
f 490 522 523 
f 491 524 492 
f 491 523 524 
f 492 525 493 
f 492 524 525 
f 493 526 494 
f 493 525 526 
f 494 527 495 
f 494 526 527 
f 495 528 496 
f 495 527 528 
f 496 529 497 
f 496 528 529 
f 497 530 498 
f 497 529 530 
f 498 531 499 
f 498 530 531 
f 499 532 500 
f 499 531 532 
f 500 533 501 
f 500 532 533 
f 501 534 502 
f 501 533 534 
f 502 535 503 
f 502 534 535 
f 503 536 504 
f 503 535 536 
f 504 537 505 
f 504 536 537 
f 505 538 506 
f 505 537 538 
f 506 539 507 
f 506 538 539 
f 507 540 508 
f 507 539 540 
f 508 541 509 
f 508 540 541 
f 509 542 510 
f 509 541 542 
f 510 543 511 
f 510 542 543 
f 511 544 512 
f 511 543 544 
f 512 513 481 
f 512 544 513 
f 513 546 514 
f 513 545 546 
f 514 547 515 
f 514 546 547 
f 515 548 516 
f 515 547 548 
f 516 549 517 
f 516 548 549 
f 517 550 518 
f 517 549 550 
f 518 551 519 
f 518 550 551 
f 519 552 520 
f 519 551 552 
f 520 553 521 
f 520 552 553 
f 521 554 522 
f 521 553 554 
f 522 555 523 
f 522 554 555 
f 523 556 524 
f 523 555 556 
f 524 557 525 
f 524 556 557 
f 525 558 526 
f 525 557 558 
f 526 559 527 
f 526 558 559 
f 527 560 528 
f 527 559 560 
f 528 561 529 
f 528 560 561 
f 529 562 530 
f 529 561 562 
f 530 563 531 
f 530 562 563 
f 531 564 532 
f 531 563 564 
f 532 565 533 
f 532 564 565 
f 533 566 534 
f 533 565 566 
f 534 567 535 
f 534 566 567 
f 535 568 536 
f 535 567 568 
f 536 569 537 
f 536 568 569 
f 537 570 538 
f 537 569 570 
f 538 571 539 
f 538 570 571 
f 539 572 540 
f 539 571 572 
f 540 573 541 
f 540 572 573 
f 541 574 542 
f 541 573 574 
f 542 575 543 
f 542 574 575 
f 543 576 544 
f 543 575 576 
f 544 545 513 
f 544 576 545 
f 545 578 546 
f 545 577 578 
f 546 579 547 
f 546 578 579 
f 547 580 548 
f 547 579 580 
f 548 581 549 
f 548 580 581 
f 549 582 550 
f 549 581 582 
f 550 583 551 
f 550 582 583 
f 551 584 552 
f 551 583 584 
f 552 585 553 
f 552 584 585 
f 553 586 554 
f 553 585 586 
f 554 587 555 
f 554 586 587 
f 555 588 556 
f 555 587 588 
f 556 589 557 
f 556 588 589 
f 557 590 558 
f 557 589 590 
f 558 591 559 
f 558 590 591 
f 559 592 560 
f 559 591 592 
f 560 593 561 
f 560 592 593 
f 561 594 562 
f 561 593 594 
f 562 595 563 
f 562 594 595 
f 563 596 564 
f 563 595 596 
f 564 597 565 
f 564 596 597 
f 565 598 566 
f 565 597 598 
f 566 599 567 
f 566 598 599 
f 567 600 568 
f 567 599 600 
f 568 601 569 
f 568 600 601 
f 569 602 570 
f 569 601 602 
f 570 603 571 
f 570 602 603 
f 571 604 572 
f 571 603 604 
f 572 605 573 
f 572 604 605 
f 573 606 574 
f 573 605 606 
f 574 607 575 
f 574 606 607 
f 575 608 576 
f 575 607 608 
f 576 577 545 
f 576 608 577 
f 577 610 578 
f 577 609 610 
f 578 611 579 
f 578 610 611 
f 579 612 580 
f 579 611 612 
f 580 613 581 
f 580 612 613 
f 581 614 582 
f 581 613 614 
f 582 615 583 
f 582 614 615 
f 583 616 584 
f 583 615 616 
f 584 617 585 
f 584 616 617 
f 585 618 586 
f 585 617 618 
f 586 619 587 
f 586 618 619 
f 587 620 588 
f 587 619 620 
f 588 621 589 
f 588 620 621 
f 589 622 590 
f 589 621 622 
f 590 623 591 
f 590 622 623 
f 591 624 592 
f 591 623 624 
f 592 625 593 
f 592 624 625 
f 593 626 594 
f 593 625 626 
f 594 627 595 
f 594 626 627 
f 595 628 596 
f 595 627 628 
f 596 629 597 
f 596 628 629 
f 597 630 598 
f 597 629 630 
f 598 631 599 
f 598 630 631 
f 599 632 600 
f 599 631 632 
f 600 633 601 
f 600 632 633 
f 601 634 602 
f 601 633 634 
f 602 635 603 
f 602 634 635 
f 603 636 604 
f 603 635 636 
f 604 637 605 
f 604 636 637 
f 605 638 606 
f 605 637 638 
f 606 639 607 
f 606 638 639 
f 607 640 608 
f 607 639 640 
f 608 609 577 
f 608 640 609 
f 609 642 610 
f 609 641 642 
f 610 643 611 
f 610 642 643 
f 611 644 612 
f 611 643 644 
f 612 645 613 
f 612 644 645 
f 613 646 614 
f 613 645 646 
f 614 647 615 
f 614 646 647 
f 615 648 616 
f 615 647 648 
f 616 649 617 
f 616 648 649 
f 617 650 618 
f 617 649 650 
f 618 651 619 
f 618 650 651 
f 619 652 620 
f 619 651 652 
f 620 653 621 
f 620 652 653 
f 621 654 622 
f 621 653 654 
f 622 655 623 
f 622 654 655 
f 623 656 624 
f 623 655 656 
f 624 657 625 
f 624 656 657 
f 625 658 626 
f 625 657 658 
f 626 659 627 
f 626 658 659 
f 627 660 628 
f 627 659 660 
f 628 661 629 
f 628 660 661 
f 629 662 630 
f 629 661 662 
f 630 663 631 
f 630 662 663 
f 631 664 632 
f 631 663 664 
f 632 665 633 
f 632 664 665 
f 633 666 634 
f 633 665 666 
f 634 667 635 
f 634 666 667 
f 635 668 636 
f 635 667 668 
f 636 669 637 
f 636 668 669 
f 637 670 638 
f 637 669 670 
f 638 671 639 
f 638 670 671 
f 639 672 640 
f 639 671 672 
f 640 641 609 
f 640 672 641 
f 641 674 642 
f 641 673 674 
f 642 675 643 
f 642 674 675 
f 643 676 644 
f 643 675 676 
f 644 677 645 
f 644 676 677 
f 645 678 646 
f 645 677 678 
f 646 679 647 
f 646 678 679 
f 647 680 648 
f 647 679 680 
f 648 681 649 
f 648 680 681 
f 649 682 650 
f 649 681 682 
f 650 683 651 
f 650 682 683 
f 651 684 652 
f 651 683 684 
f 652 685 653 
f 652 684 685 
f 653 686 654 
f 653 685 686 
f 654 687 655 
f 654 686 687 
f 655 688 656 
f 655 687 688 
f 656 689 657 
f 656 688 689 
f 657 690 658 
f 657 689 690 
f 658 691 659 
f 658 690 691 
f 659 692 660 
f 659 691 692 
f 660 693 661 
f 660 692 693 
f 661 694 662 
f 661 693 694 
f 662 695 663 
f 662 694 695 
f 663 696 664 
f 663 695 696 
f 664 697 665 
f 664 696 697 
f 665 698 666 
f 665 697 698 
f 666 699 667 
f 666 698 699 
f 667 700 668 
f 667 699 700 
f 668 701 669 
f 668 700 701 
f 669 702 670 
f 669 701 702 
f 670 703 671 
f 670 702 703 
f 671 704 672 
f 671 703 704 
f 672 673 641 
f 672 704 673 
f 673 706 674 
f 673 705 706 
f 674 707 675 
f 674 706 707 
f 675 708 676 
f 675 707 708 
f 676 709 677 
f 676 708 709 
f 677 710 678 
f 677 709 710 
f 678 711 679 
f 678 710 711 
f 679 712 680 
f 679 711 712 
f 680 713 681 
f 680 712 713 
f 681 714 682 
f 681 713 714 
f 682 715 683 
f 682 714 715 
f 683 716 684 
f 683 715 716 
f 684 717 685 
f 684 716 717 
f 685 718 686 
f 685 717 718 
f 686 719 687 
f 686 718 719 
f 687 720 688 
f 687 719 720 
f 688 721 689 
f 688 720 721 
f 689 722 690 
f 689 721 722 
f 690 723 691 
f 690 722 723 
f 691 724 692 
f 691 723 724 
f 692 725 693 
f 692 724 725 
f 693 726 694 
f 693 725 726 
f 694 727 695 
f 694 726 727 
f 695 728 696 
f 695 727 728 
f 696 729 697 
f 696 728 729 
f 697 730 698 
f 697 729 730 
f 698 731 699 
f 698 730 731 
f 699 732 700 
f 699 731 732 
f 700 733 701 
f 700 732 733 
f 701 734 702 
f 701 733 734 
f 702 735 703 
f 702 734 735 
f 703 736 704 
f 703 735 736 
f 704 705 673 
f 704 736 705 
f 705 738 706 
f 705 737 738 
f 706 739 707 
f 706 738 739 
f 707 740 708 
f 707 739 740 
f 708 741 709 
f 708 740 741 
f 709 742 710 
f 709 741 742 
f 710 743 711 
f 710 742 743 
f 711 744 712 
f 711 743 744 
f 712 745 713 
f 712 744 745 
f 713 746 714 
f 713 745 746 
f 714 747 715 
f 714 746 747 
f 715 748 716 
f 715 747 748 
f 716 749 717 
f 716 748 749 
f 717 750 718 
f 717 749 750 
f 718 751 719 
f 718 750 751 
f 719 752 720 
f 719 751 752 
f 720 753 721 
f 720 752 753 
f 721 754 722 
f 721 753 754 
f 722 755 723 
f 722 754 755 
f 723 756 724 
f 723 755 756 
f 724 757 725 
f 724 756 757 
f 725 758 726 
f 725 757 758 
f 726 759 727 
f 726 758 759 
f 727 760 728 
f 727 759 760 
f 728 761 729 
f 728 760 761 
f 729 762 730 
f 729 761 762 
f 730 763 731 
f 730 762 763 
f 731 764 732 
f 731 763 764 
f 732 765 733 
f 732 764 765 
f 733 766 734 
f 733 765 766 
f 734 767 735 
f 734 766 767 
f 735 768 736 
f 735 767 768 
f 736 737 705 
f 736 768 737 
f 737 770 738 
f 737 769 770 
f 738 771 739 
f 738 770 771 
f 739 772 740 
f 739 771 772 
f 740 773 741 
f 740 772 773 
f 741 774 742 
f 741 773 774 
f 742 775 743 
f 742 774 775 
f 743 776 744 
f 743 775 776 
f 744 777 745 
f 744 776 777 
f 745 778 746 
f 745 777 778 
f 746 779 747 
f 746 778 779 
f 747 780 748 
f 747 779 780 
f 748 781 749 
f 748 780 781 
f 749 782 750 
f 749 781 782 
f 750 783 751 
f 750 782 783 
f 751 784 752 
f 751 783 784 
f 752 785 753 
f 752 784 785 
f 753 786 754 
f 753 785 786 
f 754 787 755 
f 754 786 787 
f 755 788 756 
f 755 787 788 
f 756 789 757 
f 756 788 789 
f 757 790 758 
f 757 789 790 
f 758 791 759 
f 758 790 791 
f 759 792 760 
f 759 791 792 
f 760 793 761 
f 760 792 793 
f 761 794 762 
f 761 793 794 
f 762 795 763 
f 762 794 795 
f 763 796 764 
f 763 795 796 
f 764 797 765 
f 764 796 797 
f 765 798 766 
f 765 797 798 
f 766 799 767 
f 766 798 799 
f 767 800 768 
f 767 799 800 
f 768 769 737 
f 768 800 769 
f 769 802 770 
f 769 801 802 
f 770 803 771 
f 770 802 803 
f 771 804 772 
f 771 803 804 
f 772 805 773 
f 772 804 805 
f 773 806 774 
f 773 805 806 
f 774 807 775 
f 774 806 807 
f 775 808 776 
f 775 807 808 
f 776 809 777 
f 776 808 809 
f 777 810 778 
f 777 809 810 
f 778 811 779 
f 778 810 811 
f 779 812 780 
f 779 811 812 
f 780 813 781 
f 780 812 813 
f 781 814 782 
f 781 813 814 
f 782 815 783 
f 782 814 815 
f 783 816 784 
f 783 815 816 
f 784 817 785 
f 784 816 817 
f 785 818 786 
f 785 817 818 
f 786 819 787 
f 786 818 819 
f 787 820 788 
f 787 819 820 
f 788 821 789 
f 788 820 821 
f 789 822 790 
f 789 821 822 
f 790 823 791 
f 790 822 823 
f 791 824 792 
f 791 823 824 
f 792 825 793 
f 792 824 825 
f 793 826 794 
f 793 825 826 
f 794 827 795 
f 794 826 827 
f 795 828 796 
f 795 827 828 
f 796 829 797 
f 796 828 829 
f 797 830 798 
f 797 829 830 
f 798 831 799 
f 798 830 831 
f 799 832 800 
f 799 831 832 
f 800 801 769 
f 800 832 801 
f 801 834 802 
f 801 833 834 
f 802 835 803 
f 802 834 835 
f 803 836 804 
f 803 835 836 
f 804 837 805 
f 804 836 837 
f 805 838 806 
f 805 837 838 
f 806 839 807 
f 806 838 839 
f 807 840 808 
f 807 839 840 
f 808 841 809 
f 808 840 841 
f 809 842 810 
f 809 841 842 
f 810 843 811 
f 810 842 843 
f 811 844 812 
f 811 843 844 
f 812 845 813 
f 812 844 845 
f 813 846 814 
f 813 845 846 
f 814 847 815 
f 814 846 847 
f 815 848 816 
f 815 847 848 
f 816 849 817 
f 816 848 849 
f 817 850 818 
f 817 849 850 
f 818 851 819 
f 818 850 851 
f 819 852 820 
f 819 851 852 
f 820 853 821 
f 820 852 853 
f 821 854 822 
f 821 853 854 
f 822 855 823 
f 822 854 855 
f 823 856 824 
f 823 855 856 
f 824 857 825 
f 824 856 857 
f 825 858 826 
f 825 857 858 
f 826 859 827 
f 826 858 859 
f 827 860 828 
f 827 859 860 
f 828 861 829 
f 828 860 861 
f 829 862 830 
f 829 861 862 
f 830 863 831 
f 830 862 863 
f 831 864 832 
f 831 863 864 
f 832 833 801 
f 832 864 833 
f 833 866 834 
f 833 865 866 
f 834 867 835 
f 834 866 867 
f 835 868 836 
f 835 867 868 
f 836 869 837 
f 836 868 869 
f 837 870 838 
f 837 869 870 
f 838 871 839 
f 838 870 871 
f 839 872 840 
f 839 871 872 
f 840 873 841 
f 840 872 873 
f 841 874 842 
f 841 873 874 
f 842 875 843 
f 842 874 875 
f 843 876 844 
f 843 875 876 
f 844 877 845 
f 844 876 877 
f 845 878 846 
f 845 877 878 
f 846 879 847 
f 846 878 879 
f 847 880 848 
f 847 879 880 
f 848 881 849 
f 848 880 881 
f 849 882 850 
f 849 881 882 
f 850 883 851 
f 850 882 883 
f 851 884 852 
f 851 883 884 
f 852 885 853 
f 852 884 885 
f 853 886 854 
f 853 885 886 
f 854 887 855 
f 854 886 887 
f 855 888 856 
f 855 887 888 
f 856 889 857 
f 856 888 889 
f 857 890 858 
f 857 889 890 
f 858 891 859 
f 858 890 891 
f 859 892 860 
f 859 891 892 
f 860 893 861 
f 860 892 893 
f 861 894 862 
f 861 893 894 
f 862 895 863 
f 862 894 895 
f 863 896 864 
f 863 895 896 
f 864 865 833 
f 864 896 865 
f 865 898 866 
f 865 897 898 
f 866 899 867 
f 866 898 899 
f 867 900 868 
f 867 899 900 
f 868 901 869 
f 868 900 901 
f 869 902 870 
f 869 901 902 
f 870 903 871 
f 870 902 903 
f 871 904 872 
f 871 903 904 
f 872 905 873 
f 872 904 905 
f 873 906 874 
f 873 905 906 
f 874 907 875 
f 874 906 907 
f 875 908 876 
f 875 907 908 
f 876 909 877 
f 876 908 909 
f 877 910 878 
f 877 909 910 
f 878 911 879 
f 878 910 911 
f 879 912 880 
f 879 911 912 
f 880 913 881 
f 880 912 913 
f 881 914 882 
f 881 913 914 
f 882 915 883 
f 882 914 915 
f 883 916 884 
f 883 915 916 
f 884 917 885 
f 884 916 917 
f 885 918 886 
f 885 917 918 
f 886 919 887 
f 886 918 919 
f 887 920 888 
f 887 919 920 
f 888 921 889 
f 888 920 921 
f 889 922 890 
f 889 921 922 
f 890 923 891 
f 890 922 923 
f 891 924 892 
f 891 923 924 
f 892 925 893 
f 892 924 925 
f 893 926 894 
f 893 925 926 
f 894 927 895 
f 894 926 927 
f 895 928 896 
f 895 927 928 
f 896 897 865 
f 896 928 897 
f 897 930 898 
f 897 929 930 
f 898 931 899 
f 898 930 931 
f 899 932 900 
f 899 931 932 
f 900 933 901 
f 900 932 933 
f 901 934 902 
f 901 933 934 
f 902 935 903 
f 902 934 935 
f 903 936 904 
f 903 935 936 
f 904 937 905 
f 904 936 937 
f 905 938 906 
f 905 937 938 
f 906 939 907 
f 906 938 939 
f 907 940 908 
f 907 939 940 
f 908 941 909 
f 908 940 941 
f 909 942 910 
f 909 941 942 
f 910 943 911 
f 910 942 943 
f 911 944 912 
f 911 943 944 
f 912 945 913 
f 912 944 945 
f 913 946 914 
f 913 945 946 
f 914 947 915 
f 914 946 947 
f 915 948 916 
f 915 947 948 
f 916 949 917 
f 916 948 949 
f 917 950 918 
f 917 949 950 
f 918 951 919 
f 918 950 951 
f 919 952 920 
f 919 951 952 
f 920 953 921 
f 920 952 953 
f 921 954 922 
f 921 953 954 
f 922 955 923 
f 922 954 955 
f 923 956 924 
f 923 955 956 
f 924 957 925 
f 924 956 957 
f 925 958 926 
f 925 957 958 
f 926 959 927 
f 926 958 959 
f 927 960 928 
f 927 959 960 
f 928 929 897 
f 928 960 929 
f 929 962 930 
f 929 961 962 
f 930 963 931 
f 930 962 963 
f 931 964 932 
f 931 963 964 
f 932 965 933 
f 932 964 965 
f 933 966 934 
f 933 965 966 
f 934 967 935 
f 934 966 967 
f 935 968 936 
f 935 967 968 
f 936 969 937 
f 936 968 969 
f 937 970 938 
f 937 969 970 
f 938 971 939 
f 938 970 971 
f 939 972 940 
f 939 971 972 
f 940 973 941 
f 940 972 973 
f 941 974 942 
f 941 973 974 
f 942 975 943 
f 942 974 975 
f 943 976 944 
f 943 975 976 
f 944 977 945 
f 944 976 977 
f 945 978 946 
f 945 977 978 
f 946 979 947 
f 946 978 979 
f 947 980 948 
f 947 979 980 
f 948 981 949 
f 948 980 981 
f 949 982 950 
f 949 981 982 
f 950 983 951 
f 950 982 983 
f 951 984 952 
f 951 983 984 
f 952 985 953 
f 952 984 985 
f 953 986 954 
f 953 985 986 
f 954 987 955 
f 954 986 987 
f 955 988 956 
f 955 987 988 
f 956 989 957 
f 956 988 989 
f 957 990 958 
f 957 989 990 
f 958 991 959 
f 958 990 991 
f 959 992 960 
f 959 991 992 
f 960 961 929 
f 960 992 961 
f 961 994 962 
f 961 993 994 
f 962 995 963 
f 962 994 995 
f 963 996 964 
f 963 995 996 
f 964 997 965 
f 964 996 997 
f 965 998 966 
f 965 997 998 
f 966 999 967 
f 966 998 999 
f 967 1000 968 
f 967 999 1000 
f 968 1001 969 
f 968 1000 1001 
f 969 1002 970 
f 969 1001 1002 
f 970 1003 971 
f 970 1002 1003 
f 971 1004 972 
f 971 1003 1004 
f 972 1005 973 
f 972 1004 1005 
f 973 1006 974 
f 973 1005 1006 
f 974 1007 975 
f 974 1006 1007 
f 975 1008 976 
f 975 1007 1008 
f 976 1009 977 
f 976 1008 1009 
f 977 1010 978 
f 977 1009 1010 
f 978 1011 979 
f 978 1010 1011 
f 979 1012 980 
f 979 1011 1012 
f 980 1013 981 
f 980 1012 1013 
f 981 1014 982 
f 981 1013 1014 
f 982 1015 983 
f 982 1014 1015 
f 983 1016 984 
f 983 1015 1016 
f 984 1017 985 
f 984 1016 1017 
f 985 1018 986 
f 985 1017 1018 
f 986 1019 987 
f 986 1018 1019 
f 987 1020 988 
f 987 1019 1020 
f 988 1021 989 
f 988 1020 1021 
f 989 1022 990 
f 989 1021 1022 
f 990 1023 991 
f 990 1022 1023 
f 991 1024 992 
f 991 1023 1024 
f 992 993 961 
f 992 1024 993 
f 993 1026 994 
f 993 1025 1026 
f 994 1027 995 
f 994 1026 1027 
f 995 1028 996 
f 995 1027 1028 
f 996 1029 997 
f 996 1028 1029 
f 997 1030 998 
f 997 1029 1030 
f 998 1031 999 
f 998 1030 1031 
f 999 1032 1000 
f 999 1031 1032 
f 1000 1033 1001 
f 1000 1032 1033 
f 1001 1034 1002 
f 1001 1033 1034 
f 1002 1035 1003 
f 1002 1034 1035 
f 1003 1036 1004 
f 1003 1035 1036 
f 1004 1037 1005 
f 1004 1036 1037 
f 1005 1038 1006 
f 1005 1037 1038 
f 1006 1039 1007 
f 1006 1038 1039 
f 1007 1040 1008 
f 1007 1039 1040 
f 1008 1041 1009 
f 1008 1040 1041 
f 1009 1042 1010 
f 1009 1041 1042 
f 1010 1043 1011 
f 1010 1042 1043 
f 1011 1044 1012 
f 1011 1043 1044 
f 1012 1045 1013 
f 1012 1044 1045 
f 1013 1046 1014 
f 1013 1045 1046 
f 1014 1047 1015 
f 1014 1046 1047 
f 1015 1048 1016 
f 1015 1047 1048 
f 1016 1049 1017 
f 1016 1048 1049 
f 1017 1050 1018 
f 1017 1049 1050 
f 1018 1051 1019 
f 1018 1050 1051 
f 1019 1052 1020 
f 1019 1051 1052 
f 1020 1053 1021 
f 1020 1052 1053 
f 1021 1054 1022 
f 1021 1053 1054 
f 1022 1055 1023 
f 1022 1054 1055 
f 1023 1056 1024 
f 1023 1055 1056 
f 1024 1025 993 
f 1024 1056 1025 
f 1025 1058 1026 
f 1025 1057 1058 
f 1026 1059 1027 
f 1026 1058 1059 
f 1027 1060 1028 
f 1027 1059 1060 
f 1028 1061 1029 
f 1028 1060 1061 
f 1029 1062 1030 
f 1029 1061 1062 
f 1030 1063 1031 
f 1030 1062 1063 
f 1031 1064 1032 
f 1031 1063 1064 
f 1032 1065 1033 
f 1032 1064 1065 
f 1033 1066 1034 
f 1033 1065 1066 
f 1034 1067 1035 
f 1034 1066 1067 
f 1035 1068 1036 
f 1035 1067 1068 
f 1036 1069 1037 
f 1036 1068 1069 
f 1037 1070 1038 
f 1037 1069 1070 
f 1038 1071 1039 
f 1038 1070 1071 
f 1039 1072 1040 
f 1039 1071 1072 
f 1040 1073 1041 
f 1040 1072 1073 
f 1041 1074 1042 
f 1041 1073 1074 
f 1042 1075 1043 
f 1042 1074 1075 
f 1043 1076 1044 
f 1043 1075 1076 
f 1044 1077 1045 
f 1044 1076 1077 
f 1045 1078 1046 
f 1045 1077 1078 
f 1046 1079 1047 
f 1046 1078 1079 
f 1047 1080 1048 
f 1047 1079 1080 
f 1048 1081 1049 
f 1048 1080 1081 
f 1049 1082 1050 
f 1049 1081 1082 
f 1050 1083 1051 
f 1050 1082 1083 
f 1051 1084 1052 
f 1051 1083 1084 
f 1052 1085 1053 
f 1052 1084 1085 
f 1053 1086 1054 
f 1053 1085 1086 
f 1054 1087 1055 
f 1054 1086 1087 
f 1055 1088 1056 
f 1055 1087 1088 
f 1056 1057 1025 
f 1056 1088 1057 
f 1057 1090 1058 
f 1057 1089 1090 
f 1058 1091 1059 
f 1058 1090 1091 
f 1059 1092 1060 
f 1059 1091 1092 
f 1060 1093 1061 
f 1060 1092 1093 
f 1061 1094 1062 
f 1061 1093 1094 
f 1062 1095 1063 
f 1062 1094 1095 
f 1063 1096 1064 
f 1063 1095 1096 
f 1064 1097 1065 
f 1064 1096 1097 
f 1065 1098 1066 
f 1065 1097 1098 
f 1066 1099 1067 
f 1066 1098 1099 
f 1067 1100 1068 
f 1067 1099 1100 
f 1068 1101 1069 
f 1068 1100 1101 
f 1069 1102 1070 
f 1069 1101 1102 
f 1070 1103 1071 
f 1070 1102 1103 
f 1071 1104 1072 
f 1071 1103 1104 
f 1072 1105 1073 
f 1072 1104 1105 
f 1073 1106 1074 
f 1073 1105 1106 
f 1074 1107 1075 
f 1074 1106 1107 
f 1075 1108 1076 
f 1075 1107 1108 
f 1076 1109 1077 
f 1076 1108 1109 
f 1077 1110 1078 
f 1077 1109 1110 
f 1078 1111 1079 
f 1078 1110 1111 
f 1079 1112 1080 
f 1079 1111 1112 
f 1080 1113 1081 
f 1080 1112 1113 
f 1081 1114 1082 
f 1081 1113 1114 
f 1082 1115 1083 
f 1082 1114 1115 
f 1083 1116 1084 
f 1083 1115 1116 
f 1084 1117 1085 
f 1084 1116 1117 
f 1085 1118 1086 
f 1085 1117 1118 
f 1086 1119 1087 
f 1086 1118 1119 
f 1087 1120 1088 
f 1087 1119 1120 
f 1088 1089 1057 
f 1088 1120 1089 
f 1089 1122 1090 
f 1089 1121 1122 
f 1090 1123 1091 
f 1090 1122 1123 
f 1091 1124 1092 
f 1091 1123 1124 
f 1092 1125 1093 
f 1092 1124 1125 
f 1093 1126 1094 
f 1093 1125 1126 
f 1094 1127 1095 
f 1094 1126 1127 
f 1095 1128 1096 
f 1095 1127 1128 
f 1096 1129 1097 
f 1096 1128 1129 
f 1097 1130 1098 
f 1097 1129 1130 
f 1098 1131 1099 
f 1098 1130 1131 
f 1099 1132 1100 
f 1099 1131 1132 
f 1100 1133 1101 
f 1100 1132 1133 
f 1101 1134 1102 
f 1101 1133 1134 
f 1102 1135 1103 
f 1102 1134 1135 
f 1103 1136 1104 
f 1103 1135 1136 
f 1104 1137 1105 
f 1104 1136 1137 
f 1105 1138 1106 
f 1105 1137 1138 
f 1106 1139 1107 
f 1106 1138 1139 
f 1107 1140 1108 
f 1107 1139 1140 
f 1108 1141 1109 
f 1108 1140 1141 
f 1109 1142 1110 
f 1109 1141 1142 
f 1110 1143 1111 
f 1110 1142 1143 
f 1111 1144 1112 
f 1111 1143 1144 
f 1112 1145 1113 
f 1112 1144 1145 
f 1113 1146 1114 
f 1113 1145 1146 
f 1114 1147 1115 
f 1114 1146 1147 
f 1115 1148 1116 
f 1115 1147 1148 
f 1116 1149 1117 
f 1116 1148 1149 
f 1117 1150 1118 
f 1117 1149 1150 
f 1118 1151 1119 
f 1118 1150 1151 
f 1119 1152 1120 
f 1119 1151 1152 
f 1120 1121 1089 
f 1120 1152 1121 
f 1121 1154 1122 
f 1121 1153 1154 
f 1122 1155 1123 
f 1122 1154 1155 
f 1123 1156 1124 
f 1123 1155 1156 
f 1124 1157 1125 
f 1124 1156 1157 
f 1125 1158 1126 
f 1125 1157 1158 
f 1126 1159 1127 
f 1126 1158 1159 
f 1127 1160 1128 
f 1127 1159 1160 
f 1128 1161 1129 
f 1128 1160 1161 
f 1129 1162 1130 
f 1129 1161 1162 
f 1130 1163 1131 
f 1130 1162 1163 
f 1131 1164 1132 
f 1131 1163 1164 
f 1132 1165 1133 
f 1132 1164 1165 
f 1133 1166 1134 
f 1133 1165 1166 
f 1134 1167 1135 
f 1134 1166 1167 
f 1135 1168 1136 
f 1135 1167 1168 
f 1136 1169 1137 
f 1136 1168 1169 
f 1137 1170 1138 
f 1137 1169 1170 
f 1138 1171 1139 
f 1138 1170 1171 
f 1139 1172 1140 
f 1139 1171 1172 
f 1140 1173 1141 
f 1140 1172 1173 
f 1141 1174 1142 
f 1141 1173 1174 
f 1142 1175 1143 
f 1142 1174 1175 
f 1143 1176 1144 
f 1143 1175 1176 
f 1144 1177 1145 
f 1144 1176 1177 
f 1145 1178 1146 
f 1145 1177 1178 
f 1146 1179 1147 
f 1146 1178 1179 
f 1147 1180 1148 
f 1147 1179 1180 
f 1148 1181 1149 
f 1148 1180 1181 
f 1149 1182 1150 
f 1149 1181 1182 
f 1150 1183 1151 
f 1150 1182 1183 
f 1151 1184 1152 
f 1151 1183 1184 
f 1152 1153 1121 
f 1152 1184 1153 
f 1153 1186 1154 
f 1153 1185 1186 
f 1154 1187 1155 
f 1154 1186 1187 
f 1155 1188 1156 
f 1155 1187 1188 
f 1156 1189 1157 
f 1156 1188 1189 
f 1157 1190 1158 
f 1157 1189 1190 
f 1158 1191 1159 
f 1158 1190 1191 
f 1159 1192 1160 
f 1159 1191 1192 
f 1160 1193 1161 
f 1160 1192 1193 
f 1161 1194 1162 
f 1161 1193 1194 
f 1162 1195 1163 
f 1162 1194 1195 
f 1163 1196 1164 
f 1163 1195 1196 
f 1164 1197 1165 
f 1164 1196 1197 
f 1165 1198 1166 
f 1165 1197 1198 
f 1166 1199 1167 
f 1166 1198 1199 
f 1167 1200 1168 
f 1167 1199 1200 
f 1168 1201 1169 
f 1168 1200 1201 
f 1169 1202 1170 
f 1169 1201 1202 
f 1170 1203 1171 
f 1170 1202 1203 
f 1171 1204 1172 
f 1171 1203 1204 
f 1172 1205 1173 
f 1172 1204 1205 
f 1173 1206 1174 
f 1173 1205 1206 
f 1174 1207 1175 
f 1174 1206 1207 
f 1175 1208 1176 
f 1175 1207 1208 
f 1176 1209 1177 
f 1176 1208 1209 
f 1177 1210 1178 
f 1177 1209 1210 
f 1178 1211 1179 
f 1178 1210 1211 
f 1179 1212 1180 
f 1179 1211 1212 
f 1180 1213 1181 
f 1180 1212 1213 
f 1181 1214 1182 
f 1181 1213 1214 
f 1182 1215 1183 
f 1182 1214 1215 
f 1183 1216 1184 
f 1183 1215 1216 
f 1184 1185 1153 
f 1184 1216 1185 
f 1185 1218 1186 
f 1185 1217 1218 
f 1186 1219 1187 
f 1186 1218 1219 
f 1187 1220 1188 
f 1187 1219 1220 
f 1188 1221 1189 
f 1188 1220 1221 
f 1189 1222 1190 
f 1189 1221 1222 
f 1190 1223 1191 
f 1190 1222 1223 
f 1191 1224 1192 
f 1191 1223 1224 
f 1192 1225 1193 
f 1192 1224 1225 
f 1193 1226 1194 
f 1193 1225 1226 
f 1194 1227 1195 
f 1194 1226 1227 
f 1195 1228 1196 
f 1195 1227 1228 
f 1196 1229 1197 
f 1196 1228 1229 
f 1197 1230 1198 
f 1197 1229 1230 
f 1198 1231 1199 
f 1198 1230 1231 
f 1199 1232 1200 
f 1199 1231 1232 
f 1200 1233 1201 
f 1200 1232 1233 
f 1201 1234 1202 
f 1201 1233 1234 
f 1202 1235 1203 
f 1202 1234 1235 
f 1203 1236 1204 
f 1203 1235 1236 
f 1204 1237 1205 
f 1204 1236 1237 
f 1205 1238 1206 
f 1205 1237 1238 
f 1206 1239 1207 
f 1206 1238 1239 
f 1207 1240 1208 
f 1207 1239 1240 
f 1208 1241 1209 
f 1208 1240 1241 
f 1209 1242 1210 
f 1209 1241 1242 
f 1210 1243 1211 
f 1210 1242 1243 
f 1211 1244 1212 
f 1211 1243 1244 
f 1212 1245 1213 
f 1212 1244 1245 
f 1213 1246 1214 
f 1213 1245 1246 
f 1214 1247 1215 
f 1214 1246 1247 
f 1215 1248 1216 
f 1215 1247 1248 
f 1216 1217 1185 
f 1216 1248 1217 
f 1217 1250 1218 
f 1217 1249 1250 
f 1218 1251 1219 
f 1218 1250 1251 
f 1219 1252 1220 
f 1219 1251 1252 
f 1220 1253 1221 
f 1220 1252 1253 
f 1221 1254 1222 
f 1221 1253 1254 
f 1222 1255 1223 
f 1222 1254 1255 
f 1223 1256 1224 
f 1223 1255 1256 
f 1224 1257 1225 
f 1224 1256 1257 
f 1225 1258 1226 
f 1225 1257 1258 
f 1226 1259 1227 
f 1226 1258 1259 
f 1227 1260 1228 
f 1227 1259 1260 
f 1228 1261 1229 
f 1228 1260 1261 
f 1229 1262 1230 
f 1229 1261 1262 
f 1230 1263 1231 
f 1230 1262 1263 
f 1231 1264 1232 
f 1231 1263 1264 
f 1232 1265 1233 
f 1232 1264 1265 
f 1233 1266 1234 
f 1233 1265 1266 
f 1234 1267 1235 
f 1234 1266 1267 
f 1235 1268 1236 
f 1235 1267 1268 
f 1236 1269 1237 
f 1236 1268 1269 
f 1237 1270 1238 
f 1237 1269 1270 
f 1238 1271 1239 
f 1238 1270 1271 
f 1239 1272 1240 
f 1239 1271 1272 
f 1240 1273 1241 
f 1240 1272 1273 
f 1241 1274 1242 
f 1241 1273 1274 
f 1242 1275 1243 
f 1242 1274 1275 
f 1243 1276 1244 
f 1243 1275 1276 
f 1244 1277 1245 
f 1244 1276 1277 
f 1245 1278 1246 
f 1245 1277 1278 
f 1246 1279 1247 
f 1246 1278 1279 
f 1247 1280 1248 
f 1247 1279 1280 
f 1248 1249 1217 
f 1248 1280 1249 
f 1249 1282 1250 
f 1249 1281 1282 
f 1250 1283 1251 
f 1250 1282 1283 
f 1251 1284 1252 
f 1251 1283 1284 
f 1252 1285 1253 
f 1252 1284 1285 
f 1253 1286 1254 
f 1253 1285 1286 
f 1254 1287 1255 
f 1254 1286 1287 
f 1255 1288 1256 
f 1255 1287 1288 
f 1256 1289 1257 
f 1256 1288 1289 
f 1257 1290 1258 
f 1257 1289 1290 
f 1258 1291 1259 
f 1258 1290 1291 
f 1259 1292 1260 
f 1259 1291 1292 
f 1260 1293 1261 
f 1260 1292 1293 
f 1261 1294 1262 
f 1261 1293 1294 
f 1262 1295 1263 
f 1262 1294 1295 
f 1263 1296 1264 
f 1263 1295 1296 
f 1264 1297 1265 
f 1264 1296 1297 
f 1265 1298 1266 
f 1265 1297 1298 
f 1266 1299 1267 
f 1266 1298 1299 
f 1267 1300 1268 
f 1267 1299 1300 
f 1268 1301 1269 
f 1268 1300 1301 
f 1269 1302 1270 
f 1269 1301 1302 
f 1270 1303 1271 
f 1270 1302 1303 
f 1271 1304 1272 
f 1271 1303 1304 
f 1272 1305 1273 
f 1272 1304 1305 
f 1273 1306 1274 
f 1273 1305 1306 
f 1274 1307 1275 
f 1274 1306 1307 
f 1275 1308 1276 
f 1275 1307 1308 
f 1276 1309 1277 
f 1276 1308 1309 
f 1277 1310 1278 
f 1277 1309 1310 
f 1278 1311 1279 
f 1278 1310 1311 
f 1279 1312 1280 
f 1279 1311 1312 
f 1280 1281 1249 
f 1280 1312 1281 
f 1281 1314 1282 
f 1281 1313 1314 
f 1282 1315 1283 
f 1282 1314 1315 
f 1283 1316 1284 
f 1283 1315 1316 
f 1284 1317 1285 
f 1284 1316 1317 
f 1285 1318 1286 
f 1285 1317 1318 
f 1286 1319 1287 
f 1286 1318 1319 
f 1287 1320 1288 
f 1287 1319 1320 
f 1288 1321 1289 
f 1288 1320 1321 
f 1289 1322 1290 
f 1289 1321 1322 
f 1290 1323 1291 
f 1290 1322 1323 
f 1291 1324 1292 
f 1291 1323 1324 
f 1292 1325 1293 
f 1292 1324 1325 
f 1293 1326 1294 
f 1293 1325 1326 
f 1294 1327 1295 
f 1294 1326 1327 
f 1295 1328 1296 
f 1295 1327 1328 
f 1296 1329 1297 
f 1296 1328 1329 
f 1297 1330 1298 
f 1297 1329 1330 
f 1298 1331 1299 
f 1298 1330 1331 
f 1299 1332 1300 
f 1299 1331 1332 
f 1300 1333 1301 
f 1300 1332 1333 
f 1301 1334 1302 
f 1301 1333 1334 
f 1302 1335 1303 
f 1302 1334 1335 
f 1303 1336 1304 
f 1303 1335 1336 
f 1304 1337 1305 
f 1304 1336 1337 
f 1305 1338 1306 
f 1305 1337 1338 
f 1306 1339 1307 
f 1306 1338 1339 
f 1307 1340 1308 
f 1307 1339 1340 
f 1308 1341 1309 
f 1308 1340 1341 
f 1309 1342 1310 
f 1309 1341 1342 
f 1310 1343 1311 
f 1310 1342 1343 
f 1311 1344 1312 
f 1311 1343 1344 
f 1312 1313 1281 
f 1312 1344 1313 
f 1313 1346 1314 
f 1313 1345 1346 
f 1314 1347 1315 
f 1314 1346 1347 
f 1315 1348 1316 
f 1315 1347 1348 
f 1316 1349 1317 
f 1316 1348 1349 
f 1317 1350 1318 
f 1317 1349 1350 
f 1318 1351 1319 
f 1318 1350 1351 
f 1319 1352 1320 
f 1319 1351 1352 
f 1320 1353 1321 
f 1320 1352 1353 
f 1321 1354 1322 
f 1321 1353 1354 
f 1322 1355 1323 
f 1322 1354 1355 
f 1323 1356 1324 
f 1323 1355 1356 
f 1324 1357 1325 
f 1324 1356 1357 
f 1325 1358 1326 
f 1325 1357 1358 
f 1326 1359 1327 
f 1326 1358 1359 
f 1327 1360 1328 
f 1327 1359 1360 
f 1328 1361 1329 
f 1328 1360 1361 
f 1329 1362 1330 
f 1329 1361 1362 
f 1330 1363 1331 
f 1330 1362 1363 
f 1331 1364 1332 
f 1331 1363 1364 
f 1332 1365 1333 
f 1332 1364 1365 
f 1333 1366 1334 
f 1333 1365 1366 
f 1334 1367 1335 
f 1334 1366 1367 
f 1335 1368 1336 
f 1335 1367 1368 
f 1336 1369 1337 
f 1336 1368 1369 
f 1337 1370 1338 
f 1337 1369 1370 
f 1338 1371 1339 
f 1338 1370 1371 
f 1339 1372 1340 
f 1339 1371 1372 
f 1340 1373 1341 
f 1340 1372 1373 
f 1341 1374 1342 
f 1341 1373 1374 
f 1342 1375 1343 
f 1342 1374 1375 
f 1343 1376 1344 
f 1343 1375 1376 
f 1344 1345 1313 
f 1344 1376 1345 
f 1345 1378 1346 
f 1345 1377 1378 
f 1346 1379 1347 
f 1346 1378 1379 
f 1347 1380 1348 
f 1347 1379 1380 
f 1348 1381 1349 
f 1348 1380 1381 
f 1349 1382 1350 
f 1349 1381 1382 
f 1350 1383 1351 
f 1350 1382 1383 
f 1351 1384 1352 
f 1351 1383 1384 
f 1352 1385 1353 
f 1352 1384 1385 
f 1353 1386 1354 
f 1353 1385 1386 
f 1354 1387 1355 
f 1354 1386 1387 
f 1355 1388 1356 
f 1355 1387 1388 
f 1356 1389 1357 
f 1356 1388 1389 
f 1357 1390 1358 
f 1357 1389 1390 
f 1358 1391 1359 
f 1358 1390 1391 
f 1359 1392 1360 
f 1359 1391 1392 
f 1360 1393 1361 
f 1360 1392 1393 
f 1361 1394 1362 
f 1361 1393 1394 
f 1362 1395 1363 
f 1362 1394 1395 
f 1363 1396 1364 
f 1363 1395 1396 
f 1364 1397 1365 
f 1364 1396 1397 
f 1365 1398 1366 
f 1365 1397 1398 
f 1366 1399 1367 
f 1366 1398 1399 
f 1367 1400 1368 
f 1367 1399 1400 
f 1368 1401 1369 
f 1368 1400 1401 
f 1369 1402 1370 
f 1369 1401 1402 
f 1370 1403 1371 
f 1370 1402 1403 
f 1371 1404 1372 
f 1371 1403 1404 
f 1372 1405 1373 
f 1372 1404 1405 
f 1373 1406 1374 
f 1373 1405 1406 
f 1374 1407 1375 
f 1374 1406 1407 
f 1375 1408 1376 
f 1375 1407 1408 
f 1376 1377 1345 
f 1376 1408 1377 
f 1377 1410 1378 
f 1377 1409 1410 
f 1378 1411 1379 
f 1378 1410 1411 
f 1379 1412 1380 
f 1379 1411 1412 
f 1380 1413 1381 
f 1380 1412 1413 
f 1381 1414 1382 
f 1381 1413 1414 
f 1382 1415 1383 
f 1382 1414 1415 
f 1383 1416 1384 
f 1383 1415 1416 
f 1384 1417 1385 
f 1384 1416 1417 
f 1385 1418 1386 
f 1385 1417 1418 
f 1386 1419 1387 
f 1386 1418 1419 
f 1387 1420 1388 
f 1387 1419 1420 
f 1388 1421 1389 
f 1388 1420 1421 
f 1389 1422 1390 
f 1389 1421 1422 
f 1390 1423 1391 
f 1390 1422 1423 
f 1391 1424 1392 
f 1391 1423 1424 
f 1392 1425 1393 
f 1392 1424 1425 
f 1393 1426 1394 
f 1393 1425 1426 
f 1394 1427 1395 
f 1394 1426 1427 
f 1395 1428 1396 
f 1395 1427 1428 
f 1396 1429 1397 
f 1396 1428 1429 
f 1397 1430 1398 
f 1397 1429 1430 
f 1398 1431 1399 
f 1398 1430 1431 
f 1399 1432 1400 
f 1399 1431 1432 
f 1400 1433 1401 
f 1400 1432 1433 
f 1401 1434 1402 
f 1401 1433 1434 
f 1402 1435 1403 
f 1402 1434 1435 
f 1403 1436 1404 
f 1403 1435 1436 
f 1404 1437 1405 
f 1404 1436 1437 
f 1405 1438 1406 
f 1405 1437 1438 
f 1406 1439 1407 
f 1406 1438 1439 
f 1407 1440 1408 
f 1407 1439 1440 
f 1408 1409 1377 
f 1408 1440 1409 
f 1409 1442 1410 
f 1409 1441 1442 
f 1410 1443 1411 
f 1410 1442 1443 
f 1411 1444 1412 
f 1411 1443 1444 
f 1412 1445 1413 
f 1412 1444 1445 
f 1413 1446 1414 
f 1413 1445 1446 
f 1414 1447 1415 
f 1414 1446 1447 
f 1415 1448 1416 
f 1415 1447 1448 
f 1416 1449 1417 
f 1416 1448 1449 
f 1417 1450 1418 
f 1417 1449 1450 
f 1418 1451 1419 
f 1418 1450 1451 
f 1419 1452 1420 
f 1419 1451 1452 
f 1420 1453 1421 
f 1420 1452 1453 
f 1421 1454 1422 
f 1421 1453 1454 
f 1422 1455 1423 
f 1422 1454 1455 
f 1423 1456 1424 
f 1423 1455 1456 
f 1424 1457 1425 
f 1424 1456 1457 
f 1425 1458 1426 
f 1425 1457 1458 
f 1426 1459 1427 
f 1426 1458 1459 
f 1427 1460 1428 
f 1427 1459 1460 
f 1428 1461 1429 
f 1428 1460 1461 
f 1429 1462 1430 
f 1429 1461 1462 
f 1430 1463 1431 
f 1430 1462 1463 
f 1431 1464 1432 
f 1431 1463 1464 
f 1432 1465 1433 
f 1432 1464 1465 
f 1433 1466 1434 
f 1433 1465 1466 
f 1434 1467 1435 
f 1434 1466 1467 
f 1435 1468 1436 
f 1435 1467 1468 
f 1436 1469 1437 
f 1436 1468 1469 
f 1437 1470 1438 
f 1437 1469 1470 
f 1438 1471 1439 
f 1438 1470 1471 
f 1439 1472 1440 
f 1439 1471 1472 
f 1440 1441 1409 
f 1440 1472 1441 
f 1441 1474 1442 
f 1441 1473 1474 
f 1442 1475 1443 
f 1442 1474 1475 
f 1443 1476 1444 
f 1443 1475 1476 
f 1444 1477 1445 
f 1444 1476 1477 
f 1445 1478 1446 
f 1445 1477 1478 
f 1446 1479 1447 
f 1446 1478 1479 
f 1447 1480 1448 
f 1447 1479 1480 
f 1448 1481 1449 
f 1448 1480 1481 
f 1449 1482 1450 
f 1449 1481 1482 
f 1450 1483 1451 
f 1450 1482 1483 
f 1451 1484 1452 
f 1451 1483 1484 
f 1452 1485 1453 
f 1452 1484 1485 
f 1453 1486 1454 
f 1453 1485 1486 
f 1454 1487 1455 
f 1454 1486 1487 
f 1455 1488 1456 
f 1455 1487 1488 
f 1456 1489 1457 
f 1456 1488 1489 
f 1457 1490 1458 
f 1457 1489 1490 
f 1458 1491 1459 
f 1458 1490 1491 
f 1459 1492 1460 
f 1459 1491 1492 
f 1460 1493 1461 
f 1460 1492 1493 
f 1461 1494 1462 
f 1461 1493 1494 
f 1462 1495 1463 
f 1462 1494 1495 
f 1463 1496 1464 
f 1463 1495 1496 
f 1464 1497 1465 
f 1464 1496 1497 
f 1465 1498 1466 
f 1465 1497 1498 
f 1466 1499 1467 
f 1466 1498 1499 
f 1467 1500 1468 
f 1467 1499 1500 
f 1468 1501 1469 
f 1468 1500 1501 
f 1469 1502 1470 
f 1469 1501 1502 
f 1470 1503 1471 
f 1470 1502 1503 
f 1471 1504 1472 
f 1471 1503 1504 
f 1472 1473 1441 
f 1472 1504 1473 
f 1473 1506 1474 
f 1473 1505 1506 
f 1474 1507 1475 
f 1474 1506 1507 
f 1475 1508 1476 
f 1475 1507 1508 
f 1476 1509 1477 
f 1476 1508 1509 
f 1477 1510 1478 
f 1477 1509 1510 
f 1478 1511 1479 
f 1478 1510 1511 
f 1479 1512 1480 
f 1479 1511 1512 
f 1480 1513 1481 
f 1480 1512 1513 
f 1481 1514 1482 
f 1481 1513 1514 
f 1482 1515 1483 
f 1482 1514 1515 
f 1483 1516 1484 
f 1483 1515 1516 
f 1484 1517 1485 
f 1484 1516 1517 
f 1485 1518 1486 
f 1485 1517 1518 
f 1486 1519 1487 
f 1486 1518 1519 
f 1487 1520 1488 
f 1487 1519 1520 
f 1488 1521 1489 
f 1488 1520 1521 
f 1489 1522 1490 
f 1489 1521 1522 
f 1490 1523 1491 
f 1490 1522 1523 
f 1491 1524 1492 
f 1491 1523 1524 
f 1492 1525 1493 
f 1492 1524 1525 
f 1493 1526 1494 
f 1493 1525 1526 
f 1494 1527 1495 
f 1494 1526 1527 
f 1495 1528 1496 
f 1495 1527 1528 
f 1496 1529 1497 
f 1496 1528 1529 
f 1497 1530 1498 
f 1497 1529 1530 
f 1498 1531 1499 
f 1498 1530 1531 
f 1499 1532 1500 
f 1499 1531 1532 
f 1500 1533 1501 
f 1500 1532 1533 
f 1501 1534 1502 
f 1501 1533 1534 
f 1502 1535 1503 
f 1502 1534 1535 
f 1503 1536 1504 
f 1503 1535 1536 
f 1504 1505 1473 
f 1504 1536 1505 
