# Branch
v 230.034 -25.7998 -52.8854
v 230.066 -25.8134 -52.8608
v 230.095 -25.8223 -52.8302
v 230.12 -25.826 -52.7949
v 230.138 -25.8245 -52.7562
v 230.15 -25.8177 -52.7156
v 230.156 -25.806 -52.6746
v 230.154 -25.7899 -52.6348
v 230.146 -25.7698 -52.5977
v 230.131 -25.7466 -52.5648
v 230.11 -25.7213 -52.5374
v 230.083 -25.6947 -52.5164
v 230.052 -25.6678 -52.5027
v 230.019 -25.6418 -52.4968
v 229.983 -25.6176 -52.499
v 229.947 -25.5961 -52.5091
v 229.913 -25.5782 -52.5268
v 229.88 -25.5646 -52.5514
v 229.851 -25.5557 -52.5819
v 229.827 -25.552 -52.6172
v 229.808 -25.5535 -52.6559
v 229.796 -25.5603 -52.6966
v 229.79 -25.5719 -52.7376
v 229.792 -25.5881 -52.7774
v 229.801 -25.6082 -52.8144
v 229.816 -25.6313 -52.8473
v 229.837 -25.6567 -52.8748
v 229.863 -25.6833 -52.8958
v 229.894 -25.7102 -52.9095
v 229.928 -25.7362 -52.9153
v 229.963 -25.7604 -52.9132
v 229.999 -25.7819 -52.9031
v 230.992 -24.3781 -53.3517
v 231.025 -24.3919 -53.3271
v 231.053 -24.4016 -53.2965
v 231.076 -24.4066 -53.261
v 231.093 -24.4068 -53.222
v 231.104 -24.4022 -53.1809
v 231.108 -24.393 -53.1393
v 231.105 -24.3795 -53.0989
v 231.094 -24.3623 -53.0612
v 231.077 -24.342 -53.0276
v 231.055 -24.3193 -52.9994
v 231.027 -24.2953 -52.9778
v 230.995 -24.2707 -52.9635
v 230.96 -24.2465 -52.9571
v 230.924 -24.2237 -52.9588
v 230.888 -24.2031 -52.9686
v 230.853 -24.1856 -52.9861
v 230.821 -24.1717 -53.0107
v 230.793 -24.1621 -53.0413
v 230.77 -24.1571 -53.0768
v 230.752 -24.1569 -53.1159
v 230.741 -24.1615 -53.157
v 230.738 -24.1707 -53.1985
v 230.741 -24.1841 -53.2389
v 230.751 -24.2014 -53.2767
v 230.768 -24.2217 -53.3103
v 230.791 -24.2443 -53.3384
v 230.819 -24.2684 -53.3601
v 230.851 -24.293 -53.3743
v 230.885 -24.3172 -53.3807
v 230.921 -24.34 -53.379
v 230.958 -24.3606 -53.3692
v 231.885 -22.9331 -53.6909
v 231.917 -22.9472 -53.6664
v 231.944 -22.9577 -53.6358
v 231.967 -22.964 -53.6001
v 231.983 -22.966 -53.5609
v 231.992 -22.9636 -53.5195
v 231.994 -22.9569 -53.4776
v 231.99 -22.9462 -53.4368
v 231.978 -22.9318 -53.3987
v 231.959 -22.9143 -53.3646
v 231.935 -22.8944 -53.336
v 231.906 -22.8729 -53.314
v 231.873 -22.8505 -53.2993
v 231.837 -22.8281 -53.2925
v 231.801 -22.8067 -53.2939
v 231.764 -22.787 -53.3035
v 231.729 -22.7697 -53.3209
v 231.698 -22.7556 -53.3454
v 231.67 -22.7452 -53.376
v 231.648 -22.7388 -53.4116
v 231.632 -22.7368 -53.4509
v 231.622 -22.7392 -53.4922
v 231.62 -22.7459 -53.5341
v 231.625 -22.7566 -53.5749
v 231.637 -22.771 -53.6131
v 231.655 -22.7885 -53.6471
v 231.68 -22.8084 -53.6757
v 231.709 -22.83 -53.6978
v 231.742 -22.8524 -53.7125
v 231.777 -22.8747 -53.7193
v 231.814 -22.8961 -53.7178
v 231.85 -22.9159 -53.7082
v 232.718 -21.4689 -53.9109
v 232.75 -21.4833 -53.8865
v 232.777 -21.4946 -53.8559
v 232.798 -21.5023 -53.8203
v 232.813 -21.5061 -53.781
v 232.821 -21.5059 -53.7396
v 232.822 -21.5017 -53.6975
v 232.815 -21.4936 -53.6566
v 232.802 -21.482 -53.6183
v 232.782 -21.4673 -53.584
v 232.757 -21.4501 -53.5552
v 232.726 -21.431 -53.5329
v 232.692 -21.4107 -53.518
v 232.656 -21.3901 -53.511
v 232.619 -21.37 -53.5123
v 232.582 -21.351 -53.5217
v 232.548 -21.334 -53.539
v 232.517 -21.3196 -53.5633
v 232.49 -21.3083 -53.5939
v 232.468 -21.3006 -53.6296
v 232.453 -21.2968 -53.6689
v 232.445 -21.297 -53.7103
v 232.444 -21.3012 -53.7523
v 232.451 -21.3092 -53.7933
v 232.464 -21.3209 -53.8316
v 232.484 -21.3356 -53.8659
v 232.51 -21.3528 -53.8947
v 232.54 -21.3719 -53.917
v 232.574 -21.3922 -53.9319
v 232.61 -21.4128 -53.9389
v 232.647 -21.4329 -53.9376
v 232.684 -21.4519 -53.9282
v 233.498 -19.9895 -54.0199
v 233.529 -20.0043 -53.9957
v 233.556 -20.0164 -53.9652
v 233.576 -20.0255 -53.9297
v 233.59 -20.0311 -53.8905
v 233.597 -20.033 -53.8491
v 233.596 -20.0312 -53.8071
v 233.589 -20.0257 -53.7662
v 233.574 -20.0167 -53.7279
v 233.553 -20.0047 -53.6937
v 233.526 -19.9899 -53.6649
v 233.495 -19.9731 -53.6425
v 233.46 -19.9549 -53.6276
v 233.423 -19.9359 -53.6205
v 233.386 -19.9169 -53.6217
v 233.349 -19.8986 -53.631
v 233.315 -19.8818 -53.6482
v 233.284 -19.867 -53.6725
v 233.258 -19.8548 -53.7029
v 233.237 -19.8458 -53.7385
v 233.223 -19.8402 -53.7777
v 233.217 -19.8382 -53.819
v 233.217 -19.8401 -53.861
v 233.225 -19.8456 -53.9019
v 233.239 -19.8545 -53.9402
v 233.26 -19.8666 -53.9744
v 233.287 -19.8813 -54.0032
v 233.318 -19.8981 -54.0256
v 233.353 -19.9163 -54.0405
v 233.39 -19.9353 -54.0476
v 233.427 -19.9543 -54.0464
v 233.464 -19.9726 -54.0371
v 234.231 -18.4989 -54.0261
v 234.262 -18.514 -54.0019
v 234.288 -18.5271 -53.9716
v 234.307 -18.5374 -53.9363
v 234.32 -18.5447 -53.8973
v 234.326 -18.5487 -53.8562
v 234.325 -18.5491 -53.8145
v 234.316 -18.546 -53.7738
v 234.3 -18.5396 -53.7357
v 234.278 -18.53 -53.7016
v 234.25 -18.5176 -53.673
v 234.218 -18.5029 -53.6508
v 234.183 -18.4864 -53.6359
v 234.145 -18.4689 -53.6289
v 234.108 -18.4509 -53.63
v 234.071 -18.4332 -53.6393
v 234.037 -18.4164 -53.6563
v 234.006 -18.4012 -53.6805
v 233.981 -18.3882 -53.7108
v 233.961 -18.3778 -53.7461
v 233.948 -18.3705 -53.7851
v 233.942 -18.3666 -53.8262
v 233.944 -18.3662 -53.8679
v 233.953 -18.3692 -53.9086
v 233.968 -18.3757 -53.9467
v 233.991 -18.3853 -53.9808
v 234.018 -18.3977 -54.0094
v 234.05 -18.4124 -54.0316
v 234.086 -18.4288 -54.0465
v 234.123 -18.4464 -54.0535
v 234.161 -18.4644 -54.0524
v 234.197 -18.4821 -54.0431
v 234.924 -17.0009 -53.9375
v 234.954 -17.0166 -53.9135
v 234.979 -17.0304 -53.8834
v 234.998 -17.0421 -53.8484
v 235.01 -17.051 -53.8097
v 235.015 -17.0568 -53.7689
v 235.013 -17.0593 -53.7276
v 235.003 -17.0585 -53.6873
v 234.986 -17.0543 -53.6495
v 234.963 -17.0469 -53.6158
v 234.935 -17.0366 -53.5874
v 234.902 -17.0237 -53.5654
v 234.866 -17.0089 -53.5507
v 234.828 -16.9926 -53.5438
v 234.791 -16.9755 -53.545
v 234.754 -16.9582 -53.5543
v 234.72 -16.9415 -53.5712
v 234.69 -16.9258 -53.5952
v 234.665 -16.9119 -53.6252
v 234.646 -16.9003 -53.6603
v 234.634 -16.8914 -53.6989
v 234.629 -16.8856 -53.7397
v 234.631 -16.8831 -53.7811
v 234.641 -16.8839 -53.8214
v 234.658 -16.8881 -53.8591
v 234.681 -16.8955 -53.8929
v 234.709 -16.9058 -53.9213
v 234.742 -16.9186 -53.9432
v 234.778 -16.9335 -53.9579
v 234.816 -16.9498 -53.9648
v 234.853 -16.9669 -53.9636
v 234.89 -16.9841 -53.9544
v 235.582 -15.4995 -53.7624
v 235.612 -15.5156 -53.7386
v 235.636 -15.5304 -53.7088
v 235.655 -15.5432 -53.6741
v 235.666 -15.5535 -53.6358
v 235.67 -15.5611 -53.5955
v 235.667 -15.5655 -53.5546
v 235.656 -15.5667 -53.5147
v 235.639 -15.5645 -53.4774
v 235.615 -15.5591 -53.4441
v 235.586 -15.5506 -53.4161
v 235.553 -15.5394 -53.3945
v 235.517 -15.526 -53.38
v 235.479 -15.5107 -53.3732
v 235.441 -15.4943 -53.3745
v 235.405 -15.4774 -53.3837
v 235.371 -15.4605 -53.4005
v 235.341 -15.4444 -53.4243
v 235.317 -15.4297 -53.4541
v 235.299 -15.4169 -53.4888
v 235.287 -15.4065 -53.527
v 235.283 -15.3989 -53.5674
v 235.286 -15.3945 -53.6083
v 235.297 -15.3934 -53.6481
v 235.314 -15.3955 -53.6854
v 235.338 -15.401 -53.7187
v 235.367 -15.4094 -53.7467
v 235.4 -15.4206 -53.7684
v 235.437 -15.4341 -53.7829
v 235.474 -15.4493 -53.7896
v 235.512 -15.4657 -53.7884
v 235.549 -15.4827 -53.7792
v 236.213 -13.9984 -53.5089
v 236.242 -14.015 -53.4853
v 236.266 -14.0305 -53.4558
v 236.284 -14.0445 -53.4215
v 236.295 -14.0562 -53.3838
v 236.298 -14.0653 -53.3439
v 236.294 -14.0714 -53.3035
v 236.283 -14.0743 -53.2642
v 236.265 -14.0739 -53.2274
v 236.24 -14.0702 -53.1946
v 236.211 -14.0633 -53.167
v 236.177 -14.0535 -53.1457
v 236.141 -14.0412 -53.1314
v 236.103 -14.0268 -53.1249
v 236.065 -14.011 -53.1262
v 236.029 -13.9942 -53.1354
v 235.995 -13.9772 -53.152
v 235.966 -13.9606 -53.1756
v 235.942 -13.945 -53.205
v 235.925 -13.9311 -53.2393
v 235.914 -13.9194 -53.2771
v 235.91 -13.9103 -53.317
v 235.914 -13.9041 -53.3574
v 235.926 -13.9012 -53.3967
v 235.944 -13.9016 -53.4335
v 235.968 -13.9054 -53.4663
v 235.998 -13.9122 -53.4939
v 236.031 -13.922 -53.5152
v 236.068 -13.9344 -53.5294
v 236.106 -13.9487 -53.536
v 236.143 -13.9646 -53.5347
v 236.18 -13.9814 -53.5255
v 236.822 -12.5012 -53.1851
v 236.851 -12.5184 -53.1619
v 236.875 -12.5347 -53.1327
v 236.892 -12.5497 -53.0989
v 236.902 -12.5626 -53.0616
v 236.905 -12.5731 -53.0223
v 236.9 -12.5807 -52.9825
v 236.888 -12.5852 -52.9437
v 236.87 -12.5863 -52.9074
v 236.845 -12.584 -52.8751
v 236.815 -12.5784 -52.8479
v 236.781 -12.5698 -52.827
v 236.745 -12.5583 -52.813
v 236.707 -12.5446 -52.8066
v 236.669 -12.5291 -52.808
v 236.633 -12.5124 -52.8171
v 236.6 -12.4952 -52.8336
v 236.571 -12.4781 -52.8568
v 236.548 -12.4617 -52.886
v 236.531 -12.4468 -52.9198
v 236.52 -12.4338 -52.9571
v 236.517 -12.4233 -52.9964
v 236.522 -12.4157 -53.0362
v 236.534 -12.4112 -53.075
v 236.553 -12.4101 -53.1113
v 236.577 -12.4124 -53.1436
v 236.607 -12.418 -53.1708
v 236.641 -12.4267 -53.1917
v 236.678 -12.4381 -53.2057
v 236.716 -12.4518 -53.2121
v 236.753 -12.4673 -53.2107
v 236.789 -12.484 -53.2016
v 237.417 -11.0117 -52.7993
v 237.445 -11.0294 -52.7763
v 237.468 -11.0465 -52.7476
v 237.485 -11.0624 -52.7142
v 237.495 -11.0765 -52.6774
v 237.497 -11.0882 -52.6386
v 237.492 -11.0971 -52.5994
v 237.479 -11.1029 -52.5612
v 237.46 -11.1052 -52.5255
v 237.435 -11.1041 -52.4936
v 237.405 -11.0996 -52.4669
v 237.371 -11.0918 -52.4462
v 237.335 -11.0811 -52.4325
v 237.297 -11.0678 -52.4262
v 237.259 -11.0525 -52.4276
v 237.223 -11.0358 -52.4367
v 237.191 -11.0182 -52.453
v 237.162 -11.0006 -52.4759
v 237.139 -10.9834 -52.5046
v 237.123 -10.9675 -52.538
v 237.113 -10.9535 -52.5748
v 237.111 -10.9418 -52.6136
v 237.116 -10.9329 -52.6528
v 237.128 -10.9271 -52.691
v 237.147 -10.9247 -52.7267
v 237.172 -10.9258 -52.7586
v 237.202 -10.9304 -52.7853
v 237.236 -10.9382 -52.806
v 237.273 -10.9489 -52.8197
v 237.311 -10.9622 -52.826
v 237.348 -10.9775 -52.8246
v 237.384 -10.9942 -52.8156
v 238.003 -9.53358 -52.3594
v 238.031 -9.55181 -52.3367
v 238.053 -9.56966 -52.3084
v 238.07 -9.58644 -52.2755
v 238.079 -9.60151 -52.2392
v 238.081 -9.61428 -52.201
v 238.075 -9.62426 -52.1624
v 238.062 -9.63108 -52.1247
v 238.043 -9.63447 -52.0895
v 238.018 -9.6343 -52.0581
v 237.988 -9.63057 -52.0317
v 237.953 -9.62344 -52.0114
v 237.917 -9.61317 -51.9979
v 237.879 -9.60015 -51.9917
v 237.842 -9.5849 -51.993
v 237.806 -9.56799 -52.0019
v 237.774 -9.55007 -52.018
v 237.746 -9.53184 -52.0406
v 237.724 -9.51399 -52.069
v 237.707 -9.49721 -52.1019
v 237.698 -9.48215 -52.1381
v 237.696 -9.46938 -52.1763
v 237.702 -9.45939 -52.215
v 237.715 -9.45257 -52.2527
v 237.734 -9.44918 -52.2879
v 237.759 -9.44936 -52.3193
v 237.79 -9.45308 -52.3457
v 237.824 -9.46022 -52.366
v 237.86 -9.47049 -52.3795
v 237.898 -9.4835 -52.3857
v 237.935 -9.49876 -52.3843
v 237.971 -9.51567 -52.3754
v 238.587 -8.07033 -51.8735
v 238.615 -8.08915 -51.8512
v 238.637 -8.1077 -51.8233
v 238.652 -8.12529 -51.7909
v 238.661 -8.14122 -51.7551
v 238.663 -8.1549 -51.7175
v 238.657 -8.16579 -51.6793
v 238.644 -8.17347 -51.6422
v 238.624 -8.17765 -51.6074
v 238.599 -8.17818 -51.5765
v 238.568 -8.17502 -51.5504
v 238.534 -8.16831 -51.5303
v 238.498 -8.15829 -51.5169
v 238.46 -8.14535 -51.5108
v 238.423 -8.13 -51.5121
v 238.388 -8.11282 -51.5208
v 238.356 -8.09447 -51.5366
v 238.329 -8.07565 -51.5589
v 238.307 -8.0571 -51.5868
v 238.291 -8.03952 -51.6192
v 238.282 -8.02358 -51.6549
v 238.281 -8.00991 -51.6926
v 238.287 -7.99902 -51.7308
v 238.3 -7.99133 -51.7679
v 238.319 -7.98715 -51.8026
v 238.345 -7.98663 -51.8336
v 238.375 -7.98978 -51.8597
v 238.409 -7.9965 -51.8798
v 238.445 -8.00651 -51.8932
v 238.483 -8.01945 -51.8993
v 238.52 -8.0348 -51.898
v 238.555 -8.05198 -51.8893
v 239.174 -6.62364 -51.3486
v 239.201 -6.643 -51.3267
v 239.223 -6.66219 -51.2992
v 239.238 -6.68049 -51.2672
v 239.246 -6.69718 -51.232
v 239.247 -6.71162 -51.1949
v 239.241 -6.72326 -51.1572
v 239.228 -6.73165 -51.1206
v 239.208 -6.73646 -51.0863
v 239.183 -6.73753 -51.0556
v 239.152 -6.73479 -51.0299
v 239.119 -6.72836 -51.01
v 239.082 -6.71849 -50.9967
v 239.045 -6.70555 -50.9906
v 239.008 -6.69005 -50.9918
v 238.974 -6.67256 -51.0003
v 238.942 -6.65378 -51.0158
v 238.915 -6.63442 -51.0377
v 238.893 -6.61523 -51.0652
v 238.878 -6.59693 -51.0972
v 238.87 -6.58025 -51.1324
v 238.869 -6.5658 -51.1695
v 238.875 -6.55417 -51.2072
v 238.888 -6.54577 -51.2438
v 238.908 -6.54096 -51.2782
v 238.933 -6.53989 -51.3088
v 238.963 -6.54263 -51.3345
v 238.997 -6.54906 -51.3544
v 239.034 -6.55893 -51.3677
v 239.071 -6.57187 -51.3738
v 239.108 -6.58738 -51.3726
v 239.142 -6.60486 -51.3641
v 239.766 -5.19278 -50.7903
v 239.793 -5.21263 -50.7688
v 239.814 -5.23239 -50.7417
v 239.829 -5.2513 -50.7102
v 239.837 -5.26862 -50.6755
v 239.838 -5.2837 -50.6388
v 239.831 -5.29595 -50.6016
v 239.818 -5.30491 -50.5654
v 239.798 -5.31022 -50.5315
v 239.773 -5.31169 -50.5012
v 239.742 -5.30926 -50.4757
v 239.709 -5.30302 -50.456
v 239.673 -5.29321 -50.4428
v 239.636 -5.28021 -50.4366
v 239.599 -5.26452 -50.4377
v 239.565 -5.24674 -50.4461
v 239.534 -5.22755 -50.4613
v 239.507 -5.2077 -50.4829
v 239.486 -5.18794 -50.5099
v 239.471 -5.16903 -50.5414
v 239.463 -5.15171 -50.5762
v 239.462 -5.13663 -50.6128
v 239.468 -5.12438 -50.65
v 239.482 -5.11542 -50.6862
v 239.502 -5.11011 -50.7201
v 239.527 -5.10864 -50.7504
v 239.557 -5.11107 -50.7759
v 239.591 -5.11731 -50.7956
v 239.627 -5.12712 -50.8088
v 239.664 -5.14012 -50.815
v 239.701 -5.15581 -50.8139
v 239.735 -5.17359 -50.8056
v 240.366 -3.77691 -50.2042
v 240.393 -3.79721 -50.183
v 240.413 -3.81746 -50.1564
v 240.428 -3.83688 -50.1253
v 240.436 -3.85473 -50.091
v 240.436 -3.87032 -50.0548
v 240.43 -3.88306 -50.0181
v 240.416 -3.89244 -49.9822
v 240.396 -3.89812 -49.9487
v 240.371 -3.89987 -49.9187
v 240.341 -3.89762 -49.8934
v 240.307 -3.89147 -49.8738
v 240.271 -3.88165 -49.8607
v 240.234 -3.86853 -49.8544
v 240.198 -3.85263 -49.8554
v 240.164 -3.83455 -49.8635
v 240.133 -3.81498 -49.8785
v 240.107 -3.79468 -49.8997
v 240.086 -3.77443 -49.9263
v 240.072 -3.75501 -49.9574
v 240.064 -3.73716 -49.9917
v 240.063 -3.72157 -50.0279
v 240.07 -3.70884 -50.0646
v 240.084 -3.69945 -50.1005
v 240.103 -3.69378 -50.134
v 240.129 -3.69203 -50.164
v 240.159 -3.69427 -50.1893
v 240.193 -3.70042 -50.2089
v 240.229 -3.71024 -50.2221
v 240.265 -3.72336 -50.2283
v 240.301 -3.73926 -50.2273
v 240.335 -3.75735 -50.2192
v 240.976 -2.37521 -49.5959
v 241.002 -2.3959 -49.575
v 241.023 -2.41657 -49.5487
v 241.037 -2.43642 -49.5181
v 241.044 -2.45469 -49.4842
v 241.045 -2.47067 -49.4484
v 241.038 -2.48375 -49.412
v 241.024 -2.49343 -49.3766
v 241.004 -2.49934 -49.3433
v 240.979 -2.50125 -49.3135
v 240.949 -2.49908 -49.2884
v 240.916 -2.49293 -49.2689
v 240.88 -2.48302 -49.2558
v 240.844 -2.46974 -49.2495
v 240.808 -2.45359 -49.2503
v 240.774 -2.4352 -49.2582
v 240.744 -2.41528 -49.2729
v 240.718 -2.39459 -49.2937
v 240.697 -2.37392 -49.32
v 240.683 -2.35407 -49.3507
v 240.676 -2.33581 -49.3846
v 240.675 -2.31982 -49.4204
v 240.682 -2.30674 -49.4567
v 240.696 -2.29706 -49.4922
v 240.716 -2.29115 -49.5255
v 240.741 -2.28924 -49.5552
v 240.771 -2.29141 -49.5803
v 240.804 -2.29756 -49.5998
v 240.84 -2.30747 -49.613
v 240.876 -2.32075 -49.6193
v 240.912 -2.3369 -49.6184
v 240.946 -2.35529 -49.6105
v 241.598 -0.986828 -48.9707
v 241.624 -1.00787 -48.9502
v 241.644 -1.02889 -48.9243
v 241.658 -1.04907 -48.894
v 241.665 -1.06765 -48.8605
v 241.666 -1.08391 -48.825
v 241.659 -1.09722 -48.789
v 241.645 -1.10708 -48.7538
v 241.625 -1.11309 -48.7208
v 241.6 -1.11504 -48.6912
v 241.57 -1.11285 -48.6663
v 241.537 -1.1066 -48.6468
v 241.502 -1.09653 -48.6336
v 241.466 -1.08303 -48.6273
v 241.43 -1.06662 -48.6279
v 241.397 -1.04792 -48.6356
v 241.367 -1.02767 -48.65
v 241.341 -1.00662 -48.6705
v 241.321 -0.985606 -48.6964
v 241.307 -0.965419 -48.7267
v 241.3 -0.946841 -48.7603
v 241.3 -0.930583 -48.7957
v 241.307 -0.917272 -48.8317
v 241.32 -0.907418 -48.8669
v 241.34 -0.901401 -48.8999
v 241.365 -0.899451 -48.9295
v 241.395 -0.901644 -48.9544
v 241.428 -0.907895 -48.9739
v 241.464 -0.917964 -48.9871
v 241.5 -0.931464 -48.9935
v 241.535 -0.947877 -48.9928
v 241.568 -0.966571 -48.9851
v 242.235 0.389068 -48.3344
v 242.26 0.367722 -48.3141
v 242.28 0.346419 -48.2885
v 242.294 0.325979 -48.2586
v 242.301 0.307187 -48.2254
v 242.301 0.290765 -48.1902
v 242.294 0.277345 -48.1545
v 242.281 0.267441 -48.1196
v 242.261 0.261435 -48.0868
v 242.236 0.259558 -48.0573
v 242.206 0.261881 -48.0324
v 242.173 0.268315 -48.013
v 242.138 0.278614 -47.9997
v 242.103 0.29238 -47.9932
v 242.068 0.309086 -47.9937
v 242.035 0.328089 -48.0011
v 242.005 0.348659 -48.0152
v 241.98 0.370006 -48.0355
v 241.96 0.391308 -48.0611
v 241.946 0.411748 -48.0911
v 241.939 0.43054 -48.1242
v 241.939 0.446962 -48.1594
v 241.946 0.460382 -48.1951
v 241.959 0.470286 -48.23
v 241.979 0.476292 -48.2628
v 242.004 0.478169 -48.2923
v 242.034 0.475846 -48.3172
v 242.067 0.469412 -48.3367
v 242.102 0.459114 -48.3499
v 242.138 0.445347 -48.3564
v 242.173 0.428641 -48.3559
v 242.206 0.409638 -48.3485
v 242.889 1.75331 -47.6923
v 242.914 1.7317 -47.6723
v 242.933 1.71018 -47.647
v 242.947 1.68957 -47.6173
v 242.954 1.67066 -47.5844
v 242.954 1.65418 -47.5496
v 242.947 1.64076 -47.5141
v 242.933 1.63093 -47.4793
v 242.914 1.62505 -47.4466
v 242.889 1.62335 -47.4173
v 242.859 1.62591 -47.3924
v 242.827 1.63261 -47.3729
v 242.792 1.6432 -47.3596
v 242.757 1.65729 -47.3529
v 242.722 1.67431 -47.3532
v 242.69 1.69363 -47.3604
v 242.66 1.71449 -47.3742
v 242.635 1.7361 -47.3942
v 242.616 1.75762 -47.4195
v 242.602 1.77823 -47.4492
v 242.595 1.79714 -47.4821
v 242.595 1.81362 -47.5169
v 242.602 1.82704 -47.5524
v 242.616 1.83687 -47.5872
v 242.635 1.84275 -47.6199
v 242.66 1.84445 -47.6492
v 242.69 1.84189 -47.6741
v 242.722 1.83519 -47.6936
v 242.757 1.8246 -47.7069
v 242.792 1.81051 -47.7136
v 242.827 1.79349 -47.7133
v 242.859 1.77417 -47.7061
v 243.561 3.10673 -47.0499
v 243.586 3.0849 -47.0302
v 243.605 3.06322 -47.0052
v 243.619 3.04251 -46.9758
v 243.625 3.02358 -46.9431
v 243.625 3.00715 -46.9085
v 243.619 2.99385 -46.8731
v 243.605 2.9842 -46.8385
v 243.586 2.97856 -46.8059
v 243.561 2.97715 -46.7766
v 243.532 2.98003 -46.7516
v 243.5 2.98708 -46.7321
v 243.466 2.99804 -46.7186
v 243.431 3.01248 -46.7118
v 243.397 3.02985 -46.7119
v 243.364 3.04948 -46.7188
v 243.335 3.07062 -46.7324
v 243.311 3.09245 -46.7521
v 243.291 3.11413 -46.7771
v 243.278 3.13484 -46.8066
v 243.271 3.15377 -46.8392
v 243.271 3.17021 -46.8739
v 243.278 3.1835 -46.9092
v 243.292 3.19316 -46.9438
v 243.311 3.1988 -46.9764
v 243.336 3.2002 -47.0058
v 243.365 3.19732 -47.0307
v 243.397 3.19027 -47.0503
v 243.431 3.17931 -47.0637
v 243.466 3.16487 -47.0705
v 243.5 3.1475 -47.0705
v 243.532 3.12787 -47.0635
v 244.255 4.45016 -46.4128
v 244.28 4.42815 -46.3934
v 244.299 4.40636 -46.3686
v 244.312 4.38564 -46.3394
v 244.319 4.36677 -46.3069
v 244.319 4.35049 -46.2724
v 244.312 4.33741 -46.2372
v 244.299 4.32805 -46.2027
v 244.28 4.32276 -46.1701
v 244.255 4.32175 -46.1407
v 244.227 4.32505 -46.1157
v 244.195 4.33253 -46.0961
v 244.161 4.34392 -46.0825
v 244.127 4.35877 -46.0754
v 244.093 4.37651 -46.0753
v 244.061 4.39646 -46.082
v 244.032 4.41785 -46.0954
v 244.008 4.43986 -46.1148
v 243.989 4.46165 -46.1396
v 243.976 4.48238 -46.1688
v 243.969 4.50124 -46.2013
v 243.969 4.51753 -46.2358
v 243.976 4.5306 -46.271
v 243.989 4.53996 -46.3055
v 244.008 4.54525 -46.3381
v 244.032 4.54626 -46.3675
v 244.061 4.54296 -46.3925
v 244.093 4.53548 -46.4121
v 244.127 4.52409 -46.4257
v 244.161 4.50924 -46.4328
v 244.195 4.4915 -46.4329
v 244.227 4.47156 -46.4262
v 244.973 5.78443 -45.7865
v 244.997 5.76227 -45.7673
v 245.016 5.74043 -45.7427
v 245.029 5.71976 -45.7137
v 245.036 5.70105 -45.6814
v 245.036 5.68501 -45.647
v 245.029 5.67227 -45.6119
v 245.016 5.66331 -45.5773
v 244.997 5.65848 -45.5447
v 244.973 5.65796 -45.5153
v 244.945 5.66177 -45.4902
v 244.914 5.66977 -45.4704
v 244.881 5.68164 -45.4566
v 244.847 5.69694 -45.4493
v 244.813 5.71508 -45.449
v 244.782 5.73535 -45.4554
v 244.754 5.75698 -45.4685
v 244.729 5.77914 -45.4878
v 244.711 5.80097 -45.5123
v 244.697 5.82164 -45.5414
v 244.691 5.84036 -45.5737
v 244.691 5.85639 -45.6081
v 244.697 5.86914 -45.6432
v 244.71 5.8781 -45.6777
v 244.729 5.88293 -45.7104
v 244.753 5.88345 -45.7398
v 244.781 5.87964 -45.7649
v 244.812 5.87164 -45.7847
v 244.846 5.85976 -45.7985
v 244.88 5.84446 -45.8057
v 244.913 5.82633 -45.8061
v 244.944 5.80606 -45.7996
v 245.716 7.11035 -45.1765
v 245.74 7.08808 -45.1575
v 245.759 7.06626 -45.1331
v 245.772 7.04571 -45.1042
v 245.778 7.02724 -45.072
v 245.779 7.01155 -45.0377
v 245.772 6.99924 -45.0025
v 245.76 6.99078 -44.968
v 245.741 6.98651 -44.9353
v 245.718 6.98658 -44.9057
v 245.69 6.99099 -44.8805
v 245.659 6.99958 -44.8605
v 245.627 7.01201 -44.8465
v 245.593 7.02781 -44.839
v 245.56 7.04636 -44.8384
v 245.529 7.06696 -44.8446
v 245.501 7.08882 -44.8575
v 245.477 7.11108 -44.8765
v 245.459 7.13291 -44.9009
v 245.446 7.15345 -44.9298
v 245.439 7.17192 -44.962
v 245.439 7.18762 -44.9963
v 245.445 7.19993 -45.0315
v 245.458 7.20838 -45.066
v 245.476 7.21266 -45.0987
v 245.499 7.21259 -45.1282
v 245.527 7.20817 -45.1535
v 245.558 7.19958 -45.1735
v 245.591 7.18715 -45.1875
v 245.624 7.17136 -45.195
v 245.657 7.1528 -45.1956
v 245.688 7.1322 -45.1893
v 246.487 8.42901 -44.5877
v 246.511 8.40668 -44.5689
v 246.529 8.38492 -44.5446
v 246.542 8.36456 -44.5159
v 246.549 8.34639 -44.4838
v 246.55 8.33111 -44.4495
v 246.544 8.31931 -44.4143
v 246.531 8.31143 -44.3797
v 246.514 8.30778 -44.3469
v 246.491 8.30851 -44.3173
v 246.463 8.31357 -44.2918
v 246.433 8.32279 -44.2716
v 246.401 8.33579 -44.2574
v 246.368 8.3521 -44.2497
v 246.336 8.37107 -44.2489
v 246.305 8.39198 -44.2549
v 246.277 8.41402 -44.2676
v 246.254 8.43635 -44.2864
v 246.235 8.45812 -44.3107
v 246.222 8.47847 -44.3394
v 246.215 8.49664 -44.3716
v 246.215 8.51192 -44.4058
v 246.221 8.52373 -44.441
v 246.233 8.5316 -44.4756
v 246.251 8.53525 -44.5084
v 246.274 8.53453 -44.5381
v 246.301 8.52946 -44.5635
v 246.331 8.52025 -44.5837
v 246.364 8.50724 -44.5979
v 246.397 8.49094 -44.6056
v 246.429 8.47197 -44.6064
v 246.46 8.45106 -44.6004
v 247.285 9.7426 -44.0215
v 247.308 9.72026 -44.0028
v 247.326 9.69861 -43.9787
v 247.339 9.67848 -43.95
v 247.346 9.66064 -43.918
v 247.347 9.64577 -43.8837
v 247.341 9.63445 -43.8486
v 247.329 9.62711 -43.8139
v 247.312 9.62404 -43.7811
v 247.289 9.62535 -43.7513
v 247.263 9.63099 -43.7258
v 247.233 9.64074 -43.7054
v 247.201 9.65424 -43.691
v 247.169 9.67095 -43.6832
v 247.137 9.69025 -43.6821
v 247.107 9.71138 -43.688
v 247.079 9.73354 -43.7005
v 247.056 9.75587 -43.7192
v 247.037 9.77752 -43.7433
v 247.024 9.79766 -43.772
v 247.017 9.8155 -43.804
v 247.017 9.83036 -43.8383
v 247.023 9.84168 -43.8734
v 247.034 9.84902 -43.9081
v 247.052 9.8521 -43.9409
v 247.074 9.85079 -43.9707
v 247.101 9.84515 -43.9962
v 247.131 9.8354 -44.0166
v 247.163 9.8219 -44.031
v 247.195 9.80518 -44.0388
v 247.227 9.78589 -44.0398
v 247.257 9.76475 -44.034
v 248.104 11.0531 -43.4768
v 248.127 11.0309 -43.4582
v 248.145 11.0094 -43.4342
v 248.158 10.9895 -43.4057
v 248.165 10.972 -43.3737
v 248.166 10.9576 -43.3394
v 248.161 10.9467 -43.3043
v 248.149 10.9399 -43.2697
v 248.132 10.9373 -43.2368
v 248.11 10.9391 -43.207
v 248.084 10.9452 -43.1813
v 248.055 10.9554 -43.1609
v 248.023 10.9693 -43.1464
v 247.991 10.9864 -43.1384
v 247.96 11.0059 -43.1372
v 247.93 11.0271 -43.143
v 247.903 11.0493 -43.1553
v 247.879 11.0716 -43.1739
v 247.861 11.0931 -43.1979
v 247.848 11.113 -43.2265
v 247.841 11.1305 -43.2585
v 247.84 11.1449 -43.2927
v 247.845 11.1558 -43.3278
v 247.857 11.1626 -43.3625
v 247.874 11.1652 -43.3953
v 247.896 11.1634 -43.4252
v 247.922 11.1573 -43.4508
v 247.952 11.1471 -43.4713
v 247.983 11.1332 -43.4858
v 248.015 11.1161 -43.4938
v 248.047 11.0966 -43.4949
v 248.076 11.0753 -43.4892
v 248.94 12.3627 -42.9527
v 248.963 12.3405 -42.9343
v 248.981 12.3193 -42.9103
v 248.994 12.2997 -42.8818
v 249.002 12.2825 -42.8499
v 249.003 12.2685 -42.8157
v 248.997 12.258 -42.7806
v 248.986 12.2516 -42.746
v 248.97 12.2495 -42.7131
v 248.948 12.2518 -42.6832
v 248.922 12.2583 -42.6576
v 248.893 12.2689 -42.637
v 248.862 12.2831 -42.6225
v 248.831 12.3003 -42.6144
v 248.799 12.32 -42.6132
v 248.77 12.3413 -42.6188
v 248.743 12.3635 -42.6311
v 248.72 12.3856 -42.6496
v 248.701 12.4069 -42.6735
v 248.688 12.4265 -42.702
v 248.681 12.4436 -42.7339
v 248.68 12.4577 -42.7681
v 248.685 12.4681 -42.8032
v 248.696 12.4745 -42.8378
v 248.713 12.4766 -42.8707
v 248.735 12.4743 -42.9006
v 248.76 12.4678 -42.9263
v 248.789 12.4572 -42.9468
v 248.82 12.4431 -42.9613
v 248.852 12.4258 -42.9694
v 248.883 12.4061 -42.9706
v 248.913 12.3848 -42.965
v 249.788 13.6732 -42.4483
v 249.811 13.6512 -42.4299
v 249.83 13.6302 -42.406
v 249.843 13.6109 -42.3776
v 249.85 13.5941 -42.3457
v 249.852 13.5805 -42.3116
v 249.847 13.5705 -42.2766
v 249.836 13.5645 -42.2419
v 249.819 13.5628 -42.2091
v 249.798 13.5654 -42.1792
v 249.773 13.5723 -42.1535
v 249.744 13.5831 -42.133
v 249.714 13.5975 -42.1184
v 249.682 13.6149 -42.1103
v 249.651 13.6346 -42.109
v 249.622 13.6559 -42.1146
v 249.595 13.6779 -42.1268
v 249.572 13.6998 -42.1452
v 249.553 13.7209 -42.1691
v 249.54 13.7401 -42.1975
v 249.533 13.7569 -42.2294
v 249.532 13.7706 -42.2635
v 249.537 13.7806 -42.2985
v 249.548 13.7866 -42.3332
v 249.564 13.7883 -42.366
v 249.585 13.7856 -42.3959
v 249.611 13.7788 -42.4216
v 249.639 13.7679 -42.4421
v 249.67 13.7536 -42.4567
v 249.701 13.7362 -42.4648
v 249.732 13.7165 -42.4661
v 249.762 13.6952 -42.4605
v 250.645 14.9866 -41.9625
v 250.668 14.9649 -41.9442
v 250.686 14.9442 -41.9204
v 250.7 14.9253 -41.892
v 250.707 14.9089 -41.8602
v 250.709 14.8956 -41.8261
v 250.704 14.886 -41.7911
v 250.693 14.8804 -41.7565
v 250.677 14.8791 -41.7237
v 250.656 14.882 -41.6939
v 250.631 14.8891 -41.6682
v 250.603 14.9001 -41.6477
v 250.573 14.9146 -41.6331
v 250.542 14.932 -41.625
v 250.511 14.9517 -41.6237
v 250.481 14.9729 -41.6293
v 250.455 14.9947 -41.6415
v 250.432 15.0164 -41.6598
v 250.413 15.0371 -41.6836
v 250.4 15.056 -41.712
v 250.392 15.0724 -41.7438
v 250.391 15.0857 -41.7779
v 250.396 15.0953 -41.8129
v 250.406 15.1009 -41.8475
v 250.422 15.1023 -41.8803
v 250.443 15.0993 -41.9101
v 250.468 15.0922 -41.9358
v 250.497 15.0812 -41.9563
v 250.527 15.0667 -41.9709
v 250.558 15.0493 -41.979
v 250.589 15.0297 -41.9803
v 250.618 15.0085 -41.9747
v 251.505 16.3051 -41.4945
v 251.528 16.2837 -41.4762
v 251.546 16.2634 -41.4524
v 251.56 16.2448 -41.4241
v 251.567 16.2288 -41.3923
v 251.569 16.216 -41.3583
v 251.565 16.2067 -41.3233
v 251.554 16.2015 -41.2888
v 251.538 16.2004 -41.2561
v 251.518 16.2036 -41.2263
v 251.493 16.2108 -41.2007
v 251.465 16.2219 -41.1802
v 251.435 16.2364 -41.1657
v 251.404 16.2538 -41.1576
v 251.373 16.2733 -41.1563
v 251.344 16.2943 -41.1619
v 251.317 16.3159 -41.1741
v 251.294 16.3373 -41.1924
v 251.276 16.3576 -41.2162
v 251.262 16.3761 -41.2445
v 251.255 16.3922 -41.2763
v 251.253 16.405 -41.3103
v 251.257 16.4143 -41.3453
v 251.268 16.4195 -41.3798
v 251.283 16.4206 -41.4125
v 251.304 16.4174 -41.4423
v 251.329 16.4102 -41.4679
v 251.357 16.399 -41.4884
v 251.387 16.3845 -41.5029
v 251.418 16.3672 -41.511
v 251.449 16.3477 -41.5123
v 251.478 16.3267 -41.5067
v 252.363 17.6306 -41.0433
v 252.386 17.6096 -41.0249
v 252.405 17.5896 -41.0011
v 252.418 17.5715 -40.9729
v 252.426 17.5559 -40.9411
v 252.428 17.5434 -40.9072
v 252.424 17.5345 -40.8723
v 252.414 17.5296 -40.8379
v 252.398 17.5287 -40.8052
v 252.378 17.5321 -40.7755
v 252.353 17.5395 -40.75
v 252.325 17.5506 -40.7296
v 252.295 17.565 -40.7151
v 252.265 17.5822 -40.7071
v 252.234 17.6015 -40.7059
v 252.205 17.6222 -40.7115
v 252.178 17.6435 -40.7237
v 252.155 17.6645 -40.742
v 252.136 17.6844 -40.7658
v 252.123 17.7025 -40.7941
v 252.115 17.7181 -40.8258
v 252.113 17.7306 -40.8598
v 252.117 17.7395 -40.8946
v 252.127 17.7445 -40.9291
v 252.143 17.7453 -40.9617
v 252.163 17.7419 -40.9914
v 252.188 17.7346 -41.0169
v 252.216 17.7235 -41.0373
v 252.246 17.709 -41.0518
v 252.277 17.6918 -41.0598
v 252.307 17.6725 -41.061
v 252.336 17.6518 -41.0555
v 253.216 18.965 -40.6078
v 253.239 18.9445 -40.5894
v 253.258 18.925 -40.5657
v 253.271 18.9073 -40.5374
v 253.279 18.8921 -40.5057
v 253.281 18.88 -40.4718
v 253.277 18.8715 -40.437
v 253.267 18.8668 -40.4027
v 253.252 18.8662 -40.3701
v 253.232 18.8696 -40.3406
v 253.207 18.877 -40.3152
v 253.18 18.888 -40.2949
v 253.15 18.9023 -40.2805
v 253.119 18.9193 -40.2726
v 253.088 18.9383 -40.2714
v 253.059 18.9586 -40.2771
v 253.032 18.9795 -40.2893
v 253.009 19.0 -40.3076
v 252.99 19.0195 -40.3314
v 252.977 19.0372 -40.3597
v 252.969 19.0524 -40.3914
v 252.967 19.0645 -40.4253
v 252.971 19.073 -40.46
v 252.981 19.0777 -40.4944
v 252.996 19.0783 -40.527
v 253.016 19.0749 -40.5565
v 253.041 19.0675 -40.5819
v 253.068 19.0565 -40.6022
v 253.098 19.0422 -40.6166
v 253.129 19.0252 -40.6245
v 253.16 19.0062 -40.6257
v 253.189 18.9859 -40.62
v 254.057 20.3105 -40.1872
v 254.081 20.2905 -40.1688
v 254.1 20.2715 -40.145
v 254.114 20.2543 -40.1167
v 254.122 20.2396 -40.0851
v 254.124 20.2278 -40.0513
v 254.12 20.2196 -40.0166
v 254.111 20.2151 -39.9824
v 254.095 20.2147 -39.9499
v 254.075 20.2181 -39.9205
v 254.051 20.2255 -39.8952
v 254.023 20.2364 -39.875
v 253.993 20.2504 -39.8608
v 253.963 20.2671 -39.853
v 253.932 20.2857 -39.8519
v 253.903 20.3055 -39.8576
v 253.876 20.3259 -39.8699
v 253.853 20.3459 -39.8883
v 253.834 20.3649 -39.9121
v 253.82 20.3821 -39.9403
v 253.811 20.3969 -39.972
v 253.809 20.4086 -40.0058
v 253.813 20.4168 -40.0405
v 253.823 20.4213 -40.0747
v 253.838 20.4218 -40.1072
v 253.858 20.4183 -40.1366
v 253.883 20.4109 -40.1619
v 253.91 20.4 -40.1821
v 253.94 20.386 -40.1963
v 253.971 20.3694 -40.2041
v 254.001 20.3507 -40.2052
v 254.031 20.3309 -40.1995
v 254.884 21.6691 -39.7804
v 254.908 21.6496 -39.762
v 254.927 21.6311 -39.7382
v 254.941 21.6145 -39.7099
v 254.949 21.6002 -39.6783
v 254.952 21.5889 -39.6446
v 254.948 21.5809 -39.61
v 254.939 21.5767 -39.5758
v 254.923 21.5763 -39.5435
v 254.903 21.5797 -39.5142
v 254.879 21.5869 -39.4891
v 254.851 21.5976 -39.4691
v 254.822 21.6113 -39.455
v 254.791 21.6275 -39.4473
v 254.76 21.6457 -39.4464
v 254.731 21.665 -39.4522
v 254.704 21.6848 -39.4646
v 254.68 21.7043 -39.483
v 254.661 21.7227 -39.5068
v 254.647 21.7394 -39.5351
v 254.639 21.7536 -39.5667
v 254.636 21.765 -39.6004
v 254.64 21.7729 -39.635
v 254.649 21.7772 -39.6692
v 254.664 21.7776 -39.7015
v 254.685 21.7741 -39.7308
v 254.709 21.7669 -39.7559
v 254.736 21.7562 -39.7759
v 254.766 21.7425 -39.79
v 254.797 21.7263 -39.7977
v 254.828 21.7082 -39.7986
v 254.857 21.6888 -39.7928
v 255.691 23.0426 -39.3866
v 255.715 23.0238 -39.3681
v 255.734 23.006 -39.3442
v 255.748 22.9898 -39.316
v 255.757 22.976 -39.2844
v 255.76 22.9651 -39.2507
v 255.756 22.9574 -39.2162
v 255.747 22.9533 -39.1822
v 255.732 22.953 -39.15
v 255.712 22.9564 -39.1209
v 255.687 22.9634 -39.096
v 255.66 22.9737 -39.0761
v 255.63 22.987 -39.0622
v 255.599 23.0027 -39.0547
v 255.568 23.0202 -39.0539
v 255.539 23.039 -39.0598
v 255.511 23.0581 -39.0723
v 255.488 23.077 -39.0908
v 255.468 23.0948 -39.1146
v 255.454 23.1109 -39.1429
v 255.445 23.1247 -39.1745
v 255.443 23.1357 -39.2081
v 255.446 23.1433 -39.2426
v 255.456 23.1474 -39.2766
v 255.471 23.1478 -39.3088
v 255.491 23.1444 -39.3379
v 255.515 23.1374 -39.3629
v 255.543 23.1271 -39.3827
v 255.572 23.1138 -39.3967
v 255.603 23.0981 -39.4042
v 255.634 23.0805 -39.405
v 255.664 23.0618 -39.399
f 1 34 2 
f 1 33 34 
f 2 35 3 
f 2 34 35 
f 3 36 4 
f 3 35 36 
f 4 37 5 
f 4 36 37 
f 5 38 6 
f 5 37 38 
f 6 39 7 
f 6 38 39 
f 7 40 8 
f 7 39 40 
f 8 41 9 
f 8 40 41 
f 9 42 10 
f 9 41 42 
f 10 43 11 
f 10 42 43 
f 11 44 12 
f 11 43 44 
f 12 45 13 
f 12 44 45 
f 13 46 14 
f 13 45 46 
f 14 47 15 
f 14 46 47 
f 15 48 16 
f 15 47 48 
f 16 49 17 
f 16 48 49 
f 17 50 18 
f 17 49 50 
f 18 51 19 
f 18 50 51 
f 19 52 20 
f 19 51 52 
f 20 53 21 
f 20 52 53 
f 21 54 22 
f 21 53 54 
f 22 55 23 
f 22 54 55 
f 23 56 24 
f 23 55 56 
f 24 57 25 
f 24 56 57 
f 25 58 26 
f 25 57 58 
f 26 59 27 
f 26 58 59 
f 27 60 28 
f 27 59 60 
f 28 61 29 
f 28 60 61 
f 29 62 30 
f 29 61 62 
f 30 63 31 
f 30 62 63 
f 31 64 32 
f 31 63 64 
f 32 33 1 
f 32 64 33 
f 33 66 34 
f 33 65 66 
f 34 67 35 
f 34 66 67 
f 35 68 36 
f 35 67 68 
f 36 69 37 
f 36 68 69 
f 37 70 38 
f 37 69 70 
f 38 71 39 
f 38 70 71 
f 39 72 40 
f 39 71 72 
f 40 73 41 
f 40 72 73 
f 41 74 42 
f 41 73 74 
f 42 75 43 
f 42 74 75 
f 43 76 44 
f 43 75 76 
f 44 77 45 
f 44 76 77 
f 45 78 46 
f 45 77 78 
f 46 79 47 
f 46 78 79 
f 47 80 48 
f 47 79 80 
f 48 81 49 
f 48 80 81 
f 49 82 50 
f 49 81 82 
f 50 83 51 
f 50 82 83 
f 51 84 52 
f 51 83 84 
f 52 85 53 
f 52 84 85 
f 53 86 54 
f 53 85 86 
f 54 87 55 
f 54 86 87 
f 55 88 56 
f 55 87 88 
f 56 89 57 
f 56 88 89 
f 57 90 58 
f 57 89 90 
f 58 91 59 
f 58 90 91 
f 59 92 60 
f 59 91 92 
f 60 93 61 
f 60 92 93 
f 61 94 62 
f 61 93 94 
f 62 95 63 
f 62 94 95 
f 63 96 64 
f 63 95 96 
f 64 65 33 
f 64 96 65 
f 65 98 66 
f 65 97 98 
f 66 99 67 
f 66 98 99 
f 67 100 68 
f 67 99 100 
f 68 101 69 
f 68 100 101 
f 69 102 70 
f 69 101 102 
f 70 103 71 
f 70 102 103 
f 71 104 72 
f 71 103 104 
f 72 105 73 
f 72 104 105 
f 73 106 74 
f 73 105 106 
f 74 107 75 
f 74 106 107 
f 75 108 76 
f 75 107 108 
f 76 109 77 
f 76 108 109 
f 77 110 78 
f 77 109 110 
f 78 111 79 
f 78 110 111 
f 79 112 80 
f 79 111 112 
f 80 113 81 
f 80 112 113 
f 81 114 82 
f 81 113 114 
f 82 115 83 
f 82 114 115 
f 83 116 84 
f 83 115 116 
f 84 117 85 
f 84 116 117 
f 85 118 86 
f 85 117 118 
f 86 119 87 
f 86 118 119 
f 87 120 88 
f 87 119 120 
f 88 121 89 
f 88 120 121 
f 89 122 90 
f 89 121 122 
f 90 123 91 
f 90 122 123 
f 91 124 92 
f 91 123 124 
f 92 125 93 
f 92 124 125 
f 93 126 94 
f 93 125 126 
f 94 127 95 
f 94 126 127 
f 95 128 96 
f 95 127 128 
f 96 97 65 
f 96 128 97 
f 97 130 98 
f 97 129 130 
f 98 131 99 
f 98 130 131 
f 99 132 100 
f 99 131 132 
f 100 133 101 
f 100 132 133 
f 101 134 102 
f 101 133 134 
f 102 135 103 
f 102 134 135 
f 103 136 104 
f 103 135 136 
f 104 137 105 
f 104 136 137 
f 105 138 106 
f 105 137 138 
f 106 139 107 
f 106 138 139 
f 107 140 108 
f 107 139 140 
f 108 141 109 
f 108 140 141 
f 109 142 110 
f 109 141 142 
f 110 143 111 
f 110 142 143 
f 111 144 112 
f 111 143 144 
f 112 145 113 
f 112 144 145 
f 113 146 114 
f 113 145 146 
f 114 147 115 
f 114 146 147 
f 115 148 116 
f 115 147 148 
f 116 149 117 
f 116 148 149 
f 117 150 118 
f 117 149 150 
f 118 151 119 
f 118 150 151 
f 119 152 120 
f 119 151 152 
f 120 153 121 
f 120 152 153 
f 121 154 122 
f 121 153 154 
f 122 155 123 
f 122 154 155 
f 123 156 124 
f 123 155 156 
f 124 157 125 
f 124 156 157 
f 125 158 126 
f 125 157 158 
f 126 159 127 
f 126 158 159 
f 127 160 128 
f 127 159 160 
f 128 129 97 
f 128 160 129 
f 129 162 130 
f 129 161 162 
f 130 163 131 
f 130 162 163 
f 131 164 132 
f 131 163 164 
f 132 165 133 
f 132 164 165 
f 133 166 134 
f 133 165 166 
f 134 167 135 
f 134 166 167 
f 135 168 136 
f 135 167 168 
f 136 169 137 
f 136 168 169 
f 137 170 138 
f 137 169 170 
f 138 171 139 
f 138 170 171 
f 139 172 140 
f 139 171 172 
f 140 173 141 
f 140 172 173 
f 141 174 142 
f 141 173 174 
f 142 175 143 
f 142 174 175 
f 143 176 144 
f 143 175 176 
f 144 177 145 
f 144 176 177 
f 145 178 146 
f 145 177 178 
f 146 179 147 
f 146 178 179 
f 147 180 148 
f 147 179 180 
f 148 181 149 
f 148 180 181 
f 149 182 150 
f 149 181 182 
f 150 183 151 
f 150 182 183 
f 151 184 152 
f 151 183 184 
f 152 185 153 
f 152 184 185 
f 153 186 154 
f 153 185 186 
f 154 187 155 
f 154 186 187 
f 155 188 156 
f 155 187 188 
f 156 189 157 
f 156 188 189 
f 157 190 158 
f 157 189 190 
f 158 191 159 
f 158 190 191 
f 159 192 160 
f 159 191 192 
f 160 161 129 
f 160 192 161 
f 161 194 162 
f 161 193 194 
f 162 195 163 
f 162 194 195 
f 163 196 164 
f 163 195 196 
f 164 197 165 
f 164 196 197 
f 165 198 166 
f 165 197 198 
f 166 199 167 
f 166 198 199 
f 167 200 168 
f 167 199 200 
f 168 201 169 
f 168 200 201 
f 169 202 170 
f 169 201 202 
f 170 203 171 
f 170 202 203 
f 171 204 172 
f 171 203 204 
f 172 205 173 
f 172 204 205 
f 173 206 174 
f 173 205 206 
f 174 207 175 
f 174 206 207 
f 175 208 176 
f 175 207 208 
f 176 209 177 
f 176 208 209 
f 177 210 178 
f 177 209 210 
f 178 211 179 
f 178 210 211 
f 179 212 180 
f 179 211 212 
f 180 213 181 
f 180 212 213 
f 181 214 182 
f 181 213 214 
f 182 215 183 
f 182 214 215 
f 183 216 184 
f 183 215 216 
f 184 217 185 
f 184 216 217 
f 185 218 186 
f 185 217 218 
f 186 219 187 
f 186 218 219 
f 187 220 188 
f 187 219 220 
f 188 221 189 
f 188 220 221 
f 189 222 190 
f 189 221 222 
f 190 223 191 
f 190 222 223 
f 191 224 192 
f 191 223 224 
f 192 193 161 
f 192 224 193 
f 193 226 194 
f 193 225 226 
f 194 227 195 
f 194 226 227 
f 195 228 196 
f 195 227 228 
f 196 229 197 
f 196 228 229 
f 197 230 198 
f 197 229 230 
f 198 231 199 
f 198 230 231 
f 199 232 200 
f 199 231 232 
f 200 233 201 
f 200 232 233 
f 201 234 202 
f 201 233 234 
f 202 235 203 
f 202 234 235 
f 203 236 204 
f 203 235 236 
f 204 237 205 
f 204 236 237 
f 205 238 206 
f 205 237 238 
f 206 239 207 
f 206 238 239 
f 207 240 208 
f 207 239 240 
f 208 241 209 
f 208 240 241 
f 209 242 210 
f 209 241 242 
f 210 243 211 
f 210 242 243 
f 211 244 212 
f 211 243 244 
f 212 245 213 
f 212 244 245 
f 213 246 214 
f 213 245 246 
f 214 247 215 
f 214 246 247 
f 215 248 216 
f 215 247 248 
f 216 249 217 
f 216 248 249 
f 217 250 218 
f 217 249 250 
f 218 251 219 
f 218 250 251 
f 219 252 220 
f 219 251 252 
f 220 253 221 
f 220 252 253 
f 221 254 222 
f 221 253 254 
f 222 255 223 
f 222 254 255 
f 223 256 224 
f 223 255 256 
f 224 225 193 
f 224 256 225 
f 225 258 226 
f 225 257 258 
f 226 259 227 
f 226 258 259 
f 227 260 228 
f 227 259 260 
f 228 261 229 
f 228 260 261 
f 229 262 230 
f 229 261 262 
f 230 263 231 
f 230 262 263 
f 231 264 232 
f 231 263 264 
f 232 265 233 
f 232 264 265 
f 233 266 234 
f 233 265 266 
f 234 267 235 
f 234 266 267 
f 235 268 236 
f 235 267 268 
f 236 269 237 
f 236 268 269 
f 237 270 238 
f 237 269 270 
f 238 271 239 
f 238 270 271 
f 239 272 240 
f 239 271 272 
f 240 273 241 
f 240 272 273 
f 241 274 242 
f 241 273 274 
f 242 275 243 
f 242 274 275 
f 243 276 244 
f 243 275 276 
f 244 277 245 
f 244 276 277 
f 245 278 246 
f 245 277 278 
f 246 279 247 
f 246 278 279 
f 247 280 248 
f 247 279 280 
f 248 281 249 
f 248 280 281 
f 249 282 250 
f 249 281 282 
f 250 283 251 
f 250 282 283 
f 251 284 252 
f 251 283 284 
f 252 285 253 
f 252 284 285 
f 253 286 254 
f 253 285 286 
f 254 287 255 
f 254 286 287 
f 255 288 256 
f 255 287 288 
f 256 257 225 
f 256 288 257 
f 257 290 258 
f 257 289 290 
f 258 291 259 
f 258 290 291 
f 259 292 260 
f 259 291 292 
f 260 293 261 
f 260 292 293 
f 261 294 262 
f 261 293 294 
f 262 295 263 
f 262 294 295 
f 263 296 264 
f 263 295 296 
f 264 297 265 
f 264 296 297 
f 265 298 266 
f 265 297 298 
f 266 299 267 
f 266 298 299 
f 267 300 268 
f 267 299 300 
f 268 301 269 
f 268 300 301 
f 269 302 270 
f 269 301 302 
f 270 303 271 
f 270 302 303 
f 271 304 272 
f 271 303 304 
f 272 305 273 
f 272 304 305 
f 273 306 274 
f 273 305 306 
f 274 307 275 
f 274 306 307 
f 275 308 276 
f 275 307 308 
f 276 309 277 
f 276 308 309 
f 277 310 278 
f 277 309 310 
f 278 311 279 
f 278 310 311 
f 279 312 280 
f 279 311 312 
f 280 313 281 
f 280 312 313 
f 281 314 282 
f 281 313 314 
f 282 315 283 
f 282 314 315 
f 283 316 284 
f 283 315 316 
f 284 317 285 
f 284 316 317 
f 285 318 286 
f 285 317 318 
f 286 319 287 
f 286 318 319 
f 287 320 288 
f 287 319 320 
f 288 289 257 
f 288 320 289 
f 289 322 290 
f 289 321 322 
f 290 323 291 
f 290 322 323 
f 291 324 292 
f 291 323 324 
f 292 325 293 
f 292 324 325 
f 293 326 294 
f 293 325 326 
f 294 327 295 
f 294 326 327 
f 295 328 296 
f 295 327 328 
f 296 329 297 
f 296 328 329 
f 297 330 298 
f 297 329 330 
f 298 331 299 
f 298 330 331 
f 299 332 300 
f 299 331 332 
f 300 333 301 
f 300 332 333 
f 301 334 302 
f 301 333 334 
f 302 335 303 
f 302 334 335 
f 303 336 304 
f 303 335 336 
f 304 337 305 
f 304 336 337 
f 305 338 306 
f 305 337 338 
f 306 339 307 
f 306 338 339 
f 307 340 308 
f 307 339 340 
f 308 341 309 
f 308 340 341 
f 309 342 310 
f 309 341 342 
f 310 343 311 
f 310 342 343 
f 311 344 312 
f 311 343 344 
f 312 345 313 
f 312 344 345 
f 313 346 314 
f 313 345 346 
f 314 347 315 
f 314 346 347 
f 315 348 316 
f 315 347 348 
f 316 349 317 
f 316 348 349 
f 317 350 318 
f 317 349 350 
f 318 351 319 
f 318 350 351 
f 319 352 320 
f 319 351 352 
f 320 321 289 
f 320 352 321 
f 321 354 322 
f 321 353 354 
f 322 355 323 
f 322 354 355 
f 323 356 324 
f 323 355 356 
f 324 357 325 
f 324 356 357 
f 325 358 326 
f 325 357 358 
f 326 359 327 
f 326 358 359 
f 327 360 328 
f 327 359 360 
f 328 361 329 
f 328 360 361 
f 329 362 330 
f 329 361 362 
f 330 363 331 
f 330 362 363 
f 331 364 332 
f 331 363 364 
f 332 365 333 
f 332 364 365 
f 333 366 334 
f 333 365 366 
f 334 367 335 
f 334 366 367 
f 335 368 336 
f 335 367 368 
f 336 369 337 
f 336 368 369 
f 337 370 338 
f 337 369 370 
f 338 371 339 
f 338 370 371 
f 339 372 340 
f 339 371 372 
f 340 373 341 
f 340 372 373 
f 341 374 342 
f 341 373 374 
f 342 375 343 
f 342 374 375 
f 343 376 344 
f 343 375 376 
f 344 377 345 
f 344 376 377 
f 345 378 346 
f 345 377 378 
f 346 379 347 
f 346 378 379 
f 347 380 348 
f 347 379 380 
f 348 381 349 
f 348 380 381 
f 349 382 350 
f 349 381 382 
f 350 383 351 
f 350 382 383 
f 351 384 352 
f 351 383 384 
f 352 353 321 
f 352 384 353 
f 353 386 354 
f 353 385 386 
f 354 387 355 
f 354 386 387 
f 355 388 356 
f 355 387 388 
f 356 389 357 
f 356 388 389 
f 357 390 358 
f 357 389 390 
f 358 391 359 
f 358 390 391 
f 359 392 360 
f 359 391 392 
f 360 393 361 
f 360 392 393 
f 361 394 362 
f 361 393 394 
f 362 395 363 
f 362 394 395 
f 363 396 364 
f 363 395 396 
f 364 397 365 
f 364 396 397 
f 365 398 366 
f 365 397 398 
f 366 399 367 
f 366 398 399 
f 367 400 368 
f 367 399 400 
f 368 401 369 
f 368 400 401 
f 369 402 370 
f 369 401 402 
f 370 403 371 
f 370 402 403 
f 371 404 372 
f 371 403 404 
f 372 405 373 
f 372 404 405 
f 373 406 374 
f 373 405 406 
f 374 407 375 
f 374 406 407 
f 375 408 376 
f 375 407 408 
f 376 409 377 
f 376 408 409 
f 377 410 378 
f 377 409 410 
f 378 411 379 
f 378 410 411 
f 379 412 380 
f 379 411 412 
f 380 413 381 
f 380 412 413 
f 381 414 382 
f 381 413 414 
f 382 415 383 
f 382 414 415 
f 383 416 384 
f 383 415 416 
f 384 385 353 
f 384 416 385 
f 385 418 386 
f 385 417 418 
f 386 419 387 
f 386 418 419 
f 387 420 388 
f 387 419 420 
f 388 421 389 
f 388 420 421 
f 389 422 390 
f 389 421 422 
f 390 423 391 
f 390 422 423 
f 391 424 392 
f 391 423 424 
f 392 425 393 
f 392 424 425 
f 393 426 394 
f 393 425 426 
f 394 427 395 
f 394 426 427 
f 395 428 396 
f 395 427 428 
f 396 429 397 
f 396 428 429 
f 397 430 398 
f 397 429 430 
f 398 431 399 
f 398 430 431 
f 399 432 400 
f 399 431 432 
f 400 433 401 
f 400 432 433 
f 401 434 402 
f 401 433 434 
f 402 435 403 
f 402 434 435 
f 403 436 404 
f 403 435 436 
f 404 437 405 
f 404 436 437 
f 405 438 406 
f 405 437 438 
f 406 439 407 
f 406 438 439 
f 407 440 408 
f 407 439 440 
f 408 441 409 
f 408 440 441 
f 409 442 410 
f 409 441 442 
f 410 443 411 
f 410 442 443 
f 411 444 412 
f 411 443 444 
f 412 445 413 
f 412 444 445 
f 413 446 414 
f 413 445 446 
f 414 447 415 
f 414 446 447 
f 415 448 416 
f 415 447 448 
f 416 417 385 
f 416 448 417 
f 417 450 418 
f 417 449 450 
f 418 451 419 
f 418 450 451 
f 419 452 420 
f 419 451 452 
f 420 453 421 
f 420 452 453 
f 421 454 422 
f 421 453 454 
f 422 455 423 
f 422 454 455 
f 423 456 424 
f 423 455 456 
f 424 457 425 
f 424 456 457 
f 425 458 426 
f 425 457 458 
f 426 459 427 
f 426 458 459 
f 427 460 428 
f 427 459 460 
f 428 461 429 
f 428 460 461 
f 429 462 430 
f 429 461 462 
f 430 463 431 
f 430 462 463 
f 431 464 432 
f 431 463 464 
f 432 465 433 
f 432 464 465 
f 433 466 434 
f 433 465 466 
f 434 467 435 
f 434 466 467 
f 435 468 436 
f 435 467 468 
f 436 469 437 
f 436 468 469 
f 437 470 438 
f 437 469 470 
f 438 471 439 
f 438 470 471 
f 439 472 440 
f 439 471 472 
f 440 473 441 
f 440 472 473 
f 441 474 442 
f 441 473 474 
f 442 475 443 
f 442 474 475 
f 443 476 444 
f 443 475 476 
f 444 477 445 
f 444 476 477 
f 445 478 446 
f 445 477 478 
f 446 479 447 
f 446 478 479 
f 447 480 448 
f 447 479 480 
f 448 449 417 
f 448 480 449 
f 449 482 450 
f 449 481 482 
f 450 483 451 
f 450 482 483 
f 451 484 452 
f 451 483 484 
f 452 485 453 
f 452 484 485 
f 453 486 454 
f 453 485 486 
f 454 487 455 
f 454 486 487 
f 455 488 456 
f 455 487 488 
f 456 489 457 
f 456 488 489 
f 457 490 458 
f 457 489 490 
f 458 491 459 
f 458 490 491 
f 459 492 460 
f 459 491 492 
f 460 493 461 
f 460 492 493 
f 461 494 462 
f 461 493 494 
f 462 495 463 
f 462 494 495 
f 463 496 464 
f 463 495 496 
f 464 497 465 
f 464 496 497 
f 465 498 466 
f 465 497 498 
f 466 499 467 
f 466 498 499 
f 467 500 468 
f 467 499 500 
f 468 501 469 
f 468 500 501 
f 469 502 470 
f 469 501 502 
f 470 503 471 
f 470 502 503 
f 471 504 472 
f 471 503 504 
f 472 505 473 
f 472 504 505 
f 473 506 474 
f 473 505 506 
f 474 507 475 
f 474 506 507 
f 475 508 476 
f 475 507 508 
f 476 509 477 
f 476 508 509 
f 477 510 478 
f 477 509 510 
f 478 511 479 
f 478 510 511 
f 479 512 480 
f 479 511 512 
f 480 481 449 
f 480 512 481 
f 481 514 482 
f 481 513 514 
f 482 515 483 
f 482 514 515 
f 483 516 484 
f 483 515 516 
f 484 517 485 
f 484 516 517 
f 485 518 486 
f 485 517 518 
f 486 519 487 
f 486 518 519 
f 487 520 488 
f 487 519 520 
f 488 521 489 
f 488 520 521 
f 489 522 490 
f 489 521 522 
f 490 523 491 
f 490 522 523 
f 491 524 492 
f 491 523 524 
f 492 525 493 
f 492 524 525 
f 493 526 494 
f 493 525 526 
f 494 527 495 
f 494 526 527 
f 495 528 496 
f 495 527 528 
f 496 529 497 
f 496 528 529 
f 497 530 498 
f 497 529 530 
f 498 531 499 
f 498 530 531 
f 499 532 500 
f 499 531 532 
f 500 533 501 
f 500 532 533 
f 501 534 502 
f 501 533 534 
f 502 535 503 
f 502 534 535 
f 503 536 504 
f 503 535 536 
f 504 537 505 
f 504 536 537 
f 505 538 506 
f 505 537 538 
f 506 539 507 
f 506 538 539 
f 507 540 508 
f 507 539 540 
f 508 541 509 
f 508 540 541 
f 509 542 510 
f 509 541 542 
f 510 543 511 
f 510 542 543 
f 511 544 512 
f 511 543 544 
f 512 513 481 
f 512 544 513 
f 513 546 514 
f 513 545 546 
f 514 547 515 
f 514 546 547 
f 515 548 516 
f 515 547 548 
f 516 549 517 
f 516 548 549 
f 517 550 518 
f 517 549 550 
f 518 551 519 
f 518 550 551 
f 519 552 520 
f 519 551 552 
f 520 553 521 
f 520 552 553 
f 521 554 522 
f 521 553 554 
f 522 555 523 
f 522 554 555 
f 523 556 524 
f 523 555 556 
f 524 557 525 
f 524 556 557 
f 525 558 526 
f 525 557 558 
f 526 559 527 
f 526 558 559 
f 527 560 528 
f 527 559 560 
f 528 561 529 
f 528 560 561 
f 529 562 530 
f 529 561 562 
f 530 563 531 
f 530 562 563 
f 531 564 532 
f 531 563 564 
f 532 565 533 
f 532 564 565 
f 533 566 534 
f 533 565 566 
f 534 567 535 
f 534 566 567 
f 535 568 536 
f 535 567 568 
f 536 569 537 
f 536 568 569 
f 537 570 538 
f 537 569 570 
f 538 571 539 
f 538 570 571 
f 539 572 540 
f 539 571 572 
f 540 573 541 
f 540 572 573 
f 541 574 542 
f 541 573 574 
f 542 575 543 
f 542 574 575 
f 543 576 544 
f 543 575 576 
f 544 545 513 
f 544 576 545 
f 545 578 546 
f 545 577 578 
f 546 579 547 
f 546 578 579 
f 547 580 548 
f 547 579 580 
f 548 581 549 
f 548 580 581 
f 549 582 550 
f 549 581 582 
f 550 583 551 
f 550 582 583 
f 551 584 552 
f 551 583 584 
f 552 585 553 
f 552 584 585 
f 553 586 554 
f 553 585 586 
f 554 587 555 
f 554 586 587 
f 555 588 556 
f 555 587 588 
f 556 589 557 
f 556 588 589 
f 557 590 558 
f 557 589 590 
f 558 591 559 
f 558 590 591 
f 559 592 560 
f 559 591 592 
f 560 593 561 
f 560 592 593 
f 561 594 562 
f 561 593 594 
f 562 595 563 
f 562 594 595 
f 563 596 564 
f 563 595 596 
f 564 597 565 
f 564 596 597 
f 565 598 566 
f 565 597 598 
f 566 599 567 
f 566 598 599 
f 567 600 568 
f 567 599 600 
f 568 601 569 
f 568 600 601 
f 569 602 570 
f 569 601 602 
f 570 603 571 
f 570 602 603 
f 571 604 572 
f 571 603 604 
f 572 605 573 
f 572 604 605 
f 573 606 574 
f 573 605 606 
f 574 607 575 
f 574 606 607 
f 575 608 576 
f 575 607 608 
f 576 577 545 
f 576 608 577 
f 577 610 578 
f 577 609 610 
f 578 611 579 
f 578 610 611 
f 579 612 580 
f 579 611 612 
f 580 613 581 
f 580 612 613 
f 581 614 582 
f 581 613 614 
f 582 615 583 
f 582 614 615 
f 583 616 584 
f 583 615 616 
f 584 617 585 
f 584 616 617 
f 585 618 586 
f 585 617 618 
f 586 619 587 
f 586 618 619 
f 587 620 588 
f 587 619 620 
f 588 621 589 
f 588 620 621 
f 589 622 590 
f 589 621 622 
f 590 623 591 
f 590 622 623 
f 591 624 592 
f 591 623 624 
f 592 625 593 
f 592 624 625 
f 593 626 594 
f 593 625 626 
f 594 627 595 
f 594 626 627 
f 595 628 596 
f 595 627 628 
f 596 629 597 
f 596 628 629 
f 597 630 598 
f 597 629 630 
f 598 631 599 
f 598 630 631 
f 599 632 600 
f 599 631 632 
f 600 633 601 
f 600 632 633 
f 601 634 602 
f 601 633 634 
f 602 635 603 
f 602 634 635 
f 603 636 604 
f 603 635 636 
f 604 637 605 
f 604 636 637 
f 605 638 606 
f 605 637 638 
f 606 639 607 
f 606 638 639 
f 607 640 608 
f 607 639 640 
f 608 609 577 
f 608 640 609 
f 609 642 610 
f 609 641 642 
f 610 643 611 
f 610 642 643 
f 611 644 612 
f 611 643 644 
f 612 645 613 
f 612 644 645 
f 613 646 614 
f 613 645 646 
f 614 647 615 
f 614 646 647 
f 615 648 616 
f 615 647 648 
f 616 649 617 
f 616 648 649 
f 617 650 618 
f 617 649 650 
f 618 651 619 
f 618 650 651 
f 619 652 620 
f 619 651 652 
f 620 653 621 
f 620 652 653 
f 621 654 622 
f 621 653 654 
f 622 655 623 
f 622 654 655 
f 623 656 624 
f 623 655 656 
f 624 657 625 
f 624 656 657 
f 625 658 626 
f 625 657 658 
f 626 659 627 
f 626 658 659 
f 627 660 628 
f 627 659 660 
f 628 661 629 
f 628 660 661 
f 629 662 630 
f 629 661 662 
f 630 663 631 
f 630 662 663 
f 631 664 632 
f 631 663 664 
f 632 665 633 
f 632 664 665 
f 633 666 634 
f 633 665 666 
f 634 667 635 
f 634 666 667 
f 635 668 636 
f 635 667 668 
f 636 669 637 
f 636 668 669 
f 637 670 638 
f 637 669 670 
f 638 671 639 
f 638 670 671 
f 639 672 640 
f 639 671 672 
f 640 641 609 
f 640 672 641 
f 641 674 642 
f 641 673 674 
f 642 675 643 
f 642 674 675 
f 643 676 644 
f 643 675 676 
f 644 677 645 
f 644 676 677 
f 645 678 646 
f 645 677 678 
f 646 679 647 
f 646 678 679 
f 647 680 648 
f 647 679 680 
f 648 681 649 
f 648 680 681 
f 649 682 650 
f 649 681 682 
f 650 683 651 
f 650 682 683 
f 651 684 652 
f 651 683 684 
f 652 685 653 
f 652 684 685 
f 653 686 654 
f 653 685 686 
f 654 687 655 
f 654 686 687 
f 655 688 656 
f 655 687 688 
f 656 689 657 
f 656 688 689 
f 657 690 658 
f 657 689 690 
f 658 691 659 
f 658 690 691 
f 659 692 660 
f 659 691 692 
f 660 693 661 
f 660 692 693 
f 661 694 662 
f 661 693 694 
f 662 695 663 
f 662 694 695 
f 663 696 664 
f 663 695 696 
f 664 697 665 
f 664 696 697 
f 665 698 666 
f 665 697 698 
f 666 699 667 
f 666 698 699 
f 667 700 668 
f 667 699 700 
f 668 701 669 
f 668 700 701 
f 669 702 670 
f 669 701 702 
f 670 703 671 
f 670 702 703 
f 671 704 672 
f 671 703 704 
f 672 673 641 
f 672 704 673 
f 673 706 674 
f 673 705 706 
f 674 707 675 
f 674 706 707 
f 675 708 676 
f 675 707 708 
f 676 709 677 
f 676 708 709 
f 677 710 678 
f 677 709 710 
f 678 711 679 
f 678 710 711 
f 679 712 680 
f 679 711 712 
f 680 713 681 
f 680 712 713 
f 681 714 682 
f 681 713 714 
f 682 715 683 
f 682 714 715 
f 683 716 684 
f 683 715 716 
f 684 717 685 
f 684 716 717 
f 685 718 686 
f 685 717 718 
f 686 719 687 
f 686 718 719 
f 687 720 688 
f 687 719 720 
f 688 721 689 
f 688 720 721 
f 689 722 690 
f 689 721 722 
f 690 723 691 
f 690 722 723 
f 691 724 692 
f 691 723 724 
f 692 725 693 
f 692 724 725 
f 693 726 694 
f 693 725 726 
f 694 727 695 
f 694 726 727 
f 695 728 696 
f 695 727 728 
f 696 729 697 
f 696 728 729 
f 697 730 698 
f 697 729 730 
f 698 731 699 
f 698 730 731 
f 699 732 700 
f 699 731 732 
f 700 733 701 
f 700 732 733 
f 701 734 702 
f 701 733 734 
f 702 735 703 
f 702 734 735 
f 703 736 704 
f 703 735 736 
f 704 705 673 
f 704 736 705 
f 705 738 706 
f 705 737 738 
f 706 739 707 
f 706 738 739 
f 707 740 708 
f 707 739 740 
f 708 741 709 
f 708 740 741 
f 709 742 710 
f 709 741 742 
f 710 743 711 
f 710 742 743 
f 711 744 712 
f 711 743 744 
f 712 745 713 
f 712 744 745 
f 713 746 714 
f 713 745 746 
f 714 747 715 
f 714 746 747 
f 715 748 716 
f 715 747 748 
f 716 749 717 
f 716 748 749 
f 717 750 718 
f 717 749 750 
f 718 751 719 
f 718 750 751 
f 719 752 720 
f 719 751 752 
f 720 753 721 
f 720 752 753 
f 721 754 722 
f 721 753 754 
f 722 755 723 
f 722 754 755 
f 723 756 724 
f 723 755 756 
f 724 757 725 
f 724 756 757 
f 725 758 726 
f 725 757 758 
f 726 759 727 
f 726 758 759 
f 727 760 728 
f 727 759 760 
f 728 761 729 
f 728 760 761 
f 729 762 730 
f 729 761 762 
f 730 763 731 
f 730 762 763 
f 731 764 732 
f 731 763 764 
f 732 765 733 
f 732 764 765 
f 733 766 734 
f 733 765 766 
f 734 767 735 
f 734 766 767 
f 735 768 736 
f 735 767 768 
f 736 737 705 
f 736 768 737 
f 737 770 738 
f 737 769 770 
f 738 771 739 
f 738 770 771 
f 739 772 740 
f 739 771 772 
f 740 773 741 
f 740 772 773 
f 741 774 742 
f 741 773 774 
f 742 775 743 
f 742 774 775 
f 743 776 744 
f 743 775 776 
f 744 777 745 
f 744 776 777 
f 745 778 746 
f 745 777 778 
f 746 779 747 
f 746 778 779 
f 747 780 748 
f 747 779 780 
f 748 781 749 
f 748 780 781 
f 749 782 750 
f 749 781 782 
f 750 783 751 
f 750 782 783 
f 751 784 752 
f 751 783 784 
f 752 785 753 
f 752 784 785 
f 753 786 754 
f 753 785 786 
f 754 787 755 
f 754 786 787 
f 755 788 756 
f 755 787 788 
f 756 789 757 
f 756 788 789 
f 757 790 758 
f 757 789 790 
f 758 791 759 
f 758 790 791 
f 759 792 760 
f 759 791 792 
f 760 793 761 
f 760 792 793 
f 761 794 762 
f 761 793 794 
f 762 795 763 
f 762 794 795 
f 763 796 764 
f 763 795 796 
f 764 797 765 
f 764 796 797 
f 765 798 766 
f 765 797 798 
f 766 799 767 
f 766 798 799 
f 767 800 768 
f 767 799 800 
f 768 769 737 
f 768 800 769 
f 769 802 770 
f 769 801 802 
f 770 803 771 
f 770 802 803 
f 771 804 772 
f 771 803 804 
f 772 805 773 
f 772 804 805 
f 773 806 774 
f 773 805 806 
f 774 807 775 
f 774 806 807 
f 775 808 776 
f 775 807 808 
f 776 809 777 
f 776 808 809 
f 777 810 778 
f 777 809 810 
f 778 811 779 
f 778 810 811 
f 779 812 780 
f 779 811 812 
f 780 813 781 
f 780 812 813 
f 781 814 782 
f 781 813 814 
f 782 815 783 
f 782 814 815 
f 783 816 784 
f 783 815 816 
f 784 817 785 
f 784 816 817 
f 785 818 786 
f 785 817 818 
f 786 819 787 
f 786 818 819 
f 787 820 788 
f 787 819 820 
f 788 821 789 
f 788 820 821 
f 789 822 790 
f 789 821 822 
f 790 823 791 
f 790 822 823 
f 791 824 792 
f 791 823 824 
f 792 825 793 
f 792 824 825 
f 793 826 794 
f 793 825 826 
f 794 827 795 
f 794 826 827 
f 795 828 796 
f 795 827 828 
f 796 829 797 
f 796 828 829 
f 797 830 798 
f 797 829 830 
f 798 831 799 
f 798 830 831 
f 799 832 800 
f 799 831 832 
f 800 801 769 
f 800 832 801 
f 801 834 802 
f 801 833 834 
f 802 835 803 
f 802 834 835 
f 803 836 804 
f 803 835 836 
f 804 837 805 
f 804 836 837 
f 805 838 806 
f 805 837 838 
f 806 839 807 
f 806 838 839 
f 807 840 808 
f 807 839 840 
f 808 841 809 
f 808 840 841 
f 809 842 810 
f 809 841 842 
f 810 843 811 
f 810 842 843 
f 811 844 812 
f 811 843 844 
f 812 845 813 
f 812 844 845 
f 813 846 814 
f 813 845 846 
f 814 847 815 
f 814 846 847 
f 815 848 816 
f 815 847 848 
f 816 849 817 
f 816 848 849 
f 817 850 818 
f 817 849 850 
f 818 851 819 
f 818 850 851 
f 819 852 820 
f 819 851 852 
f 820 853 821 
f 820 852 853 
f 821 854 822 
f 821 853 854 
f 822 855 823 
f 822 854 855 
f 823 856 824 
f 823 855 856 
f 824 857 825 
f 824 856 857 
f 825 858 826 
f 825 857 858 
f 826 859 827 
f 826 858 859 
f 827 860 828 
f 827 859 860 
f 828 861 829 
f 828 860 861 
f 829 862 830 
f 829 861 862 
f 830 863 831 
f 830 862 863 
f 831 864 832 
f 831 863 864 
f 832 833 801 
f 832 864 833 
f 833 866 834 
f 833 865 866 
f 834 867 835 
f 834 866 867 
f 835 868 836 
f 835 867 868 
f 836 869 837 
f 836 868 869 
f 837 870 838 
f 837 869 870 
f 838 871 839 
f 838 870 871 
f 839 872 840 
f 839 871 872 
f 840 873 841 
f 840 872 873 
f 841 874 842 
f 841 873 874 
f 842 875 843 
f 842 874 875 
f 843 876 844 
f 843 875 876 
f 844 877 845 
f 844 876 877 
f 845 878 846 
f 845 877 878 
f 846 879 847 
f 846 878 879 
f 847 880 848 
f 847 879 880 
f 848 881 849 
f 848 880 881 
f 849 882 850 
f 849 881 882 
f 850 883 851 
f 850 882 883 
f 851 884 852 
f 851 883 884 
f 852 885 853 
f 852 884 885 
f 853 886 854 
f 853 885 886 
f 854 887 855 
f 854 886 887 
f 855 888 856 
f 855 887 888 
f 856 889 857 
f 856 888 889 
f 857 890 858 
f 857 889 890 
f 858 891 859 
f 858 890 891 
f 859 892 860 
f 859 891 892 
f 860 893 861 
f 860 892 893 
f 861 894 862 
f 861 893 894 
f 862 895 863 
f 862 894 895 
f 863 896 864 
f 863 895 896 
f 864 865 833 
f 864 896 865 
f 865 898 866 
f 865 897 898 
f 866 899 867 
f 866 898 899 
f 867 900 868 
f 867 899 900 
f 868 901 869 
f 868 900 901 
f 869 902 870 
f 869 901 902 
f 870 903 871 
f 870 902 903 
f 871 904 872 
f 871 903 904 
f 872 905 873 
f 872 904 905 
f 873 906 874 
f 873 905 906 
f 874 907 875 
f 874 906 907 
f 875 908 876 
f 875 907 908 
f 876 909 877 
f 876 908 909 
f 877 910 878 
f 877 909 910 
f 878 911 879 
f 878 910 911 
f 879 912 880 
f 879 911 912 
f 880 913 881 
f 880 912 913 
f 881 914 882 
f 881 913 914 
f 882 915 883 
f 882 914 915 
f 883 916 884 
f 883 915 916 
f 884 917 885 
f 884 916 917 
f 885 918 886 
f 885 917 918 
f 886 919 887 
f 886 918 919 
f 887 920 888 
f 887 919 920 
f 888 921 889 
f 888 920 921 
f 889 922 890 
f 889 921 922 
f 890 923 891 
f 890 922 923 
f 891 924 892 
f 891 923 924 
f 892 925 893 
f 892 924 925 
f 893 926 894 
f 893 925 926 
f 894 927 895 
f 894 926 927 
f 895 928 896 
f 895 927 928 
f 896 897 865 
f 896 928 897 
f 897 930 898 
f 897 929 930 
f 898 931 899 
f 898 930 931 
f 899 932 900 
f 899 931 932 
f 900 933 901 
f 900 932 933 
f 901 934 902 
f 901 933 934 
f 902 935 903 
f 902 934 935 
f 903 936 904 
f 903 935 936 
f 904 937 905 
f 904 936 937 
f 905 938 906 
f 905 937 938 
f 906 939 907 
f 906 938 939 
f 907 940 908 
f 907 939 940 
f 908 941 909 
f 908 940 941 
f 909 942 910 
f 909 941 942 
f 910 943 911 
f 910 942 943 
f 911 944 912 
f 911 943 944 
f 912 945 913 
f 912 944 945 
f 913 946 914 
f 913 945 946 
f 914 947 915 
f 914 946 947 
f 915 948 916 
f 915 947 948 
f 916 949 917 
f 916 948 949 
f 917 950 918 
f 917 949 950 
f 918 951 919 
f 918 950 951 
f 919 952 920 
f 919 951 952 
f 920 953 921 
f 920 952 953 
f 921 954 922 
f 921 953 954 
f 922 955 923 
f 922 954 955 
f 923 956 924 
f 923 955 956 
f 924 957 925 
f 924 956 957 
f 925 958 926 
f 925 957 958 
f 926 959 927 
f 926 958 959 
f 927 960 928 
f 927 959 960 
f 928 929 897 
f 928 960 929 
f 929 962 930 
f 929 961 962 
f 930 963 931 
f 930 962 963 
f 931 964 932 
f 931 963 964 
f 932 965 933 
f 932 964 965 
f 933 966 934 
f 933 965 966 
f 934 967 935 
f 934 966 967 
f 935 968 936 
f 935 967 968 
f 936 969 937 
f 936 968 969 
f 937 970 938 
f 937 969 970 
f 938 971 939 
f 938 970 971 
f 939 972 940 
f 939 971 972 
f 940 973 941 
f 940 972 973 
f 941 974 942 
f 941 973 974 
f 942 975 943 
f 942 974 975 
f 943 976 944 
f 943 975 976 
f 944 977 945 
f 944 976 977 
f 945 978 946 
f 945 977 978 
f 946 979 947 
f 946 978 979 
f 947 980 948 
f 947 979 980 
f 948 981 949 
f 948 980 981 
f 949 982 950 
f 949 981 982 
f 950 983 951 
f 950 982 983 
f 951 984 952 
f 951 983 984 
f 952 985 953 
f 952 984 985 
f 953 986 954 
f 953 985 986 
f 954 987 955 
f 954 986 987 
f 955 988 956 
f 955 987 988 
f 956 989 957 
f 956 988 989 
f 957 990 958 
f 957 989 990 
f 958 991 959 
f 958 990 991 
f 959 992 960 
f 959 991 992 
f 960 961 929 
f 960 992 961 
f 961 994 962 
f 961 993 994 
f 962 995 963 
f 962 994 995 
f 963 996 964 
f 963 995 996 
f 964 997 965 
f 964 996 997 
f 965 998 966 
f 965 997 998 
f 966 999 967 
f 966 998 999 
f 967 1000 968 
f 967 999 1000 
f 968 1001 969 
f 968 1000 1001 
f 969 1002 970 
f 969 1001 1002 
f 970 1003 971 
f 970 1002 1003 
f 971 1004 972 
f 971 1003 1004 
f 972 1005 973 
f 972 1004 1005 
f 973 1006 974 
f 973 1005 1006 
f 974 1007 975 
f 974 1006 1007 
f 975 1008 976 
f 975 1007 1008 
f 976 1009 977 
f 976 1008 1009 
f 977 1010 978 
f 977 1009 1010 
f 978 1011 979 
f 978 1010 1011 
f 979 1012 980 
f 979 1011 1012 
f 980 1013 981 
f 980 1012 1013 
f 981 1014 982 
f 981 1013 1014 
f 982 1015 983 
f 982 1014 1015 
f 983 1016 984 
f 983 1015 1016 
f 984 1017 985 
f 984 1016 1017 
f 985 1018 986 
f 985 1017 1018 
f 986 1019 987 
f 986 1018 1019 
f 987 1020 988 
f 987 1019 1020 
f 988 1021 989 
f 988 1020 1021 
f 989 1022 990 
f 989 1021 1022 
f 990 1023 991 
f 990 1022 1023 
f 991 1024 992 
f 991 1023 1024 
f 992 993 961 
f 992 1024 993 
f 993 1026 994 
f 993 1025 1026 
f 994 1027 995 
f 994 1026 1027 
f 995 1028 996 
f 995 1027 1028 
f 996 1029 997 
f 996 1028 1029 
f 997 1030 998 
f 997 1029 1030 
f 998 1031 999 
f 998 1030 1031 
f 999 1032 1000 
f 999 1031 1032 
f 1000 1033 1001 
f 1000 1032 1033 
f 1001 1034 1002 
f 1001 1033 1034 
f 1002 1035 1003 
f 1002 1034 1035 
f 1003 1036 1004 
f 1003 1035 1036 
f 1004 1037 1005 
f 1004 1036 1037 
f 1005 1038 1006 
f 1005 1037 1038 
f 1006 1039 1007 
f 1006 1038 1039 
f 1007 1040 1008 
f 1007 1039 1040 
f 1008 1041 1009 
f 1008 1040 1041 
f 1009 1042 1010 
f 1009 1041 1042 
f 1010 1043 1011 
f 1010 1042 1043 
f 1011 1044 1012 
f 1011 1043 1044 
f 1012 1045 1013 
f 1012 1044 1045 
f 1013 1046 1014 
f 1013 1045 1046 
f 1014 1047 1015 
f 1014 1046 1047 
f 1015 1048 1016 
f 1015 1047 1048 
f 1016 1049 1017 
f 1016 1048 1049 
f 1017 1050 1018 
f 1017 1049 1050 
f 1018 1051 1019 
f 1018 1050 1051 
f 1019 1052 1020 
f 1019 1051 1052 
f 1020 1053 1021 
f 1020 1052 1053 
f 1021 1054 1022 
f 1021 1053 1054 
f 1022 1055 1023 
f 1022 1054 1055 
f 1023 1056 1024 
f 1023 1055 1056 
f 1024 1025 993 
f 1024 1056 1025 
f 1025 1058 1026 
f 1025 1057 1058 
f 1026 1059 1027 
f 1026 1058 1059 
f 1027 1060 1028 
f 1027 1059 1060 
f 1028 1061 1029 
f 1028 1060 1061 
f 1029 1062 1030 
f 1029 1061 1062 
f 1030 1063 1031 
f 1030 1062 1063 
f 1031 1064 1032 
f 1031 1063 1064 
f 1032 1065 1033 
f 1032 1064 1065 
f 1033 1066 1034 
f 1033 1065 1066 
f 1034 1067 1035 
f 1034 1066 1067 
f 1035 1068 1036 
f 1035 1067 1068 
f 1036 1069 1037 
f 1036 1068 1069 
f 1037 1070 1038 
f 1037 1069 1070 
f 1038 1071 1039 
f 1038 1070 1071 
f 1039 1072 1040 
f 1039 1071 1072 
f 1040 1073 1041 
f 1040 1072 1073 
f 1041 1074 1042 
f 1041 1073 1074 
f 1042 1075 1043 
f 1042 1074 1075 
f 1043 1076 1044 
f 1043 1075 1076 
f 1044 1077 1045 
f 1044 1076 1077 
f 1045 1078 1046 
f 1045 1077 1078 
f 1046 1079 1047 
f 1046 1078 1079 
f 1047 1080 1048 
f 1047 1079 1080 
f 1048 1081 1049 
f 1048 1080 1081 
f 1049 1082 1050 
f 1049 1081 1082 
f 1050 1083 1051 
f 1050 1082 1083 
f 1051 1084 1052 
f 1051 1083 1084 
f 1052 1085 1053 
f 1052 1084 1085 
f 1053 1086 1054 
f 1053 1085 1086 
f 1054 1087 1055 
f 1054 1086 1087 
f 1055 1088 1056 
f 1055 1087 1088 
f 1056 1057 1025 
f 1056 1088 1057 
f 1057 1090 1058 
f 1057 1089 1090 
f 1058 1091 1059 
f 1058 1090 1091 
f 1059 1092 1060 
f 1059 1091 1092 
f 1060 1093 1061 
f 1060 1092 1093 
f 1061 1094 1062 
f 1061 1093 1094 
f 1062 1095 1063 
f 1062 1094 1095 
f 1063 1096 1064 
f 1063 1095 1096 
f 1064 1097 1065 
f 1064 1096 1097 
f 1065 1098 1066 
f 1065 1097 1098 
f 1066 1099 1067 
f 1066 1098 1099 
f 1067 1100 1068 
f 1067 1099 1100 
f 1068 1101 1069 
f 1068 1100 1101 
f 1069 1102 1070 
f 1069 1101 1102 
f 1070 1103 1071 
f 1070 1102 1103 
f 1071 1104 1072 
f 1071 1103 1104 
f 1072 1105 1073 
f 1072 1104 1105 
f 1073 1106 1074 
f 1073 1105 1106 
f 1074 1107 1075 
f 1074 1106 1107 
f 1075 1108 1076 
f 1075 1107 1108 
f 1076 1109 1077 
f 1076 1108 1109 
f 1077 1110 1078 
f 1077 1109 1110 
f 1078 1111 1079 
f 1078 1110 1111 
f 1079 1112 1080 
f 1079 1111 1112 
f 1080 1113 1081 
f 1080 1112 1113 
f 1081 1114 1082 
f 1081 1113 1114 
f 1082 1115 1083 
f 1082 1114 1115 
f 1083 1116 1084 
f 1083 1115 1116 
f 1084 1117 1085 
f 1084 1116 1117 
f 1085 1118 1086 
f 1085 1117 1118 
f 1086 1119 1087 
f 1086 1118 1119 
f 1087 1120 1088 
f 1087 1119 1120 
f 1088 1089 1057 
f 1088 1120 1089 
f 1089 1122 1090 
f 1089 1121 1122 
f 1090 1123 1091 
f 1090 1122 1123 
f 1091 1124 1092 
f 1091 1123 1124 
f 1092 1125 1093 
f 1092 1124 1125 
f 1093 1126 1094 
f 1093 1125 1126 
f 1094 1127 1095 
f 1094 1126 1127 
f 1095 1128 1096 
f 1095 1127 1128 
f 1096 1129 1097 
f 1096 1128 1129 
f 1097 1130 1098 
f 1097 1129 1130 
f 1098 1131 1099 
f 1098 1130 1131 
f 1099 1132 1100 
f 1099 1131 1132 
f 1100 1133 1101 
f 1100 1132 1133 
f 1101 1134 1102 
f 1101 1133 1134 
f 1102 1135 1103 
f 1102 1134 1135 
f 1103 1136 1104 
f 1103 1135 1136 
f 1104 1137 1105 
f 1104 1136 1137 
f 1105 1138 1106 
f 1105 1137 1138 
f 1106 1139 1107 
f 1106 1138 1139 
f 1107 1140 1108 
f 1107 1139 1140 
f 1108 1141 1109 
f 1108 1140 1141 
f 1109 1142 1110 
f 1109 1141 1142 
f 1110 1143 1111 
f 1110 1142 1143 
f 1111 1144 1112 
f 1111 1143 1144 
f 1112 1145 1113 
f 1112 1144 1145 
f 1113 1146 1114 
f 1113 1145 1146 
f 1114 1147 1115 
f 1114 1146 1147 
f 1115 1148 1116 
f 1115 1147 1148 
f 1116 1149 1117 
f 1116 1148 1149 
f 1117 1150 1118 
f 1117 1149 1150 
f 1118 1151 1119 
f 1118 1150 1151 
f 1119 1152 1120 
f 1119 1151 1152 
f 1120 1121 1089 
f 1120 1152 1121 
