# Branch
v 268.065 -32.0861 -60.1527
v 268.057 -32.0886 -60.0955
v 268.039 -32.0909 -60.041
v 268.01 -32.0931 -59.9911
v 267.971 -32.0949 -59.9479
v 267.925 -32.0964 -59.9129
v 267.873 -32.0975 -59.8876
v 267.818 -32.0981 -59.8729
v 267.76 -32.0983 -59.8693
v 267.703 -32.0979 -59.8771
v 267.648 -32.0971 -59.8959
v 267.598 -32.0959 -59.9249
v 267.555 -32.0942 -59.9631
v 267.52 -32.0922 -60.0091
v 267.495 -32.09 -60.0609
v 267.48 -32.0876 -60.1167
v 267.476 -32.0851 -60.1743
v 267.484 -32.0827 -60.2315
v 267.503 -32.0803 -60.2861
v 267.532 -32.0782 -60.336
v 267.57 -32.0763 -60.3792
v 267.616 -32.0748 -60.4142
v 267.668 -32.0738 -60.4395
v 267.724 -32.0731 -60.4542
v 267.782 -32.073 -60.4578
v 267.839 -32.0733 -60.45
v 267.893 -32.0742 -60.4312
v 267.943 -32.0754 -60.4022
v 267.987 -32.0771 -60.364
v 268.022 -32.079 -60.318
v 268.047 -32.0813 -60.2662
v 268.062 -32.0837 -60.2103
v 268.02 -30.1536 -60.0713
v 268.013 -30.1563 -60.0142
v 267.994 -30.1594 -59.9598
v 267.965 -30.1628 -59.9101
v 267.927 -30.1663 -59.867
v 267.881 -30.1698 -59.8323
v 267.829 -30.1732 -59.8071
v 267.774 -30.1763 -59.7925
v 267.716 -30.179 -59.7891
v 267.659 -30.1813 -59.7969
v 267.605 -30.1829 -59.8158
v 267.555 -30.184 -59.8449
v 267.512 -30.1843 -59.8831
v 267.477 -30.184 -59.929
v 267.452 -30.183 -59.9808
v 267.437 -30.1814 -60.0365
v 267.433 -30.1791 -60.094
v 267.441 -30.1764 -60.151
v 267.46 -30.1733 -60.2054
v 267.489 -30.1699 -60.2551
v 267.527 -30.1664 -60.2982
v 267.573 -30.1629 -60.333
v 267.625 -30.1595 -60.3581
v 267.68 -30.1564 -60.3727
v 267.738 -30.1537 -60.3761
v 267.795 -30.1514 -60.3683
v 267.849 -30.1498 -60.3495
v 267.899 -30.1487 -60.3204
v 267.942 -30.1484 -60.2822
v 267.977 -30.1487 -60.2363
v 268.002 -30.1497 -60.1845
v 268.017 -30.1514 -60.1288
v 267.893 -28.2357 -59.9927
v 267.886 -28.2387 -59.9358
v 267.867 -28.2425 -59.8816
v 267.838 -28.2469 -59.832
v 267.8 -28.252 -59.7891
v 267.755 -28.2573 -59.7545
v 267.703 -28.2627 -59.7295
v 267.648 -28.2681 -59.715
v 267.59 -28.2731 -59.7117
v 267.534 -28.2777 -59.7196
v 267.48 -28.2816 -59.7385
v 267.43 -28.2847 -59.7676
v 267.387 -28.2868 -59.8058
v 267.352 -28.2879 -59.8516
v 267.327 -28.288 -59.9034
v 267.313 -28.287 -59.959
v 267.309 -28.285 -60.0163
v 267.317 -28.282 -60.0732
v 267.336 -28.2782 -60.1275
v 267.364 -28.2737 -60.177
v 267.402 -28.2687 -60.2199
v 267.448 -28.2634 -60.2545
v 267.499 -28.2579 -60.2796
v 267.555 -28.2526 -60.294
v 267.612 -28.2475 -60.2973
v 267.669 -28.243 -60.2894
v 267.723 -28.2391 -60.2705
v 267.772 -28.236 -60.2414
v 267.815 -28.2338 -60.2032
v 267.85 -28.2327 -60.1574
v 267.875 -28.2327 -60.1057
v 267.89 -28.2337 -60.0501
v 267.694 -26.3311 -59.9159
v 267.686 -26.3343 -59.8591
v 267.667 -26.3387 -59.805
v 267.639 -26.3442 -59.7556
v 267.601 -26.3506 -59.7129
v 267.556 -26.3575 -59.6784
v 267.504 -26.3647 -59.6535
v 267.449 -26.3721 -59.6392
v 267.393 -26.3791 -59.6359
v 267.336 -26.3857 -59.6439
v 267.282 -26.3915 -59.6628
v 267.233 -26.3964 -59.6919
v 267.19 -26.4001 -59.7301
v 267.156 -26.4024 -59.7759
v 267.131 -26.4034 -59.8275
v 267.116 -26.4029 -59.883
v 267.113 -26.4011 -59.9403
v 267.121 -26.3978 -59.997
v 267.139 -26.3934 -60.0511
v 267.168 -26.3879 -60.1005
v 267.206 -26.3816 -60.1432
v 267.251 -26.3746 -60.1777
v 267.302 -26.3674 -60.2026
v 267.357 -26.3601 -60.2169
v 267.414 -26.353 -60.2202
v 267.47 -26.3464 -60.2122
v 267.524 -26.3406 -60.1933
v 267.573 -26.3358 -60.1642
v 267.616 -26.3321 -60.126
v 267.651 -26.3297 -60.0802
v 267.676 -26.3287 -60.0286
v 267.69 -26.3292 -59.9731
v 267.431 -24.4383 -59.8396
v 267.423 -24.4418 -59.783
v 267.405 -24.4468 -59.729
v 267.376 -24.4532 -59.6798
v 267.339 -24.4607 -59.6372
v 267.294 -24.469 -59.6028
v 267.243 -24.4778 -59.5781
v 267.188 -24.4868 -59.5638
v 267.132 -24.4956 -59.5607
v 267.076 -24.5039 -59.5687
v 267.022 -24.5113 -59.5876
v 266.974 -24.5176 -59.6167
v 266.931 -24.5226 -59.6549
v 266.897 -24.526 -59.7006
v 266.872 -24.5278 -59.7521
v 266.858 -24.5277 -59.8075
v 266.854 -24.5259 -59.8646
v 266.862 -24.5225 -59.9212
v 266.88 -24.5175 -59.9752
v 266.909 -24.5111 -60.0244
v 266.946 -24.5036 -60.067
v 266.991 -24.4953 -60.1013
v 267.042 -24.4865 -60.1261
v 267.097 -24.4775 -60.1403
v 267.153 -24.4687 -60.1435
v 267.209 -24.4604 -60.1355
v 267.263 -24.453 -60.1165
v 267.312 -24.4466 -60.0874
v 267.354 -24.4416 -60.0493
v 267.388 -24.4382 -60.0036
v 267.413 -24.4365 -59.952
v 267.427 -24.4365 -59.8967
v 267.115 -22.556 -59.7626
v 267.108 -22.5596 -59.7062
v 267.089 -22.5652 -59.6524
v 267.061 -22.5723 -59.6033
v 267.024 -22.5808 -59.5608
v 266.979 -22.5902 -59.5266
v 266.929 -22.6004 -59.5019
v 266.874 -22.6107 -59.4878
v 266.818 -22.621 -59.4847
v 266.763 -22.6307 -59.4928
v 266.709 -22.6395 -59.5117
v 266.661 -22.647 -59.5408
v 266.619 -22.653 -59.5789
v 266.585 -22.6573 -59.6246
v 266.56 -22.6596 -59.676
v 266.546 -22.6599 -59.7313
v 266.542 -22.6581 -59.7882
v 266.55 -22.6544 -59.8447
v 266.568 -22.6489 -59.8985
v 266.596 -22.6418 -59.9476
v 266.634 -22.6333 -59.99
v 266.678 -22.6239 -60.0242
v 266.729 -22.6137 -60.0489
v 266.783 -22.6034 -60.063
v 266.839 -22.5931 -60.0661
v 266.895 -22.5834 -60.058
v 266.948 -22.5746 -60.0391
v 266.997 -22.5671 -60.01
v 267.039 -22.5611 -59.9719
v 267.073 -22.5568 -59.9263
v 267.097 -22.5545 -59.8748
v 267.112 -22.5542 -59.8196
v 266.756 -20.6825 -59.6839
v 266.748 -20.6864 -59.6276
v 266.73 -20.6924 -59.5739
v 266.702 -20.7001 -59.525
v 266.665 -20.7094 -59.4826
v 266.621 -20.7198 -59.4485
v 266.571 -20.731 -59.424
v 266.517 -20.7425 -59.4099
v 266.461 -20.7539 -59.4069
v 266.406 -20.7647 -59.415
v 266.353 -20.7745 -59.434
v 266.305 -20.783 -59.463
v 266.263 -20.7898 -59.501
v 266.229 -20.7947 -59.5466
v 266.204 -20.7974 -59.5979
v 266.19 -20.7979 -59.6531
v 266.187 -20.7962 -59.7099
v 266.194 -20.7923 -59.7662
v 266.212 -20.7863 -59.8199
v 266.24 -20.7786 -59.8688
v 266.277 -20.7693 -59.9111
v 266.322 -20.7589 -59.9452
v 266.372 -20.7477 -59.9698
v 266.426 -20.7362 -59.9838
v 266.482 -20.7248 -59.9869
v 266.537 -20.714 -59.9788
v 266.59 -20.7042 -59.9598
v 266.638 -20.6957 -59.9308
v 266.68 -20.6889 -59.8927
v 266.714 -20.684 -59.8472
v 266.738 -20.6813 -59.7958
v 266.752 -20.6808 -59.7407
v 266.363 -18.8165 -59.6022
v 266.355 -18.8206 -59.546
v 266.337 -18.8269 -59.4925
v 266.309 -18.8352 -59.4437
v 266.273 -18.8451 -59.4015
v 266.229 -18.8563 -59.3675
v 266.179 -18.8682 -59.343
v 266.125 -18.8806 -59.329
v 266.07 -18.8928 -59.3261
v 266.015 -18.9044 -59.3342
v 265.962 -18.915 -59.3531
v 265.914 -18.9242 -59.3821
v 265.872 -18.9315 -59.4201
v 265.839 -18.9368 -59.4656
v 265.814 -18.9398 -59.5168
v 265.8 -18.9405 -59.5718
v 265.797 -18.9387 -59.6285
v 265.804 -18.9345 -59.6847
v 265.822 -18.9282 -59.7382
v 265.85 -18.9199 -59.787
v 265.887 -18.91 -59.8292
v 265.931 -18.8989 -59.8632
v 265.981 -18.8869 -59.8876
v 266.035 -18.8746 -59.9016
v 266.09 -18.8624 -59.9046
v 266.145 -18.8507 -59.8965
v 266.197 -18.8401 -59.8775
v 266.245 -18.831 -59.8485
v 266.287 -18.8236 -59.8106
v 266.321 -18.8183 -59.7651
v 266.345 -18.8153 -59.7139
v 266.359 -18.8147 -59.6588
v 265.946 -16.9564 -59.5163
v 265.938 -16.9607 -59.4602
v 265.92 -16.9674 -59.4069
v 265.893 -16.976 -59.3582
v 265.856 -16.9864 -59.3161
v 265.812 -16.9981 -59.2823
v 265.762 -17.0106 -59.2579
v 265.709 -17.0235 -59.244
v 265.654 -17.0363 -59.241
v 265.599 -17.0484 -59.2491
v 265.547 -17.0595 -59.2681
v 265.499 -17.0691 -59.297
v 265.458 -17.0768 -59.3349
v 265.424 -17.0823 -59.3803
v 265.4 -17.0854 -59.4314
v 265.386 -17.086 -59.4863
v 265.382 -17.0841 -59.5428
v 265.39 -17.0798 -59.5989
v 265.407 -17.0732 -59.6522
v 265.435 -17.0645 -59.7009
v 265.472 -17.0541 -59.743
v 265.516 -17.0424 -59.7768
v 265.565 -17.0299 -59.8012
v 265.619 -17.017 -59.8151
v 265.674 -17.0043 -59.8181
v 265.729 -16.9921 -59.81
v 265.781 -16.981 -59.7911
v 265.829 -16.9715 -59.7621
v 265.87 -16.9638 -59.7242
v 265.904 -16.9582 -59.6788
v 265.928 -16.9551 -59.6277
v 265.942 -16.9545 -59.5728
v 265.514 -15.1007 -59.4251
v 265.506 -15.1053 -59.3692
v 265.489 -15.1122 -59.316
v 265.461 -15.1211 -59.2674
v 265.425 -15.1318 -59.2255
v 265.381 -15.1438 -59.1917
v 265.331 -15.1566 -59.1674
v 265.278 -15.1698 -59.1535
v 265.223 -15.1829 -59.1506
v 265.169 -15.1952 -59.1587
v 265.117 -15.2065 -59.1776
v 265.069 -15.2162 -59.2065
v 265.028 -15.224 -59.2443
v 264.994 -15.2296 -59.2896
v 264.97 -15.2327 -59.3406
v 264.956 -15.2332 -59.3953
v 264.952 -15.2311 -59.4517
v 264.96 -15.2266 -59.5076
v 264.977 -15.2197 -59.5608
v 265.005 -15.2108 -59.6094
v 265.041 -15.2001 -59.6513
v 265.085 -15.1881 -59.6851
v 265.135 -15.1753 -59.7094
v 265.188 -15.1621 -59.7233
v 265.243 -15.149 -59.7262
v 265.297 -15.1366 -59.7181
v 265.349 -15.1254 -59.6992
v 265.397 -15.1156 -59.6703
v 265.438 -15.1079 -59.6325
v 265.472 -15.1023 -59.5872
v 265.496 -15.0992 -59.5362
v 265.51 -15.0987 -59.4815
v 265.077 -13.248 -59.3274
v 265.07 -13.2528 -59.2717
v 265.052 -13.2598 -59.2186
v 265.024 -13.269 -59.1702
v 264.988 -13.2798 -59.1283
v 264.945 -13.2919 -59.0946
v 264.895 -13.3048 -59.0704
v 264.842 -13.318 -59.0566
v 264.787 -13.3311 -59.0536
v 264.733 -13.3434 -59.0617
v 264.681 -13.3546 -59.0806
v 264.634 -13.3642 -59.1094
v 264.592 -13.3719 -59.1471
v 264.559 -13.3772 -59.1923
v 264.535 -13.3802 -59.2431
v 264.52 -13.3805 -59.2977
v 264.517 -13.3783 -59.354
v 264.524 -13.3735 -59.4097
v 264.542 -13.3664 -59.4628
v 264.569 -13.3573 -59.5112
v 264.606 -13.3465 -59.5531
v 264.649 -13.3344 -59.5868
v 264.699 -13.3215 -59.611
v 264.752 -13.3083 -59.6249
v 264.806 -13.2952 -59.6278
v 264.861 -13.2829 -59.6197
v 264.913 -13.2717 -59.6008
v 264.96 -13.2621 -59.572
v 265.002 -13.2544 -59.5343
v 265.035 -13.249 -59.4891
v 265.059 -13.2461 -59.4383
v 265.073 -13.2458 -59.3837
v 264.645 -11.3968 -59.2221
v 264.638 -11.4018 -59.1665
v 264.62 -11.409 -59.1135
v 264.593 -11.4181 -59.0653
v 264.556 -11.4289 -59.0235
v 264.513 -11.4409 -58.9899
v 264.464 -11.4537 -58.9657
v 264.411 -11.4667 -58.9519
v 264.356 -11.4795 -58.949
v 264.302 -11.4915 -58.957
v 264.25 -11.5023 -58.9758
v 264.202 -11.5116 -59.0045
v 264.161 -11.5188 -59.0422
v 264.127 -11.5239 -59.0872
v 264.103 -11.5265 -59.1379
v 264.089 -11.5265 -59.1924
v 264.085 -11.524 -59.2485
v 264.093 -11.5191 -59.3041
v 264.11 -11.5119 -59.357
v 264.138 -11.5027 -59.4053
v 264.174 -11.4919 -59.4471
v 264.217 -11.4799 -59.4807
v 264.267 -11.4671 -59.5049
v 264.319 -11.4541 -59.5187
v 264.374 -11.4414 -59.5216
v 264.429 -11.4293 -59.5135
v 264.481 -11.4185 -59.4948
v 264.528 -11.4092 -59.466
v 264.569 -11.402 -59.4284
v 264.603 -11.397 -59.3834
v 264.627 -11.3944 -59.3327
v 264.641 -11.3943 -59.2782
v 264.227 -9.54556 -59.108
v 264.219 -9.55068 -59.0526
v 264.202 -9.55793 -58.9997
v 264.175 -9.56705 -58.9516
v 264.138 -9.57767 -58.9099
v 264.095 -9.5894 -58.8764
v 264.046 -9.60177 -58.8522
v 263.993 -9.61432 -58.8384
v 263.938 -9.62655 -58.8354
v 263.884 -9.63801 -58.8435
v 263.832 -9.64825 -58.8621
v 263.784 -9.65688 -58.8908
v 263.743 -9.66356 -58.9283
v 263.71 -9.66805 -58.9731
v 263.685 -9.67016 -59.0237
v 263.671 -9.66981 -59.078
v 263.667 -9.66702 -59.134
v 263.674 -9.6619 -59.1894
v 263.692 -9.65465 -59.2423
v 263.719 -9.64553 -59.2904
v 263.756 -9.63491 -59.3321
v 263.799 -9.62318 -59.3656
v 263.848 -9.61081 -59.3898
v 263.901 -9.59826 -59.4036
v 263.956 -9.58603 -59.4066
v 264.01 -9.57457 -59.3985
v 264.062 -9.56433 -59.3799
v 264.11 -9.5557 -59.3512
v 264.151 -9.54902 -59.3137
v 264.184 -9.54453 -59.2689
v 264.209 -9.54243 -59.2183
v 264.223 -9.54277 -59.164
v 263.828 -7.69216 -58.985
v 263.821 -7.69743 -58.9297
v 263.803 -7.70471 -58.877
v 263.776 -7.71372 -58.8289
v 263.74 -7.72412 -58.7873
v 263.696 -7.73551 -58.7538
v 263.647 -7.74745 -58.7297
v 263.594 -7.75948 -58.7159
v 263.54 -7.77114 -58.7129
v 263.485 -7.78198 -58.7209
v 263.433 -7.79158 -58.7395
v 263.386 -7.79958 -58.768
v 263.345 -7.80567 -58.8054
v 263.311 -7.80961 -58.8501
v 263.287 -7.81125 -58.9005
v 263.272 -7.81054 -58.9547
v 263.269 -7.80749 -59.0105
v 263.276 -7.80222 -59.0658
v 263.293 -7.79494 -59.1185
v 263.321 -7.78593 -59.1666
v 263.357 -7.77553 -59.2081
v 263.4 -7.76414 -59.2416
v 263.449 -7.7522 -59.2657
v 263.502 -7.74017 -59.2795
v 263.557 -7.72851 -59.2825
v 263.611 -7.71767 -59.2746
v 263.663 -7.70807 -59.256
v 263.711 -7.70007 -59.2274
v 263.752 -7.69398 -59.1901
v 263.786 -7.69004 -59.1454
v 263.81 -7.6884 -59.0949
v 263.824 -7.68911 -59.0408
v 263.448 -5.83613 -58.8544
v 263.441 -5.84149 -58.7993
v 263.424 -5.84876 -58.7467
v 263.396 -5.85764 -58.6987
v 263.36 -5.8678 -58.6572
v 263.317 -5.87884 -58.6238
v 263.268 -5.89035 -58.5997
v 263.215 -5.90187 -58.5859
v 263.16 -5.91297 -58.5829
v 263.106 -5.92322 -58.5908
v 263.054 -5.93222 -58.6093
v 263.007 -5.93964 -58.6377
v 262.965 -5.94518 -58.675
v 262.932 -5.94863 -58.7196
v 262.907 -5.94986 -58.7698
v 262.893 -5.94882 -58.8238
v 262.889 -5.94556 -58.8795
v 262.896 -5.94019 -58.9347
v 262.914 -5.93293 -58.9872
v 262.941 -5.92404 -59.0352
v 262.977 -5.91389 -59.0767
v 263.02 -5.90284 -59.1101
v 263.07 -5.89134 -59.1342
v 263.122 -5.87981 -59.148
v 263.177 -5.86871 -59.151
v 263.232 -5.85846 -59.1431
v 263.283 -5.84946 -59.1246
v 263.331 -5.84204 -59.0962
v 263.372 -5.8365 -59.059
v 263.406 -5.83305 -59.0144
v 263.43 -5.83182 -58.9641
v 263.444 -5.83286 -58.9101
v 263.087 -3.97734 -58.7181
v 263.08 -3.98276 -58.663
v 263.062 -3.98998 -58.6106
v 263.035 -3.9987 -58.5627
v 262.999 -4.00859 -58.5213
v 262.956 -4.01928 -58.4879
v 262.907 -4.03035 -58.4639
v 262.854 -4.04138 -58.4501
v 262.799 -4.05194 -58.447
v 262.745 -4.06163 -58.4549
v 262.693 -4.07007 -58.4733
v 262.646 -4.07695 -58.5016
v 262.604 -4.08199 -58.5387
v 262.571 -4.085 -58.5832
v 262.546 -4.08588 -58.6333
v 262.532 -4.08457 -58.6871
v 262.528 -4.08114 -58.7426
v 262.535 -4.07571 -58.7977
v 262.553 -4.0685 -58.8501
v 262.58 -4.05978 -58.898
v 262.616 -4.04989 -58.9394
v 262.659 -4.0392 -58.9728
v 262.708 -4.02813 -58.9968
v 262.761 -4.0171 -59.0106
v 262.816 -4.00654 -59.0137
v 262.87 -3.99685 -59.0058
v 262.922 -3.9884 -58.9874
v 262.97 -3.98153 -58.9591
v 263.011 -3.97649 -58.922
v 263.044 -3.97347 -58.8775
v 263.069 -3.9726 -58.8274
v 263.083 -3.97391 -58.7736
v 262.743 -2.1157 -58.5775
v 262.736 -2.12114 -58.5225
v 262.719 -2.12826 -58.4702
v 262.691 -2.13679 -58.4225
v 262.656 -2.1464 -58.3811
v 262.612 -2.15672 -58.3478
v 262.563 -2.16736 -58.3238
v 262.51 -2.1779 -58.31
v 262.456 -2.18795 -58.3069
v 262.401 -2.1971 -58.3147
v 262.35 -2.20503 -58.333
v 262.302 -2.21141 -58.3612
v 262.261 -2.216 -58.3982
v 262.227 -2.21863 -58.4425
v 262.203 -2.21919 -58.4925
v 262.189 -2.21767 -58.5462
v 262.185 -2.21412 -58.6016
v 262.192 -2.20868 -58.6565
v 262.209 -2.20156 -58.7088
v 262.236 -2.19303 -58.7566
v 262.272 -2.18342 -58.7979
v 262.316 -2.1731 -58.8312
v 262.365 -2.16246 -58.8553
v 262.417 -2.15192 -58.8691
v 262.472 -2.14187 -58.8722
v 262.526 -2.13272 -58.8644
v 262.578 -2.12479 -58.846
v 262.626 -2.11842 -58.8178
v 262.667 -2.11382 -58.7808
v 262.701 -2.11119 -58.7365
v 262.725 -2.11063 -58.6865
v 262.739 -2.11215 -58.6328
v 262.416 -0.251094 -58.4343
v 262.409 -0.256504 -58.3795
v 262.392 -0.263498 -58.3273
v 262.364 -0.271809 -58.2796
v 262.329 -0.281117 -58.2384
v 262.285 -0.291064 -58.2051
v 262.236 -0.301268 -58.1811
v 262.184 -0.311338 -58.1673
v 262.129 -0.320885 -58.1642
v 262.075 -0.329543 -58.1719
v 262.023 -0.336979 -58.1902
v 261.975 -0.342908 -58.2183
v 261.934 -0.347101 -58.2552
v 261.901 -0.349398 -58.2994
v 261.876 -0.349711 -58.3492
v 261.862 -0.348026 -58.4028
v 261.858 -0.34441 -58.458
v 261.865 -0.339001 -58.5128
v 261.883 -0.332006 -58.565
v 261.91 -0.323695 -58.6126
v 261.946 -0.314387 -58.6539
v 261.989 -0.30444 -58.6872
v 262.038 -0.294236 -58.7112
v 262.091 -0.284167 -58.725
v 262.145 -0.27462 -58.7281
v 262.199 -0.265961 -58.7203
v 262.251 -0.258525 -58.7021
v 262.299 -0.252596 -58.674
v 262.34 -0.248403 -58.6371
v 262.373 -0.246106 -58.5929
v 262.398 -0.245793 -58.5431
v 262.412 -0.247478 -58.4895
v 262.105 1.61657 -58.2902
v 262.098 1.61124 -58.2355
v 262.08 1.60441 -58.1834
v 262.053 1.59634 -58.1359
v 262.017 1.58736 -58.0947
v 261.974 1.5778 -58.0615
v 261.925 1.56803 -58.0375
v 261.873 1.55842 -58.0237
v 261.818 1.54935 -58.0205
v 261.764 1.54116 -58.0282
v 261.712 1.53417 -58.0464
v 261.665 1.52865 -58.0744
v 261.623 1.5248 -58.1112
v 261.59 1.52279 -58.1552
v 261.566 1.52268 -58.2049
v 261.551 1.52447 -58.2584
v 261.548 1.52811 -58.3135
v 261.555 1.53344 -58.3681
v 261.572 1.54027 -58.4202
v 261.599 1.54834 -58.4678
v 261.635 1.55732 -58.5089
v 261.678 1.56688 -58.5422
v 261.727 1.57666 -58.5661
v 261.78 1.58626 -58.58
v 261.834 1.59533 -58.5831
v 261.888 1.60352 -58.5754
v 261.94 1.61051 -58.5572
v 261.988 1.61603 -58.5292
v 262.029 1.61988 -58.4925
v 262.062 1.62189 -58.4484
v 262.087 1.62201 -58.3987
v 262.101 1.62021 -58.3453
v 261.809 3.48741 -58.1467
v 261.802 3.48219 -58.0922
v 261.784 3.47556 -58.0402
v 261.757 3.46778 -57.9928
v 261.721 3.45913 -57.9517
v 261.678 3.44997 -57.9185
v 261.629 3.44063 -57.8945
v 261.577 3.43147 -57.8807
v 261.522 3.42285 -57.8776
v 261.468 3.41511 -57.8852
v 261.416 3.40853 -57.9033
v 261.369 3.40337 -57.9312
v 261.328 3.39982 -57.9679
v 261.295 3.39804 -58.0118
v 261.27 3.39807 -58.0614
v 261.256 3.39993 -58.1147
v 261.252 3.40353 -58.1696
v 261.259 3.40875 -58.2242
v 261.276 3.41538 -58.2762
v 261.304 3.42317 -58.3236
v 261.339 3.43181 -58.3647
v 261.383 3.44098 -58.3979
v 261.431 3.45032 -58.4218
v 261.484 3.45947 -58.4357
v 261.539 3.46809 -58.4388
v 261.593 3.47584 -58.4312
v 261.644 3.48242 -58.4131
v 261.692 3.48758 -58.3852
v 261.733 3.49112 -58.3485
v 261.766 3.49291 -58.3046
v 261.791 3.49287 -58.255
v 261.805 3.49102 -58.2017
v 261.527 5.36152 -58.0056
v 261.52 5.35647 -57.9512
v 261.503 5.35007 -57.8993
v 261.476 5.34259 -57.852
v 261.44 5.33431 -57.811
v 261.397 5.32555 -57.7778
v 261.348 5.31664 -57.7539
v 261.295 5.30792 -57.7401
v 261.241 5.29974 -57.7369
v 261.187 5.2924 -57.7445
v 261.135 5.28619 -57.7625
v 261.088 5.28135 -57.7904
v 261.047 5.27806 -57.8269
v 261.013 5.27645 -57.8707
v 260.989 5.27658 -57.9202
v 260.975 5.27844 -57.9733
v 260.971 5.28197 -58.0282
v 260.978 5.28703 -58.0826
v 260.995 5.29342 -58.1345
v 261.023 5.3009 -58.1818
v 261.058 5.30918 -58.2229
v 261.102 5.31795 -58.256
v 261.15 5.32686 -58.2799
v 261.203 5.33557 -58.2937
v 261.257 5.34375 -58.2969
v 261.311 5.35109 -58.2893
v 261.363 5.3573 -58.2713
v 261.41 5.36214 -58.2435
v 261.451 5.36543 -58.2069
v 261.485 5.36705 -58.1631
v 261.509 5.36692 -58.1136
v 261.523 5.36505 -58.0605
v 261.259 7.23902 -57.8685
v 261.252 7.23416 -57.8142
v 261.235 7.22804 -57.7624
v 261.207 7.2209 -57.7152
v 261.172 7.21299 -57.6742
v 261.129 7.20464 -57.6412
v 261.08 7.19616 -57.6173
v 261.027 7.18787 -57.6034
v 260.973 7.1801 -57.6002
v 260.919 7.17315 -57.6078
v 260.867 7.16727 -57.6258
v 260.82 7.1627 -57.6535
v 260.779 7.15961 -57.6899
v 260.746 7.15813 -57.7336
v 260.722 7.1583 -57.783
v 260.707 7.16012 -57.836
v 260.704 7.16352 -57.8907
v 260.711 7.16838 -57.945
v 260.728 7.1745 -57.9968
v 260.755 7.18164 -58.0441
v 260.791 7.18955 -58.085
v 260.834 7.1979 -58.1181
v 260.883 7.20638 -58.142
v 260.935 7.21466 -58.1558
v 260.99 7.22243 -58.159
v 261.044 7.22939 -58.1515
v 261.095 7.23527 -58.1335
v 261.142 7.23984 -58.1057
v 261.183 7.24293 -58.0693
v 261.217 7.24441 -58.0256
v 261.241 7.24424 -57.9763
v 261.255 7.24242 -57.9232
v 261.003 9.11999 -57.737
v 260.996 9.11538 -57.6828
v 260.979 9.10957 -57.6311
v 260.952 9.10279 -57.584
v 260.916 9.09528 -57.5431
v 260.873 9.08735 -57.5101
v 260.825 9.0793 -57.4862
v 260.772 9.07143 -57.4724
v 260.718 9.06405 -57.4692
v 260.664 9.05745 -57.4767
v 260.613 9.05186 -57.4946
v 260.565 9.04752 -57.5222
v 260.524 9.04459 -57.5586
v 260.491 9.04318 -57.6022
v 260.467 9.04334 -57.6514
v 260.453 9.04507 -57.7043
v 260.449 9.0483 -57.7589
v 260.456 9.05291 -57.8131
v 260.474 9.05872 -57.8648
v 260.501 9.0655 -57.9119
v 260.536 9.07301 -57.9528
v 260.579 9.08094 -57.9858
v 260.628 9.08899 -58.0097
v 260.681 9.09686 -58.0235
v 260.735 9.10424 -58.0267
v 260.789 9.11084 -58.0192
v 260.84 9.11643 -58.0013
v 260.887 9.12077 -57.9737
v 260.928 9.1237 -57.9373
v 260.961 9.12511 -57.8937
v 260.986 9.12495 -57.8445
v 261.0 9.12322 -57.7916
v 260.76 11.0046 -57.6127
v 260.753 11.0002 -57.5587
v 260.736 10.9948 -57.5071
v 260.709 10.9884 -57.46
v 260.673 10.9813 -57.4192
v 260.63 10.9738 -57.3862
v 260.581 10.9662 -57.3624
v 260.529 10.9587 -57.3486
v 260.475 10.9517 -57.3454
v 260.421 10.9454 -57.3528
v 260.37 10.9401 -57.3707
v 260.323 10.9359 -57.3982
v 260.282 10.9331 -57.4345
v 260.249 10.9317 -57.478
v 260.224 10.9318 -57.5271
v 260.21 10.9334 -57.5799
v 260.207 10.9364 -57.6344
v 260.214 10.9407 -57.6884
v 260.231 10.9462 -57.74
v 260.258 10.9526 -57.7871
v 260.294 10.9597 -57.8279
v 260.337 10.9672 -57.8609
v 260.385 10.9748 -57.8847
v 260.438 10.9823 -57.8985
v 260.492 10.9893 -57.9017
v 260.546 10.9956 -57.8943
v 260.597 11.0009 -57.8764
v 260.644 11.005 -57.8488
v 260.685 11.0079 -57.8126
v 260.718 11.0092 -57.7691
v 260.742 11.0092 -57.72
v 260.756 11.0076 -57.6672
v 260.527 12.893 -57.4969
v 260.52 12.8889 -57.4429
v 260.503 12.8838 -57.3915
v 260.476 12.8777 -57.3445
v 260.44 12.871 -57.3037
v 260.397 12.8638 -57.2708
v 260.349 12.8565 -57.247
v 260.296 12.8494 -57.2333
v 260.242 12.8426 -57.23
v 260.189 12.8366 -57.2374
v 260.137 12.8314 -57.2552
v 260.09 12.8274 -57.2828
v 260.05 12.8246 -57.3189
v 260.017 12.8232 -57.3623
v 259.993 12.8232 -57.4113
v 259.978 12.8246 -57.464
v 259.975 12.8274 -57.5183
v 259.982 12.8314 -57.5723
v 259.999 12.8366 -57.6237
v 260.026 12.8427 -57.6707
v 260.062 12.8494 -57.7115
v 260.105 12.8566 -57.7444
v 260.153 12.8639 -57.7682
v 260.206 12.871 -57.782
v 260.26 12.8777 -57.7852
v 260.313 12.8838 -57.7778
v 260.365 12.889 -57.76
v 260.412 12.893 -57.7325
v 260.452 12.8958 -57.6963
v 260.485 12.8972 -57.6529
v 260.509 12.8972 -57.6039
v 260.524 12.8958 -57.5513
v 260.297 14.7842 -57.3857
v 260.29 14.7802 -57.3319
v 260.273 14.775 -57.2806
v 260.246 14.769 -57.2337
v 260.21 14.7622 -57.193
v 260.167 14.755 -57.1602
v 260.119 14.7477 -57.1365
v 260.067 14.7405 -57.1227
v 260.013 14.7337 -57.1195
v 259.959 14.7276 -57.1269
v 259.908 14.7223 -57.1447
v 259.861 14.7182 -57.1721
v 259.821 14.7153 -57.2082
v 259.788 14.7139 -57.2515
v 259.764 14.7138 -57.3003
v 259.75 14.7152 -57.3529
v 259.746 14.7179 -57.4071
v 259.753 14.7219 -57.461
v 259.77 14.7271 -57.5123
v 259.797 14.7331 -57.5592
v 259.833 14.7399 -57.5998
v 259.876 14.7471 -57.6326
v 259.924 14.7544 -57.6564
v 259.976 14.7616 -57.6701
v 260.03 14.7684 -57.6734
v 260.084 14.7745 -57.6659
v 260.135 14.7798 -57.6482
v 260.182 14.7839 -57.6207
v 260.222 14.7867 -57.5847
v 260.255 14.7882 -57.5414
v 260.279 14.7883 -57.4925
v 260.293 14.7869 -57.4399
v 260.058 16.6747 -57.2723
v 260.051 16.6704 -57.2186
v 260.034 16.665 -57.1674
v 260.007 16.6586 -57.1207
v 259.971 16.6515 -57.0801
v 259.929 16.6439 -57.0474
v 259.881 16.6361 -57.0238
v 259.829 16.6285 -57.0101
v 259.775 16.6212 -57.0069
v 259.721 16.6147 -57.0143
v 259.67 16.6092 -57.0321
v 259.624 16.6048 -57.0594
v 259.583 16.6017 -57.0954
v 259.55 16.6001 -57.1386
v 259.527 16.6 -57.1874
v 259.513 16.6014 -57.2398
v 259.509 16.6042 -57.2939
v 259.516 16.6085 -57.3476
v 259.533 16.6139 -57.3988
v 259.56 16.6203 -57.4455
v 259.595 16.6274 -57.4861
v 259.638 16.635 -57.5188
v 259.686 16.6428 -57.5424
v 259.738 16.6505 -57.5561
v 259.792 16.6577 -57.5593
v 259.845 16.6642 -57.5519
v 259.896 16.6698 -57.5341
v 259.943 16.6742 -57.5067
v 259.984 16.6772 -57.4708
v 260.016 16.6789 -57.4276
v 260.04 16.679 -57.3788
v 260.054 16.6776 -57.3264
v 259.798 18.5608 -57.1496
v 259.791 18.5561 -57.0961
v 259.774 18.5501 -57.0451
v 259.747 18.543 -56.9985
v 259.712 18.5351 -56.9581
v 259.67 18.5267 -56.9255
v 259.621 18.5181 -56.902
v 259.57 18.5096 -56.8884
v 259.516 18.5016 -56.8853
v 259.463 18.4944 -56.8927
v 259.412 18.4882 -56.9104
v 259.366 18.4834 -56.9378
v 259.325 18.48 -56.9737
v 259.293 18.4782 -57.0168
v 259.269 18.4781 -57.0655
v 259.255 18.4796 -57.1178
v 259.251 18.4828 -57.1717
v 259.258 18.4875 -57.2252
v 259.275 18.4935 -57.2763
v 259.302 18.5006 -57.3229
v 259.337 18.5085 -57.3632
v 259.38 18.5169 -57.3958
v 259.428 18.5255 -57.4193
v 259.479 18.534 -57.4329
v 259.533 18.542 -57.4361
v 259.586 18.5492 -57.4286
v 259.637 18.5553 -57.4109
v 259.683 18.5602 -57.3835
v 259.724 18.5636 -57.3476
v 259.756 18.5654 -57.3045
v 259.78 18.5655 -57.2559
v 259.794 18.564 -57.2036
v 259.505 20.4389 -57.0107
v 259.498 20.4335 -56.9574
v 259.481 20.4266 -56.9066
v 259.455 20.4185 -56.8601
v 259.42 20.4095 -56.82
v 259.378 20.3998 -56.7876
v 259.33 20.39 -56.7642
v 259.279 20.3803 -56.7507
v 259.225 20.3712 -56.7477
v 259.173 20.363 -56.7552
v 259.122 20.356 -56.7729
v 259.076 20.3504 -56.8003
v 259.036 20.3466 -56.8361
v 259.003 20.3446 -56.8792
v 258.979 20.3445 -56.9277
v 258.965 20.3463 -56.9798
v 258.961 20.35 -57.0336
v 258.968 20.3553 -57.0869
v 258.985 20.3622 -57.1378
v 259.012 20.3703 -57.1842
v 259.046 20.3794 -57.2244
v 259.089 20.389 -57.2568
v 259.136 20.3988 -57.2802
v 259.188 20.4085 -57.2936
v 259.241 20.4176 -57.2967
v 259.294 20.4258 -57.2892
v 259.344 20.4328 -57.2714
v 259.391 20.4384 -57.2441
v 259.431 20.4422 -57.2082
v 259.463 20.4443 -57.1652
v 259.487 20.4444 -57.1167
v 259.501 20.4425 -57.0645
v 259.167 22.3053 -56.8486
v 259.161 22.299 -56.7955
v 259.144 22.2909 -56.7449
v 259.118 22.2814 -56.6987
v 259.083 22.2709 -56.6588
v 259.041 22.2597 -56.6266
v 258.994 22.2483 -56.6034
v 258.943 22.237 -56.5901
v 258.89 22.2264 -56.5872
v 258.838 22.2169 -56.5948
v 258.788 22.2088 -56.6126
v 258.742 22.2024 -56.6399
v 258.702 22.1979 -56.6758
v 258.669 22.1957 -56.7187
v 258.645 22.1956 -56.7671
v 258.631 22.1978 -56.8191
v 258.628 22.2021 -56.8727
v 258.634 22.2084 -56.9258
v 258.651 22.2165 -56.9764
v 258.677 22.226 -57.0226
v 258.712 22.2365 -57.0625
v 258.753 22.2477 -57.0947
v 258.801 22.2591 -57.1179
v 258.852 22.2704 -57.1312
v 258.904 22.281 -57.1341
v 258.957 22.2905 -57.1265
v 259.007 22.2986 -57.1087
v 259.053 22.305 -57.0814
v 259.093 22.3095 -57.0455
v 259.126 22.3117 -57.0026
v 259.149 22.3118 -56.9542
v 259.163 22.3096 -56.9022
v 258.773 24.1564 -56.6562
v 258.766 24.1489 -56.6034
v 258.75 24.1394 -56.553
v 258.724 24.1282 -56.5071
v 258.69 24.1158 -56.4675
v 258.649 24.1026 -56.4356
v 258.602 24.0892 -56.4126
v 258.552 24.076 -56.3996
v 258.5 24.0636 -56.3969
v 258.448 24.0525 -56.4046
v 258.398 24.043 -56.4225
v 258.352 24.0356 -56.4499
v 258.312 24.0304 -56.4858
v 258.28 24.0278 -56.5286
v 258.256 24.0279 -56.5769
v 258.242 24.0305 -56.6287
v 258.238 24.0357 -56.6821
v 258.244 24.0431 -56.735
v 258.261 24.0526 -56.7853
v 258.287 24.0638 -56.8312
v 258.321 24.0762 -56.8708
v 258.362 24.0894 -56.9027
v 258.409 24.1028 -56.9257
v 258.459 24.116 -56.9387
v 258.511 24.1284 -56.9414
v 258.563 24.1395 -56.9337
v 258.613 24.149 -56.9158
v 258.659 24.1565 -56.8884
v 258.699 24.1616 -56.8525
v 258.731 24.1642 -56.8097
v 258.755 24.1642 -56.7614
v 258.769 24.1615 -56.7096
v 258.309 25.9884 -56.4265
v 258.303 25.9795 -56.3739
v 258.288 25.9683 -56.3239
v 258.262 25.9551 -56.2784
v 258.229 25.9405 -56.2392
v 258.188 25.925 -56.2076
v 258.142 25.9092 -56.1851
v 258.093 25.8938 -56.1723
v 258.041 25.8793 -56.1699
v 257.99 25.8662 -56.1779
v 257.94 25.8552 -56.1959
v 257.895 25.8465 -56.2234
v 257.856 25.8406 -56.2593
v 257.824 25.8376 -56.3021
v 257.8 25.8377 -56.3502
v 257.786 25.8409 -56.4018
v 257.781 25.8471 -56.4549
v 257.787 25.8559 -56.5075
v 257.803 25.8672 -56.5575
v 257.828 25.8804 -56.603
v 257.862 25.895 -56.6423
v 257.902 25.9105 -56.6738
v 257.948 25.9262 -56.6964
v 257.998 25.9417 -56.7091
v 258.05 25.9562 -56.7116
v 258.101 25.9692 -56.7036
v 258.15 25.9803 -56.6855
v 258.196 25.989 -56.658
v 258.235 25.9949 -56.6222
v 258.267 25.9979 -56.5794
v 258.291 25.9977 -56.5312
v 258.305 25.9945 -56.4796
v 257.765 27.7976 -56.1524
v 257.76 27.7871 -56.1002
v 257.745 27.7739 -56.0507
v 257.72 27.7585 -56.0056
v 257.688 27.7413 -55.9668
v 257.648 27.7232 -55.9358
v 257.603 27.7048 -55.9137
v 257.554 27.6867 -55.9014
v 257.503 27.6698 -55.8993
v 257.453 27.6546 -55.9076
v 257.404 27.6417 -55.9259
v 257.359 27.6317 -55.9535
v 257.32 27.6249 -55.9894
v 257.288 27.6215 -56.0322
v 257.265 27.6218 -56.0802
v 257.25 27.6256 -56.1316
v 257.246 27.6329 -56.1844
v 257.251 27.6433 -56.2366
v 257.266 27.6566 -56.2862
v 257.291 27.672 -56.3312
v 257.323 27.6891 -56.37
v 257.363 27.7073 -56.4011
v 257.408 27.7257 -56.4232
v 257.457 27.7437 -56.4355
v 257.508 27.7607 -56.4375
v 257.558 27.7759 -56.4292
v 257.607 27.7887 -56.4109
v 257.652 27.7988 -56.3833
v 257.691 27.8056 -56.3474
v 257.723 27.8089 -56.3046
v 257.746 27.8087 -56.2566
v 257.761 27.8049 -56.2052
v 257.128 29.5801 -55.8269
v 257.123 29.5679 -55.7752
v 257.109 29.5525 -55.7261
v 257.086 29.5345 -55.6817
v 257.054 29.5146 -55.6435
v 257.016 29.4936 -55.613
v 256.972 29.4722 -55.5915
v 256.924 29.4513 -55.5798
v 256.874 29.4317 -55.5782
v 256.825 29.4142 -55.5869
v 256.777 29.3993 -55.6056
v 256.733 29.3878 -55.6334
v 256.694 29.38 -55.6694
v 256.663 29.3762 -55.7121
v 256.639 29.3766 -55.76
v 256.624 29.3812 -55.8111
v 256.619 29.3897 -55.8636
v 256.624 29.4019 -55.9153
v 256.638 29.4173 -55.9644
v 256.662 29.4353 -56.0088
v 256.693 29.4552 -56.047
v 256.732 29.4762 -56.0775
v 256.776 29.4976 -56.099
v 256.823 29.5184 -56.1107
v 256.873 29.538 -56.1123
v 256.923 29.5556 -56.1036
v 256.971 29.5704 -56.0849
v 257.015 29.5819 -56.0571
v 257.053 29.5898 -56.0211
v 257.085 29.5935 -55.9784
v 257.109 29.5931 -55.9305
v 257.123 29.5886 -55.8794
v 256.386 31.3319 -55.443
v 256.382 31.3178 -55.3918
v 256.369 31.3001 -55.3433
v 256.347 31.2794 -55.2996
v 256.317 31.2566 -55.2621
v 256.28 31.2324 -55.2325
v 256.237 31.208 -55.2117
v 256.191 31.184 -55.2007
v 256.143 31.1616 -55.1997
v 256.094 31.1416 -55.209
v 256.047 31.1246 -55.228
v 256.004 31.1115 -55.2562
v 255.966 31.1026 -55.2923
v 255.935 31.0984 -55.3351
v 255.911 31.099 -55.3828
v 255.896 31.1043 -55.4336
v 255.89 31.1142 -55.4856
v 255.894 31.1283 -55.5368
v 255.908 31.146 -55.5852
v 255.93 31.1667 -55.629
v 255.96 31.1895 -55.6664
v 255.997 31.2136 -55.6961
v 256.04 31.2381 -55.7169
v 256.086 31.262 -55.7279
v 256.134 31.2845 -55.7288
v 256.183 31.3045 -55.7196
v 256.229 31.3214 -55.7005
v 256.273 31.3346 -55.6724
v 256.311 31.3434 -55.6363
v 256.342 31.3477 -55.5935
v 256.366 31.3471 -55.5458
v 256.381 31.3418 -55.495
v 255.528 33.049 -54.9935
v 255.525 33.033 -54.943
v 255.513 33.0129 -54.8953
v 255.492 32.9894 -54.8524
v 255.463 32.9635 -54.8159
v 255.428 32.9362 -54.7871
v 255.387 32.9085 -54.7673
v 255.343 32.8814 -54.7571
v 255.296 32.8561 -54.757
v 255.249 32.8335 -54.7669
v 255.204 32.8144 -54.7865
v 255.161 32.7996 -54.815
v 255.124 32.7897 -54.8513
v 255.093 32.785 -54.894
v 255.069 32.7857 -54.9416
v 255.054 32.7918 -54.9921
v 255.047 32.8031 -55.0436
v 255.05 32.8191 -55.0942
v 255.062 32.8393 -55.1418
v 255.083 32.8627 -55.1847
v 255.112 32.8886 -55.2213
v 255.147 32.916 -55.25
v 255.188 32.9437 -55.2698
v 255.232 32.9707 -55.28
v 255.279 32.9961 -55.2802
v 255.326 33.0187 -55.2703
v 255.372 33.0378 -55.2507
v 255.414 33.0526 -55.2222
v 255.451 33.0625 -55.1858
v 255.483 33.0672 -55.1431
v 255.506 33.0665 -55.0955
v 255.521 33.0603 -55.045
f 1 34 2 
f 1 33 34 
f 2 35 3 
f 2 34 35 
f 3 36 4 
f 3 35 36 
f 4 37 5 
f 4 36 37 
f 5 38 6 
f 5 37 38 
f 6 39 7 
f 6 38 39 
f 7 40 8 
f 7 39 40 
f 8 41 9 
f 8 40 41 
f 9 42 10 
f 9 41 42 
f 10 43 11 
f 10 42 43 
f 11 44 12 
f 11 43 44 
f 12 45 13 
f 12 44 45 
f 13 46 14 
f 13 45 46 
f 14 47 15 
f 14 46 47 
f 15 48 16 
f 15 47 48 
f 16 49 17 
f 16 48 49 
f 17 50 18 
f 17 49 50 
f 18 51 19 
f 18 50 51 
f 19 52 20 
f 19 51 52 
f 20 53 21 
f 20 52 53 
f 21 54 22 
f 21 53 54 
f 22 55 23 
f 22 54 55 
f 23 56 24 
f 23 55 56 
f 24 57 25 
f 24 56 57 
f 25 58 26 
f 25 57 58 
f 26 59 27 
f 26 58 59 
f 27 60 28 
f 27 59 60 
f 28 61 29 
f 28 60 61 
f 29 62 30 
f 29 61 62 
f 30 63 31 
f 30 62 63 
f 31 64 32 
f 31 63 64 
f 32 33 1 
f 32 64 33 
f 33 66 34 
f 33 65 66 
f 34 67 35 
f 34 66 67 
f 35 68 36 
f 35 67 68 
f 36 69 37 
f 36 68 69 
f 37 70 38 
f 37 69 70 
f 38 71 39 
f 38 70 71 
f 39 72 40 
f 39 71 72 
f 40 73 41 
f 40 72 73 
f 41 74 42 
f 41 73 74 
f 42 75 43 
f 42 74 75 
f 43 76 44 
f 43 75 76 
f 44 77 45 
f 44 76 77 
f 45 78 46 
f 45 77 78 
f 46 79 47 
f 46 78 79 
f 47 80 48 
f 47 79 80 
f 48 81 49 
f 48 80 81 
f 49 82 50 
f 49 81 82 
f 50 83 51 
f 50 82 83 
f 51 84 52 
f 51 83 84 
f 52 85 53 
f 52 84 85 
f 53 86 54 
f 53 85 86 
f 54 87 55 
f 54 86 87 
f 55 88 56 
f 55 87 88 
f 56 89 57 
f 56 88 89 
f 57 90 58 
f 57 89 90 
f 58 91 59 
f 58 90 91 
f 59 92 60 
f 59 91 92 
f 60 93 61 
f 60 92 93 
f 61 94 62 
f 61 93 94 
f 62 95 63 
f 62 94 95 
f 63 96 64 
f 63 95 96 
f 64 65 33 
f 64 96 65 
f 65 98 66 
f 65 97 98 
f 66 99 67 
f 66 98 99 
f 67 100 68 
f 67 99 100 
f 68 101 69 
f 68 100 101 
f 69 102 70 
f 69 101 102 
f 70 103 71 
f 70 102 103 
f 71 104 72 
f 71 103 104 
f 72 105 73 
f 72 104 105 
f 73 106 74 
f 73 105 106 
f 74 107 75 
f 74 106 107 
f 75 108 76 
f 75 107 108 
f 76 109 77 
f 76 108 109 
f 77 110 78 
f 77 109 110 
f 78 111 79 
f 78 110 111 
f 79 112 80 
f 79 111 112 
f 80 113 81 
f 80 112 113 
f 81 114 82 
f 81 113 114 
f 82 115 83 
f 82 114 115 
f 83 116 84 
f 83 115 116 
f 84 117 85 
f 84 116 117 
f 85 118 86 
f 85 117 118 
f 86 119 87 
f 86 118 119 
f 87 120 88 
f 87 119 120 
f 88 121 89 
f 88 120 121 
f 89 122 90 
f 89 121 122 
f 90 123 91 
f 90 122 123 
f 91 124 92 
f 91 123 124 
f 92 125 93 
f 92 124 125 
f 93 126 94 
f 93 125 126 
f 94 127 95 
f 94 126 127 
f 95 128 96 
f 95 127 128 
f 96 97 65 
f 96 128 97 
f 97 130 98 
f 97 129 130 
f 98 131 99 
f 98 130 131 
f 99 132 100 
f 99 131 132 
f 100 133 101 
f 100 132 133 
f 101 134 102 
f 101 133 134 
f 102 135 103 
f 102 134 135 
f 103 136 104 
f 103 135 136 
f 104 137 105 
f 104 136 137 
f 105 138 106 
f 105 137 138 
f 106 139 107 
f 106 138 139 
f 107 140 108 
f 107 139 140 
f 108 141 109 
f 108 140 141 
f 109 142 110 
f 109 141 142 
f 110 143 111 
f 110 142 143 
f 111 144 112 
f 111 143 144 
f 112 145 113 
f 112 144 145 
f 113 146 114 
f 113 145 146 
f 114 147 115 
f 114 146 147 
f 115 148 116 
f 115 147 148 
f 116 149 117 
f 116 148 149 
f 117 150 118 
f 117 149 150 
f 118 151 119 
f 118 150 151 
f 119 152 120 
f 119 151 152 
f 120 153 121 
f 120 152 153 
f 121 154 122 
f 121 153 154 
f 122 155 123 
f 122 154 155 
f 123 156 124 
f 123 155 156 
f 124 157 125 
f 124 156 157 
f 125 158 126 
f 125 157 158 
f 126 159 127 
f 126 158 159 
f 127 160 128 
f 127 159 160 
f 128 129 97 
f 128 160 129 
f 129 162 130 
f 129 161 162 
f 130 163 131 
f 130 162 163 
f 131 164 132 
f 131 163 164 
f 132 165 133 
f 132 164 165 
f 133 166 134 
f 133 165 166 
f 134 167 135 
f 134 166 167 
f 135 168 136 
f 135 167 168 
f 136 169 137 
f 136 168 169 
f 137 170 138 
f 137 169 170 
f 138 171 139 
f 138 170 171 
f 139 172 140 
f 139 171 172 
f 140 173 141 
f 140 172 173 
f 141 174 142 
f 141 173 174 
f 142 175 143 
f 142 174 175 
f 143 176 144 
f 143 175 176 
f 144 177 145 
f 144 176 177 
f 145 178 146 
f 145 177 178 
f 146 179 147 
f 146 178 179 
f 147 180 148 
f 147 179 180 
f 148 181 149 
f 148 180 181 
f 149 182 150 
f 149 181 182 
f 150 183 151 
f 150 182 183 
f 151 184 152 
f 151 183 184 
f 152 185 153 
f 152 184 185 
f 153 186 154 
f 153 185 186 
f 154 187 155 
f 154 186 187 
f 155 188 156 
f 155 187 188 
f 156 189 157 
f 156 188 189 
f 157 190 158 
f 157 189 190 
f 158 191 159 
f 158 190 191 
f 159 192 160 
f 159 191 192 
f 160 161 129 
f 160 192 161 
f 161 194 162 
f 161 193 194 
f 162 195 163 
f 162 194 195 
f 163 196 164 
f 163 195 196 
f 164 197 165 
f 164 196 197 
f 165 198 166 
f 165 197 198 
f 166 199 167 
f 166 198 199 
f 167 200 168 
f 167 199 200 
f 168 201 169 
f 168 200 201 
f 169 202 170 
f 169 201 202 
f 170 203 171 
f 170 202 203 
f 171 204 172 
f 171 203 204 
f 172 205 173 
f 172 204 205 
f 173 206 174 
f 173 205 206 
f 174 207 175 
f 174 206 207 
f 175 208 176 
f 175 207 208 
f 176 209 177 
f 176 208 209 
f 177 210 178 
f 177 209 210 
f 178 211 179 
f 178 210 211 
f 179 212 180 
f 179 211 212 
f 180 213 181 
f 180 212 213 
f 181 214 182 
f 181 213 214 
f 182 215 183 
f 182 214 215 
f 183 216 184 
f 183 215 216 
f 184 217 185 
f 184 216 217 
f 185 218 186 
f 185 217 218 
f 186 219 187 
f 186 218 219 
f 187 220 188 
f 187 219 220 
f 188 221 189 
f 188 220 221 
f 189 222 190 
f 189 221 222 
f 190 223 191 
f 190 222 223 
f 191 224 192 
f 191 223 224 
f 192 193 161 
f 192 224 193 
f 193 226 194 
f 193 225 226 
f 194 227 195 
f 194 226 227 
f 195 228 196 
f 195 227 228 
f 196 229 197 
f 196 228 229 
f 197 230 198 
f 197 229 230 
f 198 231 199 
f 198 230 231 
f 199 232 200 
f 199 231 232 
f 200 233 201 
f 200 232 233 
f 201 234 202 
f 201 233 234 
f 202 235 203 
f 202 234 235 
f 203 236 204 
f 203 235 236 
f 204 237 205 
f 204 236 237 
f 205 238 206 
f 205 237 238 
f 206 239 207 
f 206 238 239 
f 207 240 208 
f 207 239 240 
f 208 241 209 
f 208 240 241 
f 209 242 210 
f 209 241 242 
f 210 243 211 
f 210 242 243 
f 211 244 212 
f 211 243 244 
f 212 245 213 
f 212 244 245 
f 213 246 214 
f 213 245 246 
f 214 247 215 
f 214 246 247 
f 215 248 216 
f 215 247 248 
f 216 249 217 
f 216 248 249 
f 217 250 218 
f 217 249 250 
f 218 251 219 
f 218 250 251 
f 219 252 220 
f 219 251 252 
f 220 253 221 
f 220 252 253 
f 221 254 222 
f 221 253 254 
f 222 255 223 
f 222 254 255 
f 223 256 224 
f 223 255 256 
f 224 225 193 
f 224 256 225 
f 225 258 226 
f 225 257 258 
f 226 259 227 
f 226 258 259 
f 227 260 228 
f 227 259 260 
f 228 261 229 
f 228 260 261 
f 229 262 230 
f 229 261 262 
f 230 263 231 
f 230 262 263 
f 231 264 232 
f 231 263 264 
f 232 265 233 
f 232 264 265 
f 233 266 234 
f 233 265 266 
f 234 267 235 
f 234 266 267 
f 235 268 236 
f 235 267 268 
f 236 269 237 
f 236 268 269 
f 237 270 238 
f 237 269 270 
f 238 271 239 
f 238 270 271 
f 239 272 240 
f 239 271 272 
f 240 273 241 
f 240 272 273 
f 241 274 242 
f 241 273 274 
f 242 275 243 
f 242 274 275 
f 243 276 244 
f 243 275 276 
f 244 277 245 
f 244 276 277 
f 245 278 246 
f 245 277 278 
f 246 279 247 
f 246 278 279 
f 247 280 248 
f 247 279 280 
f 248 281 249 
f 248 280 281 
f 249 282 250 
f 249 281 282 
f 250 283 251 
f 250 282 283 
f 251 284 252 
f 251 283 284 
f 252 285 253 
f 252 284 285 
f 253 286 254 
f 253 285 286 
f 254 287 255 
f 254 286 287 
f 255 288 256 
f 255 287 288 
f 256 257 225 
f 256 288 257 
f 257 290 258 
f 257 289 290 
f 258 291 259 
f 258 290 291 
f 259 292 260 
f 259 291 292 
f 260 293 261 
f 260 292 293 
f 261 294 262 
f 261 293 294 
f 262 295 263 
f 262 294 295 
f 263 296 264 
f 263 295 296 
f 264 297 265 
f 264 296 297 
f 265 298 266 
f 265 297 298 
f 266 299 267 
f 266 298 299 
f 267 300 268 
f 267 299 300 
f 268 301 269 
f 268 300 301 
f 269 302 270 
f 269 301 302 
f 270 303 271 
f 270 302 303 
f 271 304 272 
f 271 303 304 
f 272 305 273 
f 272 304 305 
f 273 306 274 
f 273 305 306 
f 274 307 275 
f 274 306 307 
f 275 308 276 
f 275 307 308 
f 276 309 277 
f 276 308 309 
f 277 310 278 
f 277 309 310 
f 278 311 279 
f 278 310 311 
f 279 312 280 
f 279 311 312 
f 280 313 281 
f 280 312 313 
f 281 314 282 
f 281 313 314 
f 282 315 283 
f 282 314 315 
f 283 316 284 
f 283 315 316 
f 284 317 285 
f 284 316 317 
f 285 318 286 
f 285 317 318 
f 286 319 287 
f 286 318 319 
f 287 320 288 
f 287 319 320 
f 288 289 257 
f 288 320 289 
f 289 322 290 
f 289 321 322 
f 290 323 291 
f 290 322 323 
f 291 324 292 
f 291 323 324 
f 292 325 293 
f 292 324 325 
f 293 326 294 
f 293 325 326 
f 294 327 295 
f 294 326 327 
f 295 328 296 
f 295 327 328 
f 296 329 297 
f 296 328 329 
f 297 330 298 
f 297 329 330 
f 298 331 299 
f 298 330 331 
f 299 332 300 
f 299 331 332 
f 300 333 301 
f 300 332 333 
f 301 334 302 
f 301 333 334 
f 302 335 303 
f 302 334 335 
f 303 336 304 
f 303 335 336 
f 304 337 305 
f 304 336 337 
f 305 338 306 
f 305 337 338 
f 306 339 307 
f 306 338 339 
f 307 340 308 
f 307 339 340 
f 308 341 309 
f 308 340 341 
f 309 342 310 
f 309 341 342 
f 310 343 311 
f 310 342 343 
f 311 344 312 
f 311 343 344 
f 312 345 313 
f 312 344 345 
f 313 346 314 
f 313 345 346 
f 314 347 315 
f 314 346 347 
f 315 348 316 
f 315 347 348 
f 316 349 317 
f 316 348 349 
f 317 350 318 
f 317 349 350 
f 318 351 319 
f 318 350 351 
f 319 352 320 
f 319 351 352 
f 320 321 289 
f 320 352 321 
f 321 354 322 
f 321 353 354 
f 322 355 323 
f 322 354 355 
f 323 356 324 
f 323 355 356 
f 324 357 325 
f 324 356 357 
f 325 358 326 
f 325 357 358 
f 326 359 327 
f 326 358 359 
f 327 360 328 
f 327 359 360 
f 328 361 329 
f 328 360 361 
f 329 362 330 
f 329 361 362 
f 330 363 331 
f 330 362 363 
f 331 364 332 
f 331 363 364 
f 332 365 333 
f 332 364 365 
f 333 366 334 
f 333 365 366 
f 334 367 335 
f 334 366 367 
f 335 368 336 
f 335 367 368 
f 336 369 337 
f 336 368 369 
f 337 370 338 
f 337 369 370 
f 338 371 339 
f 338 370 371 
f 339 372 340 
f 339 371 372 
f 340 373 341 
f 340 372 373 
f 341 374 342 
f 341 373 374 
f 342 375 343 
f 342 374 375 
f 343 376 344 
f 343 375 376 
f 344 377 345 
f 344 376 377 
f 345 378 346 
f 345 377 378 
f 346 379 347 
f 346 378 379 
f 347 380 348 
f 347 379 380 
f 348 381 349 
f 348 380 381 
f 349 382 350 
f 349 381 382 
f 350 383 351 
f 350 382 383 
f 351 384 352 
f 351 383 384 
f 352 353 321 
f 352 384 353 
f 353 386 354 
f 353 385 386 
f 354 387 355 
f 354 386 387 
f 355 388 356 
f 355 387 388 
f 356 389 357 
f 356 388 389 
f 357 390 358 
f 357 389 390 
f 358 391 359 
f 358 390 391 
f 359 392 360 
f 359 391 392 
f 360 393 361 
f 360 392 393 
f 361 394 362 
f 361 393 394 
f 362 395 363 
f 362 394 395 
f 363 396 364 
f 363 395 396 
f 364 397 365 
f 364 396 397 
f 365 398 366 
f 365 397 398 
f 366 399 367 
f 366 398 399 
f 367 400 368 
f 367 399 400 
f 368 401 369 
f 368 400 401 
f 369 402 370 
f 369 401 402 
f 370 403 371 
f 370 402 403 
f 371 404 372 
f 371 403 404 
f 372 405 373 
f 372 404 405 
f 373 406 374 
f 373 405 406 
f 374 407 375 
f 374 406 407 
f 375 408 376 
f 375 407 408 
f 376 409 377 
f 376 408 409 
f 377 410 378 
f 377 409 410 
f 378 411 379 
f 378 410 411 
f 379 412 380 
f 379 411 412 
f 380 413 381 
f 380 412 413 
f 381 414 382 
f 381 413 414 
f 382 415 383 
f 382 414 415 
f 383 416 384 
f 383 415 416 
f 384 385 353 
f 384 416 385 
f 385 418 386 
f 385 417 418 
f 386 419 387 
f 386 418 419 
f 387 420 388 
f 387 419 420 
f 388 421 389 
f 388 420 421 
f 389 422 390 
f 389 421 422 
f 390 423 391 
f 390 422 423 
f 391 424 392 
f 391 423 424 
f 392 425 393 
f 392 424 425 
f 393 426 394 
f 393 425 426 
f 394 427 395 
f 394 426 427 
f 395 428 396 
f 395 427 428 
f 396 429 397 
f 396 428 429 
f 397 430 398 
f 397 429 430 
f 398 431 399 
f 398 430 431 
f 399 432 400 
f 399 431 432 
f 400 433 401 
f 400 432 433 
f 401 434 402 
f 401 433 434 
f 402 435 403 
f 402 434 435 
f 403 436 404 
f 403 435 436 
f 404 437 405 
f 404 436 437 
f 405 438 406 
f 405 437 438 
f 406 439 407 
f 406 438 439 
f 407 440 408 
f 407 439 440 
f 408 441 409 
f 408 440 441 
f 409 442 410 
f 409 441 442 
f 410 443 411 
f 410 442 443 
f 411 444 412 
f 411 443 444 
f 412 445 413 
f 412 444 445 
f 413 446 414 
f 413 445 446 
f 414 447 415 
f 414 446 447 
f 415 448 416 
f 415 447 448 
f 416 417 385 
f 416 448 417 
f 417 450 418 
f 417 449 450 
f 418 451 419 
f 418 450 451 
f 419 452 420 
f 419 451 452 
f 420 453 421 
f 420 452 453 
f 421 454 422 
f 421 453 454 
f 422 455 423 
f 422 454 455 
f 423 456 424 
f 423 455 456 
f 424 457 425 
f 424 456 457 
f 425 458 426 
f 425 457 458 
f 426 459 427 
f 426 458 459 
f 427 460 428 
f 427 459 460 
f 428 461 429 
f 428 460 461 
f 429 462 430 
f 429 461 462 
f 430 463 431 
f 430 462 463 
f 431 464 432 
f 431 463 464 
f 432 465 433 
f 432 464 465 
f 433 466 434 
f 433 465 466 
f 434 467 435 
f 434 466 467 
f 435 468 436 
f 435 467 468 
f 436 469 437 
f 436 468 469 
f 437 470 438 
f 437 469 470 
f 438 471 439 
f 438 470 471 
f 439 472 440 
f 439 471 472 
f 440 473 441 
f 440 472 473 
f 441 474 442 
f 441 473 474 
f 442 475 443 
f 442 474 475 
f 443 476 444 
f 443 475 476 
f 444 477 445 
f 444 476 477 
f 445 478 446 
f 445 477 478 
f 446 479 447 
f 446 478 479 
f 447 480 448 
f 447 479 480 
f 448 449 417 
f 448 480 449 
f 449 482 450 
f 449 481 482 
f 450 483 451 
f 450 482 483 
f 451 484 452 
f 451 483 484 
f 452 485 453 
f 452 484 485 
f 453 486 454 
f 453 485 486 
f 454 487 455 
f 454 486 487 
f 455 488 456 
f 455 487 488 
f 456 489 457 
f 456 488 489 
f 457 490 458 
f 457 489 490 
f 458 491 459 
f 458 490 491 
f 459 492 460 
f 459 491 492 
f 460 493 461 
f 460 492 493 
f 461 494 462 
f 461 493 494 
f 462 495 463 
f 462 494 495 
f 463 496 464 
f 463 495 496 
f 464 497 465 
f 464 496 497 
f 465 498 466 
f 465 497 498 
f 466 499 467 
f 466 498 499 
f 467 500 468 
f 467 499 500 
f 468 501 469 
f 468 500 501 
f 469 502 470 
f 469 501 502 
f 470 503 471 
f 470 502 503 
f 471 504 472 
f 471 503 504 
f 472 505 473 
f 472 504 505 
f 473 506 474 
f 473 505 506 
f 474 507 475 
f 474 506 507 
f 475 508 476 
f 475 507 508 
f 476 509 477 
f 476 508 509 
f 477 510 478 
f 477 509 510 
f 478 511 479 
f 478 510 511 
f 479 512 480 
f 479 511 512 
f 480 481 449 
f 480 512 481 
f 481 514 482 
f 481 513 514 
f 482 515 483 
f 482 514 515 
f 483 516 484 
f 483 515 516 
f 484 517 485 
f 484 516 517 
f 485 518 486 
f 485 517 518 
f 486 519 487 
f 486 518 519 
f 487 520 488 
f 487 519 520 
f 488 521 489 
f 488 520 521 
f 489 522 490 
f 489 521 522 
f 490 523 491 
f 490 522 523 
f 491 524 492 
f 491 523 524 
f 492 525 493 
f 492 524 525 
f 493 526 494 
f 493 525 526 
f 494 527 495 
f 494 526 527 
f 495 528 496 
f 495 527 528 
f 496 529 497 
f 496 528 529 
f 497 530 498 
f 497 529 530 
f 498 531 499 
f 498 530 531 
f 499 532 500 
f 499 531 532 
f 500 533 501 
f 500 532 533 
f 501 534 502 
f 501 533 534 
f 502 535 503 
f 502 534 535 
f 503 536 504 
f 503 535 536 
f 504 537 505 
f 504 536 537 
f 505 538 506 
f 505 537 538 
f 506 539 507 
f 506 538 539 
f 507 540 508 
f 507 539 540 
f 508 541 509 
f 508 540 541 
f 509 542 510 
f 509 541 542 
f 510 543 511 
f 510 542 543 
f 511 544 512 
f 511 543 544 
f 512 513 481 
f 512 544 513 
f 513 546 514 
f 513 545 546 
f 514 547 515 
f 514 546 547 
f 515 548 516 
f 515 547 548 
f 516 549 517 
f 516 548 549 
f 517 550 518 
f 517 549 550 
f 518 551 519 
f 518 550 551 
f 519 552 520 
f 519 551 552 
f 520 553 521 
f 520 552 553 
f 521 554 522 
f 521 553 554 
f 522 555 523 
f 522 554 555 
f 523 556 524 
f 523 555 556 
f 524 557 525 
f 524 556 557 
f 525 558 526 
f 525 557 558 
f 526 559 527 
f 526 558 559 
f 527 560 528 
f 527 559 560 
f 528 561 529 
f 528 560 561 
f 529 562 530 
f 529 561 562 
f 530 563 531 
f 530 562 563 
f 531 564 532 
f 531 563 564 
f 532 565 533 
f 532 564 565 
f 533 566 534 
f 533 565 566 
f 534 567 535 
f 534 566 567 
f 535 568 536 
f 535 567 568 
f 536 569 537 
f 536 568 569 
f 537 570 538 
f 537 569 570 
f 538 571 539 
f 538 570 571 
f 539 572 540 
f 539 571 572 
f 540 573 541 
f 540 572 573 
f 541 574 542 
f 541 573 574 
f 542 575 543 
f 542 574 575 
f 543 576 544 
f 543 575 576 
f 544 545 513 
f 544 576 545 
f 545 578 546 
f 545 577 578 
f 546 579 547 
f 546 578 579 
f 547 580 548 
f 547 579 580 
f 548 581 549 
f 548 580 581 
f 549 582 550 
f 549 581 582 
f 550 583 551 
f 550 582 583 
f 551 584 552 
f 551 583 584 
f 552 585 553 
f 552 584 585 
f 553 586 554 
f 553 585 586 
f 554 587 555 
f 554 586 587 
f 555 588 556 
f 555 587 588 
f 556 589 557 
f 556 588 589 
f 557 590 558 
f 557 589 590 
f 558 591 559 
f 558 590 591 
f 559 592 560 
f 559 591 592 
f 560 593 561 
f 560 592 593 
f 561 594 562 
f 561 593 594 
f 562 595 563 
f 562 594 595 
f 563 596 564 
f 563 595 596 
f 564 597 565 
f 564 596 597 
f 565 598 566 
f 565 597 598 
f 566 599 567 
f 566 598 599 
f 567 600 568 
f 567 599 600 
f 568 601 569 
f 568 600 601 
f 569 602 570 
f 569 601 602 
f 570 603 571 
f 570 602 603 
f 571 604 572 
f 571 603 604 
f 572 605 573 
f 572 604 605 
f 573 606 574 
f 573 605 606 
f 574 607 575 
f 574 606 607 
f 575 608 576 
f 575 607 608 
f 576 577 545 
f 576 608 577 
f 577 610 578 
f 577 609 610 
f 578 611 579 
f 578 610 611 
f 579 612 580 
f 579 611 612 
f 580 613 581 
f 580 612 613 
f 581 614 582 
f 581 613 614 
f 582 615 583 
f 582 614 615 
f 583 616 584 
f 583 615 616 
f 584 617 585 
f 584 616 617 
f 585 618 586 
f 585 617 618 
f 586 619 587 
f 586 618 619 
f 587 620 588 
f 587 619 620 
f 588 621 589 
f 588 620 621 
f 589 622 590 
f 589 621 622 
f 590 623 591 
f 590 622 623 
f 591 624 592 
f 591 623 624 
f 592 625 593 
f 592 624 625 
f 593 626 594 
f 593 625 626 
f 594 627 595 
f 594 626 627 
f 595 628 596 
f 595 627 628 
f 596 629 597 
f 596 628 629 
f 597 630 598 
f 597 629 630 
f 598 631 599 
f 598 630 631 
f 599 632 600 
f 599 631 632 
f 600 633 601 
f 600 632 633 
f 601 634 602 
f 601 633 634 
f 602 635 603 
f 602 634 635 
f 603 636 604 
f 603 635 636 
f 604 637 605 
f 604 636 637 
f 605 638 606 
f 605 637 638 
f 606 639 607 
f 606 638 639 
f 607 640 608 
f 607 639 640 
f 608 609 577 
f 608 640 609 
f 609 642 610 
f 609 641 642 
f 610 643 611 
f 610 642 643 
f 611 644 612 
f 611 643 644 
f 612 645 613 
f 612 644 645 
f 613 646 614 
f 613 645 646 
f 614 647 615 
f 614 646 647 
f 615 648 616 
f 615 647 648 
f 616 649 617 
f 616 648 649 
f 617 650 618 
f 617 649 650 
f 618 651 619 
f 618 650 651 
f 619 652 620 
f 619 651 652 
f 620 653 621 
f 620 652 653 
f 621 654 622 
f 621 653 654 
f 622 655 623 
f 622 654 655 
f 623 656 624 
f 623 655 656 
f 624 657 625 
f 624 656 657 
f 625 658 626 
f 625 657 658 
f 626 659 627 
f 626 658 659 
f 627 660 628 
f 627 659 660 
f 628 661 629 
f 628 660 661 
f 629 662 630 
f 629 661 662 
f 630 663 631 
f 630 662 663 
f 631 664 632 
f 631 663 664 
f 632 665 633 
f 632 664 665 
f 633 666 634 
f 633 665 666 
f 634 667 635 
f 634 666 667 
f 635 668 636 
f 635 667 668 
f 636 669 637 
f 636 668 669 
f 637 670 638 
f 637 669 670 
f 638 671 639 
f 638 670 671 
f 639 672 640 
f 639 671 672 
f 640 641 609 
f 640 672 641 
f 641 674 642 
f 641 673 674 
f 642 675 643 
f 642 674 675 
f 643 676 644 
f 643 675 676 
f 644 677 645 
f 644 676 677 
f 645 678 646 
f 645 677 678 
f 646 679 647 
f 646 678 679 
f 647 680 648 
f 647 679 680 
f 648 681 649 
f 648 680 681 
f 649 682 650 
f 649 681 682 
f 650 683 651 
f 650 682 683 
f 651 684 652 
f 651 683 684 
f 652 685 653 
f 652 684 685 
f 653 686 654 
f 653 685 686 
f 654 687 655 
f 654 686 687 
f 655 688 656 
f 655 687 688 
f 656 689 657 
f 656 688 689 
f 657 690 658 
f 657 689 690 
f 658 691 659 
f 658 690 691 
f 659 692 660 
f 659 691 692 
f 660 693 661 
f 660 692 693 
f 661 694 662 
f 661 693 694 
f 662 695 663 
f 662 694 695 
f 663 696 664 
f 663 695 696 
f 664 697 665 
f 664 696 697 
f 665 698 666 
f 665 697 698 
f 666 699 667 
f 666 698 699 
f 667 700 668 
f 667 699 700 
f 668 701 669 
f 668 700 701 
f 669 702 670 
f 669 701 702 
f 670 703 671 
f 670 702 703 
f 671 704 672 
f 671 703 704 
f 672 673 641 
f 672 704 673 
f 673 706 674 
f 673 705 706 
f 674 707 675 
f 674 706 707 
f 675 708 676 
f 675 707 708 
f 676 709 677 
f 676 708 709 
f 677 710 678 
f 677 709 710 
f 678 711 679 
f 678 710 711 
f 679 712 680 
f 679 711 712 
f 680 713 681 
f 680 712 713 
f 681 714 682 
f 681 713 714 
f 682 715 683 
f 682 714 715 
f 683 716 684 
f 683 715 716 
f 684 717 685 
f 684 716 717 
f 685 718 686 
f 685 717 718 
f 686 719 687 
f 686 718 719 
f 687 720 688 
f 687 719 720 
f 688 721 689 
f 688 720 721 
f 689 722 690 
f 689 721 722 
f 690 723 691 
f 690 722 723 
f 691 724 692 
f 691 723 724 
f 692 725 693 
f 692 724 725 
f 693 726 694 
f 693 725 726 
f 694 727 695 
f 694 726 727 
f 695 728 696 
f 695 727 728 
f 696 729 697 
f 696 728 729 
f 697 730 698 
f 697 729 730 
f 698 731 699 
f 698 730 731 
f 699 732 700 
f 699 731 732 
f 700 733 701 
f 700 732 733 
f 701 734 702 
f 701 733 734 
f 702 735 703 
f 702 734 735 
f 703 736 704 
f 703 735 736 
f 704 705 673 
f 704 736 705 
f 705 738 706 
f 705 737 738 
f 706 739 707 
f 706 738 739 
f 707 740 708 
f 707 739 740 
f 708 741 709 
f 708 740 741 
f 709 742 710 
f 709 741 742 
f 710 743 711 
f 710 742 743 
f 711 744 712 
f 711 743 744 
f 712 745 713 
f 712 744 745 
f 713 746 714 
f 713 745 746 
f 714 747 715 
f 714 746 747 
f 715 748 716 
f 715 747 748 
f 716 749 717 
f 716 748 749 
f 717 750 718 
f 717 749 750 
f 718 751 719 
f 718 750 751 
f 719 752 720 
f 719 751 752 
f 720 753 721 
f 720 752 753 
f 721 754 722 
f 721 753 754 
f 722 755 723 
f 722 754 755 
f 723 756 724 
f 723 755 756 
f 724 757 725 
f 724 756 757 
f 725 758 726 
f 725 757 758 
f 726 759 727 
f 726 758 759 
f 727 760 728 
f 727 759 760 
f 728 761 729 
f 728 760 761 
f 729 762 730 
f 729 761 762 
f 730 763 731 
f 730 762 763 
f 731 764 732 
f 731 763 764 
f 732 765 733 
f 732 764 765 
f 733 766 734 
f 733 765 766 
f 734 767 735 
f 734 766 767 
f 735 768 736 
f 735 767 768 
f 736 737 705 
f 736 768 737 
f 737 770 738 
f 737 769 770 
f 738 771 739 
f 738 770 771 
f 739 772 740 
f 739 771 772 
f 740 773 741 
f 740 772 773 
f 741 774 742 
f 741 773 774 
f 742 775 743 
f 742 774 775 
f 743 776 744 
f 743 775 776 
f 744 777 745 
f 744 776 777 
f 745 778 746 
f 745 777 778 
f 746 779 747 
f 746 778 779 
f 747 780 748 
f 747 779 780 
f 748 781 749 
f 748 780 781 
f 749 782 750 
f 749 781 782 
f 750 783 751 
f 750 782 783 
f 751 784 752 
f 751 783 784 
f 752 785 753 
f 752 784 785 
f 753 786 754 
f 753 785 786 
f 754 787 755 
f 754 786 787 
f 755 788 756 
f 755 787 788 
f 756 789 757 
f 756 788 789 
f 757 790 758 
f 757 789 790 
f 758 791 759 
f 758 790 791 
f 759 792 760 
f 759 791 792 
f 760 793 761 
f 760 792 793 
f 761 794 762 
f 761 793 794 
f 762 795 763 
f 762 794 795 
f 763 796 764 
f 763 795 796 
f 764 797 765 
f 764 796 797 
f 765 798 766 
f 765 797 798 
f 766 799 767 
f 766 798 799 
f 767 800 768 
f 767 799 800 
f 768 769 737 
f 768 800 769 
f 769 802 770 
f 769 801 802 
f 770 803 771 
f 770 802 803 
f 771 804 772 
f 771 803 804 
f 772 805 773 
f 772 804 805 
f 773 806 774 
f 773 805 806 
f 774 807 775 
f 774 806 807 
f 775 808 776 
f 775 807 808 
f 776 809 777 
f 776 808 809 
f 777 810 778 
f 777 809 810 
f 778 811 779 
f 778 810 811 
f 779 812 780 
f 779 811 812 
f 780 813 781 
f 780 812 813 
f 781 814 782 
f 781 813 814 
f 782 815 783 
f 782 814 815 
f 783 816 784 
f 783 815 816 
f 784 817 785 
f 784 816 817 
f 785 818 786 
f 785 817 818 
f 786 819 787 
f 786 818 819 
f 787 820 788 
f 787 819 820 
f 788 821 789 
f 788 820 821 
f 789 822 790 
f 789 821 822 
f 790 823 791 
f 790 822 823 
f 791 824 792 
f 791 823 824 
f 792 825 793 
f 792 824 825 
f 793 826 794 
f 793 825 826 
f 794 827 795 
f 794 826 827 
f 795 828 796 
f 795 827 828 
f 796 829 797 
f 796 828 829 
f 797 830 798 
f 797 829 830 
f 798 831 799 
f 798 830 831 
f 799 832 800 
f 799 831 832 
f 800 801 769 
f 800 832 801 
f 801 834 802 
f 801 833 834 
f 802 835 803 
f 802 834 835 
f 803 836 804 
f 803 835 836 
f 804 837 805 
f 804 836 837 
f 805 838 806 
f 805 837 838 
f 806 839 807 
f 806 838 839 
f 807 840 808 
f 807 839 840 
f 808 841 809 
f 808 840 841 
f 809 842 810 
f 809 841 842 
f 810 843 811 
f 810 842 843 
f 811 844 812 
f 811 843 844 
f 812 845 813 
f 812 844 845 
f 813 846 814 
f 813 845 846 
f 814 847 815 
f 814 846 847 
f 815 848 816 
f 815 847 848 
f 816 849 817 
f 816 848 849 
f 817 850 818 
f 817 849 850 
f 818 851 819 
f 818 850 851 
f 819 852 820 
f 819 851 852 
f 820 853 821 
f 820 852 853 
f 821 854 822 
f 821 853 854 
f 822 855 823 
f 822 854 855 
f 823 856 824 
f 823 855 856 
f 824 857 825 
f 824 856 857 
f 825 858 826 
f 825 857 858 
f 826 859 827 
f 826 858 859 
f 827 860 828 
f 827 859 860 
f 828 861 829 
f 828 860 861 
f 829 862 830 
f 829 861 862 
f 830 863 831 
f 830 862 863 
f 831 864 832 
f 831 863 864 
f 832 833 801 
f 832 864 833 
f 833 866 834 
f 833 865 866 
f 834 867 835 
f 834 866 867 
f 835 868 836 
f 835 867 868 
f 836 869 837 
f 836 868 869 
f 837 870 838 
f 837 869 870 
f 838 871 839 
f 838 870 871 
f 839 872 840 
f 839 871 872 
f 840 873 841 
f 840 872 873 
f 841 874 842 
f 841 873 874 
f 842 875 843 
f 842 874 875 
f 843 876 844 
f 843 875 876 
f 844 877 845 
f 844 876 877 
f 845 878 846 
f 845 877 878 
f 846 879 847 
f 846 878 879 
f 847 880 848 
f 847 879 880 
f 848 881 849 
f 848 880 881 
f 849 882 850 
f 849 881 882 
f 850 883 851 
f 850 882 883 
f 851 884 852 
f 851 883 884 
f 852 885 853 
f 852 884 885 
f 853 886 854 
f 853 885 886 
f 854 887 855 
f 854 886 887 
f 855 888 856 
f 855 887 888 
f 856 889 857 
f 856 888 889 
f 857 890 858 
f 857 889 890 
f 858 891 859 
f 858 890 891 
f 859 892 860 
f 859 891 892 
f 860 893 861 
f 860 892 893 
f 861 894 862 
f 861 893 894 
f 862 895 863 
f 862 894 895 
f 863 896 864 
f 863 895 896 
f 864 865 833 
f 864 896 865 
f 865 898 866 
f 865 897 898 
f 866 899 867 
f 866 898 899 
f 867 900 868 
f 867 899 900 
f 868 901 869 
f 868 900 901 
f 869 902 870 
f 869 901 902 
f 870 903 871 
f 870 902 903 
f 871 904 872 
f 871 903 904 
f 872 905 873 
f 872 904 905 
f 873 906 874 
f 873 905 906 
f 874 907 875 
f 874 906 907 
f 875 908 876 
f 875 907 908 
f 876 909 877 
f 876 908 909 
f 877 910 878 
f 877 909 910 
f 878 911 879 
f 878 910 911 
f 879 912 880 
f 879 911 912 
f 880 913 881 
f 880 912 913 
f 881 914 882 
f 881 913 914 
f 882 915 883 
f 882 914 915 
f 883 916 884 
f 883 915 916 
f 884 917 885 
f 884 916 917 
f 885 918 886 
f 885 917 918 
f 886 919 887 
f 886 918 919 
f 887 920 888 
f 887 919 920 
f 888 921 889 
f 888 920 921 
f 889 922 890 
f 889 921 922 
f 890 923 891 
f 890 922 923 
f 891 924 892 
f 891 923 924 
f 892 925 893 
f 892 924 925 
f 893 926 894 
f 893 925 926 
f 894 927 895 
f 894 926 927 
f 895 928 896 
f 895 927 928 
f 896 897 865 
f 896 928 897 
f 897 930 898 
f 897 929 930 
f 898 931 899 
f 898 930 931 
f 899 932 900 
f 899 931 932 
f 900 933 901 
f 900 932 933 
f 901 934 902 
f 901 933 934 
f 902 935 903 
f 902 934 935 
f 903 936 904 
f 903 935 936 
f 904 937 905 
f 904 936 937 
f 905 938 906 
f 905 937 938 
f 906 939 907 
f 906 938 939 
f 907 940 908 
f 907 939 940 
f 908 941 909 
f 908 940 941 
f 909 942 910 
f 909 941 942 
f 910 943 911 
f 910 942 943 
f 911 944 912 
f 911 943 944 
f 912 945 913 
f 912 944 945 
f 913 946 914 
f 913 945 946 
f 914 947 915 
f 914 946 947 
f 915 948 916 
f 915 947 948 
f 916 949 917 
f 916 948 949 
f 917 950 918 
f 917 949 950 
f 918 951 919 
f 918 950 951 
f 919 952 920 
f 919 951 952 
f 920 953 921 
f 920 952 953 
f 921 954 922 
f 921 953 954 
f 922 955 923 
f 922 954 955 
f 923 956 924 
f 923 955 956 
f 924 957 925 
f 924 956 957 
f 925 958 926 
f 925 957 958 
f 926 959 927 
f 926 958 959 
f 927 960 928 
f 927 959 960 
f 928 929 897 
f 928 960 929 
f 929 962 930 
f 929 961 962 
f 930 963 931 
f 930 962 963 
f 931 964 932 
f 931 963 964 
f 932 965 933 
f 932 964 965 
f 933 966 934 
f 933 965 966 
f 934 967 935 
f 934 966 967 
f 935 968 936 
f 935 967 968 
f 936 969 937 
f 936 968 969 
f 937 970 938 
f 937 969 970 
f 938 971 939 
f 938 970 971 
f 939 972 940 
f 939 971 972 
f 940 973 941 
f 940 972 973 
f 941 974 942 
f 941 973 974 
f 942 975 943 
f 942 974 975 
f 943 976 944 
f 943 975 976 
f 944 977 945 
f 944 976 977 
f 945 978 946 
f 945 977 978 
f 946 979 947 
f 946 978 979 
f 947 980 948 
f 947 979 980 
f 948 981 949 
f 948 980 981 
f 949 982 950 
f 949 981 982 
f 950 983 951 
f 950 982 983 
f 951 984 952 
f 951 983 984 
f 952 985 953 
f 952 984 985 
f 953 986 954 
f 953 985 986 
f 954 987 955 
f 954 986 987 
f 955 988 956 
f 955 987 988 
f 956 989 957 
f 956 988 989 
f 957 990 958 
f 957 989 990 
f 958 991 959 
f 958 990 991 
f 959 992 960 
f 959 991 992 
f 960 961 929 
f 960 992 961 
f 961 994 962 
f 961 993 994 
f 962 995 963 
f 962 994 995 
f 963 996 964 
f 963 995 996 
f 964 997 965 
f 964 996 997 
f 965 998 966 
f 965 997 998 
f 966 999 967 
f 966 998 999 
f 967 1000 968 
f 967 999 1000 
f 968 1001 969 
f 968 1000 1001 
f 969 1002 970 
f 969 1001 1002 
f 970 1003 971 
f 970 1002 1003 
f 971 1004 972 
f 971 1003 1004 
f 972 1005 973 
f 972 1004 1005 
f 973 1006 974 
f 973 1005 1006 
f 974 1007 975 
f 974 1006 1007 
f 975 1008 976 
f 975 1007 1008 
f 976 1009 977 
f 976 1008 1009 
f 977 1010 978 
f 977 1009 1010 
f 978 1011 979 
f 978 1010 1011 
f 979 1012 980 
f 979 1011 1012 
f 980 1013 981 
f 980 1012 1013 
f 981 1014 982 
f 981 1013 1014 
f 982 1015 983 
f 982 1014 1015 
f 983 1016 984 
f 983 1015 1016 
f 984 1017 985 
f 984 1016 1017 
f 985 1018 986 
f 985 1017 1018 
f 986 1019 987 
f 986 1018 1019 
f 987 1020 988 
f 987 1019 1020 
f 988 1021 989 
f 988 1020 1021 
f 989 1022 990 
f 989 1021 1022 
f 990 1023 991 
f 990 1022 1023 
f 991 1024 992 
f 991 1023 1024 
f 992 993 961 
f 992 1024 993 
f 993 1026 994 
f 993 1025 1026 
f 994 1027 995 
f 994 1026 1027 
f 995 1028 996 
f 995 1027 1028 
f 996 1029 997 
f 996 1028 1029 
f 997 1030 998 
f 997 1029 1030 
f 998 1031 999 
f 998 1030 1031 
f 999 1032 1000 
f 999 1031 1032 
f 1000 1033 1001 
f 1000 1032 1033 
f 1001 1034 1002 
f 1001 1033 1034 
f 1002 1035 1003 
f 1002 1034 1035 
f 1003 1036 1004 
f 1003 1035 1036 
f 1004 1037 1005 
f 1004 1036 1037 
f 1005 1038 1006 
f 1005 1037 1038 
f 1006 1039 1007 
f 1006 1038 1039 
f 1007 1040 1008 
f 1007 1039 1040 
f 1008 1041 1009 
f 1008 1040 1041 
f 1009 1042 1010 
f 1009 1041 1042 
f 1010 1043 1011 
f 1010 1042 1043 
f 1011 1044 1012 
f 1011 1043 1044 
f 1012 1045 1013 
f 1012 1044 1045 
f 1013 1046 1014 
f 1013 1045 1046 
f 1014 1047 1015 
f 1014 1046 1047 
f 1015 1048 1016 
f 1015 1047 1048 
f 1016 1049 1017 
f 1016 1048 1049 
f 1017 1050 1018 
f 1017 1049 1050 
f 1018 1051 1019 
f 1018 1050 1051 
f 1019 1052 1020 
f 1019 1051 1052 
f 1020 1053 1021 
f 1020 1052 1053 
f 1021 1054 1022 
f 1021 1053 1054 
f 1022 1055 1023 
f 1022 1054 1055 
f 1023 1056 1024 
f 1023 1055 1056 
f 1024 1025 993 
f 1024 1056 1025 
f 1025 1058 1026 
f 1025 1057 1058 
f 1026 1059 1027 
f 1026 1058 1059 
f 1027 1060 1028 
f 1027 1059 1060 
f 1028 1061 1029 
f 1028 1060 1061 
f 1029 1062 1030 
f 1029 1061 1062 
f 1030 1063 1031 
f 1030 1062 1063 
f 1031 1064 1032 
f 1031 1063 1064 
f 1032 1065 1033 
f 1032 1064 1065 
f 1033 1066 1034 
f 1033 1065 1066 
f 1034 1067 1035 
f 1034 1066 1067 
f 1035 1068 1036 
f 1035 1067 1068 
f 1036 1069 1037 
f 1036 1068 1069 
f 1037 1070 1038 
f 1037 1069 1070 
f 1038 1071 1039 
f 1038 1070 1071 
f 1039 1072 1040 
f 1039 1071 1072 
f 1040 1073 1041 
f 1040 1072 1073 
f 1041 1074 1042 
f 1041 1073 1074 
f 1042 1075 1043 
f 1042 1074 1075 
f 1043 1076 1044 
f 1043 1075 1076 
f 1044 1077 1045 
f 1044 1076 1077 
f 1045 1078 1046 
f 1045 1077 1078 
f 1046 1079 1047 
f 1046 1078 1079 
f 1047 1080 1048 
f 1047 1079 1080 
f 1048 1081 1049 
f 1048 1080 1081 
f 1049 1082 1050 
f 1049 1081 1082 
f 1050 1083 1051 
f 1050 1082 1083 
f 1051 1084 1052 
f 1051 1083 1084 
f 1052 1085 1053 
f 1052 1084 1085 
f 1053 1086 1054 
f 1053 1085 1086 
f 1054 1087 1055 
f 1054 1086 1087 
f 1055 1088 1056 
f 1055 1087 1088 
f 1056 1057 1025 
f 1056 1088 1057 
f 1057 1090 1058 
f 1057 1089 1090 
f 1058 1091 1059 
f 1058 1090 1091 
f 1059 1092 1060 
f 1059 1091 1092 
f 1060 1093 1061 
f 1060 1092 1093 
f 1061 1094 1062 
f 1061 1093 1094 
f 1062 1095 1063 
f 1062 1094 1095 
f 1063 1096 1064 
f 1063 1095 1096 
f 1064 1097 1065 
f 1064 1096 1097 
f 1065 1098 1066 
f 1065 1097 1098 
f 1066 1099 1067 
f 1066 1098 1099 
f 1067 1100 1068 
f 1067 1099 1100 
f 1068 1101 1069 
f 1068 1100 1101 
f 1069 1102 1070 
f 1069 1101 1102 
f 1070 1103 1071 
f 1070 1102 1103 
f 1071 1104 1072 
f 1071 1103 1104 
f 1072 1105 1073 
f 1072 1104 1105 
f 1073 1106 1074 
f 1073 1105 1106 
f 1074 1107 1075 
f 1074 1106 1107 
f 1075 1108 1076 
f 1075 1107 1108 
f 1076 1109 1077 
f 1076 1108 1109 
f 1077 1110 1078 
f 1077 1109 1110 
f 1078 1111 1079 
f 1078 1110 1111 
f 1079 1112 1080 
f 1079 1111 1112 
f 1080 1113 1081 
f 1080 1112 1113 
f 1081 1114 1082 
f 1081 1113 1114 
f 1082 1115 1083 
f 1082 1114 1115 
f 1083 1116 1084 
f 1083 1115 1116 
f 1084 1117 1085 
f 1084 1116 1117 
f 1085 1118 1086 
f 1085 1117 1118 
f 1086 1119 1087 
f 1086 1118 1119 
f 1087 1120 1088 
f 1087 1119 1120 
f 1088 1089 1057 
f 1088 1120 1089 
f 1089 1122 1090 
f 1089 1121 1122 
f 1090 1123 1091 
f 1090 1122 1123 
f 1091 1124 1092 
f 1091 1123 1124 
f 1092 1125 1093 
f 1092 1124 1125 
f 1093 1126 1094 
f 1093 1125 1126 
f 1094 1127 1095 
f 1094 1126 1127 
f 1095 1128 1096 
f 1095 1127 1128 
f 1096 1129 1097 
f 1096 1128 1129 
f 1097 1130 1098 
f 1097 1129 1130 
f 1098 1131 1099 
f 1098 1130 1131 
f 1099 1132 1100 
f 1099 1131 1132 
f 1100 1133 1101 
f 1100 1132 1133 
f 1101 1134 1102 
f 1101 1133 1134 
f 1102 1135 1103 
f 1102 1134 1135 
f 1103 1136 1104 
f 1103 1135 1136 
f 1104 1137 1105 
f 1104 1136 1137 
f 1105 1138 1106 
f 1105 1137 1138 
f 1106 1139 1107 
f 1106 1138 1139 
f 1107 1140 1108 
f 1107 1139 1140 
f 1108 1141 1109 
f 1108 1140 1141 
f 1109 1142 1110 
f 1109 1141 1142 
f 1110 1143 1111 
f 1110 1142 1143 
f 1111 1144 1112 
f 1111 1143 1144 
f 1112 1145 1113 
f 1112 1144 1145 
f 1113 1146 1114 
f 1113 1145 1146 
f 1114 1147 1115 
f 1114 1146 1147 
f 1115 1148 1116 
f 1115 1147 1148 
f 1116 1149 1117 
f 1116 1148 1149 
f 1117 1150 1118 
f 1117 1149 1150 
f 1118 1151 1119 
f 1118 1150 1151 
f 1119 1152 1120 
f 1119 1151 1152 
f 1120 1121 1089 
f 1120 1152 1121 
