# Branch
v 267.317 -32.182 -65.5062
v 267.358 -32.199 -65.4759
v 267.394 -32.21 -65.4383
v 267.424 -32.2147 -65.3948
v 267.447 -32.2128 -65.347
v 267.463 -32.2045 -65.2968
v 267.47 -32.19 -65.2461
v 267.468 -32.17 -65.1968
v 267.458 -32.1451 -65.1509
v 267.439 -32.1164 -65.1101
v 267.413 -32.0849 -65.076
v 267.381 -32.0519 -65.0499
v 267.343 -32.0185 -65.0328
v 267.301 -31.9862 -65.0253
v 267.258 -31.9562 -65.0278
v 267.213 -31.9295 -65.0401
v 267.17 -31.9073 -65.0618
v 267.13 -31.8903 -65.092
v 267.094 -31.8793 -65.1296
v 267.063 -31.8746 -65.1732
v 267.04 -31.8765 -65.221
v 267.025 -31.8848 -65.2712
v 267.018 -31.8992 -65.3219
v 267.019 -31.9193 -65.3712
v 267.029 -31.9442 -65.4171
v 267.048 -31.9729 -65.4579
v 267.074 -32.0044 -65.492
v 267.106 -32.0374 -65.5181
v 267.144 -32.0707 -65.5352
v 267.186 -32.103 -65.5427
v 267.23 -32.1331 -65.5402
v 267.274 -32.1598 -65.5279
v 268.511 -30.4155 -66.0929
v 268.551 -30.4327 -66.0627
v 268.586 -30.4447 -66.025
v 268.615 -30.4509 -65.9812
v 268.637 -30.4512 -65.9329
v 268.651 -30.4456 -65.8822
v 268.656 -30.4342 -65.8308
v 268.652 -30.4175 -65.7807
v 268.639 -30.3962 -65.734
v 268.619 -30.371 -65.6923
v 268.591 -30.3429 -65.6573
v 268.556 -30.313 -65.6304
v 268.517 -30.2825 -65.6125
v 268.474 -30.2525 -65.6044
v 268.43 -30.2242 -65.6063
v 268.385 -30.1986 -65.6182
v 268.342 -30.1768 -65.6397
v 268.302 -30.1596 -65.6699
v 268.267 -30.1476 -65.7076
v 268.238 -30.1414 -65.7514
v 268.216 -30.141 -65.7996
v 268.203 -30.1467 -65.8504
v 268.198 -30.1581 -65.9018
v 268.201 -30.1748 -65.9519
v 268.214 -30.1961 -65.9986
v 268.234 -30.2213 -66.0403
v 268.262 -30.2494 -66.0753
v 268.297 -30.2793 -66.1022
v 268.336 -30.3098 -66.1201
v 268.379 -30.3398 -66.1282
v 268.424 -30.3681 -66.1263
v 268.468 -30.3937 -66.1143
v 269.623 -28.6202 -66.5196
v 269.663 -28.6377 -66.4895
v 269.697 -28.6507 -66.4518
v 269.725 -28.6586 -66.4078
v 269.745 -28.6612 -66.3593
v 269.757 -28.6583 -66.3082
v 269.76 -28.65 -66.2564
v 269.754 -28.6367 -66.2058
v 269.739 -28.6189 -66.1586
v 269.717 -28.5973 -66.1163
v 269.687 -28.5726 -66.0808
v 269.651 -28.5459 -66.0533
v 269.61 -28.5181 -66.0349
v 269.567 -28.4904 -66.0263
v 269.521 -28.4638 -66.0279
v 269.476 -28.4393 -66.0395
v 269.433 -28.4178 -66.0608
v 269.394 -28.4003 -66.0909
v 269.36 -28.3873 -66.1287
v 269.332 -28.3794 -66.1726
v 269.312 -28.3768 -66.2211
v 269.3 -28.3797 -66.2722
v 269.297 -28.388 -66.3241
v 269.303 -28.4013 -66.3746
v 269.317 -28.4191 -66.4219
v 269.34 -28.4407 -66.4641
v 269.37 -28.4654 -66.4996
v 269.406 -28.4921 -66.5271
v 269.446 -28.5199 -66.5455
v 269.49 -28.5476 -66.5541
v 269.535 -28.5742 -66.5525
v 269.58 -28.5987 -66.5409
v 270.661 -26.8012 -66.7965
v 270.7 -26.8191 -66.7665
v 270.733 -26.8332 -66.7288
v 270.76 -26.8428 -66.6848
v 270.779 -26.8476 -66.6363
v 270.789 -26.8474 -66.585
v 270.79 -26.8423 -66.5331
v 270.783 -26.8323 -66.4823
v 270.766 -26.818 -66.4348
v 270.742 -26.7998 -66.3923
v 270.71 -26.7785 -66.3565
v 270.673 -26.7548 -66.3287
v 270.631 -26.7297 -66.3101
v 270.586 -26.7041 -66.3012
v 270.54 -26.6791 -66.3026
v 270.495 -26.6556 -66.314
v 270.452 -26.6344 -66.3351
v 270.413 -26.6165 -66.3651
v 270.38 -26.6025 -66.4028
v 270.354 -26.5928 -66.4468
v 270.335 -26.588 -66.4953
v 270.325 -26.5882 -66.5466
v 270.323 -26.5934 -66.5986
v 270.331 -26.6033 -66.6493
v 270.347 -26.6177 -66.6968
v 270.372 -26.6358 -66.7393
v 270.403 -26.6572 -66.7751
v 270.441 -26.6809 -66.8029
v 270.482 -26.706 -66.8216
v 270.527 -26.7315 -66.8304
v 270.573 -26.7565 -66.8291
v 270.618 -26.7801 -66.8176
v 271.632 -24.9636 -66.9337
v 271.671 -24.982 -66.9038
v 271.703 -24.9971 -66.8662
v 271.729 -25.0084 -66.8224
v 271.746 -25.0154 -66.774
v 271.755 -25.0179 -66.7228
v 271.755 -25.0157 -66.6709
v 271.745 -25.009 -66.6203
v 271.727 -24.998 -66.5728
v 271.701 -24.9831 -66.5303
v 271.669 -24.9649 -66.4945
v 271.63 -24.9441 -66.4667
v 271.587 -24.9215 -66.4479
v 271.542 -24.898 -66.439
v 271.495 -24.8744 -66.4402
v 271.45 -24.8517 -66.4515
v 271.407 -24.8308 -66.4725
v 271.369 -24.8124 -66.5024
v 271.336 -24.7972 -66.54
v 271.311 -24.786 -66.5838
v 271.293 -24.7789 -66.6322
v 271.285 -24.7765 -66.6834
v 271.285 -24.7786 -66.7353
v 271.294 -24.7854 -66.7859
v 271.312 -24.7964 -66.8334
v 271.338 -24.8113 -66.8759
v 271.371 -24.8295 -66.9117
v 271.41 -24.8503 -66.9396
v 271.453 -24.8729 -66.9583
v 271.498 -24.8964 -66.9672
v 271.544 -24.92 -66.966
v 271.59 -24.9426 -66.9547
v 272.545 -23.1123 -66.9415
v 272.583 -23.1312 -66.9118
v 272.614 -23.1474 -66.8744
v 272.639 -23.1603 -66.8308
v 272.655 -23.1694 -66.7827
v 272.663 -23.1744 -66.7318
v 272.661 -23.1751 -66.6802
v 272.65 -23.1714 -66.6298
v 272.631 -23.1635 -66.5826
v 272.604 -23.1516 -66.5404
v 272.57 -23.1363 -66.5047
v 272.53 -23.1182 -66.4771
v 272.486 -23.0979 -66.4584
v 272.44 -23.0761 -66.4495
v 272.394 -23.0539 -66.4508
v 272.348 -23.0319 -66.462
v 272.306 -23.011 -66.4829
v 272.268 -22.9922 -66.5126
v 272.236 -22.9759 -66.5499
v 272.212 -22.963 -66.5935
v 272.196 -22.9539 -66.6416
v 272.188 -22.9489 -66.6925
v 272.19 -22.9482 -66.7441
v 272.2 -22.9519 -66.7945
v 272.22 -22.9598 -66.8417
v 272.247 -22.9717 -66.884
v 272.281 -22.987 -66.9196
v 272.321 -23.0051 -66.9473
v 272.364 -23.0255 -66.9659
v 272.41 -23.0472 -66.9748
v 272.457 -23.0695 -66.9736
v 272.502 -23.0914 -66.9623
v 273.407 -21.2521 -66.8302
v 273.444 -21.2715 -66.8007
v 273.475 -21.2888 -66.7636
v 273.499 -21.3033 -66.7204
v 273.514 -21.3144 -66.6727
v 273.52 -21.3218 -66.6222
v 273.517 -21.3251 -66.5711
v 273.505 -21.3241 -66.5212
v 273.485 -21.319 -66.4744
v 273.456 -21.31 -66.4325
v 273.421 -21.2973 -66.3972
v 273.381 -21.2815 -66.3699
v 273.337 -21.2632 -66.3515
v 273.29 -21.2431 -66.3427
v 273.243 -21.2219 -66.344
v 273.198 -21.2004 -66.3552
v 273.156 -21.1796 -66.3759
v 273.119 -21.1602 -66.4054
v 273.088 -21.1429 -66.4425
v 273.064 -21.1284 -66.4857
v 273.049 -21.1173 -66.5334
v 273.043 -21.1099 -66.5839
v 273.045 -21.1066 -66.635
v 273.057 -21.1076 -66.6849
v 273.078 -21.1127 -66.7317
v 273.106 -21.1217 -66.7736
v 273.141 -21.1344 -66.8089
v 273.182 -21.1502 -66.8362
v 273.226 -21.1685 -66.8546
v 273.272 -21.1887 -66.8634
v 273.319 -21.2098 -66.8621
v 273.365 -21.2313 -66.8509
v 274.226 -19.3878 -66.6101
v 274.262 -19.4078 -66.5809
v 274.293 -19.4262 -66.5442
v 274.316 -19.4421 -66.5014
v 274.33 -19.4551 -66.4542
v 274.335 -19.4646 -66.4043
v 274.331 -19.4702 -66.3537
v 274.318 -19.4718 -66.3044
v 274.297 -19.4693 -66.2581
v 274.268 -19.4627 -66.2168
v 274.232 -19.4523 -66.182
v 274.191 -19.4386 -66.155
v 274.146 -19.422 -66.1369
v 274.099 -19.4031 -66.1283
v 274.052 -19.3828 -66.1297
v 274.007 -19.3618 -66.1409
v 273.965 -19.3409 -66.1615
v 273.929 -19.3209 -66.1907
v 273.898 -19.3025 -66.2274
v 273.876 -19.2866 -66.2702
v 273.861 -19.2736 -66.3174
v 273.856 -19.2641 -66.3673
v 273.86 -19.2584 -66.4179
v 273.873 -19.2569 -66.4672
v 273.894 -19.2594 -66.5135
v 273.924 -19.266 -66.5548
v 273.959 -19.2764 -66.5896
v 274.001 -19.2901 -66.6166
v 274.045 -19.3067 -66.6347
v 274.092 -19.3255 -66.6432
v 274.139 -19.3459 -66.6419
v 274.184 -19.3669 -66.6307
v 275.01 -17.524 -66.2916
v 275.046 -17.5447 -66.2627
v 275.076 -17.564 -66.2264
v 275.098 -17.5814 -66.1841
v 275.111 -17.5961 -66.1374
v 275.116 -17.6075 -66.0882
v 275.111 -17.6153 -66.0383
v 275.097 -17.619 -65.9896
v 275.075 -17.6187 -65.944
v 275.045 -17.6142 -65.9033
v 275.009 -17.6058 -65.869
v 274.967 -17.5938 -65.8424
v 274.922 -17.5787 -65.8247
v 274.875 -17.5609 -65.8163
v 274.828 -17.5413 -65.8177
v 274.783 -17.5205 -65.8289
v 274.742 -17.4994 -65.8493
v 274.706 -17.4788 -65.8782
v 274.676 -17.4594 -65.9145
v 274.654 -17.4421 -65.9568
v 274.641 -17.4274 -66.0035
v 274.636 -17.4159 -66.0527
v 274.641 -17.4082 -66.1027
v 274.655 -17.4044 -66.1513
v 274.677 -17.4047 -66.1969
v 274.707 -17.4092 -66.2376
v 274.743 -17.4176 -66.2719
v 274.785 -17.4296 -66.2985
v 274.83 -17.4448 -66.3163
v 274.877 -17.4625 -66.3246
v 274.924 -17.4822 -66.3232
v 274.969 -17.5029 -66.312
v 275.768 -15.6654 -65.8849
v 275.803 -15.6867 -65.8563
v 275.832 -15.707 -65.8205
v 275.854 -15.7257 -65.7787
v 275.866 -15.7419 -65.7327
v 275.87 -15.7551 -65.6841
v 275.865 -15.7647 -65.6349
v 275.85 -15.7704 -65.5869
v 275.827 -15.7719 -65.542
v 275.797 -15.7693 -65.5019
v 275.76 -15.7625 -65.4682
v 275.718 -15.7519 -65.4421
v 275.673 -15.7379 -65.4246
v 275.626 -15.721 -65.4165
v 275.579 -15.7018 -65.418
v 275.534 -15.6811 -65.429
v 275.493 -15.6597 -65.4492
v 275.458 -15.6385 -65.4778
v 275.429 -15.6181 -65.5137
v 275.407 -15.5995 -65.5554
v 275.395 -15.5833 -65.6015
v 275.391 -15.5701 -65.6501
v 275.396 -15.5605 -65.6993
v 275.411 -15.5548 -65.7473
v 275.434 -15.5532 -65.7922
v 275.464 -15.5559 -65.8323
v 275.501 -15.5626 -65.866
v 275.543 -15.5732 -65.8921
v 275.588 -15.5873 -65.9096
v 275.635 -15.6042 -65.9177
v 275.682 -15.6234 -65.9162
v 275.727 -15.644 -65.9051
v 276.506 -13.8165 -65.4003
v 276.542 -13.8384 -65.3721
v 276.57 -13.8597 -65.3367
v 276.591 -13.8796 -65.2955
v 276.603 -13.8972 -65.2501
v 276.606 -13.9118 -65.2022
v 276.6 -13.9231 -65.1537
v 276.585 -13.9304 -65.1065
v 276.561 -13.9335 -65.0622
v 276.53 -13.9323 -65.0228
v 276.493 -13.9269 -64.9895
v 276.451 -13.9174 -64.9639
v 276.406 -13.9042 -64.9467
v 276.359 -13.8879 -64.9387
v 276.313 -13.869 -64.9403
v 276.268 -13.8482 -64.9512
v 276.228 -13.8265 -64.9712
v 276.192 -13.8045 -64.9994
v 276.164 -13.7832 -65.0348
v 276.143 -13.7634 -65.076
v 276.131 -13.7458 -65.1213
v 276.128 -13.7311 -65.1692
v 276.134 -13.7199 -65.2177
v 276.149 -13.7126 -65.265
v 276.173 -13.7095 -65.3092
v 276.204 -13.7107 -65.3487
v 276.241 -13.7161 -65.3819
v 276.283 -13.7256 -65.4076
v 276.328 -13.7388 -65.4248
v 276.375 -13.7551 -65.4327
v 276.422 -13.774 -65.4312
v 276.466 -13.7947 -65.4203
v 277.234 -11.9818 -64.8479
v 277.269 -12.0044 -64.8201
v 277.297 -12.0266 -64.7852
v 277.317 -12.0476 -64.7446
v 277.329 -12.0664 -64.6999
v 277.331 -12.0824 -64.6527
v 277.324 -12.0949 -64.6049
v 277.309 -12.1036 -64.5583
v 277.285 -12.108 -64.5147
v 277.254 -12.108 -64.4758
v 277.216 -12.1036 -64.4431
v 277.174 -12.0949 -64.4178
v 277.129 -12.0823 -64.4009
v 277.083 -12.0663 -64.393
v 277.036 -12.0474 -64.3945
v 276.992 -12.0265 -64.4053
v 276.952 -12.0043 -64.425
v 276.918 -11.9817 -64.4528
v 276.89 -11.9595 -64.4877
v 276.87 -11.9385 -64.5283
v 276.858 -11.9197 -64.573
v 276.856 -11.9037 -64.6202
v 276.862 -11.8912 -64.668
v 276.878 -11.8825 -64.7146
v 276.902 -11.8781 -64.7582
v 276.933 -11.8781 -64.7971
v 276.97 -11.8825 -64.8298
v 277.012 -11.8912 -64.8551
v 277.058 -11.9038 -64.872
v 277.104 -11.9198 -64.8799
v 277.15 -11.9387 -64.8784
v 277.194 -11.9596 -64.8676
v 277.96 -10.1658 -64.2379
v 277.994 -10.1891 -64.2105
v 278.021 -10.2122 -64.1762
v 278.041 -10.2341 -64.1362
v 278.052 -10.254 -64.0921
v 278.054 -10.2712 -64.0456
v 278.047 -10.2848 -63.9985
v 278.031 -10.2946 -63.9525
v 278.007 -10.3 -63.9095
v 277.975 -10.3008 -63.8711
v 277.938 -10.2971 -63.8388
v 277.896 -10.289 -63.8138
v 277.851 -10.2767 -63.7971
v 277.804 -10.2608 -63.7893
v 277.758 -10.2418 -63.7907
v 277.715 -10.2206 -63.8013
v 277.675 -10.1978 -63.8206
v 277.641 -10.1745 -63.848
v 277.614 -10.1514 -63.8823
v 277.594 -10.1295 -63.9223
v 277.583 -10.1096 -63.9664
v 277.581 -10.0925 -64.0129
v 277.589 -10.0788 -64.06
v 277.604 -10.0691 -64.106
v 277.629 -10.0637 -64.149
v 277.66 -10.0628 -64.1874
v 277.697 -10.0665 -64.2197
v 277.739 -10.0747 -64.2447
v 277.785 -10.0869 -64.2614
v 277.831 -10.1028 -64.2692
v 277.877 -10.1218 -64.2678
v 277.92 -10.143 -64.2572
v 278.688 -8.37046 -63.5791
v 278.722 -8.39449 -63.5522
v 278.749 -8.41836 -63.5184
v 278.768 -8.44115 -63.479
v 278.778 -8.46198 -63.4355
v 278.78 -8.48005 -63.3897
v 278.772 -8.49468 -63.3432
v 278.756 -8.50529 -63.2978
v 278.732 -8.51148 -63.2554
v 278.7 -8.51301 -63.2174
v 278.663 -8.50982 -63.1855
v 278.621 -8.50204 -63.1608
v 278.576 -8.48996 -63.1442
v 278.53 -8.47406 -63.1364
v 278.485 -8.45493 -63.1377
v 278.442 -8.43331 -63.148
v 278.403 -8.41004 -63.167
v 278.369 -8.38601 -63.1939
v 278.342 -8.36214 -63.2277
v 278.323 -8.33935 -63.2671
v 278.313 -8.31852 -63.3106
v 278.311 -8.30045 -63.3564
v 278.319 -8.28582 -63.4029
v 278.335 -8.27521 -63.4483
v 278.359 -8.26902 -63.4907
v 278.391 -8.26749 -63.5287
v 278.428 -8.27068 -63.5606
v 278.47 -8.27846 -63.5854
v 278.515 -8.29053 -63.6019
v 278.561 -8.30644 -63.6097
v 278.606 -8.32557 -63.6084
v 278.649 -8.34719 -63.5981
v 279.424 -6.59492 -62.8786
v 279.457 -6.61955 -62.8522
v 279.483 -6.64412 -62.8189
v 279.502 -6.66766 -62.7801
v 279.512 -6.68928 -62.7372
v 279.513 -6.70814 -62.692
v 279.505 -6.72352 -62.6461
v 279.489 -6.73484 -62.6013
v 279.464 -6.74165 -62.5593
v 279.433 -6.74369 -62.5218
v 279.395 -6.74088 -62.4902
v 279.353 -6.73334 -62.4656
v 279.309 -6.72134 -62.4492
v 279.263 -6.70536 -62.4414
v 279.218 -6.68601 -62.4425
v 279.175 -6.66403 -62.4526
v 279.137 -6.64026 -62.4713
v 279.104 -6.61563 -62.4977
v 279.077 -6.59106 -62.531
v 279.059 -6.56752 -62.5698
v 279.049 -6.5459 -62.6127
v 279.048 -6.52704 -62.6579
v 279.056 -6.51165 -62.7038
v 279.072 -6.50034 -62.7486
v 279.096 -6.49353 -62.7906
v 279.128 -6.49149 -62.8281
v 279.165 -6.4943 -62.8597
v 279.207 -6.50184 -62.8842
v 279.252 -6.51384 -62.9007
v 279.297 -6.52982 -62.9085
v 279.342 -6.54917 -62.9074
v 279.385 -6.57115 -62.8973
v 280.168 -4.83808 -62.1435
v 280.201 -4.86326 -62.1175
v 280.227 -4.88842 -62.0847
v 280.245 -4.9126 -62.0464
v 280.255 -4.93487 -62.0041
v 280.255 -4.95436 -61.9595
v 280.247 -4.97034 -61.9141
v 280.231 -4.98219 -61.8698
v 280.206 -4.98944 -61.8283
v 280.175 -4.99183 -61.7911
v 280.138 -4.98926 -61.7598
v 280.096 -4.98183 -61.7354
v 280.052 -4.96983 -61.719
v 280.006 -4.95371 -61.7111
v 279.962 -4.9341 -61.7121
v 279.919 -4.91175 -61.722
v 279.881 -4.88752 -61.7403
v 279.849 -4.86234 -61.7663
v 279.823 -4.83717 -61.7991
v 279.805 -4.81299 -61.8374
v 279.795 -4.79073 -61.8797
v 279.794 -4.77123 -61.9243
v 279.802 -4.75525 -61.9697
v 279.819 -4.74341 -62.014
v 279.843 -4.73615 -62.0555
v 279.875 -4.73376 -62.0927
v 279.912 -4.73633 -62.124
v 279.954 -4.74376 -62.1484
v 279.998 -4.75577 -62.1648
v 280.043 -4.77188 -62.1727
v 280.088 -4.79149 -62.1717
v 280.13 -4.81385 -62.1618
v 280.925 -3.09888 -61.3808
v 280.958 -3.12454 -61.3552
v 280.983 -3.15022 -61.3228
v 281.001 -3.17492 -61.2851
v 281.01 -3.1977 -61.2433
v 281.011 -3.21768 -61.1991
v 281.002 -3.23408 -61.1542
v 280.986 -3.2463 -61.1104
v 280.961 -3.25384 -61.0692
v 280.93 -3.25642 -61.0324
v 280.893 -3.25395 -61.0012
v 280.851 -3.24652 -60.977
v 280.807 -3.23441 -60.9606
v 280.762 -3.21809 -60.9526
v 280.718 -3.19818 -60.9535
v 280.676 -3.17546 -60.963
v 280.639 -3.15079 -60.981
v 280.607 -3.12512 -61.0066
v 280.581 -3.09945 -61.0389
v 280.563 -3.07474 -61.0767
v 280.554 -3.05197 -61.1185
v 280.554 -3.03199 -61.1626
v 280.562 -3.01558 -61.2075
v 280.578 -3.00337 -61.2514
v 280.603 -2.99583 -61.2925
v 280.634 -2.99324 -61.3294
v 280.671 -2.99571 -61.3605
v 280.713 -3.00315 -61.3848
v 280.757 -3.01526 -61.4012
v 280.802 -3.03158 -61.4091
v 280.846 -3.05148 -61.4083
v 280.888 -3.07421 -61.3987
v 281.698 -1.37624 -60.5974
v 281.729 -1.40233 -60.5721
v 281.754 -1.42844 -60.5403
v 281.772 -1.45355 -60.5029
v 281.781 -1.47671 -60.4616
v 281.781 -1.49703 -60.4179
v 281.773 -1.51371 -60.3734
v 281.756 -1.52613 -60.33
v 281.732 -1.5338 -60.2891
v 281.7 -1.53644 -60.2525
v 281.664 -1.53393 -60.2215
v 281.623 -1.52638 -60.1973
v 281.579 -1.51407 -60.1809
v 281.534 -1.49748 -60.1728
v 281.491 -1.47725 -60.1734
v 281.449 -1.45415 -60.1827
v 281.412 -1.42907 -60.2003
v 281.38 -1.40298 -60.2255
v 281.355 -1.37687 -60.2574
v 281.338 -1.35176 -60.2947
v 281.329 -1.3286 -60.336
v 281.328 -1.30829 -60.3798
v 281.337 -1.2916 -60.4242
v 281.354 -1.27918 -60.4677
v 281.378 -1.27151 -60.5085
v 281.409 -1.26887 -60.5452
v 281.446 -1.27138 -60.5762
v 281.487 -1.27893 -60.6003
v 281.531 -1.29124 -60.6168
v 281.575 -1.30783 -60.6249
v 281.619 -1.32806 -60.6242
v 281.66 -1.35116 -60.6149
v 282.488 0.330898 -59.8002
v 282.519 0.304432 -59.7754
v 282.544 0.27798 -59.7439
v 282.561 0.252557 -59.707
v 282.57 0.229141 -59.6661
v 282.57 0.208631 -59.6228
v 282.562 0.191817 -59.5787
v 282.545 0.179343 -59.5355
v 282.521 0.171689 -59.4949
v 282.49 0.16915 -59.4584
v 282.453 0.171822 -59.4275
v 282.412 0.179605 -59.4033
v 282.369 0.192197 -59.3868
v 282.325 0.209115 -59.3786
v 282.282 0.22971 -59.379
v 282.241 0.253189 -59.388
v 282.204 0.278651 -59.4052
v 282.173 0.305117 -59.4301
v 282.148 0.331569 -59.4615
v 282.131 0.356992 -59.4984
v 282.122 0.380408 -59.5394
v 282.122 0.400917 -59.5827
v 282.13 0.417732 -59.6268
v 282.147 0.430206 -59.67
v 282.171 0.43786 -59.7106
v 282.202 0.440399 -59.7471
v 282.239 0.437726 -59.778
v 282.28 0.429944 -59.8021
v 282.323 0.417352 -59.8187
v 282.367 0.400434 -59.8269
v 282.41 0.379839 -59.8265
v 282.451 0.35636 -59.8175
v 283.299 2.0236 -58.9964
v 283.33 1.99682 -58.9719
v 283.355 1.97009 -58.9408
v 283.371 1.94447 -58.9042
v 283.38 1.92091 -58.8637
v 283.38 1.90034 -58.8207
v 283.372 1.88354 -58.7768
v 283.355 1.87116 -58.7339
v 283.331 1.86367 -58.6934
v 283.3 1.86136 -58.6571
v 283.264 1.86433 -58.6262
v 283.224 1.87245 -58.602
v 283.181 1.88541 -58.5853
v 283.137 1.90272 -58.5769
v 283.095 1.92371 -58.5771
v 283.054 1.94757 -58.5858
v 283.018 1.97339 -58.6027
v 282.987 2.00018 -58.6272
v 282.963 2.0269 -58.6583
v 282.946 2.05253 -58.6948
v 282.937 2.07608 -58.7354
v 282.937 2.09665 -58.7784
v 282.945 2.11345 -58.8222
v 282.962 2.12583 -58.8652
v 282.986 2.13332 -58.9056
v 283.017 2.13563 -58.942
v 283.053 2.13267 -58.9729
v 283.093 2.12455 -58.9971
v 283.136 2.11158 -59.0137
v 283.18 2.09427 -59.0221
v 283.223 2.07329 -59.022
v 283.263 2.04942 -59.0133
v 284.134 3.70293 -58.1927
v 284.165 3.67588 -58.1686
v 284.189 3.64896 -58.1378
v 284.206 3.62322 -58.1016
v 284.214 3.59965 -58.0613
v 284.214 3.57915 -58.0185
v 284.206 3.5625 -57.9749
v 284.19 3.55035 -57.9321
v 284.166 3.54317 -57.8918
v 284.135 3.54123 -57.8554
v 284.099 3.54461 -57.8245
v 284.06 3.55317 -57.8002
v 284.017 3.56659 -57.7834
v 283.974 3.58434 -57.7748
v 283.932 3.60576 -57.7747
v 283.892 3.63001 -57.7831
v 283.856 3.65617 -57.7997
v 283.826 3.68323 -57.8238
v 283.802 3.71014 -57.8546
v 283.785 3.73588 -57.8908
v 283.776 3.75945 -57.9311
v 283.776 3.77996 -57.9739
v 283.785 3.7966 -58.0175
v 283.801 3.80875 -58.0603
v 283.825 3.81593 -58.1006
v 283.855 3.81787 -58.137
v 283.891 3.81449 -58.1679
v 283.931 3.80593 -58.1922
v 283.973 3.79252 -58.209
v 284.016 3.77476 -58.2176
v 284.059 3.75334 -58.2177
v 284.099 3.72909 -58.2093
v 284.996 5.36994 -57.3962
v 285.027 5.34267 -57.3724
v 285.05 5.31563 -57.3419
v 285.067 5.28988 -57.306
v 285.075 5.2664 -57.2659
v 285.075 5.24609 -57.2234
v 285.067 5.22974 -57.1799
v 285.051 5.21796 -57.1372
v 285.027 5.21123 -57.0968
v 284.997 5.20978 -57.0605
v 284.962 5.21369 -57.0295
v 284.923 5.22279 -57.005
v 284.881 5.23675 -56.988
v 284.839 5.25501 -56.9791
v 284.797 5.27689 -56.9788
v 284.757 5.30154 -56.9869
v 284.722 5.32801 -57.0032
v 284.692 5.35529 -57.027
v 284.668 5.38232 -57.0575
v 284.651 5.40807 -57.0934
v 284.643 5.43156 -57.1335
v 284.643 5.45186 -57.176
v 284.651 5.46822 -57.2195
v 284.667 5.47999 -57.2622
v 284.691 5.48673 -57.3026
v 284.721 5.48817 -57.3389
v 284.756 5.48427 -57.3699
v 284.795 5.47516 -57.3944
v 284.837 5.46121 -57.4114
v 284.88 5.44294 -57.4203
v 284.921 5.42106 -57.4206
v 284.961 5.39642 -57.4125
v 285.888 7.0257 -56.6139
v 285.918 6.99825 -56.5903
v 285.941 6.97116 -56.5601
v 285.957 6.94549 -56.5243
v 285.966 6.92221 -56.4845
v 285.966 6.90222 -56.4421
v 285.958 6.88628 -56.3986
v 285.942 6.87502 -56.3559
v 285.919 6.86886 -56.3156
v 285.89 6.86804 -56.2791
v 285.855 6.8726 -56.248
v 285.816 6.88234 -56.2233
v 285.775 6.89692 -56.2061
v 285.733 6.91575 -56.1969
v 285.692 6.93812 -56.1963
v 285.653 6.96317 -56.2041
v 285.618 6.98993 -56.2201
v 285.588 7.01738 -56.2437
v 285.565 7.04447 -56.2739
v 285.548 7.07014 -56.3096
v 285.54 7.09342 -56.3494
v 285.54 7.11341 -56.3919
v 285.548 7.12935 -56.4353
v 285.563 7.14061 -56.478
v 285.586 7.14677 -56.5184
v 285.616 7.14759 -56.5548
v 285.651 7.14303 -56.586
v 285.689 7.13329 -56.6107
v 285.731 7.11872 -56.6279
v 285.773 7.09988 -56.637
v 285.814 7.07751 -56.6377
v 285.853 7.05246 -56.6299
v 286.812 8.67125 -55.8525
v 286.841 8.64367 -55.8292
v 286.865 8.6166 -55.7992
v 286.881 8.5911 -55.7637
v 286.889 8.56812 -55.7239
v 286.89 8.54857 -55.6816
v 286.882 8.53319 -55.6382
v 286.867 8.52257 -55.5954
v 286.844 8.51712 -55.555
v 286.815 8.51705 -55.5184
v 286.781 8.52236 -55.487
v 286.743 8.53285 -55.4621
v 286.702 8.54812 -55.4446
v 286.661 8.56757 -55.4352
v 286.62 8.59047 -55.4342
v 286.582 8.61592 -55.4418
v 286.547 8.64296 -55.4575
v 286.518 8.67054 -55.4808
v 286.494 8.69761 -55.5108
v 286.478 8.72312 -55.5463
v 286.47 8.74609 -55.5861
v 286.469 8.76564 -55.6284
v 286.477 8.78102 -55.6718
v 286.492 8.79164 -55.7146
v 286.515 8.79709 -55.755
v 286.544 8.79716 -55.7916
v 286.578 8.79185 -55.823
v 286.616 8.78136 -55.8479
v 286.657 8.76609 -55.8654
v 286.698 8.74664 -55.8748
v 286.739 8.72375 -55.8758
v 286.777 8.69829 -55.8682
v 287.77 10.308 -55.1186
v 287.8 10.2803 -55.0955
v 287.823 10.2533 -55.0657
v 287.839 10.2281 -55.0303
v 287.848 10.2055 -54.9907
v 287.848 10.1865 -54.9483
v 287.841 10.1717 -54.9049
v 287.826 10.1618 -54.8621
v 287.804 10.1572 -54.8215
v 287.776 10.1579 -54.7847
v 287.742 10.1641 -54.7532
v 287.705 10.1753 -54.728
v 287.665 10.1913 -54.7102
v 287.625 10.2114 -54.7006
v 287.585 10.2348 -54.6993
v 287.547 10.2607 -54.7066
v 287.512 10.288 -54.722
v 287.483 10.3156 -54.7451
v 287.46 10.3426 -54.7749
v 287.444 10.3679 -54.8103
v 287.435 10.3904 -54.85
v 287.434 10.4095 -54.8923
v 287.442 10.4242 -54.9357
v 287.457 10.4341 -54.9785
v 287.479 10.4387 -55.0191
v 287.507 10.438 -55.0559
v 287.54 10.4319 -55.0875
v 287.578 10.4206 -55.1126
v 287.618 10.4046 -55.1304
v 287.658 10.3845 -55.1401
v 287.698 10.3611 -55.1413
v 287.736 10.3352 -55.1341
v 288.762 11.9386 -54.4136
v 288.791 11.9109 -54.3907
v 288.814 11.8841 -54.361
v 288.831 11.8591 -54.3257
v 288.839 11.8369 -54.2862
v 288.84 11.8184 -54.2439
v 288.833 11.8043 -54.2005
v 288.819 11.7951 -54.1576
v 288.797 11.7912 -54.1169
v 288.77 11.7927 -54.08
v 288.737 11.7995 -54.0483
v 288.7 11.8115 -54.023
v 288.661 11.8281 -54.005
v 288.621 11.8487 -53.9951
v 288.581 11.8725 -53.9936
v 288.544 11.8986 -54.0006
v 288.51 11.9261 -54.0159
v 288.481 11.9537 -54.0388
v 288.458 11.9805 -54.0685
v 288.442 12.0055 -54.1038
v 288.433 12.0277 -54.1433
v 288.432 12.0462 -54.1856
v 288.439 12.0603 -54.229
v 288.453 12.0695 -54.2719
v 288.475 12.0735 -54.3125
v 288.503 12.072 -54.3495
v 288.536 12.0651 -54.3812
v 288.572 12.0531 -54.4065
v 288.611 12.0365 -54.4245
v 288.651 12.0159 -54.4344
v 288.691 11.9921 -54.4359
v 288.728 11.966 -54.4288
v 289.781 13.5656 -53.7362
v 289.81 13.538 -53.7134
v 289.833 13.5114 -53.6839
v 289.849 13.4867 -53.6487
v 289.858 13.465 -53.6092
v 289.86 13.447 -53.567
v 289.853 13.4335 -53.5236
v 289.839 13.4249 -53.4807
v 289.818 13.4216 -53.44
v 289.791 13.4237 -53.403
v 289.759 13.4312 -53.3711
v 289.722 13.4437 -53.3457
v 289.684 13.4608 -53.3276
v 289.644 13.4818 -53.3175
v 289.605 13.5059 -53.3159
v 289.568 13.5322 -53.3227
v 289.535 13.5597 -53.3378
v 289.506 13.5873 -53.3606
v 289.483 13.6139 -53.3901
v 289.467 13.6386 -53.4253
v 289.458 13.6603 -53.4648
v 289.456 13.6783 -53.507
v 289.463 13.6918 -53.5504
v 289.477 13.7004 -53.5933
v 289.498 13.7037 -53.634
v 289.525 13.7015 -53.671
v 289.557 13.6941 -53.7029
v 289.594 13.6815 -53.7283
v 289.632 13.6644 -53.7464
v 289.672 13.6434 -53.7565
v 289.711 13.6193 -53.7581
v 289.748 13.593 -53.7513
v 290.822 15.1915 -53.085
v 290.851 15.164 -53.0624
v 290.874 15.1377 -53.033
v 290.89 15.1134 -52.9979
v 290.899 15.0921 -52.9585
v 290.9 15.0746 -52.9163
v 290.894 15.0616 -52.8729
v 290.881 15.0536 -52.83
v 290.86 15.0509 -52.7893
v 290.833 15.0536 -52.7523
v 290.802 15.0616 -52.7204
v 290.766 15.0746 -52.6948
v 290.728 15.092 -52.6766
v 290.689 15.1133 -52.6665
v 290.65 15.1376 -52.6647
v 290.614 15.164 -52.6715
v 290.58 15.1914 -52.6865
v 290.551 15.2188 -52.7091
v 290.529 15.2451 -52.7386
v 290.512 15.2694 -52.7736
v 290.503 15.2907 -52.813
v 290.502 15.3082 -52.8552
v 290.508 15.3212 -52.8986
v 290.522 15.3292 -52.9415
v 290.542 15.3319 -52.9822
v 290.569 15.3292 -53.0192
v 290.6 15.3212 -53.0511
v 290.636 15.3083 -53.0767
v 290.674 15.2908 -53.0949
v 290.713 15.2695 -53.105
v 290.752 15.2452 -53.1068
v 290.789 15.2189 -53.1
v 291.878 16.8187 -52.4589
v 291.907 16.7915 -52.4363
v 291.93 16.7655 -52.407
v 291.946 16.7416 -52.372
v 291.956 16.7207 -52.3326
v 291.957 16.7038 -52.2905
v 291.951 16.6913 -52.2472
v 291.938 16.6838 -52.2044
v 291.918 16.6816 -52.1637
v 291.892 16.6848 -52.1266
v 291.861 16.6932 -52.0947
v 291.825 16.7065 -52.0692
v 291.788 16.7242 -52.0509
v 291.749 16.7457 -52.0407
v 291.711 16.77 -52.0389
v 291.674 16.7963 -52.0456
v 291.641 16.8236 -52.0605
v 291.612 16.8507 -52.0831
v 291.589 16.8768 -52.1124
v 291.573 16.9007 -52.1474
v 291.564 16.9215 -52.1868
v 291.562 16.9385 -52.2289
v 291.568 16.951 -52.2722
v 291.581 16.9584 -52.315
v 291.601 16.9606 -52.3558
v 291.627 16.9575 -52.3928
v 291.659 16.9491 -52.4247
v 291.694 16.9358 -52.4502
v 291.732 16.918 -52.4685
v 291.77 16.8966 -52.4787
v 291.809 16.8722 -52.4805
v 291.845 16.8459 -52.4738
v 292.945 18.4497 -51.8565
v 292.973 18.4228 -51.834
v 292.996 18.3972 -51.8047
v 293.013 18.3737 -51.7697
v 293.022 18.3534 -51.7305
v 293.024 18.3369 -51.6884
v 293.019 18.3249 -51.6451
v 293.006 18.3179 -51.6024
v 292.986 18.3162 -51.5617
v 292.96 18.3197 -51.5247
v 292.929 18.3284 -51.4929
v 292.894 18.342 -51.4673
v 292.857 18.3598 -51.4491
v 292.819 18.3813 -51.4389
v 292.781 18.4056 -51.437
v 292.744 18.4318 -51.4437
v 292.711 18.4588 -51.4586
v 292.683 18.4857 -51.4811
v 292.66 18.5113 -51.5104
v 292.643 18.5348 -51.5453
v 292.634 18.5551 -51.5846
v 292.632 18.5716 -51.6267
v 292.637 18.5836 -51.6699
v 292.65 18.5906 -51.7127
v 292.67 18.5923 -51.7533
v 292.696 18.5888 -51.7903
v 292.727 18.5801 -51.8222
v 292.761 18.5665 -51.8477
v 292.799 18.5487 -51.866
v 292.837 18.5272 -51.8762
v 292.875 18.5029 -51.878
v 292.911 18.4767 -51.8714
v 294.015 20.087 -51.2765
v 294.044 20.0605 -51.254
v 294.067 20.0353 -51.2247
v 294.083 20.0124 -51.1898
v 294.093 19.9925 -51.1506
v 294.095 19.9765 -51.1086
v 294.09 19.965 -51.0654
v 294.077 19.9584 -51.0227
v 294.058 19.957 -50.9822
v 294.033 19.9608 -50.9453
v 294.002 19.9698 -50.9135
v 293.968 19.9835 -50.888
v 293.93 20.0013 -50.8698
v 293.892 20.0228 -50.8596
v 293.854 20.0469 -50.8578
v 293.818 20.0728 -50.8645
v 293.785 20.0995 -50.8793
v 293.757 20.126 -50.9018
v 293.733 20.1512 -50.9311
v 293.717 20.1742 -50.966
v 293.707 20.194 -51.0052
v 293.705 20.21 -51.0472
v 293.71 20.2215 -51.0904
v 293.723 20.2281 -51.1331
v 293.742 20.2295 -51.1736
v 293.768 20.2257 -51.2105
v 293.798 20.2167 -51.2423
v 293.833 20.2031 -51.2678
v 293.87 20.1852 -51.286
v 293.908 20.1637 -51.2962
v 293.946 20.1396 -51.298
v 293.982 20.1137 -51.2913
v 295.084 21.733 -50.7175
v 295.113 21.707 -50.6951
v 295.136 21.6823 -50.6658
v 295.153 21.6599 -50.631
v 295.162 21.6405 -50.5918
v 295.165 21.625 -50.5499
v 295.16 21.614 -50.5068
v 295.148 21.6078 -50.4642
v 295.129 21.6067 -50.4237
v 295.103 21.6107 -50.3869
v 295.073 21.6198 -50.3552
v 295.039 21.6335 -50.3298
v 295.002 21.6513 -50.3117
v 294.964 21.6725 -50.3016
v 294.926 21.6964 -50.2999
v 294.89 21.722 -50.3066
v 294.857 21.7482 -50.3215
v 294.828 21.7742 -50.344
v 294.805 21.7989 -50.3732
v 294.788 21.8214 -50.4081
v 294.778 21.8408 -50.4472
v 294.776 21.8563 -50.4891
v 294.781 21.8673 -50.5322
v 294.793 21.8735 -50.5748
v 294.812 21.8746 -50.6153
v 294.837 21.8706 -50.6521
v 294.868 21.8615 -50.6838
v 294.902 21.8478 -50.7092
v 294.939 21.83 -50.7273
v 294.977 21.8088 -50.7374
v 295.015 21.7849 -50.7391
v 295.051 21.7593 -50.7324
v 296.145 23.3903 -50.1784
v 296.174 23.3649 -50.1559
v 296.197 23.3407 -50.1266
v 296.215 23.3188 -50.0918
v 296.225 23.3 -50.0527
v 296.227 23.285 -50.0109
v 296.223 23.2743 -49.9679
v 296.211 23.2685 -49.9254
v 296.192 23.2676 -49.8851
v 296.167 23.2718 -49.8484
v 296.137 23.2809 -49.8168
v 296.103 23.2945 -49.7916
v 296.066 23.3121 -49.7736
v 296.028 23.3331 -49.7636
v 295.99 23.3565 -49.7619
v 295.954 23.3817 -49.7687
v 295.921 23.4074 -49.7836
v 295.892 23.4329 -49.8062
v 295.869 23.457 -49.8354
v 295.851 23.4789 -49.8702
v 295.841 23.4978 -49.9093
v 295.839 23.5128 -49.9512
v 295.843 23.5234 -49.9942
v 295.855 23.5293 -50.0366
v 295.874 23.5302 -50.077
v 295.899 23.526 -50.1137
v 295.929 23.5169 -50.1452
v 295.963 23.5033 -50.1705
v 296.0 23.4856 -50.1885
v 296.038 23.4647 -50.1985
v 296.076 23.4412 -50.2001
v 296.112 23.4161 -50.1933
v 297.194 25.0613 -49.6577
v 297.222 25.0365 -49.6352
v 297.246 25.013 -49.6059
v 297.263 24.9916 -49.5711
v 297.274 24.9734 -49.5321
v 297.277 24.9588 -49.4903
v 297.272 24.9486 -49.4474
v 297.26 24.943 -49.4051
v 297.242 24.9423 -49.3649
v 297.217 24.9465 -49.3284
v 297.187 24.9556 -49.297
v 297.153 24.969 -49.2719
v 297.116 24.9863 -49.254
v 297.078 25.0069 -49.2442
v 297.04 25.0299 -49.2427
v 297.004 25.0544 -49.2495
v 296.971 25.0796 -49.2645
v 296.942 25.1044 -49.2871
v 296.918 25.1279 -49.3163
v 296.901 25.1492 -49.3512
v 296.891 25.1675 -49.3902
v 296.888 25.1821 -49.432
v 296.892 25.1923 -49.4748
v 296.904 25.1979 -49.5172
v 296.923 25.1986 -49.5574
v 296.947 25.1943 -49.5939
v 296.977 25.1853 -49.6253
v 297.011 25.1719 -49.6504
v 297.048 25.1546 -49.6682
v 297.086 25.134 -49.6781
v 297.124 25.111 -49.6796
v 297.16 25.0865 -49.6727
v 298.223 26.7485 -49.1542
v 298.252 26.7243 -49.1316
v 298.276 26.7015 -49.1023
v 298.293 26.6808 -49.0675
v 298.304 26.6631 -49.0286
v 298.307 26.649 -48.9869
v 298.303 26.6392 -48.9441
v 298.291 26.6338 -48.9019
v 298.273 26.6333 -48.8618
v 298.248 26.6375 -48.8255
v 298.218 26.6463 -48.7943
v 298.184 26.6595 -48.7694
v 298.147 26.6764 -48.7518
v 298.109 26.6964 -48.7421
v 298.071 26.7188 -48.7407
v 298.035 26.7427 -48.7477
v 298.002 26.7672 -48.7628
v 297.972 26.7913 -48.7854
v 297.949 26.8141 -48.8147
v 297.931 26.8348 -48.8495
v 297.92 26.8525 -48.8885
v 297.917 26.8666 -48.9302
v 297.922 26.8765 -48.9729
v 297.933 26.8818 -49.0152
v 297.952 26.8824 -49.0552
v 297.976 26.8782 -49.0915
v 298.006 26.8693 -49.1227
v 298.04 26.8562 -49.1476
v 298.077 26.8393 -49.1653
v 298.115 26.8192 -49.175
v 298.153 26.7968 -49.1763
v 298.189 26.7729 -49.1693
v 299.227 28.4543 -48.6666
v 299.257 28.4309 -48.6439
v 299.281 28.4089 -48.6146
v 299.299 28.3889 -48.5798
v 299.309 28.3718 -48.5408
v 299.313 28.3582 -48.4992
v 299.309 28.3486 -48.4566
v 299.297 28.3435 -48.4145
v 299.279 28.343 -48.3747
v 299.254 28.3471 -48.3386
v 299.224 28.3557 -48.3076
v 299.19 28.3684 -48.2829
v 299.154 28.3848 -48.2655
v 299.115 28.4042 -48.256
v 299.077 28.4259 -48.2548
v 299.041 28.449 -48.2619
v 299.007 28.4727 -48.2771
v 298.978 28.496 -48.2998
v 298.953 28.5181 -48.3292
v 298.936 28.5381 -48.364
v 298.925 28.5552 -48.4029
v 298.921 28.5688 -48.4445
v 298.926 28.5784 -48.4871
v 298.937 28.5835 -48.5292
v 298.955 28.584 -48.5691
v 298.98 28.5799 -48.6052
v 299.01 28.5713 -48.6362
v 299.044 28.5586 -48.6609
v 299.081 28.5422 -48.6783
v 299.119 28.5228 -48.6878
v 299.157 28.5011 -48.689
v 299.194 28.478 -48.6818
f 1 34 2 
f 1 33 34 
f 2 35 3 
f 2 34 35 
f 3 36 4 
f 3 35 36 
f 4 37 5 
f 4 36 37 
f 5 38 6 
f 5 37 38 
f 6 39 7 
f 6 38 39 
f 7 40 8 
f 7 39 40 
f 8 41 9 
f 8 40 41 
f 9 42 10 
f 9 41 42 
f 10 43 11 
f 10 42 43 
f 11 44 12 
f 11 43 44 
f 12 45 13 
f 12 44 45 
f 13 46 14 
f 13 45 46 
f 14 47 15 
f 14 46 47 
f 15 48 16 
f 15 47 48 
f 16 49 17 
f 16 48 49 
f 17 50 18 
f 17 49 50 
f 18 51 19 
f 18 50 51 
f 19 52 20 
f 19 51 52 
f 20 53 21 
f 20 52 53 
f 21 54 22 
f 21 53 54 
f 22 55 23 
f 22 54 55 
f 23 56 24 
f 23 55 56 
f 24 57 25 
f 24 56 57 
f 25 58 26 
f 25 57 58 
f 26 59 27 
f 26 58 59 
f 27 60 28 
f 27 59 60 
f 28 61 29 
f 28 60 61 
f 29 62 30 
f 29 61 62 
f 30 63 31 
f 30 62 63 
f 31 64 32 
f 31 63 64 
f 32 33 1 
f 32 64 33 
f 33 66 34 
f 33 65 66 
f 34 67 35 
f 34 66 67 
f 35 68 36 
f 35 67 68 
f 36 69 37 
f 36 68 69 
f 37 70 38 
f 37 69 70 
f 38 71 39 
f 38 70 71 
f 39 72 40 
f 39 71 72 
f 40 73 41 
f 40 72 73 
f 41 74 42 
f 41 73 74 
f 42 75 43 
f 42 74 75 
f 43 76 44 
f 43 75 76 
f 44 77 45 
f 44 76 77 
f 45 78 46 
f 45 77 78 
f 46 79 47 
f 46 78 79 
f 47 80 48 
f 47 79 80 
f 48 81 49 
f 48 80 81 
f 49 82 50 
f 49 81 82 
f 50 83 51 
f 50 82 83 
f 51 84 52 
f 51 83 84 
f 52 85 53 
f 52 84 85 
f 53 86 54 
f 53 85 86 
f 54 87 55 
f 54 86 87 
f 55 88 56 
f 55 87 88 
f 56 89 57 
f 56 88 89 
f 57 90 58 
f 57 89 90 
f 58 91 59 
f 58 90 91 
f 59 92 60 
f 59 91 92 
f 60 93 61 
f 60 92 93 
f 61 94 62 
f 61 93 94 
f 62 95 63 
f 62 94 95 
f 63 96 64 
f 63 95 96 
f 64 65 33 
f 64 96 65 
f 65 98 66 
f 65 97 98 
f 66 99 67 
f 66 98 99 
f 67 100 68 
f 67 99 100 
f 68 101 69 
f 68 100 101 
f 69 102 70 
f 69 101 102 
f 70 103 71 
f 70 102 103 
f 71 104 72 
f 71 103 104 
f 72 105 73 
f 72 104 105 
f 73 106 74 
f 73 105 106 
f 74 107 75 
f 74 106 107 
f 75 108 76 
f 75 107 108 
f 76 109 77 
f 76 108 109 
f 77 110 78 
f 77 109 110 
f 78 111 79 
f 78 110 111 
f 79 112 80 
f 79 111 112 
f 80 113 81 
f 80 112 113 
f 81 114 82 
f 81 113 114 
f 82 115 83 
f 82 114 115 
f 83 116 84 
f 83 115 116 
f 84 117 85 
f 84 116 117 
f 85 118 86 
f 85 117 118 
f 86 119 87 
f 86 118 119 
f 87 120 88 
f 87 119 120 
f 88 121 89 
f 88 120 121 
f 89 122 90 
f 89 121 122 
f 90 123 91 
f 90 122 123 
f 91 124 92 
f 91 123 124 
f 92 125 93 
f 92 124 125 
f 93 126 94 
f 93 125 126 
f 94 127 95 
f 94 126 127 
f 95 128 96 
f 95 127 128 
f 96 97 65 
f 96 128 97 
f 97 130 98 
f 97 129 130 
f 98 131 99 
f 98 130 131 
f 99 132 100 
f 99 131 132 
f 100 133 101 
f 100 132 133 
f 101 134 102 
f 101 133 134 
f 102 135 103 
f 102 134 135 
f 103 136 104 
f 103 135 136 
f 104 137 105 
f 104 136 137 
f 105 138 106 
f 105 137 138 
f 106 139 107 
f 106 138 139 
f 107 140 108 
f 107 139 140 
f 108 141 109 
f 108 140 141 
f 109 142 110 
f 109 141 142 
f 110 143 111 
f 110 142 143 
f 111 144 112 
f 111 143 144 
f 112 145 113 
f 112 144 145 
f 113 146 114 
f 113 145 146 
f 114 147 115 
f 114 146 147 
f 115 148 116 
f 115 147 148 
f 116 149 117 
f 116 148 149 
f 117 150 118 
f 117 149 150 
f 118 151 119 
f 118 150 151 
f 119 152 120 
f 119 151 152 
f 120 153 121 
f 120 152 153 
f 121 154 122 
f 121 153 154 
f 122 155 123 
f 122 154 155 
f 123 156 124 
f 123 155 156 
f 124 157 125 
f 124 156 157 
f 125 158 126 
f 125 157 158 
f 126 159 127 
f 126 158 159 
f 127 160 128 
f 127 159 160 
f 128 129 97 
f 128 160 129 
f 129 162 130 
f 129 161 162 
f 130 163 131 
f 130 162 163 
f 131 164 132 
f 131 163 164 
f 132 165 133 
f 132 164 165 
f 133 166 134 
f 133 165 166 
f 134 167 135 
f 134 166 167 
f 135 168 136 
f 135 167 168 
f 136 169 137 
f 136 168 169 
f 137 170 138 
f 137 169 170 
f 138 171 139 
f 138 170 171 
f 139 172 140 
f 139 171 172 
f 140 173 141 
f 140 172 173 
f 141 174 142 
f 141 173 174 
f 142 175 143 
f 142 174 175 
f 143 176 144 
f 143 175 176 
f 144 177 145 
f 144 176 177 
f 145 178 146 
f 145 177 178 
f 146 179 147 
f 146 178 179 
f 147 180 148 
f 147 179 180 
f 148 181 149 
f 148 180 181 
f 149 182 150 
f 149 181 182 
f 150 183 151 
f 150 182 183 
f 151 184 152 
f 151 183 184 
f 152 185 153 
f 152 184 185 
f 153 186 154 
f 153 185 186 
f 154 187 155 
f 154 186 187 
f 155 188 156 
f 155 187 188 
f 156 189 157 
f 156 188 189 
f 157 190 158 
f 157 189 190 
f 158 191 159 
f 158 190 191 
f 159 192 160 
f 159 191 192 
f 160 161 129 
f 160 192 161 
f 161 194 162 
f 161 193 194 
f 162 195 163 
f 162 194 195 
f 163 196 164 
f 163 195 196 
f 164 197 165 
f 164 196 197 
f 165 198 166 
f 165 197 198 
f 166 199 167 
f 166 198 199 
f 167 200 168 
f 167 199 200 
f 168 201 169 
f 168 200 201 
f 169 202 170 
f 169 201 202 
f 170 203 171 
f 170 202 203 
f 171 204 172 
f 171 203 204 
f 172 205 173 
f 172 204 205 
f 173 206 174 
f 173 205 206 
f 174 207 175 
f 174 206 207 
f 175 208 176 
f 175 207 208 
f 176 209 177 
f 176 208 209 
f 177 210 178 
f 177 209 210 
f 178 211 179 
f 178 210 211 
f 179 212 180 
f 179 211 212 
f 180 213 181 
f 180 212 213 
f 181 214 182 
f 181 213 214 
f 182 215 183 
f 182 214 215 
f 183 216 184 
f 183 215 216 
f 184 217 185 
f 184 216 217 
f 185 218 186 
f 185 217 218 
f 186 219 187 
f 186 218 219 
f 187 220 188 
f 187 219 220 
f 188 221 189 
f 188 220 221 
f 189 222 190 
f 189 221 222 
f 190 223 191 
f 190 222 223 
f 191 224 192 
f 191 223 224 
f 192 193 161 
f 192 224 193 
f 193 226 194 
f 193 225 226 
f 194 227 195 
f 194 226 227 
f 195 228 196 
f 195 227 228 
f 196 229 197 
f 196 228 229 
f 197 230 198 
f 197 229 230 
f 198 231 199 
f 198 230 231 
f 199 232 200 
f 199 231 232 
f 200 233 201 
f 200 232 233 
f 201 234 202 
f 201 233 234 
f 202 235 203 
f 202 234 235 
f 203 236 204 
f 203 235 236 
f 204 237 205 
f 204 236 237 
f 205 238 206 
f 205 237 238 
f 206 239 207 
f 206 238 239 
f 207 240 208 
f 207 239 240 
f 208 241 209 
f 208 240 241 
f 209 242 210 
f 209 241 242 
f 210 243 211 
f 210 242 243 
f 211 244 212 
f 211 243 244 
f 212 245 213 
f 212 244 245 
f 213 246 214 
f 213 245 246 
f 214 247 215 
f 214 246 247 
f 215 248 216 
f 215 247 248 
f 216 249 217 
f 216 248 249 
f 217 250 218 
f 217 249 250 
f 218 251 219 
f 218 250 251 
f 219 252 220 
f 219 251 252 
f 220 253 221 
f 220 252 253 
f 221 254 222 
f 221 253 254 
f 222 255 223 
f 222 254 255 
f 223 256 224 
f 223 255 256 
f 224 225 193 
f 224 256 225 
f 225 258 226 
f 225 257 258 
f 226 259 227 
f 226 258 259 
f 227 260 228 
f 227 259 260 
f 228 261 229 
f 228 260 261 
f 229 262 230 
f 229 261 262 
f 230 263 231 
f 230 262 263 
f 231 264 232 
f 231 263 264 
f 232 265 233 
f 232 264 265 
f 233 266 234 
f 233 265 266 
f 234 267 235 
f 234 266 267 
f 235 268 236 
f 235 267 268 
f 236 269 237 
f 236 268 269 
f 237 270 238 
f 237 269 270 
f 238 271 239 
f 238 270 271 
f 239 272 240 
f 239 271 272 
f 240 273 241 
f 240 272 273 
f 241 274 242 
f 241 273 274 
f 242 275 243 
f 242 274 275 
f 243 276 244 
f 243 275 276 
f 244 277 245 
f 244 276 277 
f 245 278 246 
f 245 277 278 
f 246 279 247 
f 246 278 279 
f 247 280 248 
f 247 279 280 
f 248 281 249 
f 248 280 281 
f 249 282 250 
f 249 281 282 
f 250 283 251 
f 250 282 283 
f 251 284 252 
f 251 283 284 
f 252 285 253 
f 252 284 285 
f 253 286 254 
f 253 285 286 
f 254 287 255 
f 254 286 287 
f 255 288 256 
f 255 287 288 
f 256 257 225 
f 256 288 257 
f 257 290 258 
f 257 289 290 
f 258 291 259 
f 258 290 291 
f 259 292 260 
f 259 291 292 
f 260 293 261 
f 260 292 293 
f 261 294 262 
f 261 293 294 
f 262 295 263 
f 262 294 295 
f 263 296 264 
f 263 295 296 
f 264 297 265 
f 264 296 297 
f 265 298 266 
f 265 297 298 
f 266 299 267 
f 266 298 299 
f 267 300 268 
f 267 299 300 
f 268 301 269 
f 268 300 301 
f 269 302 270 
f 269 301 302 
f 270 303 271 
f 270 302 303 
f 271 304 272 
f 271 303 304 
f 272 305 273 
f 272 304 305 
f 273 306 274 
f 273 305 306 
f 274 307 275 
f 274 306 307 
f 275 308 276 
f 275 307 308 
f 276 309 277 
f 276 308 309 
f 277 310 278 
f 277 309 310 
f 278 311 279 
f 278 310 311 
f 279 312 280 
f 279 311 312 
f 280 313 281 
f 280 312 313 
f 281 314 282 
f 281 313 314 
f 282 315 283 
f 282 314 315 
f 283 316 284 
f 283 315 316 
f 284 317 285 
f 284 316 317 
f 285 318 286 
f 285 317 318 
f 286 319 287 
f 286 318 319 
f 287 320 288 
f 287 319 320 
f 288 289 257 
f 288 320 289 
f 289 322 290 
f 289 321 322 
f 290 323 291 
f 290 322 323 
f 291 324 292 
f 291 323 324 
f 292 325 293 
f 292 324 325 
f 293 326 294 
f 293 325 326 
f 294 327 295 
f 294 326 327 
f 295 328 296 
f 295 327 328 
f 296 329 297 
f 296 328 329 
f 297 330 298 
f 297 329 330 
f 298 331 299 
f 298 330 331 
f 299 332 300 
f 299 331 332 
f 300 333 301 
f 300 332 333 
f 301 334 302 
f 301 333 334 
f 302 335 303 
f 302 334 335 
f 303 336 304 
f 303 335 336 
f 304 337 305 
f 304 336 337 
f 305 338 306 
f 305 337 338 
f 306 339 307 
f 306 338 339 
f 307 340 308 
f 307 339 340 
f 308 341 309 
f 308 340 341 
f 309 342 310 
f 309 341 342 
f 310 343 311 
f 310 342 343 
f 311 344 312 
f 311 343 344 
f 312 345 313 
f 312 344 345 
f 313 346 314 
f 313 345 346 
f 314 347 315 
f 314 346 347 
f 315 348 316 
f 315 347 348 
f 316 349 317 
f 316 348 349 
f 317 350 318 
f 317 349 350 
f 318 351 319 
f 318 350 351 
f 319 352 320 
f 319 351 352 
f 320 321 289 
f 320 352 321 
f 321 354 322 
f 321 353 354 
f 322 355 323 
f 322 354 355 
f 323 356 324 
f 323 355 356 
f 324 357 325 
f 324 356 357 
f 325 358 326 
f 325 357 358 
f 326 359 327 
f 326 358 359 
f 327 360 328 
f 327 359 360 
f 328 361 329 
f 328 360 361 
f 329 362 330 
f 329 361 362 
f 330 363 331 
f 330 362 363 
f 331 364 332 
f 331 363 364 
f 332 365 333 
f 332 364 365 
f 333 366 334 
f 333 365 366 
f 334 367 335 
f 334 366 367 
f 335 368 336 
f 335 367 368 
f 336 369 337 
f 336 368 369 
f 337 370 338 
f 337 369 370 
f 338 371 339 
f 338 370 371 
f 339 372 340 
f 339 371 372 
f 340 373 341 
f 340 372 373 
f 341 374 342 
f 341 373 374 
f 342 375 343 
f 342 374 375 
f 343 376 344 
f 343 375 376 
f 344 377 345 
f 344 376 377 
f 345 378 346 
f 345 377 378 
f 346 379 347 
f 346 378 379 
f 347 380 348 
f 347 379 380 
f 348 381 349 
f 348 380 381 
f 349 382 350 
f 349 381 382 
f 350 383 351 
f 350 382 383 
f 351 384 352 
f 351 383 384 
f 352 353 321 
f 352 384 353 
f 353 386 354 
f 353 385 386 
f 354 387 355 
f 354 386 387 
f 355 388 356 
f 355 387 388 
f 356 389 357 
f 356 388 389 
f 357 390 358 
f 357 389 390 
f 358 391 359 
f 358 390 391 
f 359 392 360 
f 359 391 392 
f 360 393 361 
f 360 392 393 
f 361 394 362 
f 361 393 394 
f 362 395 363 
f 362 394 395 
f 363 396 364 
f 363 395 396 
f 364 397 365 
f 364 396 397 
f 365 398 366 
f 365 397 398 
f 366 399 367 
f 366 398 399 
f 367 400 368 
f 367 399 400 
f 368 401 369 
f 368 400 401 
f 369 402 370 
f 369 401 402 
f 370 403 371 
f 370 402 403 
f 371 404 372 
f 371 403 404 
f 372 405 373 
f 372 404 405 
f 373 406 374 
f 373 405 406 
f 374 407 375 
f 374 406 407 
f 375 408 376 
f 375 407 408 
f 376 409 377 
f 376 408 409 
f 377 410 378 
f 377 409 410 
f 378 411 379 
f 378 410 411 
f 379 412 380 
f 379 411 412 
f 380 413 381 
f 380 412 413 
f 381 414 382 
f 381 413 414 
f 382 415 383 
f 382 414 415 
f 383 416 384 
f 383 415 416 
f 384 385 353 
f 384 416 385 
f 385 418 386 
f 385 417 418 
f 386 419 387 
f 386 418 419 
f 387 420 388 
f 387 419 420 
f 388 421 389 
f 388 420 421 
f 389 422 390 
f 389 421 422 
f 390 423 391 
f 390 422 423 
f 391 424 392 
f 391 423 424 
f 392 425 393 
f 392 424 425 
f 393 426 394 
f 393 425 426 
f 394 427 395 
f 394 426 427 
f 395 428 396 
f 395 427 428 
f 396 429 397 
f 396 428 429 
f 397 430 398 
f 397 429 430 
f 398 431 399 
f 398 430 431 
f 399 432 400 
f 399 431 432 
f 400 433 401 
f 400 432 433 
f 401 434 402 
f 401 433 434 
f 402 435 403 
f 402 434 435 
f 403 436 404 
f 403 435 436 
f 404 437 405 
f 404 436 437 
f 405 438 406 
f 405 437 438 
f 406 439 407 
f 406 438 439 
f 407 440 408 
f 407 439 440 
f 408 441 409 
f 408 440 441 
f 409 442 410 
f 409 441 442 
f 410 443 411 
f 410 442 443 
f 411 444 412 
f 411 443 444 
f 412 445 413 
f 412 444 445 
f 413 446 414 
f 413 445 446 
f 414 447 415 
f 414 446 447 
f 415 448 416 
f 415 447 448 
f 416 417 385 
f 416 448 417 
f 417 450 418 
f 417 449 450 
f 418 451 419 
f 418 450 451 
f 419 452 420 
f 419 451 452 
f 420 453 421 
f 420 452 453 
f 421 454 422 
f 421 453 454 
f 422 455 423 
f 422 454 455 
f 423 456 424 
f 423 455 456 
f 424 457 425 
f 424 456 457 
f 425 458 426 
f 425 457 458 
f 426 459 427 
f 426 458 459 
f 427 460 428 
f 427 459 460 
f 428 461 429 
f 428 460 461 
f 429 462 430 
f 429 461 462 
f 430 463 431 
f 430 462 463 
f 431 464 432 
f 431 463 464 
f 432 465 433 
f 432 464 465 
f 433 466 434 
f 433 465 466 
f 434 467 435 
f 434 466 467 
f 435 468 436 
f 435 467 468 
f 436 469 437 
f 436 468 469 
f 437 470 438 
f 437 469 470 
f 438 471 439 
f 438 470 471 
f 439 472 440 
f 439 471 472 
f 440 473 441 
f 440 472 473 
f 441 474 442 
f 441 473 474 
f 442 475 443 
f 442 474 475 
f 443 476 444 
f 443 475 476 
f 444 477 445 
f 444 476 477 
f 445 478 446 
f 445 477 478 
f 446 479 447 
f 446 478 479 
f 447 480 448 
f 447 479 480 
f 448 449 417 
f 448 480 449 
f 449 482 450 
f 449 481 482 
f 450 483 451 
f 450 482 483 
f 451 484 452 
f 451 483 484 
f 452 485 453 
f 452 484 485 
f 453 486 454 
f 453 485 486 
f 454 487 455 
f 454 486 487 
f 455 488 456 
f 455 487 488 
f 456 489 457 
f 456 488 489 
f 457 490 458 
f 457 489 490 
f 458 491 459 
f 458 490 491 
f 459 492 460 
f 459 491 492 
f 460 493 461 
f 460 492 493 
f 461 494 462 
f 461 493 494 
f 462 495 463 
f 462 494 495 
f 463 496 464 
f 463 495 496 
f 464 497 465 
f 464 496 497 
f 465 498 466 
f 465 497 498 
f 466 499 467 
f 466 498 499 
f 467 500 468 
f 467 499 500 
f 468 501 469 
f 468 500 501 
f 469 502 470 
f 469 501 502 
f 470 503 471 
f 470 502 503 
f 471 504 472 
f 471 503 504 
f 472 505 473 
f 472 504 505 
f 473 506 474 
f 473 505 506 
f 474 507 475 
f 474 506 507 
f 475 508 476 
f 475 507 508 
f 476 509 477 
f 476 508 509 
f 477 510 478 
f 477 509 510 
f 478 511 479 
f 478 510 511 
f 479 512 480 
f 479 511 512 
f 480 481 449 
f 480 512 481 
f 481 514 482 
f 481 513 514 
f 482 515 483 
f 482 514 515 
f 483 516 484 
f 483 515 516 
f 484 517 485 
f 484 516 517 
f 485 518 486 
f 485 517 518 
f 486 519 487 
f 486 518 519 
f 487 520 488 
f 487 519 520 
f 488 521 489 
f 488 520 521 
f 489 522 490 
f 489 521 522 
f 490 523 491 
f 490 522 523 
f 491 524 492 
f 491 523 524 
f 492 525 493 
f 492 524 525 
f 493 526 494 
f 493 525 526 
f 494 527 495 
f 494 526 527 
f 495 528 496 
f 495 527 528 
f 496 529 497 
f 496 528 529 
f 497 530 498 
f 497 529 530 
f 498 531 499 
f 498 530 531 
f 499 532 500 
f 499 531 532 
f 500 533 501 
f 500 532 533 
f 501 534 502 
f 501 533 534 
f 502 535 503 
f 502 534 535 
f 503 536 504 
f 503 535 536 
f 504 537 505 
f 504 536 537 
f 505 538 506 
f 505 537 538 
f 506 539 507 
f 506 538 539 
f 507 540 508 
f 507 539 540 
f 508 541 509 
f 508 540 541 
f 509 542 510 
f 509 541 542 
f 510 543 511 
f 510 542 543 
f 511 544 512 
f 511 543 544 
f 512 513 481 
f 512 544 513 
f 513 546 514 
f 513 545 546 
f 514 547 515 
f 514 546 547 
f 515 548 516 
f 515 547 548 
f 516 549 517 
f 516 548 549 
f 517 550 518 
f 517 549 550 
f 518 551 519 
f 518 550 551 
f 519 552 520 
f 519 551 552 
f 520 553 521 
f 520 552 553 
f 521 554 522 
f 521 553 554 
f 522 555 523 
f 522 554 555 
f 523 556 524 
f 523 555 556 
f 524 557 525 
f 524 556 557 
f 525 558 526 
f 525 557 558 
f 526 559 527 
f 526 558 559 
f 527 560 528 
f 527 559 560 
f 528 561 529 
f 528 560 561 
f 529 562 530 
f 529 561 562 
f 530 563 531 
f 530 562 563 
f 531 564 532 
f 531 563 564 
f 532 565 533 
f 532 564 565 
f 533 566 534 
f 533 565 566 
f 534 567 535 
f 534 566 567 
f 535 568 536 
f 535 567 568 
f 536 569 537 
f 536 568 569 
f 537 570 538 
f 537 569 570 
f 538 571 539 
f 538 570 571 
f 539 572 540 
f 539 571 572 
f 540 573 541 
f 540 572 573 
f 541 574 542 
f 541 573 574 
f 542 575 543 
f 542 574 575 
f 543 576 544 
f 543 575 576 
f 544 545 513 
f 544 576 545 
f 545 578 546 
f 545 577 578 
f 546 579 547 
f 546 578 579 
f 547 580 548 
f 547 579 580 
f 548 581 549 
f 548 580 581 
f 549 582 550 
f 549 581 582 
f 550 583 551 
f 550 582 583 
f 551 584 552 
f 551 583 584 
f 552 585 553 
f 552 584 585 
f 553 586 554 
f 553 585 586 
f 554 587 555 
f 554 586 587 
f 555 588 556 
f 555 587 588 
f 556 589 557 
f 556 588 589 
f 557 590 558 
f 557 589 590 
f 558 591 559 
f 558 590 591 
f 559 592 560 
f 559 591 592 
f 560 593 561 
f 560 592 593 
f 561 594 562 
f 561 593 594 
f 562 595 563 
f 562 594 595 
f 563 596 564 
f 563 595 596 
f 564 597 565 
f 564 596 597 
f 565 598 566 
f 565 597 598 
f 566 599 567 
f 566 598 599 
f 567 600 568 
f 567 599 600 
f 568 601 569 
f 568 600 601 
f 569 602 570 
f 569 601 602 
f 570 603 571 
f 570 602 603 
f 571 604 572 
f 571 603 604 
f 572 605 573 
f 572 604 605 
f 573 606 574 
f 573 605 606 
f 574 607 575 
f 574 606 607 
f 575 608 576 
f 575 607 608 
f 576 577 545 
f 576 608 577 
f 577 610 578 
f 577 609 610 
f 578 611 579 
f 578 610 611 
f 579 612 580 
f 579 611 612 
f 580 613 581 
f 580 612 613 
f 581 614 582 
f 581 613 614 
f 582 615 583 
f 582 614 615 
f 583 616 584 
f 583 615 616 
f 584 617 585 
f 584 616 617 
f 585 618 586 
f 585 617 618 
f 586 619 587 
f 586 618 619 
f 587 620 588 
f 587 619 620 
f 588 621 589 
f 588 620 621 
f 589 622 590 
f 589 621 622 
f 590 623 591 
f 590 622 623 
f 591 624 592 
f 591 623 624 
f 592 625 593 
f 592 624 625 
f 593 626 594 
f 593 625 626 
f 594 627 595 
f 594 626 627 
f 595 628 596 
f 595 627 628 
f 596 629 597 
f 596 628 629 
f 597 630 598 
f 597 629 630 
f 598 631 599 
f 598 630 631 
f 599 632 600 
f 599 631 632 
f 600 633 601 
f 600 632 633 
f 601 634 602 
f 601 633 634 
f 602 635 603 
f 602 634 635 
f 603 636 604 
f 603 635 636 
f 604 637 605 
f 604 636 637 
f 605 638 606 
f 605 637 638 
f 606 639 607 
f 606 638 639 
f 607 640 608 
f 607 639 640 
f 608 609 577 
f 608 640 609 
f 609 642 610 
f 609 641 642 
f 610 643 611 
f 610 642 643 
f 611 644 612 
f 611 643 644 
f 612 645 613 
f 612 644 645 
f 613 646 614 
f 613 645 646 
f 614 647 615 
f 614 646 647 
f 615 648 616 
f 615 647 648 
f 616 649 617 
f 616 648 649 
f 617 650 618 
f 617 649 650 
f 618 651 619 
f 618 650 651 
f 619 652 620 
f 619 651 652 
f 620 653 621 
f 620 652 653 
f 621 654 622 
f 621 653 654 
f 622 655 623 
f 622 654 655 
f 623 656 624 
f 623 655 656 
f 624 657 625 
f 624 656 657 
f 625 658 626 
f 625 657 658 
f 626 659 627 
f 626 658 659 
f 627 660 628 
f 627 659 660 
f 628 661 629 
f 628 660 661 
f 629 662 630 
f 629 661 662 
f 630 663 631 
f 630 662 663 
f 631 664 632 
f 631 663 664 
f 632 665 633 
f 632 664 665 
f 633 666 634 
f 633 665 666 
f 634 667 635 
f 634 666 667 
f 635 668 636 
f 635 667 668 
f 636 669 637 
f 636 668 669 
f 637 670 638 
f 637 669 670 
f 638 671 639 
f 638 670 671 
f 639 672 640 
f 639 671 672 
f 640 641 609 
f 640 672 641 
f 641 674 642 
f 641 673 674 
f 642 675 643 
f 642 674 675 
f 643 676 644 
f 643 675 676 
f 644 677 645 
f 644 676 677 
f 645 678 646 
f 645 677 678 
f 646 679 647 
f 646 678 679 
f 647 680 648 
f 647 679 680 
f 648 681 649 
f 648 680 681 
f 649 682 650 
f 649 681 682 
f 650 683 651 
f 650 682 683 
f 651 684 652 
f 651 683 684 
f 652 685 653 
f 652 684 685 
f 653 686 654 
f 653 685 686 
f 654 687 655 
f 654 686 687 
f 655 688 656 
f 655 687 688 
f 656 689 657 
f 656 688 689 
f 657 690 658 
f 657 689 690 
f 658 691 659 
f 658 690 691 
f 659 692 660 
f 659 691 692 
f 660 693 661 
f 660 692 693 
f 661 694 662 
f 661 693 694 
f 662 695 663 
f 662 694 695 
f 663 696 664 
f 663 695 696 
f 664 697 665 
f 664 696 697 
f 665 698 666 
f 665 697 698 
f 666 699 667 
f 666 698 699 
f 667 700 668 
f 667 699 700 
f 668 701 669 
f 668 700 701 
f 669 702 670 
f 669 701 702 
f 670 703 671 
f 670 702 703 
f 671 704 672 
f 671 703 704 
f 672 673 641 
f 672 704 673 
f 673 706 674 
f 673 705 706 
f 674 707 675 
f 674 706 707 
f 675 708 676 
f 675 707 708 
f 676 709 677 
f 676 708 709 
f 677 710 678 
f 677 709 710 
f 678 711 679 
f 678 710 711 
f 679 712 680 
f 679 711 712 
f 680 713 681 
f 680 712 713 
f 681 714 682 
f 681 713 714 
f 682 715 683 
f 682 714 715 
f 683 716 684 
f 683 715 716 
f 684 717 685 
f 684 716 717 
f 685 718 686 
f 685 717 718 
f 686 719 687 
f 686 718 719 
f 687 720 688 
f 687 719 720 
f 688 721 689 
f 688 720 721 
f 689 722 690 
f 689 721 722 
f 690 723 691 
f 690 722 723 
f 691 724 692 
f 691 723 724 
f 692 725 693 
f 692 724 725 
f 693 726 694 
f 693 725 726 
f 694 727 695 
f 694 726 727 
f 695 728 696 
f 695 727 728 
f 696 729 697 
f 696 728 729 
f 697 730 698 
f 697 729 730 
f 698 731 699 
f 698 730 731 
f 699 732 700 
f 699 731 732 
f 700 733 701 
f 700 732 733 
f 701 734 702 
f 701 733 734 
f 702 735 703 
f 702 734 735 
f 703 736 704 
f 703 735 736 
f 704 705 673 
f 704 736 705 
f 705 738 706 
f 705 737 738 
f 706 739 707 
f 706 738 739 
f 707 740 708 
f 707 739 740 
f 708 741 709 
f 708 740 741 
f 709 742 710 
f 709 741 742 
f 710 743 711 
f 710 742 743 
f 711 744 712 
f 711 743 744 
f 712 745 713 
f 712 744 745 
f 713 746 714 
f 713 745 746 
f 714 747 715 
f 714 746 747 
f 715 748 716 
f 715 747 748 
f 716 749 717 
f 716 748 749 
f 717 750 718 
f 717 749 750 
f 718 751 719 
f 718 750 751 
f 719 752 720 
f 719 751 752 
f 720 753 721 
f 720 752 753 
f 721 754 722 
f 721 753 754 
f 722 755 723 
f 722 754 755 
f 723 756 724 
f 723 755 756 
f 724 757 725 
f 724 756 757 
f 725 758 726 
f 725 757 758 
f 726 759 727 
f 726 758 759 
f 727 760 728 
f 727 759 760 
f 728 761 729 
f 728 760 761 
f 729 762 730 
f 729 761 762 
f 730 763 731 
f 730 762 763 
f 731 764 732 
f 731 763 764 
f 732 765 733 
f 732 764 765 
f 733 766 734 
f 733 765 766 
f 734 767 735 
f 734 766 767 
f 735 768 736 
f 735 767 768 
f 736 737 705 
f 736 768 737 
f 737 770 738 
f 737 769 770 
f 738 771 739 
f 738 770 771 
f 739 772 740 
f 739 771 772 
f 740 773 741 
f 740 772 773 
f 741 774 742 
f 741 773 774 
f 742 775 743 
f 742 774 775 
f 743 776 744 
f 743 775 776 
f 744 777 745 
f 744 776 777 
f 745 778 746 
f 745 777 778 
f 746 779 747 
f 746 778 779 
f 747 780 748 
f 747 779 780 
f 748 781 749 
f 748 780 781 
f 749 782 750 
f 749 781 782 
f 750 783 751 
f 750 782 783 
f 751 784 752 
f 751 783 784 
f 752 785 753 
f 752 784 785 
f 753 786 754 
f 753 785 786 
f 754 787 755 
f 754 786 787 
f 755 788 756 
f 755 787 788 
f 756 789 757 
f 756 788 789 
f 757 790 758 
f 757 789 790 
f 758 791 759 
f 758 790 791 
f 759 792 760 
f 759 791 792 
f 760 793 761 
f 760 792 793 
f 761 794 762 
f 761 793 794 
f 762 795 763 
f 762 794 795 
f 763 796 764 
f 763 795 796 
f 764 797 765 
f 764 796 797 
f 765 798 766 
f 765 797 798 
f 766 799 767 
f 766 798 799 
f 767 800 768 
f 767 799 800 
f 768 769 737 
f 768 800 769 
f 769 802 770 
f 769 801 802 
f 770 803 771 
f 770 802 803 
f 771 804 772 
f 771 803 804 
f 772 805 773 
f 772 804 805 
f 773 806 774 
f 773 805 806 
f 774 807 775 
f 774 806 807 
f 775 808 776 
f 775 807 808 
f 776 809 777 
f 776 808 809 
f 777 810 778 
f 777 809 810 
f 778 811 779 
f 778 810 811 
f 779 812 780 
f 779 811 812 
f 780 813 781 
f 780 812 813 
f 781 814 782 
f 781 813 814 
f 782 815 783 
f 782 814 815 
f 783 816 784 
f 783 815 816 
f 784 817 785 
f 784 816 817 
f 785 818 786 
f 785 817 818 
f 786 819 787 
f 786 818 819 
f 787 820 788 
f 787 819 820 
f 788 821 789 
f 788 820 821 
f 789 822 790 
f 789 821 822 
f 790 823 791 
f 790 822 823 
f 791 824 792 
f 791 823 824 
f 792 825 793 
f 792 824 825 
f 793 826 794 
f 793 825 826 
f 794 827 795 
f 794 826 827 
f 795 828 796 
f 795 827 828 
f 796 829 797 
f 796 828 829 
f 797 830 798 
f 797 829 830 
f 798 831 799 
f 798 830 831 
f 799 832 800 
f 799 831 832 
f 800 801 769 
f 800 832 801 
f 801 834 802 
f 801 833 834 
f 802 835 803 
f 802 834 835 
f 803 836 804 
f 803 835 836 
f 804 837 805 
f 804 836 837 
f 805 838 806 
f 805 837 838 
f 806 839 807 
f 806 838 839 
f 807 840 808 
f 807 839 840 
f 808 841 809 
f 808 840 841 
f 809 842 810 
f 809 841 842 
f 810 843 811 
f 810 842 843 
f 811 844 812 
f 811 843 844 
f 812 845 813 
f 812 844 845 
f 813 846 814 
f 813 845 846 
f 814 847 815 
f 814 846 847 
f 815 848 816 
f 815 847 848 
f 816 849 817 
f 816 848 849 
f 817 850 818 
f 817 849 850 
f 818 851 819 
f 818 850 851 
f 819 852 820 
f 819 851 852 
f 820 853 821 
f 820 852 853 
f 821 854 822 
f 821 853 854 
f 822 855 823 
f 822 854 855 
f 823 856 824 
f 823 855 856 
f 824 857 825 
f 824 856 857 
f 825 858 826 
f 825 857 858 
f 826 859 827 
f 826 858 859 
f 827 860 828 
f 827 859 860 
f 828 861 829 
f 828 860 861 
f 829 862 830 
f 829 861 862 
f 830 863 831 
f 830 862 863 
f 831 864 832 
f 831 863 864 
f 832 833 801 
f 832 864 833 
f 833 866 834 
f 833 865 866 
f 834 867 835 
f 834 866 867 
f 835 868 836 
f 835 867 868 
f 836 869 837 
f 836 868 869 
f 837 870 838 
f 837 869 870 
f 838 871 839 
f 838 870 871 
f 839 872 840 
f 839 871 872 
f 840 873 841 
f 840 872 873 
f 841 874 842 
f 841 873 874 
f 842 875 843 
f 842 874 875 
f 843 876 844 
f 843 875 876 
f 844 877 845 
f 844 876 877 
f 845 878 846 
f 845 877 878 
f 846 879 847 
f 846 878 879 
f 847 880 848 
f 847 879 880 
f 848 881 849 
f 848 880 881 
f 849 882 850 
f 849 881 882 
f 850 883 851 
f 850 882 883 
f 851 884 852 
f 851 883 884 
f 852 885 853 
f 852 884 885 
f 853 886 854 
f 853 885 886 
f 854 887 855 
f 854 886 887 
f 855 888 856 
f 855 887 888 
f 856 889 857 
f 856 888 889 
f 857 890 858 
f 857 889 890 
f 858 891 859 
f 858 890 891 
f 859 892 860 
f 859 891 892 
f 860 893 861 
f 860 892 893 
f 861 894 862 
f 861 893 894 
f 862 895 863 
f 862 894 895 
f 863 896 864 
f 863 895 896 
f 864 865 833 
f 864 896 865 
f 865 898 866 
f 865 897 898 
f 866 899 867 
f 866 898 899 
f 867 900 868 
f 867 899 900 
f 868 901 869 
f 868 900 901 
f 869 902 870 
f 869 901 902 
f 870 903 871 
f 870 902 903 
f 871 904 872 
f 871 903 904 
f 872 905 873 
f 872 904 905 
f 873 906 874 
f 873 905 906 
f 874 907 875 
f 874 906 907 
f 875 908 876 
f 875 907 908 
f 876 909 877 
f 876 908 909 
f 877 910 878 
f 877 909 910 
f 878 911 879 
f 878 910 911 
f 879 912 880 
f 879 911 912 
f 880 913 881 
f 880 912 913 
f 881 914 882 
f 881 913 914 
f 882 915 883 
f 882 914 915 
f 883 916 884 
f 883 915 916 
f 884 917 885 
f 884 916 917 
f 885 918 886 
f 885 917 918 
f 886 919 887 
f 886 918 919 
f 887 920 888 
f 887 919 920 
f 888 921 889 
f 888 920 921 
f 889 922 890 
f 889 921 922 
f 890 923 891 
f 890 922 923 
f 891 924 892 
f 891 923 924 
f 892 925 893 
f 892 924 925 
f 893 926 894 
f 893 925 926 
f 894 927 895 
f 894 926 927 
f 895 928 896 
f 895 927 928 
f 896 897 865 
f 896 928 897 
f 897 930 898 
f 897 929 930 
f 898 931 899 
f 898 930 931 
f 899 932 900 
f 899 931 932 
f 900 933 901 
f 900 932 933 
f 901 934 902 
f 901 933 934 
f 902 935 903 
f 902 934 935 
f 903 936 904 
f 903 935 936 
f 904 937 905 
f 904 936 937 
f 905 938 906 
f 905 937 938 
f 906 939 907 
f 906 938 939 
f 907 940 908 
f 907 939 940 
f 908 941 909 
f 908 940 941 
f 909 942 910 
f 909 941 942 
f 910 943 911 
f 910 942 943 
f 911 944 912 
f 911 943 944 
f 912 945 913 
f 912 944 945 
f 913 946 914 
f 913 945 946 
f 914 947 915 
f 914 946 947 
f 915 948 916 
f 915 947 948 
f 916 949 917 
f 916 948 949 
f 917 950 918 
f 917 949 950 
f 918 951 919 
f 918 950 951 
f 919 952 920 
f 919 951 952 
f 920 953 921 
f 920 952 953 
f 921 954 922 
f 921 953 954 
f 922 955 923 
f 922 954 955 
f 923 956 924 
f 923 955 956 
f 924 957 925 
f 924 956 957 
f 925 958 926 
f 925 957 958 
f 926 959 927 
f 926 958 959 
f 927 960 928 
f 927 959 960 
f 928 929 897 
f 928 960 929 
f 929 962 930 
f 929 961 962 
f 930 963 931 
f 930 962 963 
f 931 964 932 
f 931 963 964 
f 932 965 933 
f 932 964 965 
f 933 966 934 
f 933 965 966 
f 934 967 935 
f 934 966 967 
f 935 968 936 
f 935 967 968 
f 936 969 937 
f 936 968 969 
f 937 970 938 
f 937 969 970 
f 938 971 939 
f 938 970 971 
f 939 972 940 
f 939 971 972 
f 940 973 941 
f 940 972 973 
f 941 974 942 
f 941 973 974 
f 942 975 943 
f 942 974 975 
f 943 976 944 
f 943 975 976 
f 944 977 945 
f 944 976 977 
f 945 978 946 
f 945 977 978 
f 946 979 947 
f 946 978 979 
f 947 980 948 
f 947 979 980 
f 948 981 949 
f 948 980 981 
f 949 982 950 
f 949 981 982 
f 950 983 951 
f 950 982 983 
f 951 984 952 
f 951 983 984 
f 952 985 953 
f 952 984 985 
f 953 986 954 
f 953 985 986 
f 954 987 955 
f 954 986 987 
f 955 988 956 
f 955 987 988 
f 956 989 957 
f 956 988 989 
f 957 990 958 
f 957 989 990 
f 958 991 959 
f 958 990 991 
f 959 992 960 
f 959 991 992 
f 960 961 929 
f 960 992 961 
f 961 994 962 
f 961 993 994 
f 962 995 963 
f 962 994 995 
f 963 996 964 
f 963 995 996 
f 964 997 965 
f 964 996 997 
f 965 998 966 
f 965 997 998 
f 966 999 967 
f 966 998 999 
f 967 1000 968 
f 967 999 1000 
f 968 1001 969 
f 968 1000 1001 
f 969 1002 970 
f 969 1001 1002 
f 970 1003 971 
f 970 1002 1003 
f 971 1004 972 
f 971 1003 1004 
f 972 1005 973 
f 972 1004 1005 
f 973 1006 974 
f 973 1005 1006 
f 974 1007 975 
f 974 1006 1007 
f 975 1008 976 
f 975 1007 1008 
f 976 1009 977 
f 976 1008 1009 
f 977 1010 978 
f 977 1009 1010 
f 978 1011 979 
f 978 1010 1011 
f 979 1012 980 
f 979 1011 1012 
f 980 1013 981 
f 980 1012 1013 
f 981 1014 982 
f 981 1013 1014 
f 982 1015 983 
f 982 1014 1015 
f 983 1016 984 
f 983 1015 1016 
f 984 1017 985 
f 984 1016 1017 
f 985 1018 986 
f 985 1017 1018 
f 986 1019 987 
f 986 1018 1019 
f 987 1020 988 
f 987 1019 1020 
f 988 1021 989 
f 988 1020 1021 
f 989 1022 990 
f 989 1021 1022 
f 990 1023 991 
f 990 1022 1023 
f 991 1024 992 
f 991 1023 1024 
f 992 993 961 
f 992 1024 993 
f 993 1026 994 
f 993 1025 1026 
f 994 1027 995 
f 994 1026 1027 
f 995 1028 996 
f 995 1027 1028 
f 996 1029 997 
f 996 1028 1029 
f 997 1030 998 
f 997 1029 1030 
f 998 1031 999 
f 998 1030 1031 
f 999 1032 1000 
f 999 1031 1032 
f 1000 1033 1001 
f 1000 1032 1033 
f 1001 1034 1002 
f 1001 1033 1034 
f 1002 1035 1003 
f 1002 1034 1035 
f 1003 1036 1004 
f 1003 1035 1036 
f 1004 1037 1005 
f 1004 1036 1037 
f 1005 1038 1006 
f 1005 1037 1038 
f 1006 1039 1007 
f 1006 1038 1039 
f 1007 1040 1008 
f 1007 1039 1040 
f 1008 1041 1009 
f 1008 1040 1041 
f 1009 1042 1010 
f 1009 1041 1042 
f 1010 1043 1011 
f 1010 1042 1043 
f 1011 1044 1012 
f 1011 1043 1044 
f 1012 1045 1013 
f 1012 1044 1045 
f 1013 1046 1014 
f 1013 1045 1046 
f 1014 1047 1015 
f 1014 1046 1047 
f 1015 1048 1016 
f 1015 1047 1048 
f 1016 1049 1017 
f 1016 1048 1049 
f 1017 1050 1018 
f 1017 1049 1050 
f 1018 1051 1019 
f 1018 1050 1051 
f 1019 1052 1020 
f 1019 1051 1052 
f 1020 1053 1021 
f 1020 1052 1053 
f 1021 1054 1022 
f 1021 1053 1054 
f 1022 1055 1023 
f 1022 1054 1055 
f 1023 1056 1024 
f 1023 1055 1056 
f 1024 1025 993 
f 1024 1056 1025 
f 1025 1058 1026 
f 1025 1057 1058 
f 1026 1059 1027 
f 1026 1058 1059 
f 1027 1060 1028 
f 1027 1059 1060 
f 1028 1061 1029 
f 1028 1060 1061 
f 1029 1062 1030 
f 1029 1061 1062 
f 1030 1063 1031 
f 1030 1062 1063 
f 1031 1064 1032 
f 1031 1063 1064 
f 1032 1065 1033 
f 1032 1064 1065 
f 1033 1066 1034 
f 1033 1065 1066 
f 1034 1067 1035 
f 1034 1066 1067 
f 1035 1068 1036 
f 1035 1067 1068 
f 1036 1069 1037 
f 1036 1068 1069 
f 1037 1070 1038 
f 1037 1069 1070 
f 1038 1071 1039 
f 1038 1070 1071 
f 1039 1072 1040 
f 1039 1071 1072 
f 1040 1073 1041 
f 1040 1072 1073 
f 1041 1074 1042 
f 1041 1073 1074 
f 1042 1075 1043 
f 1042 1074 1075 
f 1043 1076 1044 
f 1043 1075 1076 
f 1044 1077 1045 
f 1044 1076 1077 
f 1045 1078 1046 
f 1045 1077 1078 
f 1046 1079 1047 
f 1046 1078 1079 
f 1047 1080 1048 
f 1047 1079 1080 
f 1048 1081 1049 
f 1048 1080 1081 
f 1049 1082 1050 
f 1049 1081 1082 
f 1050 1083 1051 
f 1050 1082 1083 
f 1051 1084 1052 
f 1051 1083 1084 
f 1052 1085 1053 
f 1052 1084 1085 
f 1053 1086 1054 
f 1053 1085 1086 
f 1054 1087 1055 
f 1054 1086 1087 
f 1055 1088 1056 
f 1055 1087 1088 
f 1056 1057 1025 
f 1056 1088 1057 
f 1057 1090 1058 
f 1057 1089 1090 
f 1058 1091 1059 
f 1058 1090 1091 
f 1059 1092 1060 
f 1059 1091 1092 
f 1060 1093 1061 
f 1060 1092 1093 
f 1061 1094 1062 
f 1061 1093 1094 
f 1062 1095 1063 
f 1062 1094 1095 
f 1063 1096 1064 
f 1063 1095 1096 
f 1064 1097 1065 
f 1064 1096 1097 
f 1065 1098 1066 
f 1065 1097 1098 
f 1066 1099 1067 
f 1066 1098 1099 
f 1067 1100 1068 
f 1067 1099 1100 
f 1068 1101 1069 
f 1068 1100 1101 
f 1069 1102 1070 
f 1069 1101 1102 
f 1070 1103 1071 
f 1070 1102 1103 
f 1071 1104 1072 
f 1071 1103 1104 
f 1072 1105 1073 
f 1072 1104 1105 
f 1073 1106 1074 
f 1073 1105 1106 
f 1074 1107 1075 
f 1074 1106 1107 
f 1075 1108 1076 
f 1075 1107 1108 
f 1076 1109 1077 
f 1076 1108 1109 
f 1077 1110 1078 
f 1077 1109 1110 
f 1078 1111 1079 
f 1078 1110 1111 
f 1079 1112 1080 
f 1079 1111 1112 
f 1080 1113 1081 
f 1080 1112 1113 
f 1081 1114 1082 
f 1081 1113 1114 
f 1082 1115 1083 
f 1082 1114 1115 
f 1083 1116 1084 
f 1083 1115 1116 
f 1084 1117 1085 
f 1084 1116 1117 
f 1085 1118 1086 
f 1085 1117 1118 
f 1086 1119 1087 
f 1086 1118 1119 
f 1087 1120 1088 
f 1087 1119 1120 
f 1088 1089 1057 
f 1088 1120 1089 
f 1089 1122 1090 
f 1089 1121 1122 
f 1090 1123 1091 
f 1090 1122 1123 
f 1091 1124 1092 
f 1091 1123 1124 
f 1092 1125 1093 
f 1092 1124 1125 
f 1093 1126 1094 
f 1093 1125 1126 
f 1094 1127 1095 
f 1094 1126 1127 
f 1095 1128 1096 
f 1095 1127 1128 
f 1096 1129 1097 
f 1096 1128 1129 
f 1097 1130 1098 
f 1097 1129 1130 
f 1098 1131 1099 
f 1098 1130 1131 
f 1099 1132 1100 
f 1099 1131 1132 
f 1100 1133 1101 
f 1100 1132 1133 
f 1101 1134 1102 
f 1101 1133 1134 
f 1102 1135 1103 
f 1102 1134 1135 
f 1103 1136 1104 
f 1103 1135 1136 
f 1104 1137 1105 
f 1104 1136 1137 
f 1105 1138 1106 
f 1105 1137 1138 
f 1106 1139 1107 
f 1106 1138 1139 
f 1107 1140 1108 
f 1107 1139 1140 
f 1108 1141 1109 
f 1108 1140 1141 
f 1109 1142 1110 
f 1109 1141 1142 
f 1110 1143 1111 
f 1110 1142 1143 
f 1111 1144 1112 
f 1111 1143 1144 
f 1112 1145 1113 
f 1112 1144 1145 
f 1113 1146 1114 
f 1113 1145 1146 
f 1114 1147 1115 
f 1114 1146 1147 
f 1115 1148 1116 
f 1115 1147 1148 
f 1116 1149 1117 
f 1116 1148 1149 
f 1117 1150 1118 
f 1117 1149 1150 
f 1118 1151 1119 
f 1118 1150 1151 
f 1119 1152 1120 
f 1119 1151 1152 
f 1120 1121 1089 
f 1120 1152 1121 
