# Branch
v 267.647 -34.8685 -70.171
v 267.651 -34.8687 -70.227
v 267.666 -34.8654 -70.2812
v 267.69 -34.859 -70.3315
v 267.724 -34.8495 -70.3758
v 267.764 -34.8374 -70.4125
v 267.811 -34.8231 -70.4402
v 267.862 -34.8072 -70.4579
v 267.915 -34.7903 -70.4647
v 267.969 -34.773 -70.4606
v 268.02 -34.756 -70.4456
v 268.068 -34.7399 -70.4203
v 268.11 -34.7255 -70.3857
v 268.144 -34.7131 -70.3431
v 268.17 -34.7034 -70.2942
v 268.187 -34.6966 -70.2408
v 268.193 -34.6931 -70.185
v 268.188 -34.6929 -70.1289
v 268.174 -34.6962 -70.0747
v 268.149 -34.7026 -70.0245
v 268.116 -34.7121 -69.9801
v 268.075 -34.7242 -69.9434
v 268.028 -34.7385 -69.9157
v 267.977 -34.7544 -69.8981
v 267.924 -34.7714 -69.8912
v 267.871 -34.7886 -69.8953
v 267.819 -34.8056 -69.9103
v 267.772 -34.8217 -69.9356
v 267.73 -34.8361 -69.9702
v 267.695 -34.8485 -70.0128
v 267.669 -34.8582 -70.0617
v 267.653 -34.865 -70.1151
v 267.081 -32.8001 -70.2293
v 267.085 -32.8007 -70.2851
v 267.1 -32.7988 -70.3389
v 267.125 -32.7945 -70.3888
v 267.159 -32.7881 -70.4328
v 267.201 -32.7797 -70.4692
v 267.248 -32.7697 -70.4966
v 267.3 -32.7584 -70.514
v 267.355 -32.7463 -70.5207
v 267.409 -32.7339 -70.5165
v 267.461 -32.7217 -70.5014
v 267.51 -32.71 -70.4762
v 267.553 -32.6994 -70.4417
v 267.588 -32.6902 -70.3992
v 267.614 -32.6829 -70.3505
v 267.631 -32.6777 -70.2974
v 267.637 -32.6747 -70.2419
v 267.633 -32.6742 -70.1862
v 267.618 -32.6761 -70.1323
v 267.593 -32.6803 -70.0824
v 267.559 -32.6868 -70.0385
v 267.517 -32.6952 -70.002
v 267.47 -32.7052 -69.9746
v 267.418 -32.7165 -69.9572
v 267.363 -32.7285 -69.9505
v 267.309 -32.7409 -69.9548
v 267.257 -32.7532 -69.9698
v 267.208 -32.7649 -69.9951
v 267.165 -32.7755 -70.0296
v 267.13 -32.7846 -70.072
v 267.104 -32.792 -70.1207
v 267.087 -32.7972 -70.1738
v 266.733 -30.8463 -70.2799
v 266.738 -30.847 -70.3354
v 266.753 -30.8463 -70.3889
v 266.778 -30.8442 -70.4384
v 266.812 -30.8407 -70.482
v 266.854 -30.8361 -70.5181
v 266.903 -30.8304 -70.5453
v 266.955 -30.8239 -70.5625
v 267.01 -30.8169 -70.569
v 267.065 -30.8096 -70.5647
v 267.118 -30.8023 -70.5496
v 267.167 -30.7953 -70.5243
v 267.21 -30.7889 -70.4899
v 267.246 -30.7832 -70.4477
v 267.272 -30.7786 -70.3992
v 267.289 -30.7752 -70.3463
v 267.296 -30.7731 -70.2911
v 267.291 -30.7724 -70.2357
v 267.276 -30.7731 -70.1822
v 267.251 -30.7752 -70.1327
v 267.217 -30.7787 -70.089
v 267.175 -30.7834 -70.0529
v 267.126 -30.789 -70.0257
v 267.074 -30.7955 -70.0086
v 267.019 -30.8025 -70.002
v 266.964 -30.8098 -70.0064
v 266.911 -30.8171 -70.0215
v 266.862 -30.8241 -70.0467
v 266.819 -30.8305 -70.0811
v 266.783 -30.8362 -70.1234
v 266.757 -30.8408 -70.1719
v 266.74 -30.8442 -70.2247
v 266.579 -28.9966 -70.3154
v 266.583 -28.9972 -70.3705
v 266.598 -28.9974 -70.4237
v 266.623 -28.9971 -70.4729
v 266.658 -28.9964 -70.5162
v 266.7 -28.9953 -70.552
v 266.748 -28.9939 -70.579
v 266.801 -28.9921 -70.596
v 266.855 -28.9901 -70.6024
v 266.911 -28.988 -70.5979
v 266.964 -28.9857 -70.5828
v 267.013 -28.9835 -70.5577
v 267.056 -28.9814 -70.5234
v 267.092 -28.9794 -70.4813
v 267.119 -28.9777 -70.433
v 267.136 -28.9763 -70.3804
v 267.142 -28.9753 -70.3255
v 267.138 -28.9747 -70.2704
v 267.123 -28.9745 -70.2173
v 267.097 -28.9748 -70.1681
v 267.063 -28.9755 -70.1247
v 267.021 -28.9766 -70.0889
v 266.973 -28.978 -70.062
v 266.92 -28.9798 -70.045
v 266.865 -28.9818 -70.0386
v 266.81 -28.9839 -70.043
v 266.757 -28.9862 -70.0581
v 266.708 -28.9884 -70.0833
v 266.665 -28.9905 -70.1176
v 266.629 -28.9925 -70.1597
v 266.602 -28.9942 -70.2079
v 266.585 -28.9956 -70.2605
v 266.591 -27.2406 -70.3284
v 266.595 -27.2408 -70.3832
v 266.61 -27.2415 -70.436
v 266.635 -27.2427 -70.4849
v 266.669 -27.2444 -70.528
v 266.711 -27.2465 -70.5636
v 266.759 -27.2488 -70.5904
v 266.811 -27.2514 -70.6072
v 266.866 -27.2542 -70.6135
v 266.921 -27.2569 -70.6091
v 266.973 -27.2595 -70.5941
v 267.022 -27.262 -70.569
v 267.065 -27.2641 -70.5349
v 267.101 -27.2659 -70.493
v 267.128 -27.2672 -70.445
v 267.144 -27.2681 -70.3927
v 267.151 -27.2684 -70.3381
v 267.146 -27.2682 -70.2833
v 267.131 -27.2675 -70.2305
v 267.106 -27.2663 -70.1816
v 267.072 -27.2646 -70.1385
v 267.03 -27.2625 -70.1029
v 266.982 -27.2602 -70.0762
v 266.93 -27.2576 -70.0593
v 266.876 -27.2549 -70.053
v 266.821 -27.2521 -70.0574
v 266.768 -27.2495 -70.0725
v 266.719 -27.2471 -70.0975
v 266.676 -27.2449 -70.1316
v 266.641 -27.2431 -70.1735
v 266.614 -27.2418 -70.2215
v 266.597 -27.2409 -70.2738
v 266.744 -25.5679 -70.3116
v 266.748 -25.5673 -70.3661
v 266.763 -25.5682 -70.4186
v 266.788 -25.5704 -70.4673
v 266.822 -25.5739 -70.5101
v 266.863 -25.5785 -70.5455
v 266.91 -25.5841 -70.5721
v 266.962 -25.5905 -70.5889
v 267.016 -25.5973 -70.5953
v 267.07 -25.6044 -70.5909
v 267.122 -25.6115 -70.576
v 267.17 -25.6183 -70.5511
v 267.212 -25.6245 -70.5172
v 267.247 -25.6299 -70.4756
v 267.274 -25.6343 -70.4279
v 267.29 -25.6376 -70.376
v 267.296 -25.6395 -70.3217
v 267.292 -25.6401 -70.2673
v 267.277 -25.6392 -70.2147
v 267.252 -25.637 -70.1661
v 267.218 -25.6335 -70.1232
v 267.177 -25.6289 -70.0878
v 267.13 -25.6233 -70.0612
v 267.078 -25.6169 -70.0444
v 267.024 -25.61 -70.0381
v 266.97 -25.6029 -70.0425
v 266.918 -25.5959 -70.0574
v 266.87 -25.5891 -70.0822
v 266.828 -25.5829 -70.1161
v 266.793 -25.5774 -70.1577
v 266.766 -25.573 -70.2054
v 266.75 -25.5698 -70.2574
v 267.01 -23.9678 -70.2579
v 267.015 -23.9662 -70.312
v 267.03 -23.9666 -70.3642
v 267.054 -23.9693 -70.4126
v 267.088 -23.9739 -70.4552
v 267.129 -23.9804 -70.4905
v 267.175 -23.9884 -70.517
v 267.226 -23.9978 -70.5338
v 267.279 -24.008 -70.5402
v 267.332 -24.0188 -70.536
v 267.383 -24.0298 -70.5213
v 267.43 -24.0404 -70.4967
v 267.472 -24.0503 -70.4632
v 267.506 -24.0591 -70.4219
v 267.532 -24.0664 -70.3746
v 267.548 -24.0721 -70.323
v 267.554 -24.0758 -70.2691
v 267.549 -24.0775 -70.215
v 267.534 -24.077 -70.1628
v 267.51 -24.0744 -70.1144
v 267.476 -24.0697 -70.0718
v 267.435 -24.0633 -70.0365
v 267.389 -24.0552 -70.01
v 267.338 -24.0459 -69.9932
v 267.285 -24.0356 -69.9868
v 267.232 -24.0248 -69.991
v 267.181 -24.0139 -70.0057
v 267.133 -24.0033 -70.0303
v 267.092 -23.9934 -70.0639
v 267.058 -23.9846 -70.1051
v 267.032 -23.9772 -70.1524
v 267.016 -23.9715 -70.204
v 267.364 -22.4294 -70.1601
v 267.369 -22.4263 -70.2138
v 267.384 -22.426 -70.2657
v 267.409 -22.4284 -70.3137
v 267.442 -22.4334 -70.3561
v 267.482 -22.4409 -70.3913
v 267.528 -22.4505 -70.4178
v 267.578 -22.462 -70.4346
v 267.63 -22.4748 -70.4411
v 267.682 -22.4884 -70.4371
v 267.732 -22.5024 -70.4227
v 267.779 -22.5162 -70.3984
v 267.819 -22.5293 -70.3653
v 267.852 -22.5411 -70.3245
v 267.877 -22.5513 -70.2776
v 267.893 -22.5594 -70.2265
v 267.898 -22.565 -70.173
v 267.893 -22.5681 -70.1193
v 267.878 -22.5685 -70.0675
v 267.854 -22.5661 -70.0194
v 267.82 -22.561 -69.977
v 267.78 -22.5536 -69.9419
v 267.734 -22.5439 -69.9154
v 267.684 -22.5325 -69.8985
v 267.632 -22.5197 -69.892
v 267.58 -22.506 -69.896
v 267.53 -22.492 -69.9104
v 267.484 -22.4782 -69.9347
v 267.443 -22.4651 -69.9678
v 267.41 -22.4533 -70.0086
v 267.385 -22.4431 -70.0555
v 267.369 -22.4351 -70.1067
v 267.779 -20.9413 -70.0113
v 267.784 -20.9365 -70.0645
v 267.799 -20.9348 -70.1159
v 267.824 -20.9364 -70.1636
v 267.857 -20.941 -70.2057
v 267.897 -20.9487 -70.2407
v 267.943 -20.959 -70.2671
v 267.992 -20.9716 -70.2839
v 268.043 -20.986 -70.2906
v 268.094 -21.0016 -70.2868
v 268.144 -21.0179 -70.2727
v 268.189 -21.0342 -70.2489
v 268.229 -21.0498 -70.2162
v 268.261 -21.0643 -70.1759
v 268.285 -21.077 -70.1295
v 268.299 -21.0874 -70.0789
v 268.304 -21.0951 -70.026
v 268.299 -21.0999 -69.9728
v 268.283 -21.1016 -69.9214
v 268.259 -21.1001 -69.8736
v 268.226 -21.0954 -69.8315
v 268.186 -21.0877 -69.7966
v 268.14 -21.0774 -69.7702
v 268.091 -21.0648 -69.7533
v 268.04 -21.0504 -69.7466
v 267.988 -21.0348 -69.7504
v 267.939 -21.0185 -69.7645
v 267.894 -21.0023 -69.7884
v 267.854 -20.9866 -69.8211
v 267.822 -20.9722 -69.8614
v 267.798 -20.9595 -69.9077
v 267.783 -20.9491 -69.9583
v 268.227 -19.4919 -69.8045
v 268.233 -19.4851 -69.8571
v 268.249 -19.4817 -69.908
v 268.274 -19.4818 -69.9552
v 268.307 -19.4853 -69.9969
v 268.347 -19.4923 -70.0316
v 268.393 -19.5024 -70.0578
v 268.442 -19.5152 -70.0746
v 268.492 -19.5302 -70.0813
v 268.543 -19.5468 -70.0777
v 268.591 -19.5645 -70.0639
v 268.636 -19.5825 -70.0405
v 268.675 -19.6002 -70.0082
v 268.706 -19.6168 -69.9685
v 268.729 -19.6317 -69.9227
v 268.743 -19.6444 -69.8728
v 268.747 -19.6543 -69.8205
v 268.741 -19.6612 -69.7679
v 268.725 -19.6646 -69.717
v 268.7 -19.6645 -69.6698
v 268.667 -19.6609 -69.628
v 268.627 -19.654 -69.5934
v 268.582 -19.6439 -69.5672
v 268.533 -19.6311 -69.5504
v 268.482 -19.6161 -69.5436
v 268.431 -19.5994 -69.5472
v 268.383 -19.5818 -69.561
v 268.339 -19.5638 -69.5845
v 268.3 -19.5461 -69.6167
v 268.268 -19.5295 -69.6565
v 268.245 -19.5146 -69.7022
v 268.231 -19.5019 -69.7522
v 268.684 -18.0696 -69.533
v 268.691 -18.0605 -69.5849
v 268.707 -18.0549 -69.6351
v 268.733 -18.0529 -69.6816
v 268.766 -18.0547 -69.7228
v 268.806 -18.0601 -69.7569
v 268.852 -18.069 -69.7828
v 268.901 -18.0811 -69.7993
v 268.951 -18.0958 -69.806
v 269.002 -18.1125 -69.8024
v 269.05 -18.1308 -69.7888
v 269.094 -18.1498 -69.7657
v 269.132 -18.1688 -69.7339
v 269.162 -18.1871 -69.6948
v 269.185 -18.204 -69.6497
v 269.198 -18.2188 -69.6004
v 269.201 -18.231 -69.5488
v 269.194 -18.2401 -69.497
v 269.178 -18.2457 -69.4468
v 269.152 -18.2477 -69.4003
v 269.119 -18.246 -69.3591
v 269.079 -18.2405 -69.325
v 269.033 -18.2316 -69.2991
v 268.984 -18.2196 -69.2825
v 268.934 -18.2049 -69.2759
v 268.883 -18.1881 -69.2794
v 268.835 -18.1699 -69.293
v 268.792 -18.1509 -69.3162
v 268.754 -18.1318 -69.3479
v 268.723 -18.1135 -69.3871
v 268.7 -18.0967 -69.4322
v 268.687 -18.0818 -69.4815
v 269.123 -16.6626 -69.1901
v 269.131 -16.651 -69.241
v 269.148 -16.6427 -69.2903
v 269.174 -16.6381 -69.3359
v 269.208 -16.6374 -69.3762
v 269.249 -16.6405 -69.4096
v 269.295 -16.6474 -69.4348
v 269.344 -16.6578 -69.4509
v 269.394 -16.6712 -69.4572
v 269.445 -16.6872 -69.4535
v 269.492 -16.7052 -69.44
v 269.536 -16.7244 -69.417
v 269.573 -16.7442 -69.3857
v 269.604 -16.7637 -69.347
v 269.625 -16.7823 -69.3026
v 269.638 -16.7991 -69.2541
v 269.64 -16.8136 -69.2035
v 269.633 -16.8252 -69.1525
v 269.615 -16.8334 -69.1033
v 269.589 -16.838 -69.0576
v 269.555 -16.8387 -69.0173
v 269.515 -16.8356 -68.9839
v 269.469 -16.8287 -68.9587
v 269.42 -16.8184 -68.9426
v 269.369 -16.8049 -68.9363
v 269.319 -16.7889 -68.94
v 269.271 -16.7709 -68.9536
v 269.228 -16.7517 -68.9765
v 269.19 -16.7319 -69.0079
v 269.16 -16.7124 -69.0465
v 269.138 -16.6939 -69.0909
v 269.126 -16.677 -69.1394
v 269.52 -15.2586 -68.7689
v 269.528 -15.2444 -68.8187
v 269.546 -15.2332 -68.8668
v 269.572 -15.2256 -68.9112
v 269.607 -15.2217 -68.9504
v 269.648 -15.2219 -68.9827
v 269.695 -15.226 -69.0069
v 269.744 -15.2338 -69.0222
v 269.795 -15.2452 -69.0279
v 269.846 -15.2596 -69.0237
v 269.893 -15.2766 -69.01
v 269.937 -15.2954 -68.9871
v 269.974 -15.3153 -68.956
v 270.004 -15.3355 -68.9178
v 270.025 -15.3554 -68.8741
v 270.036 -15.3741 -68.8265
v 270.038 -15.3909 -68.7768
v 270.03 -15.4051 -68.727
v 270.012 -15.4163 -68.6789
v 269.985 -15.4239 -68.6344
v 269.951 -15.4277 -68.5953
v 269.909 -15.4276 -68.563
v 269.863 -15.4235 -68.5387
v 269.813 -15.4157 -68.5235
v 269.762 -15.4043 -68.5178
v 269.712 -15.3899 -68.5219
v 269.664 -15.3729 -68.5357
v 269.621 -15.3541 -68.5586
v 269.584 -15.3342 -68.5897
v 269.554 -15.3139 -68.6279
v 269.533 -15.2941 -68.6716
v 269.521 -15.2754 -68.7192
v 269.86 -13.8457 -68.267
v 269.868 -13.8291 -68.3157
v 269.887 -13.8154 -68.3625
v 269.914 -13.805 -68.4057
v 269.949 -13.7983 -68.4437
v 269.991 -13.7957 -68.4748
v 270.038 -13.7971 -68.498
v 270.088 -13.8027 -68.5123
v 270.139 -13.812 -68.5173
v 270.189 -13.8249 -68.5127
v 270.237 -13.8407 -68.4986
v 270.28 -13.859 -68.4757
v 270.317 -13.8789 -68.4448
v 270.346 -13.8997 -68.4071
v 270.367 -13.9206 -68.3641
v 270.378 -13.9409 -68.3173
v 270.379 -13.9597 -68.2686
v 270.371 -13.9762 -68.22
v 270.352 -13.99 -68.1731
v 270.325 -14.0004 -68.1299
v 270.29 -14.0071 -68.092
v 270.248 -14.0097 -68.0608
v 270.201 -14.0082 -68.0376
v 270.152 -14.0027 -68.0233
v 270.1 -13.9933 -68.0183
v 270.05 -13.9805 -68.023
v 270.002 -13.9646 -68.037
v 269.959 -13.9464 -68.0599
v 269.922 -13.9265 -68.0908
v 269.893 -13.9057 -68.1285
v 269.872 -13.8847 -68.1716
v 269.861 -13.8645 -68.2183
v 270.151 -12.4222 -67.6938
v 270.16 -12.4037 -67.7414
v 270.179 -12.3879 -67.7872
v 270.206 -12.3753 -67.8292
v 270.242 -12.3664 -67.866
v 270.284 -12.3615 -67.8961
v 270.331 -12.3609 -67.9183
v 270.381 -12.3646 -67.9318
v 270.432 -12.3724 -67.9361
v 270.482 -12.384 -67.9311
v 270.53 -12.399 -67.9168
v 270.573 -12.4168 -67.8939
v 270.609 -12.4367 -67.8632
v 270.639 -12.458 -67.8259
v 270.659 -12.4798 -67.7835
v 270.67 -12.5013 -67.7376
v 270.671 -12.5216 -67.6899
v 270.662 -12.5401 -67.6423
v 270.643 -12.5559 -67.5965
v 270.615 -12.5685 -67.5545
v 270.58 -12.5774 -67.5177
v 270.538 -12.5823 -67.4876
v 270.491 -12.5829 -67.4654
v 270.441 -12.5792 -67.4519
v 270.39 -12.5714 -67.4476
v 270.34 -12.5598 -67.4526
v 270.292 -12.5448 -67.4669
v 270.249 -12.5271 -67.4898
v 270.212 -12.5071 -67.5205
v 270.183 -12.4859 -67.5578
v 270.163 -12.4641 -67.6002
v 270.152 -12.4426 -67.6461
v 270.403 -10.9892 -67.0606
v 270.412 -10.9693 -67.1073
v 270.431 -10.9518 -67.152
v 270.459 -10.9375 -67.193
v 270.495 -10.9269 -67.2288
v 270.537 -10.9204 -67.2579
v 270.584 -10.9182 -67.2794
v 270.633 -10.9205 -67.2922
v 270.684 -10.927 -67.296
v 270.735 -10.9377 -67.2905
v 270.782 -10.952 -67.2761
v 270.825 -10.9695 -67.2532
v 270.861 -10.9894 -67.2228
v 270.89 -11.011 -67.1859
v 270.91 -11.0335 -67.1441
v 270.921 -11.056 -67.0989
v 270.922 -11.0776 -67.0521
v 270.912 -11.0975 -67.0054
v 270.894 -11.1149 -66.9607
v 270.866 -11.1292 -66.9196
v 270.83 -11.1398 -66.8839
v 270.788 -11.1463 -66.8547
v 270.741 -11.1485 -66.8333
v 270.691 -11.1463 -66.8204
v 270.64 -11.1397 -66.8167
v 270.59 -11.129 -66.8221
v 270.543 -11.1147 -66.8365
v 270.5 -11.0972 -66.8594
v 270.463 -11.0773 -66.8899
v 270.435 -11.0557 -66.9267
v 270.414 -11.0332 -66.9685
v 270.404 -11.0108 -67.0137
v 270.626 -9.54765 -66.3786
v 270.635 -9.52672 -66.4245
v 270.654 -9.50815 -66.4683
v 270.682 -9.49264 -66.5085
v 270.717 -9.4808 -66.5435
v 270.759 -9.47307 -66.5719
v 270.806 -9.46976 -66.5927
v 270.856 -9.471 -66.605
v 270.907 -9.47672 -66.6083
v 270.957 -9.48673 -66.6026
v 271.004 -9.50062 -66.5881
v 271.046 -9.51787 -66.5653
v 271.083 -9.53781 -66.5351
v 271.111 -9.55968 -66.4986
v 271.131 -9.58264 -66.4573
v 271.142 -9.6058 -66.4128
v 271.142 -9.62828 -66.3667
v 271.133 -9.6492 -66.3208
v 271.114 -9.66778 -66.2769
v 271.086 -9.68328 -66.2368
v 271.051 -9.69512 -66.2018
v 271.009 -9.70285 -66.1734
v 270.962 -9.70616 -66.1526
v 270.912 -9.70493 -66.1403
v 270.861 -9.6992 -66.137
v 270.811 -9.6892 -66.1426
v 270.764 -9.6753 -66.1572
v 270.721 -9.65805 -66.18
v 270.685 -9.63811 -66.2102
v 270.656 -9.61624 -66.2467
v 270.636 -9.59328 -66.288
v 270.626 -9.57012 -66.3325
v 270.828 -8.09872 -65.6592
v 270.837 -8.07713 -65.7045
v 270.856 -8.05782 -65.7477
v 270.884 -8.04154 -65.7872
v 270.92 -8.02892 -65.8216
v 270.961 -8.02043 -65.8494
v 271.008 -8.01641 -65.8697
v 271.058 -8.01701 -65.8816
v 271.108 -8.02221 -65.8847
v 271.158 -8.0318 -65.8789
v 271.205 -8.04542 -65.8643
v 271.247 -8.06255 -65.8416
v 271.283 -8.08252 -65.8117
v 271.312 -8.10457 -65.7756
v 271.332 -8.12785 -65.7347
v 271.342 -8.15147 -65.6907
v 271.342 -8.17452 -65.6452
v 271.333 -8.19612 -65.6
v 271.314 -8.21542 -65.5568
v 271.286 -8.2317 -65.5173
v 271.251 -8.24432 -65.4829
v 271.209 -8.25281 -65.455
v 271.162 -8.25683 -65.4348
v 271.113 -8.25623 -65.4229
v 271.062 -8.25104 -65.4198
v 271.012 -8.24144 -65.4256
v 270.965 -8.22782 -65.4401
v 270.923 -8.2107 -65.4628
v 270.887 -8.19072 -65.4928
v 270.858 -8.16867 -65.5289
v 270.839 -8.14539 -65.5697
v 270.828 -8.12177 -65.6137
v 271.02 -6.64341 -64.9139
v 271.029 -6.62149 -64.9586
v 271.048 -6.60183 -65.0013
v 271.076 -6.58518 -65.0404
v 271.111 -6.57219 -65.0744
v 271.153 -6.56335 -65.1019
v 271.199 -6.559 -65.1218
v 271.249 -6.55932 -65.1335
v 271.299 -6.56428 -65.1365
v 271.348 -6.5737 -65.1307
v 271.395 -6.58722 -65.1162
v 271.437 -6.60431 -65.0936
v 271.473 -6.62432 -65.0639
v 271.501 -6.64648 -65.0281
v 271.521 -6.66994 -64.9877
v 271.531 -6.6938 -64.9441
v 271.531 -6.71713 -64.8991
v 271.522 -6.73906 -64.8544
v 271.503 -6.75872 -64.8116
v 271.475 -6.77536 -64.7726
v 271.44 -6.78836 -64.7386
v 271.398 -6.7972 -64.7111
v 271.352 -6.80154 -64.6912
v 271.303 -6.80123 -64.6794
v 271.252 -6.79626 -64.6765
v 271.203 -6.78684 -64.6823
v 271.156 -6.77333 -64.6968
v 271.114 -6.75624 -64.7193
v 271.078 -6.73623 -64.7491
v 271.05 -6.71406 -64.7848
v 271.03 -6.6906 -64.8253
v 271.02 -6.66675 -64.8689
v 271.211 -5.18271 -64.1539
v 271.22 -5.16078 -64.1983
v 271.239 -5.14112 -64.2408
v 271.266 -5.12448 -64.2796
v 271.302 -5.11151 -64.3133
v 271.343 -5.1027 -64.3406
v 271.389 -5.0984 -64.3605
v 271.438 -5.09876 -64.3722
v 271.488 -5.10377 -64.3752
v 271.537 -5.11324 -64.3694
v 271.584 -5.12681 -64.3551
v 271.626 -5.14395 -64.3328
v 271.661 -5.16401 -64.3033
v 271.689 -5.18622 -64.2678
v 271.709 -5.20972 -64.2277
v 271.719 -5.2336 -64.1844
v 271.719 -5.25696 -64.1397
v 271.71 -5.27889 -64.0953
v 271.691 -5.29855 -64.0529
v 271.664 -5.31519 -64.0141
v 271.628 -5.32816 -63.9803
v 271.587 -5.33697 -63.953
v 271.541 -5.34128 -63.9331
v 271.492 -5.34092 -63.9215
v 271.442 -5.33591 -63.9185
v 271.392 -5.32643 -63.9243
v 271.346 -5.31286 -63.9386
v 271.304 -5.29572 -63.9609
v 271.269 -5.27566 -63.9904
v 271.24 -5.25345 -64.0259
v 271.221 -5.22996 -64.066
v 271.211 -5.20607 -64.1093
v 271.41 -3.71759 -63.3908
v 271.42 -3.69595 -63.4351
v 271.438 -3.67664 -63.4774
v 271.466 -3.66038 -63.5162
v 271.501 -3.6478 -63.5499
v 271.542 -3.63939 -63.5772
v 271.588 -3.63547 -63.5972
v 271.636 -3.6362 -63.6089
v 271.686 -3.64153 -63.6121
v 271.735 -3.65128 -63.6065
v 271.781 -3.66506 -63.5924
v 271.823 -3.68234 -63.5704
v 271.858 -3.70246 -63.5411
v 271.886 -3.72465 -63.5059
v 271.905 -3.74805 -63.466
v 271.915 -3.77177 -63.423
v 271.916 -3.79489 -63.3785
v 271.906 -3.81652 -63.3343
v 271.888 -3.83584 -63.2919
v 271.86 -3.8521 -63.2532
v 271.825 -3.86468 -63.2195
v 271.784 -3.87308 -63.1921
v 271.738 -3.877 -63.1722
v 271.69 -3.87628 -63.1604
v 271.64 -3.87094 -63.1572
v 271.591 -3.8612 -63.1628
v 271.545 -3.84742 -63.1769
v 271.503 -3.83014 -63.199
v 271.468 -3.81002 -63.2282
v 271.44 -3.78783 -63.2634
v 271.421 -3.76443 -63.3033
v 271.411 -3.74071 -63.3463
v 271.628 -2.24897 -62.636
v 271.637 -2.22793 -62.6803
v 271.656 -2.20929 -62.7226
v 271.683 -2.19377 -62.7615
v 271.718 -2.18197 -62.7954
v 271.759 -2.17432 -62.8229
v 271.804 -2.17114 -62.8431
v 271.852 -2.17255 -62.8552
v 271.902 -2.17848 -62.8587
v 271.95 -2.18871 -62.8534
v 271.996 -2.20285 -62.8396
v 272.037 -2.22036 -62.8178
v 272.073 -2.24056 -62.7889
v 272.1 -2.26267 -62.7539
v 272.12 -2.28585 -62.7142
v 272.13 -2.3092 -62.6713
v 272.13 -2.33183 -62.6268
v 272.121 -2.35287 -62.5826
v 272.102 -2.37151 -62.5402
v 272.075 -2.38703 -62.5013
v 272.041 -2.39884 -62.4675
v 272.0 -2.40648 -62.4399
v 271.954 -2.40966 -62.4197
v 271.906 -2.40825 -62.4076
v 271.856 -2.40232 -62.4041
v 271.808 -2.39209 -62.4094
v 271.762 -2.37795 -62.4232
v 271.721 -2.36044 -62.445
v 271.686 -2.34024 -62.4739
v 271.658 -2.31813 -62.509
v 271.639 -2.29495 -62.5487
v 271.629 -2.2716 -62.5916
v 271.874 -0.777762 -61.9009
v 271.884 -0.757623 -61.9453
v 271.902 -0.740006 -61.9879
v 271.929 -0.725588 -62.027
v 271.963 -0.714923 -62.0613
v 272.003 -0.708421 -62.0892
v 272.048 -0.706331 -62.1099
v 272.096 -0.708735 -62.1224
v 272.145 -0.715539 -62.1263
v 272.193 -0.726482 -62.1214
v 272.239 -0.741144 -62.108
v 272.28 -0.758961 -62.0865
v 272.315 -0.779249 -62.0578
v 272.342 -0.801227 -62.023
v 272.361 -0.824052 -61.9834
v 272.372 -0.846846 -61.9405
v 272.372 -0.868732 -61.896
v 272.363 -0.888871 -61.8517
v 272.345 -0.906488 -61.8091
v 272.318 -0.920906 -61.7699
v 272.284 -0.931571 -61.7357
v 272.243 -0.938074 -61.7077
v 272.198 -0.940163 -61.6871
v 272.15 -0.93776 -61.6746
v 272.101 -0.930955 -61.6707
v 272.053 -0.920012 -61.6755
v 272.008 -0.90535 -61.6889
v 271.967 -0.887533 -61.7104
v 271.932 -0.867245 -61.7391
v 271.904 -0.845267 -61.7739
v 271.885 -0.822442 -61.8135
v 271.875 -0.799649 -61.8564
v 272.159 0.69515 -61.197
v 272.167 0.714079 -61.2416
v 272.185 0.730327 -61.2846
v 272.212 0.743268 -61.3242
v 272.245 0.752406 -61.359
v 272.285 0.75739 -61.3875
v 272.33 0.758027 -61.4087
v 272.377 0.754294 -61.4218
v 272.426 0.746334 -61.4262
v 272.473 0.734453 -61.4219
v 272.518 0.719107 -61.4089
v 272.559 0.700886 -61.3878
v 272.594 0.680491 -61.3593
v 272.621 0.658705 -61.3247
v 272.64 0.636365 -61.2851
v 272.651 0.61433 -61.2422
v 272.651 0.593447 -61.1975
v 272.642 0.574518 -61.1528
v 272.625 0.55827 -61.1099
v 272.598 0.545329 -61.0703
v 272.564 0.536191 -61.0355
v 272.524 0.531207 -61.007
v 272.48 0.53057 -60.9858
v 272.433 0.534303 -60.9727
v 272.384 0.542263 -60.9683
v 272.336 0.554144 -60.9726
v 272.291 0.56949 -60.9856
v 272.251 0.587711 -61.0067
v 272.216 0.608106 -61.0352
v 272.189 0.629892 -61.0698
v 272.169 0.652232 -61.1094
v 272.159 0.674267 -61.1523
v 272.49 2.16863 -60.5355
v 272.498 2.1861 -60.5805
v 272.516 2.20069 -60.624
v 272.542 2.21184 -60.6641
v 272.575 2.21913 -60.6995
v 272.614 2.22229 -60.7286
v 272.658 2.22117 -60.7505
v 272.705 2.21584 -60.7642
v 272.753 2.20649 -60.7693
v 272.8 2.19348 -60.7655
v 272.844 2.17732 -60.753
v 272.885 2.15862 -60.7323
v 272.919 2.1381 -60.7041
v 272.947 2.11656 -60.6696
v 272.966 2.09481 -60.6301
v 272.976 2.0737 -60.587
v 272.977 2.05403 -60.5421
v 272.969 2.03657 -60.497
v 272.951 2.02198 -60.4536
v 272.925 2.01082 -60.4135
v 272.892 2.00353 -60.3781
v 272.853 2.00038 -60.3489
v 272.809 2.00149 -60.3271
v 272.762 2.00683 -60.3133
v 272.714 2.01618 -60.3083
v 272.667 2.02918 -60.312
v 272.623 2.04535 -60.3246
v 272.582 2.06405 -60.3453
v 272.548 2.08457 -60.3735
v 272.52 2.10611 -60.408
v 272.501 2.12786 -60.4475
v 272.491 2.14897 -60.4906
v 272.87 3.6406 -59.9198
v 272.878 3.65672 -59.9651
v 272.895 3.66979 -60.0089
v 272.92 3.6793 -60.0495
v 272.953 3.6849 -60.0853
v 272.992 3.68638 -60.115
v 273.035 3.68366 -60.1375
v 273.081 3.67686 -60.1518
v 273.128 3.66624 -60.1574
v 273.175 3.6522 -60.154
v 273.219 3.63529 -60.142
v 273.259 3.61616 -60.1216
v 273.293 3.59554 -60.0936
v 273.32 3.57422 -60.0593
v 273.34 3.55302 -60.0198
v 273.35 3.53276 -59.9766
v 273.351 3.51422 -59.9315
v 273.343 3.4981 -59.8862
v 273.326 3.48504 -59.8424
v 273.301 3.47552 -59.8018
v 273.268 3.46992 -59.766
v 273.23 3.46845 -59.7363
v 273.186 3.47117 -59.7139
v 273.14 3.47797 -59.6996
v 273.093 3.48859 -59.694
v 273.046 3.50262 -59.6973
v 273.002 3.51953 -59.7094
v 272.962 3.53866 -59.7298
v 272.928 3.55929 -59.7577
v 272.901 3.58061 -59.7921
v 272.882 3.6018 -59.8316
v 272.871 3.62206 -59.8747
v 273.293 5.11077 -59.344
v 273.3 5.12572 -59.3895
v 273.317 5.13748 -59.4335
v 273.342 5.14559 -59.4744
v 273.374 5.14974 -59.5106
v 273.412 5.14978 -59.5407
v 273.454 5.14569 -59.5636
v 273.5 5.13763 -59.5783
v 273.547 5.12593 -59.5843
v 273.593 5.11102 -59.5814
v 273.636 5.09348 -59.5697
v 273.676 5.07398 -59.5496
v 273.71 5.05327 -59.5219
v 273.737 5.03215 -59.4877
v 273.756 5.01143 -59.4482
v 273.767 4.99191 -59.4051
v 273.768 4.97433 -59.3599
v 273.76 4.95938 -59.3144
v 273.744 4.94762 -59.2704
v 273.719 4.93951 -59.2295
v 273.687 4.93536 -59.1933
v 273.649 4.93533 -59.1632
v 273.606 4.93942 -59.1403
v 273.561 4.94747 -59.1256
v 273.514 4.95918 -59.1196
v 273.468 4.97409 -59.1225
v 273.425 4.99163 -59.1342
v 273.385 5.01113 -59.1543
v 273.351 5.03183 -59.182
v 273.324 5.05295 -59.2163
v 273.305 5.07367 -59.2557
v 273.294 5.09319 -59.2988
v 273.752 6.57915 -58.8018
v 273.759 6.59313 -58.8474
v 273.775 6.6038 -58.8916
v 273.799 6.61074 -58.9327
v 273.831 6.61369 -58.9691
v 273.868 6.61253 -58.9995
v 273.91 6.6073 -59.0226
v 273.955 6.59822 -59.0377
v 274.001 6.58561 -59.044
v 274.047 6.56998 -59.0414
v 274.09 6.55192 -59.03
v 274.129 6.53213 -59.0101
v 274.163 6.51136 -58.9826
v 274.19 6.49042 -58.9486
v 274.209 6.47011 -58.9092
v 274.22 6.4512 -58.8662
v 274.221 6.43443 -58.821
v 274.214 6.42045 -58.7754
v 274.198 6.40978 -58.7312
v 274.174 6.40283 -58.6901
v 274.142 6.39989 -58.6537
v 274.105 6.40105 -58.6233
v 274.063 6.40628 -58.6002
v 274.018 6.41536 -58.5851
v 273.972 6.42797 -58.5788
v 273.926 6.4436 -58.5814
v 273.883 6.46165 -58.5928
v 273.844 6.48145 -58.6127
v 273.81 6.50222 -58.6401
v 273.783 6.52316 -58.6742
v 273.764 6.54347 -58.7135
v 273.753 6.56238 -58.7566
v 274.24 8.04577 -58.2869
v 274.247 8.05898 -58.3325
v 274.263 8.06878 -58.3767
v 274.287 8.07479 -58.4179
v 274.318 8.07678 -58.4544
v 274.355 8.07467 -58.485
v 274.396 8.06854 -58.5083
v 274.441 8.05864 -58.5236
v 274.486 8.04533 -58.5302
v 274.531 8.02914 -58.5278
v 274.574 8.01068 -58.5166
v 274.613 7.99066 -58.497
v 274.647 7.96985 -58.4697
v 274.674 7.94906 -58.4358
v 274.693 7.92908 -58.3966
v 274.703 7.91067 -58.3536
v 274.705 7.89455 -58.3085
v 274.698 7.88134 -58.2629
v 274.682 7.87154 -58.2187
v 274.658 7.86553 -58.1775
v 274.627 7.86354 -58.1409
v 274.59 7.86565 -58.1104
v 274.549 7.87178 -58.087
v 274.505 7.88168 -58.0718
v 274.459 7.89499 -58.0652
v 274.414 7.91118 -58.0676
v 274.371 7.92964 -58.0788
v 274.332 7.94966 -58.0984
v 274.299 7.97047 -58.1257
v 274.272 7.99126 -58.1596
v 274.253 8.01124 -58.1988
v 274.242 8.02965 -58.2417
v 274.752 9.51067 -57.7929
v 274.759 9.5233 -57.8384
v 274.775 9.53245 -57.8826
v 274.798 9.53776 -57.9238
v 274.829 9.53904 -57.9604
v 274.865 9.53623 -57.991
v 274.906 9.52944 -58.0144
v 274.95 9.51893 -58.0298
v 274.995 9.50511 -58.0366
v 275.04 9.48851 -58.0344
v 275.083 9.46976 -58.0234
v 275.121 9.44959 -58.004
v 275.154 9.42877 -57.9769
v 275.181 9.4081 -57.9432
v 275.2 9.38837 -57.9041
v 275.211 9.37035 -57.8613
v 275.213 9.35473 -57.8162
v 275.206 9.3421 -57.7708
v 275.19 9.33295 -57.7266
v 275.167 9.32764 -57.6854
v 275.136 9.32636 -57.6488
v 275.1 9.32917 -57.6181
v 275.059 9.33596 -57.5947
v 275.015 9.34647 -57.5793
v 274.97 9.36029 -57.5726
v 274.925 9.37689 -57.5747
v 274.883 9.39564 -57.5858
v 274.844 9.41581 -57.6052
v 274.811 9.43663 -57.6323
v 274.784 9.4573 -57.666
v 274.765 9.47703 -57.705
v 274.754 9.49505 -57.7479
v 275.282 10.9739 -57.3135
v 275.288 10.9862 -57.3588
v 275.304 10.9949 -57.4029
v 275.327 10.9997 -57.444
v 275.357 11.0005 -57.4806
v 275.393 10.9972 -57.5112
v 275.434 10.99 -57.5347
v 275.477 10.9791 -57.5502
v 275.522 10.965 -57.557
v 275.566 10.9481 -57.5549
v 275.609 10.9292 -57.5441
v 275.647 10.9089 -57.5248
v 275.68 10.8881 -57.4979
v 275.707 10.8675 -57.4644
v 275.726 10.848 -57.4255
v 275.736 10.8303 -57.3829
v 275.738 10.815 -57.338
v 275.732 10.8027 -57.2926
v 275.716 10.794 -57.2486
v 275.693 10.7892 -57.2074
v 275.663 10.7884 -57.1709
v 275.627 10.7917 -57.1403
v 275.586 10.7989 -57.1168
v 275.543 10.8098 -57.1013
v 275.498 10.8239 -57.0945
v 275.454 10.8408 -57.0966
v 275.411 10.8597 -57.1074
v 275.373 10.88 -57.1267
v 275.34 10.9008 -57.1536
v 275.313 10.9213 -57.1871
v 275.294 10.9409 -57.2259
v 275.284 10.9586 -57.2686
v 275.822 12.4356 -56.8424
v 275.829 12.4476 -56.8876
v 275.844 12.4561 -56.9315
v 275.867 12.4607 -56.9724
v 275.897 12.4612 -57.0089
v 275.933 12.4577 -57.0394
v 275.973 12.4503 -57.0628
v 276.016 12.4392 -57.0783
v 276.061 12.4249 -57.0851
v 276.105 12.408 -57.0832
v 276.146 12.389 -57.0724
v 276.184 12.3687 -57.0533
v 276.217 12.3479 -57.0266
v 276.244 12.3274 -56.9932
v 276.263 12.308 -56.9546
v 276.273 12.2904 -56.9121
v 276.275 12.2753 -56.8675
v 276.269 12.2633 -56.8223
v 276.254 12.2548 -56.7784
v 276.231 12.2502 -56.7375
v 276.201 12.2496 -56.701
v 276.165 12.2531 -56.6705
v 276.124 12.2606 -56.6471
v 276.081 12.2716 -56.6316
v 276.037 12.2859 -56.6247
v 275.993 12.3029 -56.6267
v 275.951 12.3219 -56.6375
v 275.913 12.3422 -56.6566
v 275.88 12.3629 -56.6833
v 275.854 12.3834 -56.7166
v 275.835 12.4029 -56.7553
v 275.824 12.4205 -56.7977
v 276.367 13.8956 -56.3734
v 276.373 13.9076 -56.4183
v 276.389 13.9161 -56.4619
v 276.411 13.9207 -56.5026
v 276.441 13.9212 -56.5389
v 276.477 13.9177 -56.5693
v 276.517 13.9103 -56.5926
v 276.56 13.8993 -56.608
v 276.604 13.885 -56.6148
v 276.648 13.8681 -56.6128
v 276.689 13.8492 -56.6022
v 276.727 13.8289 -56.5832
v 276.76 13.8082 -56.5566
v 276.786 13.7877 -56.5235
v 276.805 13.7684 -56.4851
v 276.816 13.7508 -56.4428
v 276.818 13.7358 -56.3984
v 276.811 13.7238 -56.3535
v 276.796 13.7153 -56.3099
v 276.773 13.7107 -56.2691
v 276.743 13.7102 -56.2329
v 276.708 13.7137 -56.2025
v 276.668 13.7211 -56.1792
v 276.625 13.7321 -56.1638
v 276.58 13.7464 -56.157
v 276.537 13.7633 -56.1589
v 276.495 13.7822 -56.1696
v 276.457 13.8025 -56.1886
v 276.424 13.8232 -56.2152
v 276.398 13.8436 -56.2483
v 276.379 13.863 -56.2867
v 276.369 13.8806 -56.3289
v 276.91 15.3542 -55.9
v 276.917 15.3663 -55.9446
v 276.932 15.375 -55.988
v 276.955 15.3798 -56.0284
v 276.984 15.3806 -56.0644
v 277.02 15.3773 -56.0945
v 277.06 15.3701 -56.1176
v 277.103 15.3593 -56.1329
v 277.147 15.3452 -56.1397
v 277.19 15.3285 -56.1377
v 277.232 15.3097 -56.127
v 277.269 15.2896 -56.1082
v 277.302 15.2689 -56.0817
v 277.328 15.2485 -56.0488
v 277.346 15.2291 -56.0106
v 277.357 15.2115 -55.9687
v 277.359 15.1963 -55.9246
v 277.352 15.1842 -55.88
v 277.337 15.1756 -55.8366
v 277.314 15.1708 -55.7962
v 277.284 15.17 -55.7602
v 277.249 15.1733 -55.7301
v 277.209 15.1804 -55.7069
v 277.166 15.1913 -55.6917
v 277.122 15.2053 -55.6849
v 277.079 15.2221 -55.6869
v 277.037 15.2408 -55.6975
v 277.0 15.261 -55.7164
v 276.967 15.2816 -55.7428
v 276.941 15.302 -55.7758
v 276.922 15.3214 -55.8139
v 276.912 15.339 -55.8559
v 277.445 16.8113 -55.4161
v 277.452 16.8238 -55.4604
v 277.467 16.8328 -55.5033
v 277.49 16.838 -55.5434
v 277.52 16.8392 -55.5791
v 277.555 16.8364 -55.6089
v 277.595 16.8297 -55.6318
v 277.638 16.8193 -55.6468
v 277.682 16.8056 -55.6534
v 277.725 16.7892 -55.6514
v 277.766 16.7707 -55.6408
v 277.804 16.7508 -55.6219
v 277.836 16.7302 -55.5957
v 277.862 16.7098 -55.563
v 277.881 16.6903 -55.5251
v 277.891 16.6725 -55.4834
v 277.893 16.6571 -55.4396
v 277.886 16.6446 -55.3954
v 277.871 16.6356 -55.3524
v 277.848 16.6304 -55.3123
v 277.818 16.6292 -55.2767
v 277.783 16.632 -55.2469
v 277.743 16.6387 -55.224
v 277.7 16.6491 -55.209
v 277.656 16.6628 -55.2023
v 277.613 16.6792 -55.2044
v 277.572 16.6977 -55.215
v 277.534 16.7177 -55.2338
v 277.502 16.7382 -55.2601
v 277.476 16.7586 -55.2928
v 277.457 16.7781 -55.3307
v 277.447 16.7959 -55.3724
v 277.966 18.267 -54.9155
v 277.973 18.28 -54.9593
v 277.988 18.2896 -55.0018
v 278.011 18.2954 -55.0414
v 278.041 18.2973 -55.0767
v 278.077 18.2952 -55.1061
v 278.117 18.2891 -55.1286
v 278.159 18.2793 -55.1434
v 278.203 18.2662 -55.1498
v 278.246 18.2503 -55.1477
v 278.288 18.2321 -55.137
v 278.325 18.2124 -55.1182
v 278.357 18.1919 -55.0921
v 278.383 18.1715 -55.0596
v 278.401 18.1519 -55.022
v 278.411 18.1338 -54.9807
v 278.413 18.118 -54.9373
v 278.406 18.1051 -54.8935
v 278.391 18.0955 -54.851
v 278.368 18.0896 -54.8113
v 278.338 18.0877 -54.7761
v 278.302 18.0899 -54.7467
v 278.262 18.0959 -54.7241
v 278.22 18.1057 -54.7094
v 278.176 18.1188 -54.7029
v 278.133 18.1348 -54.7051
v 278.091 18.153 -54.7158
v 278.054 18.1726 -54.7345
v 278.022 18.1931 -54.7607
v 277.996 18.2135 -54.7932
v 277.978 18.2332 -54.8308
v 277.968 18.2512 -54.8721
v 278.468 19.7218 -54.3924
v 278.475 19.7353 -54.4357
v 278.49 19.7456 -54.4778
v 278.514 19.7522 -54.5169
v 278.544 19.7548 -54.5517
v 278.579 19.7534 -54.5807
v 278.619 19.7481 -54.6029
v 278.662 19.739 -54.6174
v 278.706 19.7265 -54.6236
v 278.749 19.7111 -54.6212
v 278.79 19.6933 -54.6105
v 278.827 19.6738 -54.5918
v 278.859 19.6535 -54.5658
v 278.884 19.633 -54.5336
v 278.903 19.6132 -54.4962
v 278.912 19.5948 -54.4553
v 278.914 19.5785 -54.4123
v 278.907 19.565 -54.369
v 278.891 19.5548 -54.3269
v 278.868 19.5482 -54.2878
v 278.838 19.5456 -54.253
v 278.803 19.5469 -54.224
v 278.763 19.5523 -54.2018
v 278.72 19.5614 -54.1874
v 278.676 19.5739 -54.1812
v 278.633 19.5893 -54.1835
v 278.592 19.6071 -54.1942
v 278.555 19.6265 -54.2129
v 278.523 19.6469 -54.2389
v 278.497 19.6674 -54.2712
v 278.479 19.6872 -54.3085
v 278.469 19.7056 -54.3494
v 278.954 21.1763 -53.8485
v 278.961 21.1902 -53.8914
v 278.977 21.2009 -53.9331
v 279.0 21.208 -53.9718
v 279.03 21.2112 -54.0062
v 279.066 21.2103 -54.0349
v 279.105 21.2055 -54.0568
v 279.148 21.1969 -54.071
v 279.192 21.1847 -54.077
v 279.235 21.1696 -54.0746
v 279.276 21.1521 -54.0639
v 279.313 21.1328 -54.0453
v 279.344 21.1125 -54.0195
v 279.37 21.092 -53.9874
v 279.388 21.072 -53.9504
v 279.397 21.0534 -53.9098
v 279.399 21.0368 -53.8672
v 279.391 21.0228 -53.8243
v 279.376 21.0121 -53.7826
v 279.353 21.0051 -53.7439
v 279.323 21.0019 -53.7095
v 279.287 21.0028 -53.6808
v 279.247 21.0076 -53.659
v 279.205 21.0162 -53.6447
v 279.161 21.0283 -53.6387
v 279.118 21.0435 -53.6411
v 279.077 21.061 -53.6518
v 279.04 21.0803 -53.6704
v 279.008 21.1006 -53.6962
v 278.983 21.1211 -53.7283
v 278.965 21.1411 -53.7653
v 278.955 21.1597 -53.8059
v 279.432 22.6295 -53.2896
v 279.44 22.6437 -53.3322
v 279.455 22.6547 -53.3735
v 279.478 22.662 -53.4119
v 279.508 22.6655 -53.446
v 279.544 22.6649 -53.4745
v 279.583 22.6603 -53.4961
v 279.626 22.6519 -53.5102
v 279.669 22.6399 -53.5162
v 279.712 22.625 -53.5138
v 279.753 22.6075 -53.5031
v 279.79 22.5883 -53.4846
v 279.821 22.568 -53.459
v 279.846 22.5474 -53.4271
v 279.864 22.5273 -53.3904
v 279.874 22.5085 -53.3501
v 279.875 22.4917 -53.3079
v 279.868 22.4775 -53.2653
v 279.852 22.4665 -53.224
v 279.829 22.4592 -53.1855
v 279.799 22.4557 -53.1515
v 279.764 22.4563 -53.123
v 279.724 22.4609 -53.1013
v 279.681 22.4693 -53.0873
v 279.638 22.4813 -53.0813
v 279.595 22.4962 -53.0837
v 279.554 22.5137 -53.0944
v 279.518 22.5329 -53.1129
v 279.486 22.5532 -53.1385
v 279.461 22.5738 -53.1703
v 279.443 22.5939 -53.2071
v 279.434 22.6127 -53.2473
v 279.911 24.0805 -52.7216
v 279.918 24.0947 -52.7639
v 279.933 24.1057 -52.805
v 279.956 24.1131 -52.8432
v 279.986 24.1166 -52.8771
v 280.022 24.1161 -52.9053
v 280.061 24.1115 -52.9269
v 280.103 24.1031 -52.9409
v 280.146 24.0911 -52.9469
v 280.189 24.0761 -52.9446
v 280.229 24.0586 -52.934
v 280.266 24.0393 -52.9157
v 280.297 24.0189 -52.8902
v 280.322 23.9982 -52.8586
v 280.34 23.978 -52.8222
v 280.349 23.9591 -52.7822
v 280.351 23.9423 -52.7402
v 280.343 23.928 -52.6979
v 280.328 23.917 -52.6568
v 280.305 23.9096 -52.6186
v 280.275 23.9061 -52.5848
v 280.24 23.9067 -52.5565
v 280.2 23.9112 -52.5349
v 280.158 23.9197 -52.5209
v 280.115 23.9316 -52.5149
v 280.072 23.9466 -52.5172
v 280.032 23.9641 -52.5278
v 279.995 23.9835 -52.5461
v 279.964 24.0038 -52.5716
v 279.939 24.0245 -52.6032
v 279.921 24.0447 -52.6397
v 279.912 24.0636 -52.6796
v 280.396 25.5281 -52.1504
v 280.404 25.5423 -52.1925
v 280.419 25.5532 -52.2334
v 280.442 25.5604 -52.2714
v 280.472 25.5637 -52.3052
v 280.507 25.5629 -52.3334
v 280.546 25.5581 -52.355
v 280.588 25.5495 -52.3691
v 280.631 25.5373 -52.3751
v 280.673 25.522 -52.3729
v 280.713 25.5043 -52.3625
v 280.749 25.4849 -52.3444
v 280.78 25.4643 -52.3192
v 280.805 25.4435 -52.2878
v 280.823 25.4233 -52.2516
v 280.832 25.4044 -52.2118
v 280.833 25.3876 -52.1701
v 280.826 25.3734 -52.128
v 280.81 25.3625 -52.0872
v 280.788 25.3553 -52.0491
v 280.758 25.352 -52.0153
v 280.723 25.3528 -51.9871
v 280.684 25.3576 -51.9655
v 280.642 25.3662 -51.9515
v 280.599 25.3784 -51.9454
v 280.557 25.3937 -51.9476
v 280.517 25.4114 -51.958
v 280.48 25.4309 -51.9762
v 280.449 25.4514 -52.0014
v 280.424 25.4722 -52.0327
v 280.407 25.4924 -52.0689
v 280.398 25.5113 -52.1087
v 280.898 26.9715 -51.5819
v 280.905 26.9854 -51.6239
v 280.92 26.996 -51.6646
v 280.943 27.0029 -51.7026
v 280.972 27.0057 -51.7364
v 281.007 27.0045 -51.7646
v 281.046 26.9992 -51.7863
v 281.087 26.9901 -51.8005
v 281.13 26.9775 -51.8067
v 281.172 26.9619 -51.8047
v 281.211 26.9438 -51.7945
v 281.247 26.924 -51.7766
v 281.278 26.9033 -51.7517
v 281.303 26.8824 -51.7206
v 281.32 26.8622 -51.6846
v 281.329 26.8434 -51.6451
v 281.331 26.8267 -51.6035
v 281.323 26.8128 -51.5616
v 281.308 26.8022 -51.5208
v 281.285 26.7953 -51.4828
v 281.256 26.7924 -51.449
v 281.221 26.7937 -51.4208
v 281.183 26.7989 -51.3992
v 281.141 26.8081 -51.385
v 281.099 26.8207 -51.3787
v 281.057 26.8363 -51.3807
v 281.017 26.8544 -51.3909
v 280.981 26.8741 -51.4088
v 280.95 26.8949 -51.4338
v 280.926 26.9157 -51.4649
v 280.908 26.936 -51.5009
v 280.899 26.9548 -51.5404
v 281.422 28.4096 -51.0221
v 281.429 28.4231 -51.0639
v 281.444 28.4332 -51.1047
v 281.467 28.4395 -51.1427
v 281.496 28.4417 -51.1765
v 281.53 28.4398 -51.2049
v 281.568 28.4338 -51.2267
v 281.609 28.424 -51.2411
v 281.651 28.4107 -51.2476
v 281.693 28.3945 -51.2458
v 281.732 28.376 -51.236
v 281.768 28.3559 -51.2183
v 281.798 28.3349 -51.1936
v 281.823 28.3139 -51.1628
v 281.84 28.2936 -51.127
v 281.849 28.275 -51.0877
v 281.85 28.2585 -51.0463
v 281.843 28.245 -51.0044
v 281.828 28.2349 -50.9637
v 281.806 28.2287 -50.9257
v 281.777 28.2264 -50.8918
v 281.743 28.2283 -50.8634
v 281.704 28.2343 -50.8416
v 281.663 28.2441 -50.8272
v 281.621 28.2574 -50.8208
v 281.58 28.2736 -50.8225
v 281.541 28.2921 -50.8324
v 281.505 28.3123 -50.85
v 281.474 28.3332 -50.8747
v 281.45 28.3543 -50.9056
v 281.433 28.3745 -50.9413
v 281.424 28.3932 -50.9807
v 281.978 29.8413 -50.4768
v 281.985 29.8543 -50.5187
v 282.0 29.8637 -50.5594
v 282.022 29.8692 -50.5975
v 282.05 29.8706 -50.6315
v 282.084 29.8678 -50.6601
v 282.122 29.8609 -50.6821
v 282.162 29.8502 -50.6968
v 282.204 29.8361 -50.7036
v 282.244 29.8191 -50.7022
v 282.283 29.8 -50.6926
v 282.319 29.7794 -50.6753
v 282.349 29.7581 -50.6509
v 282.373 29.7369 -50.6203
v 282.39 29.7167 -50.5847
v 282.399 29.6983 -50.5455
v 282.401 29.6822 -50.5042
v 282.394 29.6693 -50.4624
v 282.379 29.6599 -50.4216
v 282.357 29.6544 -50.3835
v 282.329 29.653 -50.3495
v 282.295 29.6558 -50.321
v 282.257 29.6627 -50.2989
v 282.217 29.6734 -50.2842
v 282.175 29.6875 -50.2774
v 282.134 29.7045 -50.2788
v 282.096 29.7236 -50.2884
v 282.06 29.7442 -50.3057
v 282.03 29.7655 -50.3302
v 282.006 29.7867 -50.3607
v 281.989 29.8069 -50.3963
v 281.979 29.8253 -50.4355
v 282.573 31.2658 -49.9521
v 282.579 31.2781 -49.9939
v 282.594 31.2866 -50.0348
v 282.615 31.2911 -50.073
v 282.643 31.2914 -50.1073
v 282.676 31.2875 -50.1361
v 282.713 31.2794 -50.1585
v 282.753 31.2676 -50.1735
v 282.794 31.2525 -50.1807
v 282.834 31.2347 -50.1796
v 282.872 31.2148 -50.1704
v 282.907 31.1936 -50.1534
v 282.937 31.1719 -50.1293
v 282.961 31.1506 -50.099
v 282.978 31.1305 -50.0636
v 282.987 31.1123 -50.0245
v 282.989 31.0968 -49.9833
v 282.982 31.0845 -49.9414
v 282.968 31.076 -49.9006
v 282.947 31.0715 -49.8623
v 282.919 31.0712 -49.8281
v 282.886 31.0751 -49.7992
v 282.848 31.0832 -49.7769
v 282.809 31.095 -49.7618
v 282.768 31.1101 -49.7547
v 282.728 31.1279 -49.7557
v 282.689 31.1478 -49.7649
v 282.655 31.169 -49.7819
v 282.625 31.1907 -49.806
v 282.601 31.212 -49.8364
v 282.584 31.2321 -49.8717
v 282.574 31.2503 -49.9108
v 283.214 32.6819 -49.4538
v 283.221 32.6933 -49.4957
v 283.234 32.7008 -49.5367
v 283.255 32.7042 -49.5752
v 283.282 32.7032 -49.6097
v 283.315 32.6979 -49.6389
v 283.351 32.6885 -49.6616
v 283.39 32.6754 -49.6771
v 283.43 32.6591 -49.6846
v 283.469 32.6402 -49.684
v 283.507 32.6194 -49.6752
v 283.541 32.5976 -49.6586
v 283.571 32.5755 -49.6347
v 283.595 32.5541 -49.6047
v 283.611 32.534 -49.5694
v 283.621 32.5162 -49.5305
v 283.623 32.5013 -49.4892
v 283.616 32.4899 -49.4473
v 283.603 32.4823 -49.4063
v 283.582 32.479 -49.3679
v 283.555 32.48 -49.3334
v 283.522 32.4853 -49.3042
v 283.486 32.4946 -49.2814
v 283.447 32.5077 -49.266
v 283.407 32.5241 -49.2584
v 283.368 32.543 -49.2591
v 283.33 32.5637 -49.2679
v 283.296 32.5856 -49.2845
v 283.266 32.6077 -49.3083
v 283.243 32.6291 -49.3384
v 283.226 32.6491 -49.3736
v 283.216 32.6669 -49.4126
v 283.911 34.0885 -48.9881
v 283.916 34.099 -49.0301
v 283.929 34.1054 -49.0712
v 283.949 34.1073 -49.11
v 283.976 34.1049 -49.1448
v 284.007 34.0981 -49.1743
v 284.042 34.0872 -49.1975
v 284.08 34.0726 -49.2134
v 284.12 34.0549 -49.2214
v 284.158 34.0348 -49.2211
v 284.195 34.0131 -49.2127
v 284.229 33.9905 -49.1965
v 284.258 33.9679 -49.173
v 284.281 33.9463 -49.1431
v 284.298 33.9264 -49.1081
v 284.308 33.909 -49.0692
v 284.31 33.8948 -49.0279
v 284.304 33.8843 -48.9859
v 284.291 33.878 -48.9448
v 284.271 33.876 -48.906
v 284.245 33.8785 -48.8712
v 284.213 33.8853 -48.8417
v 284.178 33.8962 -48.8185
v 284.14 33.9107 -48.8026
v 284.101 33.9284 -48.7946
v 284.062 33.9485 -48.7949
v 284.025 33.9703 -48.8033
v 283.992 33.9929 -48.8195
v 283.962 34.0154 -48.843
v 283.939 34.037 -48.8729
v 283.922 34.0569 -48.9079
v 283.913 34.0743 -48.9468
v 284.669 35.4847 -48.5608
v 284.674 35.4941 -48.6029
v 284.687 35.4991 -48.6442
v 284.706 35.4996 -48.6832
v 284.731 35.4955 -48.7184
v 284.761 35.487 -48.7483
v 284.796 35.4744 -48.7719
v 284.832 35.4582 -48.7882
v 284.871 35.439 -48.7966
v 284.908 35.4176 -48.7969
v 284.944 35.3947 -48.7889
v 284.977 35.3713 -48.773
v 285.006 35.3483 -48.7498
v 285.029 35.3265 -48.7202
v 285.046 35.3067 -48.6853
v 285.056 35.2898 -48.6464
v 285.058 35.2764 -48.6052
v 285.053 35.267 -48.5631
v 285.041 35.262 -48.5217
v 285.021 35.2615 -48.4827
v 284.996 35.2656 -48.4476
v 284.966 35.2741 -48.4177
v 284.932 35.2867 -48.3941
v 284.895 35.3029 -48.3777
v 284.857 35.3221 -48.3693
v 284.819 35.3435 -48.3691
v 284.783 35.3664 -48.3771
v 284.75 35.3898 -48.393
v 284.721 35.4128 -48.4162
v 284.698 35.4346 -48.4458
v 284.681 35.4544 -48.4807
v 284.672 35.4713 -48.5195
f 1 34 2 
f 1 33 34 
f 2 35 3 
f 2 34 35 
f 3 36 4 
f 3 35 36 
f 4 37 5 
f 4 36 37 
f 5 38 6 
f 5 37 38 
f 6 39 7 
f 6 38 39 
f 7 40 8 
f 7 39 40 
f 8 41 9 
f 8 40 41 
f 9 42 10 
f 9 41 42 
f 10 43 11 
f 10 42 43 
f 11 44 12 
f 11 43 44 
f 12 45 13 
f 12 44 45 
f 13 46 14 
f 13 45 46 
f 14 47 15 
f 14 46 47 
f 15 48 16 
f 15 47 48 
f 16 49 17 
f 16 48 49 
f 17 50 18 
f 17 49 50 
f 18 51 19 
f 18 50 51 
f 19 52 20 
f 19 51 52 
f 20 53 21 
f 20 52 53 
f 21 54 22 
f 21 53 54 
f 22 55 23 
f 22 54 55 
f 23 56 24 
f 23 55 56 
f 24 57 25 
f 24 56 57 
f 25 58 26 
f 25 57 58 
f 26 59 27 
f 26 58 59 
f 27 60 28 
f 27 59 60 
f 28 61 29 
f 28 60 61 
f 29 62 30 
f 29 61 62 
f 30 63 31 
f 30 62 63 
f 31 64 32 
f 31 63 64 
f 32 33 1 
f 32 64 33 
f 33 66 34 
f 33 65 66 
f 34 67 35 
f 34 66 67 
f 35 68 36 
f 35 67 68 
f 36 69 37 
f 36 68 69 
f 37 70 38 
f 37 69 70 
f 38 71 39 
f 38 70 71 
f 39 72 40 
f 39 71 72 
f 40 73 41 
f 40 72 73 
f 41 74 42 
f 41 73 74 
f 42 75 43 
f 42 74 75 
f 43 76 44 
f 43 75 76 
f 44 77 45 
f 44 76 77 
f 45 78 46 
f 45 77 78 
f 46 79 47 
f 46 78 79 
f 47 80 48 
f 47 79 80 
f 48 81 49 
f 48 80 81 
f 49 82 50 
f 49 81 82 
f 50 83 51 
f 50 82 83 
f 51 84 52 
f 51 83 84 
f 52 85 53 
f 52 84 85 
f 53 86 54 
f 53 85 86 
f 54 87 55 
f 54 86 87 
f 55 88 56 
f 55 87 88 
f 56 89 57 
f 56 88 89 
f 57 90 58 
f 57 89 90 
f 58 91 59 
f 58 90 91 
f 59 92 60 
f 59 91 92 
f 60 93 61 
f 60 92 93 
f 61 94 62 
f 61 93 94 
f 62 95 63 
f 62 94 95 
f 63 96 64 
f 63 95 96 
f 64 65 33 
f 64 96 65 
f 65 98 66 
f 65 97 98 
f 66 99 67 
f 66 98 99 
f 67 100 68 
f 67 99 100 
f 68 101 69 
f 68 100 101 
f 69 102 70 
f 69 101 102 
f 70 103 71 
f 70 102 103 
f 71 104 72 
f 71 103 104 
f 72 105 73 
f 72 104 105 
f 73 106 74 
f 73 105 106 
f 74 107 75 
f 74 106 107 
f 75 108 76 
f 75 107 108 
f 76 109 77 
f 76 108 109 
f 77 110 78 
f 77 109 110 
f 78 111 79 
f 78 110 111 
f 79 112 80 
f 79 111 112 
f 80 113 81 
f 80 112 113 
f 81 114 82 
f 81 113 114 
f 82 115 83 
f 82 114 115 
f 83 116 84 
f 83 115 116 
f 84 117 85 
f 84 116 117 
f 85 118 86 
f 85 117 118 
f 86 119 87 
f 86 118 119 
f 87 120 88 
f 87 119 120 
f 88 121 89 
f 88 120 121 
f 89 122 90 
f 89 121 122 
f 90 123 91 
f 90 122 123 
f 91 124 92 
f 91 123 124 
f 92 125 93 
f 92 124 125 
f 93 126 94 
f 93 125 126 
f 94 127 95 
f 94 126 127 
f 95 128 96 
f 95 127 128 
f 96 97 65 
f 96 128 97 
f 97 130 98 
f 97 129 130 
f 98 131 99 
f 98 130 131 
f 99 132 100 
f 99 131 132 
f 100 133 101 
f 100 132 133 
f 101 134 102 
f 101 133 134 
f 102 135 103 
f 102 134 135 
f 103 136 104 
f 103 135 136 
f 104 137 105 
f 104 136 137 
f 105 138 106 
f 105 137 138 
f 106 139 107 
f 106 138 139 
f 107 140 108 
f 107 139 140 
f 108 141 109 
f 108 140 141 
f 109 142 110 
f 109 141 142 
f 110 143 111 
f 110 142 143 
f 111 144 112 
f 111 143 144 
f 112 145 113 
f 112 144 145 
f 113 146 114 
f 113 145 146 
f 114 147 115 
f 114 146 147 
f 115 148 116 
f 115 147 148 
f 116 149 117 
f 116 148 149 
f 117 150 118 
f 117 149 150 
f 118 151 119 
f 118 150 151 
f 119 152 120 
f 119 151 152 
f 120 153 121 
f 120 152 153 
f 121 154 122 
f 121 153 154 
f 122 155 123 
f 122 154 155 
f 123 156 124 
f 123 155 156 
f 124 157 125 
f 124 156 157 
f 125 158 126 
f 125 157 158 
f 126 159 127 
f 126 158 159 
f 127 160 128 
f 127 159 160 
f 128 129 97 
f 128 160 129 
f 129 162 130 
f 129 161 162 
f 130 163 131 
f 130 162 163 
f 131 164 132 
f 131 163 164 
f 132 165 133 
f 132 164 165 
f 133 166 134 
f 133 165 166 
f 134 167 135 
f 134 166 167 
f 135 168 136 
f 135 167 168 
f 136 169 137 
f 136 168 169 
f 137 170 138 
f 137 169 170 
f 138 171 139 
f 138 170 171 
f 139 172 140 
f 139 171 172 
f 140 173 141 
f 140 172 173 
f 141 174 142 
f 141 173 174 
f 142 175 143 
f 142 174 175 
f 143 176 144 
f 143 175 176 
f 144 177 145 
f 144 176 177 
f 145 178 146 
f 145 177 178 
f 146 179 147 
f 146 178 179 
f 147 180 148 
f 147 179 180 
f 148 181 149 
f 148 180 181 
f 149 182 150 
f 149 181 182 
f 150 183 151 
f 150 182 183 
f 151 184 152 
f 151 183 184 
f 152 185 153 
f 152 184 185 
f 153 186 154 
f 153 185 186 
f 154 187 155 
f 154 186 187 
f 155 188 156 
f 155 187 188 
f 156 189 157 
f 156 188 189 
f 157 190 158 
f 157 189 190 
f 158 191 159 
f 158 190 191 
f 159 192 160 
f 159 191 192 
f 160 161 129 
f 160 192 161 
f 161 194 162 
f 161 193 194 
f 162 195 163 
f 162 194 195 
f 163 196 164 
f 163 195 196 
f 164 197 165 
f 164 196 197 
f 165 198 166 
f 165 197 198 
f 166 199 167 
f 166 198 199 
f 167 200 168 
f 167 199 200 
f 168 201 169 
f 168 200 201 
f 169 202 170 
f 169 201 202 
f 170 203 171 
f 170 202 203 
f 171 204 172 
f 171 203 204 
f 172 205 173 
f 172 204 205 
f 173 206 174 
f 173 205 206 
f 174 207 175 
f 174 206 207 
f 175 208 176 
f 175 207 208 
f 176 209 177 
f 176 208 209 
f 177 210 178 
f 177 209 210 
f 178 211 179 
f 178 210 211 
f 179 212 180 
f 179 211 212 
f 180 213 181 
f 180 212 213 
f 181 214 182 
f 181 213 214 
f 182 215 183 
f 182 214 215 
f 183 216 184 
f 183 215 216 
f 184 217 185 
f 184 216 217 
f 185 218 186 
f 185 217 218 
f 186 219 187 
f 186 218 219 
f 187 220 188 
f 187 219 220 
f 188 221 189 
f 188 220 221 
f 189 222 190 
f 189 221 222 
f 190 223 191 
f 190 222 223 
f 191 224 192 
f 191 223 224 
f 192 193 161 
f 192 224 193 
f 193 226 194 
f 193 225 226 
f 194 227 195 
f 194 226 227 
f 195 228 196 
f 195 227 228 
f 196 229 197 
f 196 228 229 
f 197 230 198 
f 197 229 230 
f 198 231 199 
f 198 230 231 
f 199 232 200 
f 199 231 232 
f 200 233 201 
f 200 232 233 
f 201 234 202 
f 201 233 234 
f 202 235 203 
f 202 234 235 
f 203 236 204 
f 203 235 236 
f 204 237 205 
f 204 236 237 
f 205 238 206 
f 205 237 238 
f 206 239 207 
f 206 238 239 
f 207 240 208 
f 207 239 240 
f 208 241 209 
f 208 240 241 
f 209 242 210 
f 209 241 242 
f 210 243 211 
f 210 242 243 
f 211 244 212 
f 211 243 244 
f 212 245 213 
f 212 244 245 
f 213 246 214 
f 213 245 246 
f 214 247 215 
f 214 246 247 
f 215 248 216 
f 215 247 248 
f 216 249 217 
f 216 248 249 
f 217 250 218 
f 217 249 250 
f 218 251 219 
f 218 250 251 
f 219 252 220 
f 219 251 252 
f 220 253 221 
f 220 252 253 
f 221 254 222 
f 221 253 254 
f 222 255 223 
f 222 254 255 
f 223 256 224 
f 223 255 256 
f 224 225 193 
f 224 256 225 
f 225 258 226 
f 225 257 258 
f 226 259 227 
f 226 258 259 
f 227 260 228 
f 227 259 260 
f 228 261 229 
f 228 260 261 
f 229 262 230 
f 229 261 262 
f 230 263 231 
f 230 262 263 
f 231 264 232 
f 231 263 264 
f 232 265 233 
f 232 264 265 
f 233 266 234 
f 233 265 266 
f 234 267 235 
f 234 266 267 
f 235 268 236 
f 235 267 268 
f 236 269 237 
f 236 268 269 
f 237 270 238 
f 237 269 270 
f 238 271 239 
f 238 270 271 
f 239 272 240 
f 239 271 272 
f 240 273 241 
f 240 272 273 
f 241 274 242 
f 241 273 274 
f 242 275 243 
f 242 274 275 
f 243 276 244 
f 243 275 276 
f 244 277 245 
f 244 276 277 
f 245 278 246 
f 245 277 278 
f 246 279 247 
f 246 278 279 
f 247 280 248 
f 247 279 280 
f 248 281 249 
f 248 280 281 
f 249 282 250 
f 249 281 282 
f 250 283 251 
f 250 282 283 
f 251 284 252 
f 251 283 284 
f 252 285 253 
f 252 284 285 
f 253 286 254 
f 253 285 286 
f 254 287 255 
f 254 286 287 
f 255 288 256 
f 255 287 288 
f 256 257 225 
f 256 288 257 
f 257 290 258 
f 257 289 290 
f 258 291 259 
f 258 290 291 
f 259 292 260 
f 259 291 292 
f 260 293 261 
f 260 292 293 
f 261 294 262 
f 261 293 294 
f 262 295 263 
f 262 294 295 
f 263 296 264 
f 263 295 296 
f 264 297 265 
f 264 296 297 
f 265 298 266 
f 265 297 298 
f 266 299 267 
f 266 298 299 
f 267 300 268 
f 267 299 300 
f 268 301 269 
f 268 300 301 
f 269 302 270 
f 269 301 302 
f 270 303 271 
f 270 302 303 
f 271 304 272 
f 271 303 304 
f 272 305 273 
f 272 304 305 
f 273 306 274 
f 273 305 306 
f 274 307 275 
f 274 306 307 
f 275 308 276 
f 275 307 308 
f 276 309 277 
f 276 308 309 
f 277 310 278 
f 277 309 310 
f 278 311 279 
f 278 310 311 
f 279 312 280 
f 279 311 312 
f 280 313 281 
f 280 312 313 
f 281 314 282 
f 281 313 314 
f 282 315 283 
f 282 314 315 
f 283 316 284 
f 283 315 316 
f 284 317 285 
f 284 316 317 
f 285 318 286 
f 285 317 318 
f 286 319 287 
f 286 318 319 
f 287 320 288 
f 287 319 320 
f 288 289 257 
f 288 320 289 
f 289 322 290 
f 289 321 322 
f 290 323 291 
f 290 322 323 
f 291 324 292 
f 291 323 324 
f 292 325 293 
f 292 324 325 
f 293 326 294 
f 293 325 326 
f 294 327 295 
f 294 326 327 
f 295 328 296 
f 295 327 328 
f 296 329 297 
f 296 328 329 
f 297 330 298 
f 297 329 330 
f 298 331 299 
f 298 330 331 
f 299 332 300 
f 299 331 332 
f 300 333 301 
f 300 332 333 
f 301 334 302 
f 301 333 334 
f 302 335 303 
f 302 334 335 
f 303 336 304 
f 303 335 336 
f 304 337 305 
f 304 336 337 
f 305 338 306 
f 305 337 338 
f 306 339 307 
f 306 338 339 
f 307 340 308 
f 307 339 340 
f 308 341 309 
f 308 340 341 
f 309 342 310 
f 309 341 342 
f 310 343 311 
f 310 342 343 
f 311 344 312 
f 311 343 344 
f 312 345 313 
f 312 344 345 
f 313 346 314 
f 313 345 346 
f 314 347 315 
f 314 346 347 
f 315 348 316 
f 315 347 348 
f 316 349 317 
f 316 348 349 
f 317 350 318 
f 317 349 350 
f 318 351 319 
f 318 350 351 
f 319 352 320 
f 319 351 352 
f 320 321 289 
f 320 352 321 
f 321 354 322 
f 321 353 354 
f 322 355 323 
f 322 354 355 
f 323 356 324 
f 323 355 356 
f 324 357 325 
f 324 356 357 
f 325 358 326 
f 325 357 358 
f 326 359 327 
f 326 358 359 
f 327 360 328 
f 327 359 360 
f 328 361 329 
f 328 360 361 
f 329 362 330 
f 329 361 362 
f 330 363 331 
f 330 362 363 
f 331 364 332 
f 331 363 364 
f 332 365 333 
f 332 364 365 
f 333 366 334 
f 333 365 366 
f 334 367 335 
f 334 366 367 
f 335 368 336 
f 335 367 368 
f 336 369 337 
f 336 368 369 
f 337 370 338 
f 337 369 370 
f 338 371 339 
f 338 370 371 
f 339 372 340 
f 339 371 372 
f 340 373 341 
f 340 372 373 
f 341 374 342 
f 341 373 374 
f 342 375 343 
f 342 374 375 
f 343 376 344 
f 343 375 376 
f 344 377 345 
f 344 376 377 
f 345 378 346 
f 345 377 378 
f 346 379 347 
f 346 378 379 
f 347 380 348 
f 347 379 380 
f 348 381 349 
f 348 380 381 
f 349 382 350 
f 349 381 382 
f 350 383 351 
f 350 382 383 
f 351 384 352 
f 351 383 384 
f 352 353 321 
f 352 384 353 
f 353 386 354 
f 353 385 386 
f 354 387 355 
f 354 386 387 
f 355 388 356 
f 355 387 388 
f 356 389 357 
f 356 388 389 
f 357 390 358 
f 357 389 390 
f 358 391 359 
f 358 390 391 
f 359 392 360 
f 359 391 392 
f 360 393 361 
f 360 392 393 
f 361 394 362 
f 361 393 394 
f 362 395 363 
f 362 394 395 
f 363 396 364 
f 363 395 396 
f 364 397 365 
f 364 396 397 
f 365 398 366 
f 365 397 398 
f 366 399 367 
f 366 398 399 
f 367 400 368 
f 367 399 400 
f 368 401 369 
f 368 400 401 
f 369 402 370 
f 369 401 402 
f 370 403 371 
f 370 402 403 
f 371 404 372 
f 371 403 404 
f 372 405 373 
f 372 404 405 
f 373 406 374 
f 373 405 406 
f 374 407 375 
f 374 406 407 
f 375 408 376 
f 375 407 408 
f 376 409 377 
f 376 408 409 
f 377 410 378 
f 377 409 410 
f 378 411 379 
f 378 410 411 
f 379 412 380 
f 379 411 412 
f 380 413 381 
f 380 412 413 
f 381 414 382 
f 381 413 414 
f 382 415 383 
f 382 414 415 
f 383 416 384 
f 383 415 416 
f 384 385 353 
f 384 416 385 
f 385 418 386 
f 385 417 418 
f 386 419 387 
f 386 418 419 
f 387 420 388 
f 387 419 420 
f 388 421 389 
f 388 420 421 
f 389 422 390 
f 389 421 422 
f 390 423 391 
f 390 422 423 
f 391 424 392 
f 391 423 424 
f 392 425 393 
f 392 424 425 
f 393 426 394 
f 393 425 426 
f 394 427 395 
f 394 426 427 
f 395 428 396 
f 395 427 428 
f 396 429 397 
f 396 428 429 
f 397 430 398 
f 397 429 430 
f 398 431 399 
f 398 430 431 
f 399 432 400 
f 399 431 432 
f 400 433 401 
f 400 432 433 
f 401 434 402 
f 401 433 434 
f 402 435 403 
f 402 434 435 
f 403 436 404 
f 403 435 436 
f 404 437 405 
f 404 436 437 
f 405 438 406 
f 405 437 438 
f 406 439 407 
f 406 438 439 
f 407 440 408 
f 407 439 440 
f 408 441 409 
f 408 440 441 
f 409 442 410 
f 409 441 442 
f 410 443 411 
f 410 442 443 
f 411 444 412 
f 411 443 444 
f 412 445 413 
f 412 444 445 
f 413 446 414 
f 413 445 446 
f 414 447 415 
f 414 446 447 
f 415 448 416 
f 415 447 448 
f 416 417 385 
f 416 448 417 
f 417 450 418 
f 417 449 450 
f 418 451 419 
f 418 450 451 
f 419 452 420 
f 419 451 452 
f 420 453 421 
f 420 452 453 
f 421 454 422 
f 421 453 454 
f 422 455 423 
f 422 454 455 
f 423 456 424 
f 423 455 456 
f 424 457 425 
f 424 456 457 
f 425 458 426 
f 425 457 458 
f 426 459 427 
f 426 458 459 
f 427 460 428 
f 427 459 460 
f 428 461 429 
f 428 460 461 
f 429 462 430 
f 429 461 462 
f 430 463 431 
f 430 462 463 
f 431 464 432 
f 431 463 464 
f 432 465 433 
f 432 464 465 
f 433 466 434 
f 433 465 466 
f 434 467 435 
f 434 466 467 
f 435 468 436 
f 435 467 468 
f 436 469 437 
f 436 468 469 
f 437 470 438 
f 437 469 470 
f 438 471 439 
f 438 470 471 
f 439 472 440 
f 439 471 472 
f 440 473 441 
f 440 472 473 
f 441 474 442 
f 441 473 474 
f 442 475 443 
f 442 474 475 
f 443 476 444 
f 443 475 476 
f 444 477 445 
f 444 476 477 
f 445 478 446 
f 445 477 478 
f 446 479 447 
f 446 478 479 
f 447 480 448 
f 447 479 480 
f 448 449 417 
f 448 480 449 
f 449 482 450 
f 449 481 482 
f 450 483 451 
f 450 482 483 
f 451 484 452 
f 451 483 484 
f 452 485 453 
f 452 484 485 
f 453 486 454 
f 453 485 486 
f 454 487 455 
f 454 486 487 
f 455 488 456 
f 455 487 488 
f 456 489 457 
f 456 488 489 
f 457 490 458 
f 457 489 490 
f 458 491 459 
f 458 490 491 
f 459 492 460 
f 459 491 492 
f 460 493 461 
f 460 492 493 
f 461 494 462 
f 461 493 494 
f 462 495 463 
f 462 494 495 
f 463 496 464 
f 463 495 496 
f 464 497 465 
f 464 496 497 
f 465 498 466 
f 465 497 498 
f 466 499 467 
f 466 498 499 
f 467 500 468 
f 467 499 500 
f 468 501 469 
f 468 500 501 
f 469 502 470 
f 469 501 502 
f 470 503 471 
f 470 502 503 
f 471 504 472 
f 471 503 504 
f 472 505 473 
f 472 504 505 
f 473 506 474 
f 473 505 506 
f 474 507 475 
f 474 506 507 
f 475 508 476 
f 475 507 508 
f 476 509 477 
f 476 508 509 
f 477 510 478 
f 477 509 510 
f 478 511 479 
f 478 510 511 
f 479 512 480 
f 479 511 512 
f 480 481 449 
f 480 512 481 
f 481 514 482 
f 481 513 514 
f 482 515 483 
f 482 514 515 
f 483 516 484 
f 483 515 516 
f 484 517 485 
f 484 516 517 
f 485 518 486 
f 485 517 518 
f 486 519 487 
f 486 518 519 
f 487 520 488 
f 487 519 520 
f 488 521 489 
f 488 520 521 
f 489 522 490 
f 489 521 522 
f 490 523 491 
f 490 522 523 
f 491 524 492 
f 491 523 524 
f 492 525 493 
f 492 524 525 
f 493 526 494 
f 493 525 526 
f 494 527 495 
f 494 526 527 
f 495 528 496 
f 495 527 528 
f 496 529 497 
f 496 528 529 
f 497 530 498 
f 497 529 530 
f 498 531 499 
f 498 530 531 
f 499 532 500 
f 499 531 532 
f 500 533 501 
f 500 532 533 
f 501 534 502 
f 501 533 534 
f 502 535 503 
f 502 534 535 
f 503 536 504 
f 503 535 536 
f 504 537 505 
f 504 536 537 
f 505 538 506 
f 505 537 538 
f 506 539 507 
f 506 538 539 
f 507 540 508 
f 507 539 540 
f 508 541 509 
f 508 540 541 
f 509 542 510 
f 509 541 542 
f 510 543 511 
f 510 542 543 
f 511 544 512 
f 511 543 544 
f 512 513 481 
f 512 544 513 
f 513 546 514 
f 513 545 546 
f 514 547 515 
f 514 546 547 
f 515 548 516 
f 515 547 548 
f 516 549 517 
f 516 548 549 
f 517 550 518 
f 517 549 550 
f 518 551 519 
f 518 550 551 
f 519 552 520 
f 519 551 552 
f 520 553 521 
f 520 552 553 
f 521 554 522 
f 521 553 554 
f 522 555 523 
f 522 554 555 
f 523 556 524 
f 523 555 556 
f 524 557 525 
f 524 556 557 
f 525 558 526 
f 525 557 558 
f 526 559 527 
f 526 558 559 
f 527 560 528 
f 527 559 560 
f 528 561 529 
f 528 560 561 
f 529 562 530 
f 529 561 562 
f 530 563 531 
f 530 562 563 
f 531 564 532 
f 531 563 564 
f 532 565 533 
f 532 564 565 
f 533 566 534 
f 533 565 566 
f 534 567 535 
f 534 566 567 
f 535 568 536 
f 535 567 568 
f 536 569 537 
f 536 568 569 
f 537 570 538 
f 537 569 570 
f 538 571 539 
f 538 570 571 
f 539 572 540 
f 539 571 572 
f 540 573 541 
f 540 572 573 
f 541 574 542 
f 541 573 574 
f 542 575 543 
f 542 574 575 
f 543 576 544 
f 543 575 576 
f 544 545 513 
f 544 576 545 
f 545 578 546 
f 545 577 578 
f 546 579 547 
f 546 578 579 
f 547 580 548 
f 547 579 580 
f 548 581 549 
f 548 580 581 
f 549 582 550 
f 549 581 582 
f 550 583 551 
f 550 582 583 
f 551 584 552 
f 551 583 584 
f 552 585 553 
f 552 584 585 
f 553 586 554 
f 553 585 586 
f 554 587 555 
f 554 586 587 
f 555 588 556 
f 555 587 588 
f 556 589 557 
f 556 588 589 
f 557 590 558 
f 557 589 590 
f 558 591 559 
f 558 590 591 
f 559 592 560 
f 559 591 592 
f 560 593 561 
f 560 592 593 
f 561 594 562 
f 561 593 594 
f 562 595 563 
f 562 594 595 
f 563 596 564 
f 563 595 596 
f 564 597 565 
f 564 596 597 
f 565 598 566 
f 565 597 598 
f 566 599 567 
f 566 598 599 
f 567 600 568 
f 567 599 600 
f 568 601 569 
f 568 600 601 
f 569 602 570 
f 569 601 602 
f 570 603 571 
f 570 602 603 
f 571 604 572 
f 571 603 604 
f 572 605 573 
f 572 604 605 
f 573 606 574 
f 573 605 606 
f 574 607 575 
f 574 606 607 
f 575 608 576 
f 575 607 608 
f 576 577 545 
f 576 608 577 
f 577 610 578 
f 577 609 610 
f 578 611 579 
f 578 610 611 
f 579 612 580 
f 579 611 612 
f 580 613 581 
f 580 612 613 
f 581 614 582 
f 581 613 614 
f 582 615 583 
f 582 614 615 
f 583 616 584 
f 583 615 616 
f 584 617 585 
f 584 616 617 
f 585 618 586 
f 585 617 618 
f 586 619 587 
f 586 618 619 
f 587 620 588 
f 587 619 620 
f 588 621 589 
f 588 620 621 
f 589 622 590 
f 589 621 622 
f 590 623 591 
f 590 622 623 
f 591 624 592 
f 591 623 624 
f 592 625 593 
f 592 624 625 
f 593 626 594 
f 593 625 626 
f 594 627 595 
f 594 626 627 
f 595 628 596 
f 595 627 628 
f 596 629 597 
f 596 628 629 
f 597 630 598 
f 597 629 630 
f 598 631 599 
f 598 630 631 
f 599 632 600 
f 599 631 632 
f 600 633 601 
f 600 632 633 
f 601 634 602 
f 601 633 634 
f 602 635 603 
f 602 634 635 
f 603 636 604 
f 603 635 636 
f 604 637 605 
f 604 636 637 
f 605 638 606 
f 605 637 638 
f 606 639 607 
f 606 638 639 
f 607 640 608 
f 607 639 640 
f 608 609 577 
f 608 640 609 
f 609 642 610 
f 609 641 642 
f 610 643 611 
f 610 642 643 
f 611 644 612 
f 611 643 644 
f 612 645 613 
f 612 644 645 
f 613 646 614 
f 613 645 646 
f 614 647 615 
f 614 646 647 
f 615 648 616 
f 615 647 648 
f 616 649 617 
f 616 648 649 
f 617 650 618 
f 617 649 650 
f 618 651 619 
f 618 650 651 
f 619 652 620 
f 619 651 652 
f 620 653 621 
f 620 652 653 
f 621 654 622 
f 621 653 654 
f 622 655 623 
f 622 654 655 
f 623 656 624 
f 623 655 656 
f 624 657 625 
f 624 656 657 
f 625 658 626 
f 625 657 658 
f 626 659 627 
f 626 658 659 
f 627 660 628 
f 627 659 660 
f 628 661 629 
f 628 660 661 
f 629 662 630 
f 629 661 662 
f 630 663 631 
f 630 662 663 
f 631 664 632 
f 631 663 664 
f 632 665 633 
f 632 664 665 
f 633 666 634 
f 633 665 666 
f 634 667 635 
f 634 666 667 
f 635 668 636 
f 635 667 668 
f 636 669 637 
f 636 668 669 
f 637 670 638 
f 637 669 670 
f 638 671 639 
f 638 670 671 
f 639 672 640 
f 639 671 672 
f 640 641 609 
f 640 672 641 
f 641 674 642 
f 641 673 674 
f 642 675 643 
f 642 674 675 
f 643 676 644 
f 643 675 676 
f 644 677 645 
f 644 676 677 
f 645 678 646 
f 645 677 678 
f 646 679 647 
f 646 678 679 
f 647 680 648 
f 647 679 680 
f 648 681 649 
f 648 680 681 
f 649 682 650 
f 649 681 682 
f 650 683 651 
f 650 682 683 
f 651 684 652 
f 651 683 684 
f 652 685 653 
f 652 684 685 
f 653 686 654 
f 653 685 686 
f 654 687 655 
f 654 686 687 
f 655 688 656 
f 655 687 688 
f 656 689 657 
f 656 688 689 
f 657 690 658 
f 657 689 690 
f 658 691 659 
f 658 690 691 
f 659 692 660 
f 659 691 692 
f 660 693 661 
f 660 692 693 
f 661 694 662 
f 661 693 694 
f 662 695 663 
f 662 694 695 
f 663 696 664 
f 663 695 696 
f 664 697 665 
f 664 696 697 
f 665 698 666 
f 665 697 698 
f 666 699 667 
f 666 698 699 
f 667 700 668 
f 667 699 700 
f 668 701 669 
f 668 700 701 
f 669 702 670 
f 669 701 702 
f 670 703 671 
f 670 702 703 
f 671 704 672 
f 671 703 704 
f 672 673 641 
f 672 704 673 
f 673 706 674 
f 673 705 706 
f 674 707 675 
f 674 706 707 
f 675 708 676 
f 675 707 708 
f 676 709 677 
f 676 708 709 
f 677 710 678 
f 677 709 710 
f 678 711 679 
f 678 710 711 
f 679 712 680 
f 679 711 712 
f 680 713 681 
f 680 712 713 
f 681 714 682 
f 681 713 714 
f 682 715 683 
f 682 714 715 
f 683 716 684 
f 683 715 716 
f 684 717 685 
f 684 716 717 
f 685 718 686 
f 685 717 718 
f 686 719 687 
f 686 718 719 
f 687 720 688 
f 687 719 720 
f 688 721 689 
f 688 720 721 
f 689 722 690 
f 689 721 722 
f 690 723 691 
f 690 722 723 
f 691 724 692 
f 691 723 724 
f 692 725 693 
f 692 724 725 
f 693 726 694 
f 693 725 726 
f 694 727 695 
f 694 726 727 
f 695 728 696 
f 695 727 728 
f 696 729 697 
f 696 728 729 
f 697 730 698 
f 697 729 730 
f 698 731 699 
f 698 730 731 
f 699 732 700 
f 699 731 732 
f 700 733 701 
f 700 732 733 
f 701 734 702 
f 701 733 734 
f 702 735 703 
f 702 734 735 
f 703 736 704 
f 703 735 736 
f 704 705 673 
f 704 736 705 
f 705 738 706 
f 705 737 738 
f 706 739 707 
f 706 738 739 
f 707 740 708 
f 707 739 740 
f 708 741 709 
f 708 740 741 
f 709 742 710 
f 709 741 742 
f 710 743 711 
f 710 742 743 
f 711 744 712 
f 711 743 744 
f 712 745 713 
f 712 744 745 
f 713 746 714 
f 713 745 746 
f 714 747 715 
f 714 746 747 
f 715 748 716 
f 715 747 748 
f 716 749 717 
f 716 748 749 
f 717 750 718 
f 717 749 750 
f 718 751 719 
f 718 750 751 
f 719 752 720 
f 719 751 752 
f 720 753 721 
f 720 752 753 
f 721 754 722 
f 721 753 754 
f 722 755 723 
f 722 754 755 
f 723 756 724 
f 723 755 756 
f 724 757 725 
f 724 756 757 
f 725 758 726 
f 725 757 758 
f 726 759 727 
f 726 758 759 
f 727 760 728 
f 727 759 760 
f 728 761 729 
f 728 760 761 
f 729 762 730 
f 729 761 762 
f 730 763 731 
f 730 762 763 
f 731 764 732 
f 731 763 764 
f 732 765 733 
f 732 764 765 
f 733 766 734 
f 733 765 766 
f 734 767 735 
f 734 766 767 
f 735 768 736 
f 735 767 768 
f 736 737 705 
f 736 768 737 
f 737 770 738 
f 737 769 770 
f 738 771 739 
f 738 770 771 
f 739 772 740 
f 739 771 772 
f 740 773 741 
f 740 772 773 
f 741 774 742 
f 741 773 774 
f 742 775 743 
f 742 774 775 
f 743 776 744 
f 743 775 776 
f 744 777 745 
f 744 776 777 
f 745 778 746 
f 745 777 778 
f 746 779 747 
f 746 778 779 
f 747 780 748 
f 747 779 780 
f 748 781 749 
f 748 780 781 
f 749 782 750 
f 749 781 782 
f 750 783 751 
f 750 782 783 
f 751 784 752 
f 751 783 784 
f 752 785 753 
f 752 784 785 
f 753 786 754 
f 753 785 786 
f 754 787 755 
f 754 786 787 
f 755 788 756 
f 755 787 788 
f 756 789 757 
f 756 788 789 
f 757 790 758 
f 757 789 790 
f 758 791 759 
f 758 790 791 
f 759 792 760 
f 759 791 792 
f 760 793 761 
f 760 792 793 
f 761 794 762 
f 761 793 794 
f 762 795 763 
f 762 794 795 
f 763 796 764 
f 763 795 796 
f 764 797 765 
f 764 796 797 
f 765 798 766 
f 765 797 798 
f 766 799 767 
f 766 798 799 
f 767 800 768 
f 767 799 800 
f 768 769 737 
f 768 800 769 
f 769 802 770 
f 769 801 802 
f 770 803 771 
f 770 802 803 
f 771 804 772 
f 771 803 804 
f 772 805 773 
f 772 804 805 
f 773 806 774 
f 773 805 806 
f 774 807 775 
f 774 806 807 
f 775 808 776 
f 775 807 808 
f 776 809 777 
f 776 808 809 
f 777 810 778 
f 777 809 810 
f 778 811 779 
f 778 810 811 
f 779 812 780 
f 779 811 812 
f 780 813 781 
f 780 812 813 
f 781 814 782 
f 781 813 814 
f 782 815 783 
f 782 814 815 
f 783 816 784 
f 783 815 816 
f 784 817 785 
f 784 816 817 
f 785 818 786 
f 785 817 818 
f 786 819 787 
f 786 818 819 
f 787 820 788 
f 787 819 820 
f 788 821 789 
f 788 820 821 
f 789 822 790 
f 789 821 822 
f 790 823 791 
f 790 822 823 
f 791 824 792 
f 791 823 824 
f 792 825 793 
f 792 824 825 
f 793 826 794 
f 793 825 826 
f 794 827 795 
f 794 826 827 
f 795 828 796 
f 795 827 828 
f 796 829 797 
f 796 828 829 
f 797 830 798 
f 797 829 830 
f 798 831 799 
f 798 830 831 
f 799 832 800 
f 799 831 832 
f 800 801 769 
f 800 832 801 
f 801 834 802 
f 801 833 834 
f 802 835 803 
f 802 834 835 
f 803 836 804 
f 803 835 836 
f 804 837 805 
f 804 836 837 
f 805 838 806 
f 805 837 838 
f 806 839 807 
f 806 838 839 
f 807 840 808 
f 807 839 840 
f 808 841 809 
f 808 840 841 
f 809 842 810 
f 809 841 842 
f 810 843 811 
f 810 842 843 
f 811 844 812 
f 811 843 844 
f 812 845 813 
f 812 844 845 
f 813 846 814 
f 813 845 846 
f 814 847 815 
f 814 846 847 
f 815 848 816 
f 815 847 848 
f 816 849 817 
f 816 848 849 
f 817 850 818 
f 817 849 850 
f 818 851 819 
f 818 850 851 
f 819 852 820 
f 819 851 852 
f 820 853 821 
f 820 852 853 
f 821 854 822 
f 821 853 854 
f 822 855 823 
f 822 854 855 
f 823 856 824 
f 823 855 856 
f 824 857 825 
f 824 856 857 
f 825 858 826 
f 825 857 858 
f 826 859 827 
f 826 858 859 
f 827 860 828 
f 827 859 860 
f 828 861 829 
f 828 860 861 
f 829 862 830 
f 829 861 862 
f 830 863 831 
f 830 862 863 
f 831 864 832 
f 831 863 864 
f 832 833 801 
f 832 864 833 
f 833 866 834 
f 833 865 866 
f 834 867 835 
f 834 866 867 
f 835 868 836 
f 835 867 868 
f 836 869 837 
f 836 868 869 
f 837 870 838 
f 837 869 870 
f 838 871 839 
f 838 870 871 
f 839 872 840 
f 839 871 872 
f 840 873 841 
f 840 872 873 
f 841 874 842 
f 841 873 874 
f 842 875 843 
f 842 874 875 
f 843 876 844 
f 843 875 876 
f 844 877 845 
f 844 876 877 
f 845 878 846 
f 845 877 878 
f 846 879 847 
f 846 878 879 
f 847 880 848 
f 847 879 880 
f 848 881 849 
f 848 880 881 
f 849 882 850 
f 849 881 882 
f 850 883 851 
f 850 882 883 
f 851 884 852 
f 851 883 884 
f 852 885 853 
f 852 884 885 
f 853 886 854 
f 853 885 886 
f 854 887 855 
f 854 886 887 
f 855 888 856 
f 855 887 888 
f 856 889 857 
f 856 888 889 
f 857 890 858 
f 857 889 890 
f 858 891 859 
f 858 890 891 
f 859 892 860 
f 859 891 892 
f 860 893 861 
f 860 892 893 
f 861 894 862 
f 861 893 894 
f 862 895 863 
f 862 894 895 
f 863 896 864 
f 863 895 896 
f 864 865 833 
f 864 896 865 
f 865 898 866 
f 865 897 898 
f 866 899 867 
f 866 898 899 
f 867 900 868 
f 867 899 900 
f 868 901 869 
f 868 900 901 
f 869 902 870 
f 869 901 902 
f 870 903 871 
f 870 902 903 
f 871 904 872 
f 871 903 904 
f 872 905 873 
f 872 904 905 
f 873 906 874 
f 873 905 906 
f 874 907 875 
f 874 906 907 
f 875 908 876 
f 875 907 908 
f 876 909 877 
f 876 908 909 
f 877 910 878 
f 877 909 910 
f 878 911 879 
f 878 910 911 
f 879 912 880 
f 879 911 912 
f 880 913 881 
f 880 912 913 
f 881 914 882 
f 881 913 914 
f 882 915 883 
f 882 914 915 
f 883 916 884 
f 883 915 916 
f 884 917 885 
f 884 916 917 
f 885 918 886 
f 885 917 918 
f 886 919 887 
f 886 918 919 
f 887 920 888 
f 887 919 920 
f 888 921 889 
f 888 920 921 
f 889 922 890 
f 889 921 922 
f 890 923 891 
f 890 922 923 
f 891 924 892 
f 891 923 924 
f 892 925 893 
f 892 924 925 
f 893 926 894 
f 893 925 926 
f 894 927 895 
f 894 926 927 
f 895 928 896 
f 895 927 928 
f 896 897 865 
f 896 928 897 
f 897 930 898 
f 897 929 930 
f 898 931 899 
f 898 930 931 
f 899 932 900 
f 899 931 932 
f 900 933 901 
f 900 932 933 
f 901 934 902 
f 901 933 934 
f 902 935 903 
f 902 934 935 
f 903 936 904 
f 903 935 936 
f 904 937 905 
f 904 936 937 
f 905 938 906 
f 905 937 938 
f 906 939 907 
f 906 938 939 
f 907 940 908 
f 907 939 940 
f 908 941 909 
f 908 940 941 
f 909 942 910 
f 909 941 942 
f 910 943 911 
f 910 942 943 
f 911 944 912 
f 911 943 944 
f 912 945 913 
f 912 944 945 
f 913 946 914 
f 913 945 946 
f 914 947 915 
f 914 946 947 
f 915 948 916 
f 915 947 948 
f 916 949 917 
f 916 948 949 
f 917 950 918 
f 917 949 950 
f 918 951 919 
f 918 950 951 
f 919 952 920 
f 919 951 952 
f 920 953 921 
f 920 952 953 
f 921 954 922 
f 921 953 954 
f 922 955 923 
f 922 954 955 
f 923 956 924 
f 923 955 956 
f 924 957 925 
f 924 956 957 
f 925 958 926 
f 925 957 958 
f 926 959 927 
f 926 958 959 
f 927 960 928 
f 927 959 960 
f 928 929 897 
f 928 960 929 
f 929 962 930 
f 929 961 962 
f 930 963 931 
f 930 962 963 
f 931 964 932 
f 931 963 964 
f 932 965 933 
f 932 964 965 
f 933 966 934 
f 933 965 966 
f 934 967 935 
f 934 966 967 
f 935 968 936 
f 935 967 968 
f 936 969 937 
f 936 968 969 
f 937 970 938 
f 937 969 970 
f 938 971 939 
f 938 970 971 
f 939 972 940 
f 939 971 972 
f 940 973 941 
f 940 972 973 
f 941 974 942 
f 941 973 974 
f 942 975 943 
f 942 974 975 
f 943 976 944 
f 943 975 976 
f 944 977 945 
f 944 976 977 
f 945 978 946 
f 945 977 978 
f 946 979 947 
f 946 978 979 
f 947 980 948 
f 947 979 980 
f 948 981 949 
f 948 980 981 
f 949 982 950 
f 949 981 982 
f 950 983 951 
f 950 982 983 
f 951 984 952 
f 951 983 984 
f 952 985 953 
f 952 984 985 
f 953 986 954 
f 953 985 986 
f 954 987 955 
f 954 986 987 
f 955 988 956 
f 955 987 988 
f 956 989 957 
f 956 988 989 
f 957 990 958 
f 957 989 990 
f 958 991 959 
f 958 990 991 
f 959 992 960 
f 959 991 992 
f 960 961 929 
f 960 992 961 
f 961 994 962 
f 961 993 994 
f 962 995 963 
f 962 994 995 
f 963 996 964 
f 963 995 996 
f 964 997 965 
f 964 996 997 
f 965 998 966 
f 965 997 998 
f 966 999 967 
f 966 998 999 
f 967 1000 968 
f 967 999 1000 
f 968 1001 969 
f 968 1000 1001 
f 969 1002 970 
f 969 1001 1002 
f 970 1003 971 
f 970 1002 1003 
f 971 1004 972 
f 971 1003 1004 
f 972 1005 973 
f 972 1004 1005 
f 973 1006 974 
f 973 1005 1006 
f 974 1007 975 
f 974 1006 1007 
f 975 1008 976 
f 975 1007 1008 
f 976 1009 977 
f 976 1008 1009 
f 977 1010 978 
f 977 1009 1010 
f 978 1011 979 
f 978 1010 1011 
f 979 1012 980 
f 979 1011 1012 
f 980 1013 981 
f 980 1012 1013 
f 981 1014 982 
f 981 1013 1014 
f 982 1015 983 
f 982 1014 1015 
f 983 1016 984 
f 983 1015 1016 
f 984 1017 985 
f 984 1016 1017 
f 985 1018 986 
f 985 1017 1018 
f 986 1019 987 
f 986 1018 1019 
f 987 1020 988 
f 987 1019 1020 
f 988 1021 989 
f 988 1020 1021 
f 989 1022 990 
f 989 1021 1022 
f 990 1023 991 
f 990 1022 1023 
f 991 1024 992 
f 991 1023 1024 
f 992 993 961 
f 992 1024 993 
f 993 1026 994 
f 993 1025 1026 
f 994 1027 995 
f 994 1026 1027 
f 995 1028 996 
f 995 1027 1028 
f 996 1029 997 
f 996 1028 1029 
f 997 1030 998 
f 997 1029 1030 
f 998 1031 999 
f 998 1030 1031 
f 999 1032 1000 
f 999 1031 1032 
f 1000 1033 1001 
f 1000 1032 1033 
f 1001 1034 1002 
f 1001 1033 1034 
f 1002 1035 1003 
f 1002 1034 1035 
f 1003 1036 1004 
f 1003 1035 1036 
f 1004 1037 1005 
f 1004 1036 1037 
f 1005 1038 1006 
f 1005 1037 1038 
f 1006 1039 1007 
f 1006 1038 1039 
f 1007 1040 1008 
f 1007 1039 1040 
f 1008 1041 1009 
f 1008 1040 1041 
f 1009 1042 1010 
f 1009 1041 1042 
f 1010 1043 1011 
f 1010 1042 1043 
f 1011 1044 1012 
f 1011 1043 1044 
f 1012 1045 1013 
f 1012 1044 1045 
f 1013 1046 1014 
f 1013 1045 1046 
f 1014 1047 1015 
f 1014 1046 1047 
f 1015 1048 1016 
f 1015 1047 1048 
f 1016 1049 1017 
f 1016 1048 1049 
f 1017 1050 1018 
f 1017 1049 1050 
f 1018 1051 1019 
f 1018 1050 1051 
f 1019 1052 1020 
f 1019 1051 1052 
f 1020 1053 1021 
f 1020 1052 1053 
f 1021 1054 1022 
f 1021 1053 1054 
f 1022 1055 1023 
f 1022 1054 1055 
f 1023 1056 1024 
f 1023 1055 1056 
f 1024 1025 993 
f 1024 1056 1025 
f 1025 1058 1026 
f 1025 1057 1058 
f 1026 1059 1027 
f 1026 1058 1059 
f 1027 1060 1028 
f 1027 1059 1060 
f 1028 1061 1029 
f 1028 1060 1061 
f 1029 1062 1030 
f 1029 1061 1062 
f 1030 1063 1031 
f 1030 1062 1063 
f 1031 1064 1032 
f 1031 1063 1064 
f 1032 1065 1033 
f 1032 1064 1065 
f 1033 1066 1034 
f 1033 1065 1066 
f 1034 1067 1035 
f 1034 1066 1067 
f 1035 1068 1036 
f 1035 1067 1068 
f 1036 1069 1037 
f 1036 1068 1069 
f 1037 1070 1038 
f 1037 1069 1070 
f 1038 1071 1039 
f 1038 1070 1071 
f 1039 1072 1040 
f 1039 1071 1072 
f 1040 1073 1041 
f 1040 1072 1073 
f 1041 1074 1042 
f 1041 1073 1074 
f 1042 1075 1043 
f 1042 1074 1075 
f 1043 1076 1044 
f 1043 1075 1076 
f 1044 1077 1045 
f 1044 1076 1077 
f 1045 1078 1046 
f 1045 1077 1078 
f 1046 1079 1047 
f 1046 1078 1079 
f 1047 1080 1048 
f 1047 1079 1080 
f 1048 1081 1049 
f 1048 1080 1081 
f 1049 1082 1050 
f 1049 1081 1082 
f 1050 1083 1051 
f 1050 1082 1083 
f 1051 1084 1052 
f 1051 1083 1084 
f 1052 1085 1053 
f 1052 1084 1085 
f 1053 1086 1054 
f 1053 1085 1086 
f 1054 1087 1055 
f 1054 1086 1087 
f 1055 1088 1056 
f 1055 1087 1088 
f 1056 1057 1025 
f 1056 1088 1057 
f 1057 1090 1058 
f 1057 1089 1090 
f 1058 1091 1059 
f 1058 1090 1091 
f 1059 1092 1060 
f 1059 1091 1092 
f 1060 1093 1061 
f 1060 1092 1093 
f 1061 1094 1062 
f 1061 1093 1094 
f 1062 1095 1063 
f 1062 1094 1095 
f 1063 1096 1064 
f 1063 1095 1096 
f 1064 1097 1065 
f 1064 1096 1097 
f 1065 1098 1066 
f 1065 1097 1098 
f 1066 1099 1067 
f 1066 1098 1099 
f 1067 1100 1068 
f 1067 1099 1100 
f 1068 1101 1069 
f 1068 1100 1101 
f 1069 1102 1070 
f 1069 1101 1102 
f 1070 1103 1071 
f 1070 1102 1103 
f 1071 1104 1072 
f 1071 1103 1104 
f 1072 1105 1073 
f 1072 1104 1105 
f 1073 1106 1074 
f 1073 1105 1106 
f 1074 1107 1075 
f 1074 1106 1107 
f 1075 1108 1076 
f 1075 1107 1108 
f 1076 1109 1077 
f 1076 1108 1109 
f 1077 1110 1078 
f 1077 1109 1110 
f 1078 1111 1079 
f 1078 1110 1111 
f 1079 1112 1080 
f 1079 1111 1112 
f 1080 1113 1081 
f 1080 1112 1113 
f 1081 1114 1082 
f 1081 1113 1114 
f 1082 1115 1083 
f 1082 1114 1115 
f 1083 1116 1084 
f 1083 1115 1116 
f 1084 1117 1085 
f 1084 1116 1117 
f 1085 1118 1086 
f 1085 1117 1118 
f 1086 1119 1087 
f 1086 1118 1119 
f 1087 1120 1088 
f 1087 1119 1120 
f 1088 1089 1057 
f 1088 1120 1089 
f 1089 1122 1090 
f 1089 1121 1122 
f 1090 1123 1091 
f 1090 1122 1123 
f 1091 1124 1092 
f 1091 1123 1124 
f 1092 1125 1093 
f 1092 1124 1125 
f 1093 1126 1094 
f 1093 1125 1126 
f 1094 1127 1095 
f 1094 1126 1127 
f 1095 1128 1096 
f 1095 1127 1128 
f 1096 1129 1097 
f 1096 1128 1129 
f 1097 1130 1098 
f 1097 1129 1130 
f 1098 1131 1099 
f 1098 1130 1131 
f 1099 1132 1100 
f 1099 1131 1132 
f 1100 1133 1101 
f 1100 1132 1133 
f 1101 1134 1102 
f 1101 1133 1134 
f 1102 1135 1103 
f 1102 1134 1135 
f 1103 1136 1104 
f 1103 1135 1136 
f 1104 1137 1105 
f 1104 1136 1137 
f 1105 1138 1106 
f 1105 1137 1138 
f 1106 1139 1107 
f 1106 1138 1139 
f 1107 1140 1108 
f 1107 1139 1140 
f 1108 1141 1109 
f 1108 1140 1141 
f 1109 1142 1110 
f 1109 1141 1142 
f 1110 1143 1111 
f 1110 1142 1143 
f 1111 1144 1112 
f 1111 1143 1144 
f 1112 1145 1113 
f 1112 1144 1145 
f 1113 1146 1114 
f 1113 1145 1146 
f 1114 1147 1115 
f 1114 1146 1147 
f 1115 1148 1116 
f 1115 1147 1148 
f 1116 1149 1117 
f 1116 1148 1149 
f 1117 1150 1118 
f 1117 1149 1150 
f 1118 1151 1119 
f 1118 1150 1151 
f 1119 1152 1120 
f 1119 1151 1152 
f 1120 1121 1089 
f 1120 1152 1121 
f 1121 1154 1122 
f 1121 1153 1154 
f 1122 1155 1123 
f 1122 1154 1155 
f 1123 1156 1124 
f 1123 1155 1156 
f 1124 1157 1125 
f 1124 1156 1157 
f 1125 1158 1126 
f 1125 1157 1158 
f 1126 1159 1127 
f 1126 1158 1159 
f 1127 1160 1128 
f 1127 1159 1160 
f 1128 1161 1129 
f 1128 1160 1161 
f 1129 1162 1130 
f 1129 1161 1162 
f 1130 1163 1131 
f 1130 1162 1163 
f 1131 1164 1132 
f 1131 1163 1164 
f 1132 1165 1133 
f 1132 1164 1165 
f 1133 1166 1134 
f 1133 1165 1166 
f 1134 1167 1135 
f 1134 1166 1167 
f 1135 1168 1136 
f 1135 1167 1168 
f 1136 1169 1137 
f 1136 1168 1169 
f 1137 1170 1138 
f 1137 1169 1170 
f 1138 1171 1139 
f 1138 1170 1171 
f 1139 1172 1140 
f 1139 1171 1172 
f 1140 1173 1141 
f 1140 1172 1173 
f 1141 1174 1142 
f 1141 1173 1174 
f 1142 1175 1143 
f 1142 1174 1175 
f 1143 1176 1144 
f 1143 1175 1176 
f 1144 1177 1145 
f 1144 1176 1177 
f 1145 1178 1146 
f 1145 1177 1178 
f 1146 1179 1147 
f 1146 1178 1179 
f 1147 1180 1148 
f 1147 1179 1180 
f 1148 1181 1149 
f 1148 1180 1181 
f 1149 1182 1150 
f 1149 1181 1182 
f 1150 1183 1151 
f 1150 1182 1183 
f 1151 1184 1152 
f 1151 1183 1184 
f 1152 1153 1121 
f 1152 1184 1153 
f 1153 1186 1154 
f 1153 1185 1186 
f 1154 1187 1155 
f 1154 1186 1187 
f 1155 1188 1156 
f 1155 1187 1188 
f 1156 1189 1157 
f 1156 1188 1189 
f 1157 1190 1158 
f 1157 1189 1190 
f 1158 1191 1159 
f 1158 1190 1191 
f 1159 1192 1160 
f 1159 1191 1192 
f 1160 1193 1161 
f 1160 1192 1193 
f 1161 1194 1162 
f 1161 1193 1194 
f 1162 1195 1163 
f 1162 1194 1195 
f 1163 1196 1164 
f 1163 1195 1196 
f 1164 1197 1165 
f 1164 1196 1197 
f 1165 1198 1166 
f 1165 1197 1198 
f 1166 1199 1167 
f 1166 1198 1199 
f 1167 1200 1168 
f 1167 1199 1200 
f 1168 1201 1169 
f 1168 1200 1201 
f 1169 1202 1170 
f 1169 1201 1202 
f 1170 1203 1171 
f 1170 1202 1203 
f 1171 1204 1172 
f 1171 1203 1204 
f 1172 1205 1173 
f 1172 1204 1205 
f 1173 1206 1174 
f 1173 1205 1206 
f 1174 1207 1175 
f 1174 1206 1207 
f 1175 1208 1176 
f 1175 1207 1208 
f 1176 1209 1177 
f 1176 1208 1209 
f 1177 1210 1178 
f 1177 1209 1210 
f 1178 1211 1179 
f 1178 1210 1211 
f 1179 1212 1180 
f 1179 1211 1212 
f 1180 1213 1181 
f 1180 1212 1213 
f 1181 1214 1182 
f 1181 1213 1214 
f 1182 1215 1183 
f 1182 1214 1215 
f 1183 1216 1184 
f 1183 1215 1216 
f 1184 1185 1153 
f 1184 1216 1185 
f 1185 1218 1186 
f 1185 1217 1218 
f 1186 1219 1187 
f 1186 1218 1219 
f 1187 1220 1188 
f 1187 1219 1220 
f 1188 1221 1189 
f 1188 1220 1221 
f 1189 1222 1190 
f 1189 1221 1222 
f 1190 1223 1191 
f 1190 1222 1223 
f 1191 1224 1192 
f 1191 1223 1224 
f 1192 1225 1193 
f 1192 1224 1225 
f 1193 1226 1194 
f 1193 1225 1226 
f 1194 1227 1195 
f 1194 1226 1227 
f 1195 1228 1196 
f 1195 1227 1228 
f 1196 1229 1197 
f 1196 1228 1229 
f 1197 1230 1198 
f 1197 1229 1230 
f 1198 1231 1199 
f 1198 1230 1231 
f 1199 1232 1200 
f 1199 1231 1232 
f 1200 1233 1201 
f 1200 1232 1233 
f 1201 1234 1202 
f 1201 1233 1234 
f 1202 1235 1203 
f 1202 1234 1235 
f 1203 1236 1204 
f 1203 1235 1236 
f 1204 1237 1205 
f 1204 1236 1237 
f 1205 1238 1206 
f 1205 1237 1238 
f 1206 1239 1207 
f 1206 1238 1239 
f 1207 1240 1208 
f 1207 1239 1240 
f 1208 1241 1209 
f 1208 1240 1241 
f 1209 1242 1210 
f 1209 1241 1242 
f 1210 1243 1211 
f 1210 1242 1243 
f 1211 1244 1212 
f 1211 1243 1244 
f 1212 1245 1213 
f 1212 1244 1245 
f 1213 1246 1214 
f 1213 1245 1246 
f 1214 1247 1215 
f 1214 1246 1247 
f 1215 1248 1216 
f 1215 1247 1248 
f 1216 1217 1185 
f 1216 1248 1217 
f 1217 1250 1218 
f 1217 1249 1250 
f 1218 1251 1219 
f 1218 1250 1251 
f 1219 1252 1220 
f 1219 1251 1252 
f 1220 1253 1221 
f 1220 1252 1253 
f 1221 1254 1222 
f 1221 1253 1254 
f 1222 1255 1223 
f 1222 1254 1255 
f 1223 1256 1224 
f 1223 1255 1256 
f 1224 1257 1225 
f 1224 1256 1257 
f 1225 1258 1226 
f 1225 1257 1258 
f 1226 1259 1227 
f 1226 1258 1259 
f 1227 1260 1228 
f 1227 1259 1260 
f 1228 1261 1229 
f 1228 1260 1261 
f 1229 1262 1230 
f 1229 1261 1262 
f 1230 1263 1231 
f 1230 1262 1263 
f 1231 1264 1232 
f 1231 1263 1264 
f 1232 1265 1233 
f 1232 1264 1265 
f 1233 1266 1234 
f 1233 1265 1266 
f 1234 1267 1235 
f 1234 1266 1267 
f 1235 1268 1236 
f 1235 1267 1268 
f 1236 1269 1237 
f 1236 1268 1269 
f 1237 1270 1238 
f 1237 1269 1270 
f 1238 1271 1239 
f 1238 1270 1271 
f 1239 1272 1240 
f 1239 1271 1272 
f 1240 1273 1241 
f 1240 1272 1273 
f 1241 1274 1242 
f 1241 1273 1274 
f 1242 1275 1243 
f 1242 1274 1275 
f 1243 1276 1244 
f 1243 1275 1276 
f 1244 1277 1245 
f 1244 1276 1277 
f 1245 1278 1246 
f 1245 1277 1278 
f 1246 1279 1247 
f 1246 1278 1279 
f 1247 1280 1248 
f 1247 1279 1280 
f 1248 1249 1217 
f 1248 1280 1249 
f 1249 1282 1250 
f 1249 1281 1282 
f 1250 1283 1251 
f 1250 1282 1283 
f 1251 1284 1252 
f 1251 1283 1284 
f 1252 1285 1253 
f 1252 1284 1285 
f 1253 1286 1254 
f 1253 1285 1286 
f 1254 1287 1255 
f 1254 1286 1287 
f 1255 1288 1256 
f 1255 1287 1288 
f 1256 1289 1257 
f 1256 1288 1289 
f 1257 1290 1258 
f 1257 1289 1290 
f 1258 1291 1259 
f 1258 1290 1291 
f 1259 1292 1260 
f 1259 1291 1292 
f 1260 1293 1261 
f 1260 1292 1293 
f 1261 1294 1262 
f 1261 1293 1294 
f 1262 1295 1263 
f 1262 1294 1295 
f 1263 1296 1264 
f 1263 1295 1296 
f 1264 1297 1265 
f 1264 1296 1297 
f 1265 1298 1266 
f 1265 1297 1298 
f 1266 1299 1267 
f 1266 1298 1299 
f 1267 1300 1268 
f 1267 1299 1300 
f 1268 1301 1269 
f 1268 1300 1301 
f 1269 1302 1270 
f 1269 1301 1302 
f 1270 1303 1271 
f 1270 1302 1303 
f 1271 1304 1272 
f 1271 1303 1304 
f 1272 1305 1273 
f 1272 1304 1305 
f 1273 1306 1274 
f 1273 1305 1306 
f 1274 1307 1275 
f 1274 1306 1307 
f 1275 1308 1276 
f 1275 1307 1308 
f 1276 1309 1277 
f 1276 1308 1309 
f 1277 1310 1278 
f 1277 1309 1310 
f 1278 1311 1279 
f 1278 1310 1311 
f 1279 1312 1280 
f 1279 1311 1312 
f 1280 1281 1249 
f 1280 1312 1281 
f 1281 1314 1282 
f 1281 1313 1314 
f 1282 1315 1283 
f 1282 1314 1315 
f 1283 1316 1284 
f 1283 1315 1316 
f 1284 1317 1285 
f 1284 1316 1317 
f 1285 1318 1286 
f 1285 1317 1318 
f 1286 1319 1287 
f 1286 1318 1319 
f 1287 1320 1288 
f 1287 1319 1320 
f 1288 1321 1289 
f 1288 1320 1321 
f 1289 1322 1290 
f 1289 1321 1322 
f 1290 1323 1291 
f 1290 1322 1323 
f 1291 1324 1292 
f 1291 1323 1324 
f 1292 1325 1293 
f 1292 1324 1325 
f 1293 1326 1294 
f 1293 1325 1326 
f 1294 1327 1295 
f 1294 1326 1327 
f 1295 1328 1296 
f 1295 1327 1328 
f 1296 1329 1297 
f 1296 1328 1329 
f 1297 1330 1298 
f 1297 1329 1330 
f 1298 1331 1299 
f 1298 1330 1331 
f 1299 1332 1300 
f 1299 1331 1332 
f 1300 1333 1301 
f 1300 1332 1333 
f 1301 1334 1302 
f 1301 1333 1334 
f 1302 1335 1303 
f 1302 1334 1335 
f 1303 1336 1304 
f 1303 1335 1336 
f 1304 1337 1305 
f 1304 1336 1337 
f 1305 1338 1306 
f 1305 1337 1338 
f 1306 1339 1307 
f 1306 1338 1339 
f 1307 1340 1308 
f 1307 1339 1340 
f 1308 1341 1309 
f 1308 1340 1341 
f 1309 1342 1310 
f 1309 1341 1342 
f 1310 1343 1311 
f 1310 1342 1343 
f 1311 1344 1312 
f 1311 1343 1344 
f 1312 1313 1281 
f 1312 1344 1313 
f 1313 1346 1314 
f 1313 1345 1346 
f 1314 1347 1315 
f 1314 1346 1347 
f 1315 1348 1316 
f 1315 1347 1348 
f 1316 1349 1317 
f 1316 1348 1349 
f 1317 1350 1318 
f 1317 1349 1350 
f 1318 1351 1319 
f 1318 1350 1351 
f 1319 1352 1320 
f 1319 1351 1352 
f 1320 1353 1321 
f 1320 1352 1353 
f 1321 1354 1322 
f 1321 1353 1354 
f 1322 1355 1323 
f 1322 1354 1355 
f 1323 1356 1324 
f 1323 1355 1356 
f 1324 1357 1325 
f 1324 1356 1357 
f 1325 1358 1326 
f 1325 1357 1358 
f 1326 1359 1327 
f 1326 1358 1359 
f 1327 1360 1328 
f 1327 1359 1360 
f 1328 1361 1329 
f 1328 1360 1361 
f 1329 1362 1330 
f 1329 1361 1362 
f 1330 1363 1331 
f 1330 1362 1363 
f 1331 1364 1332 
f 1331 1363 1364 
f 1332 1365 1333 
f 1332 1364 1365 
f 1333 1366 1334 
f 1333 1365 1366 
f 1334 1367 1335 
f 1334 1366 1367 
f 1335 1368 1336 
f 1335 1367 1368 
f 1336 1369 1337 
f 1336 1368 1369 
f 1337 1370 1338 
f 1337 1369 1370 
f 1338 1371 1339 
f 1338 1370 1371 
f 1339 1372 1340 
f 1339 1371 1372 
f 1340 1373 1341 
f 1340 1372 1373 
f 1341 1374 1342 
f 1341 1373 1374 
f 1342 1375 1343 
f 1342 1374 1375 
f 1343 1376 1344 
f 1343 1375 1376 
f 1344 1345 1313 
f 1344 1376 1345 
f 1345 1378 1346 
f 1345 1377 1378 
f 1346 1379 1347 
f 1346 1378 1379 
f 1347 1380 1348 
f 1347 1379 1380 
f 1348 1381 1349 
f 1348 1380 1381 
f 1349 1382 1350 
f 1349 1381 1382 
f 1350 1383 1351 
f 1350 1382 1383 
f 1351 1384 1352 
f 1351 1383 1384 
f 1352 1385 1353 
f 1352 1384 1385 
f 1353 1386 1354 
f 1353 1385 1386 
f 1354 1387 1355 
f 1354 1386 1387 
f 1355 1388 1356 
f 1355 1387 1388 
f 1356 1389 1357 
f 1356 1388 1389 
f 1357 1390 1358 
f 1357 1389 1390 
f 1358 1391 1359 
f 1358 1390 1391 
f 1359 1392 1360 
f 1359 1391 1392 
f 1360 1393 1361 
f 1360 1392 1393 
f 1361 1394 1362 
f 1361 1393 1394 
f 1362 1395 1363 
f 1362 1394 1395 
f 1363 1396 1364 
f 1363 1395 1396 
f 1364 1397 1365 
f 1364 1396 1397 
f 1365 1398 1366 
f 1365 1397 1398 
f 1366 1399 1367 
f 1366 1398 1399 
f 1367 1400 1368 
f 1367 1399 1400 
f 1368 1401 1369 
f 1368 1400 1401 
f 1369 1402 1370 
f 1369 1401 1402 
f 1370 1403 1371 
f 1370 1402 1403 
f 1371 1404 1372 
f 1371 1403 1404 
f 1372 1405 1373 
f 1372 1404 1405 
f 1373 1406 1374 
f 1373 1405 1406 
f 1374 1407 1375 
f 1374 1406 1407 
f 1375 1408 1376 
f 1375 1407 1408 
f 1376 1377 1345 
f 1376 1408 1377 
f 1377 1410 1378 
f 1377 1409 1410 
f 1378 1411 1379 
f 1378 1410 1411 
f 1379 1412 1380 
f 1379 1411 1412 
f 1380 1413 1381 
f 1380 1412 1413 
f 1381 1414 1382 
f 1381 1413 1414 
f 1382 1415 1383 
f 1382 1414 1415 
f 1383 1416 1384 
f 1383 1415 1416 
f 1384 1417 1385 
f 1384 1416 1417 
f 1385 1418 1386 
f 1385 1417 1418 
f 1386 1419 1387 
f 1386 1418 1419 
f 1387 1420 1388 
f 1387 1419 1420 
f 1388 1421 1389 
f 1388 1420 1421 
f 1389 1422 1390 
f 1389 1421 1422 
f 1390 1423 1391 
f 1390 1422 1423 
f 1391 1424 1392 
f 1391 1423 1424 
f 1392 1425 1393 
f 1392 1424 1425 
f 1393 1426 1394 
f 1393 1425 1426 
f 1394 1427 1395 
f 1394 1426 1427 
f 1395 1428 1396 
f 1395 1427 1428 
f 1396 1429 1397 
f 1396 1428 1429 
f 1397 1430 1398 
f 1397 1429 1430 
f 1398 1431 1399 
f 1398 1430 1431 
f 1399 1432 1400 
f 1399 1431 1432 
f 1400 1433 1401 
f 1400 1432 1433 
f 1401 1434 1402 
f 1401 1433 1434 
f 1402 1435 1403 
f 1402 1434 1435 
f 1403 1436 1404 
f 1403 1435 1436 
f 1404 1437 1405 
f 1404 1436 1437 
f 1405 1438 1406 
f 1405 1437 1438 
f 1406 1439 1407 
f 1406 1438 1439 
f 1407 1440 1408 
f 1407 1439 1440 
f 1408 1409 1377 
f 1408 1440 1409 
f 1409 1442 1410 
f 1409 1441 1442 
f 1410 1443 1411 
f 1410 1442 1443 
f 1411 1444 1412 
f 1411 1443 1444 
f 1412 1445 1413 
f 1412 1444 1445 
f 1413 1446 1414 
f 1413 1445 1446 
f 1414 1447 1415 
f 1414 1446 1447 
f 1415 1448 1416 
f 1415 1447 1448 
f 1416 1449 1417 
f 1416 1448 1449 
f 1417 1450 1418 
f 1417 1449 1450 
f 1418 1451 1419 
f 1418 1450 1451 
f 1419 1452 1420 
f 1419 1451 1452 
f 1420 1453 1421 
f 1420 1452 1453 
f 1421 1454 1422 
f 1421 1453 1454 
f 1422 1455 1423 
f 1422 1454 1455 
f 1423 1456 1424 
f 1423 1455 1456 
f 1424 1457 1425 
f 1424 1456 1457 
f 1425 1458 1426 
f 1425 1457 1458 
f 1426 1459 1427 
f 1426 1458 1459 
f 1427 1460 1428 
f 1427 1459 1460 
f 1428 1461 1429 
f 1428 1460 1461 
f 1429 1462 1430 
f 1429 1461 1462 
f 1430 1463 1431 
f 1430 1462 1463 
f 1431 1464 1432 
f 1431 1463 1464 
f 1432 1465 1433 
f 1432 1464 1465 
f 1433 1466 1434 
f 1433 1465 1466 
f 1434 1467 1435 
f 1434 1466 1467 
f 1435 1468 1436 
f 1435 1467 1468 
f 1436 1469 1437 
f 1436 1468 1469 
f 1437 1470 1438 
f 1437 1469 1470 
f 1438 1471 1439 
f 1438 1470 1471 
f 1439 1472 1440 
f 1439 1471 1472 
f 1440 1441 1409 
f 1440 1472 1441 
f 1441 1474 1442 
f 1441 1473 1474 
f 1442 1475 1443 
f 1442 1474 1475 
f 1443 1476 1444 
f 1443 1475 1476 
f 1444 1477 1445 
f 1444 1476 1477 
f 1445 1478 1446 
f 1445 1477 1478 
f 1446 1479 1447 
f 1446 1478 1479 
f 1447 1480 1448 
f 1447 1479 1480 
f 1448 1481 1449 
f 1448 1480 1481 
f 1449 1482 1450 
f 1449 1481 1482 
f 1450 1483 1451 
f 1450 1482 1483 
f 1451 1484 1452 
f 1451 1483 1484 
f 1452 1485 1453 
f 1452 1484 1485 
f 1453 1486 1454 
f 1453 1485 1486 
f 1454 1487 1455 
f 1454 1486 1487 
f 1455 1488 1456 
f 1455 1487 1488 
f 1456 1489 1457 
f 1456 1488 1489 
f 1457 1490 1458 
f 1457 1489 1490 
f 1458 1491 1459 
f 1458 1490 1491 
f 1459 1492 1460 
f 1459 1491 1492 
f 1460 1493 1461 
f 1460 1492 1493 
f 1461 1494 1462 
f 1461 1493 1494 
f 1462 1495 1463 
f 1462 1494 1495 
f 1463 1496 1464 
f 1463 1495 1496 
f 1464 1497 1465 
f 1464 1496 1497 
f 1465 1498 1466 
f 1465 1497 1498 
f 1466 1499 1467 
f 1466 1498 1499 
f 1467 1500 1468 
f 1467 1499 1500 
f 1468 1501 1469 
f 1468 1500 1501 
f 1469 1502 1470 
f 1469 1501 1502 
f 1470 1503 1471 
f 1470 1502 1503 
f 1471 1504 1472 
f 1471 1503 1504 
f 1472 1473 1441 
f 1472 1504 1473 
f 1473 1506 1474 
f 1473 1505 1506 
f 1474 1507 1475 
f 1474 1506 1507 
f 1475 1508 1476 
f 1475 1507 1508 
f 1476 1509 1477 
f 1476 1508 1509 
f 1477 1510 1478 
f 1477 1509 1510 
f 1478 1511 1479 
f 1478 1510 1511 
f 1479 1512 1480 
f 1479 1511 1512 
f 1480 1513 1481 
f 1480 1512 1513 
f 1481 1514 1482 
f 1481 1513 1514 
f 1482 1515 1483 
f 1482 1514 1515 
f 1483 1516 1484 
f 1483 1515 1516 
f 1484 1517 1485 
f 1484 1516 1517 
f 1485 1518 1486 
f 1485 1517 1518 
f 1486 1519 1487 
f 1486 1518 1519 
f 1487 1520 1488 
f 1487 1519 1520 
f 1488 1521 1489 
f 1488 1520 1521 
f 1489 1522 1490 
f 1489 1521 1522 
f 1490 1523 1491 
f 1490 1522 1523 
f 1491 1524 1492 
f 1491 1523 1524 
f 1492 1525 1493 
f 1492 1524 1525 
f 1493 1526 1494 
f 1493 1525 1526 
f 1494 1527 1495 
f 1494 1526 1527 
f 1495 1528 1496 
f 1495 1527 1528 
f 1496 1529 1497 
f 1496 1528 1529 
f 1497 1530 1498 
f 1497 1529 1530 
f 1498 1531 1499 
f 1498 1530 1531 
f 1499 1532 1500 
f 1499 1531 1532 
f 1500 1533 1501 
f 1500 1532 1533 
f 1501 1534 1502 
f 1501 1533 1534 
f 1502 1535 1503 
f 1502 1534 1535 
f 1503 1536 1504 
f 1503 1535 1536 
f 1504 1505 1473 
f 1504 1536 1505 
